<svg width="467" height="508" viewBox="0 0 467 508" fill="none" xmlns="http://www.w3.org/2000/svg">
<path d="M283.909 485.784C283.909 497.67 252.889 507.305 214.624 507.305C176.36 507.305 145.34 497.67 145.34 485.784C145.34 473.899 176.36 464.263 214.624 464.263C252.889 464.263 283.909 473.899 283.909 485.784Z" fill="#B6C7D2"/>
<path d="M342.646 133.064L343.107 174.69L364.57 156.443L342.646 133.064Z" fill="#E20C0C"/>
<path d="M283.234 60.1741L371.463 95.8043C371.463 95.8043 380.501 93.3228 377.296 111.398C374.092 129.473 364.571 156.444 364.571 156.444L275.626 134.373L283.234 60.1741Z" fill="#FF2222"/>
<path d="M356.939 118.852C356.939 118.852 378.173 148.977 411.048 157.8C443.924 166.624 466.863 166.931 466.863 166.931C466.863 166.931 467.209 183.326 423.659 186.357C380.109 189.39 343.107 174.69 343.107 174.69L364.571 156.442L356.939 118.852Z" fill="#FF2222"/>
<path d="M243.884 478.585L243.911 478.588C245.599 478.746 247.1 477.494 247.26 475.787L287.076 52.8243C287.232 51.1243 285.968 49.7158 284.305 49.4512C282.617 49.2931 281.117 50.5448 280.956 52.2512L241.14 475.214C240.982 476.908 242.206 478.413 243.884 478.585Z" fill="#001E3B"/>
<path d="M201.313 185.567C203.091 192.842 203.881 200.293 205.413 207.614C206.935 214.884 209.22 221.998 211.521 229.052C216.001 242.787 219.507 257.226 228.232 268.996C230.551 272.124 233.05 275.11 235.612 278.038C238.325 281.139 240.971 284.396 244 287.191C244.409 287.57 244.94 286.911 244.635 286.506C240.399 280.87 235.06 276.061 230.618 270.572C226.133 265.028 222.564 259.029 220.118 252.321C217.623 245.475 215.487 238.483 213.207 231.562C210.825 224.332 208.467 217.08 206.674 209.676C204.738 201.684 203.901 193.403 201.558 185.523C201.514 185.372 201.274 185.408 201.313 185.567Z" fill="#1C1B18"/>
<path d="M160.335 192.583C160.335 192.583 157.689 175.352 159.425 169.312C161.161 163.272 184.028 161.153 195.705 171.739C207.382 182.325 209.938 235.752 216.678 253.517C223.417 271.283 243.005 289.068 242.682 290.009C242.359 290.949 235.034 295.532 233.873 295.189C232.712 294.846 230.068 292.463 230.068 292.463C230.068 292.463 232.37 296.007 231.295 297.34C230.222 298.673 221.529 306.15 208.818 306.465C196.108 306.78 177.781 309.337 170.724 303.03C163.666 296.723 164.547 205.665 160.335 192.583Z" fill="#1C1B18"/>
<path d="M139.064 0.00191334L244.734 2.4948C248.467 2.58275 251.421 5.67989 251.333 9.41248L248.84 115.083C248.752 118.815 245.655 121.769 241.922 121.681L136.252 119.188C132.52 119.1 129.565 116.003 129.653 112.271L132.146 6.60045C132.235 2.86856 135.331 -0.0860293 139.064 0.00191334Z" fill="#FCD400"/>
<path d="M228.601 84.1184L216.041 83.822L215.659 100.017L198.252 99.6062L198.635 83.4113L162.293 82.5539C159.424 82.4865 157.153 80.1064 157.221 77.2369L157.382 70.4213L194.892 22.3635L213.622 22.8054L178.816 68.393L199.528 68.8816L199.868 54.4484L216.724 54.8463L216.384 69.2788L228.944 69.5752L228.601 84.1184Z" fill="white"/>
<path d="M175.535 21.9066L163.709 21.6272C160.84 21.5598 158.46 23.8307 158.392 26.6995L157.975 44.4058L175.535 21.9066Z" fill="white"/>
<path d="M216.952 448.334C216.952 448.334 217.872 463.522 219.051 469.496C220.23 475.47 221.876 485.779 217.63 485.254C213.385 484.728 206.373 468.849 201.534 465.374C196.695 461.899 189.642 451.233 195.516 446.402C201.39 441.57 209.934 443.629 209.934 443.629L216.952 448.334Z" fill="#2CDA89"/>
<path d="M187.123 380.006C187.123 380.006 199.75 388.495 204.304 392.537C208.856 396.581 216.91 403.224 218.608 399.297C220.306 395.37 210.169 381.279 209.625 375.347C209.081 369.414 203.459 357.928 196.318 360.545C189.177 363.161 186.622 371.572 186.622 371.572L187.123 380.006Z" fill="#2CDA89"/>
<path d="M158.325 392.264L188.674 374.987C188.674 374.987 195.895 379.767 196.595 383.318C196.595 383.318 158.954 411.505 156.123 412.789C153.293 414.074 158.325 392.264 158.325 392.264Z" fill="#B3502A"/>
<path d="M245.21 401.582L215.132 449.517C215.132 449.517 206.528 448.539 204.291 445.694C204.291 445.694 230.458 395.186 232.396 392.756C234.334 390.326 245.21 401.582 245.21 401.582Z" fill="#B3502A"/>
<path d="M137.188 207.873C137.188 207.873 122.932 179.091 121.261 172.459C119.591 165.827 136.023 133.354 135.625 128.781C135.227 124.209 136.829 103.217 139.964 104.796C143.099 106.375 140.121 121.721 142.721 121.631C145.322 121.542 146.377 113.152 147.634 113.589C148.89 114.027 148.814 120.159 147.239 123.258C145.663 126.356 141.45 128.263 140.928 134.049C140.407 139.834 131.608 164.715 133.947 171.533C136.285 178.351 151.855 210.54 151.855 210.54L137.188 207.873Z" fill="#B3502A"/>
<path d="M214.466 210.541C214.466 210.541 233.64 184.773 236.47 178.548C239.3 172.321 228.941 137.433 230.151 133.005C231.361 128.577 233.539 107.637 230.173 108.63C226.805 109.622 226.991 125.254 224.448 124.7C221.906 124.147 222.368 115.704 221.053 115.91C219.739 116.115 218.717 122.161 219.712 125.493C220.709 128.823 224.513 131.452 223.992 137.239C223.47 143.024 227.675 169.077 224.155 175.367C220.634 181.656 199.559 210.542 199.559 210.542L214.466 210.541Z" fill="#B3502A"/>
<path d="M168.842 341.811C168.842 341.811 225.468 363.39 229.465 367.777C233.463 372.164 221.724 388.677 221.724 388.677C221.724 388.677 244.88 411.998 259.56 399.41C259.56 399.41 268.051 366.131 266.593 357.946C265.134 349.761 196.085 311.687 194.23 303.832C192.376 295.977 192.305 284.507 192.305 284.507L146.148 283.078C146.148 283.078 127.258 337.695 123.443 362.977C119.627 388.257 121.422 404.893 121.422 404.893C121.422 404.893 122.383 417.437 132.083 420.566C141.784 423.695 160.944 418.338 160.944 418.338C160.944 418.338 167.479 398.961 160.826 385.481C160.826 385.481 153.49 390.293 151.312 389.453C149.133 388.613 168.842 341.811 168.842 341.811Z" fill="#2CDA89"/>
<path d="M170.445 217.506C170.445 217.506 163.85 220.092 159.227 216.495C154.603 212.897 145.601 191.233 145.601 191.233C145.601 191.233 133.129 196.278 130.723 207.29C130.723 207.29 139.114 229.389 143.646 237.926C148.177 246.463 144.692 256.181 145.798 265.47C146.905 274.759 138.204 292.79 138.204 292.79C138.204 292.79 181.924 312.706 196.22 295.264C196.22 295.264 191.379 255.796 195.324 247.316C199.27 238.836 220.774 208.084 220.774 208.084C220.774 208.084 213.965 201.284 204.146 196.511C204.146 196.511 199.153 213.36 190.734 215.911C182.315 218.464 170.445 217.506 170.445 217.506Z" fill="#FF2222"/>
<path d="M168.324 205.89C168.327 205.964 168.368 206.715 168.432 207.829C168.434 207.866 168.458 208.278 168.495 208.927C168.663 211.851 169.108 219.597 169.108 219.597C169.108 219.597 176.853 223.325 182.799 218.979L185.217 203.373L168.324 205.89Z" fill="#B3502A"/>
<path d="M168.522 209.403L168.739 213.175C168.739 213.175 173.717 214.82 178.603 212.953C183.49 211.086 184.697 206.73 184.697 206.73L168.522 209.403Z" fill="#9B3C1F"/>
<path d="M167.647 174.523C164.775 174.435 163.124 175.086 163.124 175.086C163.124 175.086 158.037 189.301 160.085 198.542C162.133 207.783 170.818 212.713 178.703 209.719C178.703 209.719 183.598 208.159 186.063 205.795C188.528 203.431 189.219 200.408 189.219 200.408C189.219 200.408 191.738 200.218 192.767 198.058C193.795 195.899 193.794 194.064 193.251 192.681C192.709 191.297 188.616 193.207 187.867 195.045C187.117 196.881 183.319 196.456 184.016 192.431C184.122 191.813 184.127 191.077 184.058 190.274C183.313 181.648 176.3 174.792 167.647 174.523Z" fill="#B3502A"/>
</svg>
