<svg width="42" height="41" viewBox="0 0 42 41" fill="none" xmlns="http://www.w3.org/2000/svg">
<circle cx="21.0014" cy="20.3911" r="20.3911" fill="#2CDA89"/>
<path d="M2.54593 27.0837L2.56082 26.1534L2.54593 25.7677L2.44898 25.4811L2.34351 25.3765L2.22376 25.3617L2.08486 25.4665L2.04869 25.7619L1.74901 25.7893L1.24478 25.3127L0.782802 24.9982L0.586465 24.7523L0.551209 24.438L0.460938 24.2751C0.774592 25.6376 1.21986 26.9488 1.78459 28.1962L1.88093 27.7697L2.54593 27.0837Z" fill="#0082FF"/>
<path d="M0.824908 21.1897L0 21.3271C0.0389034 21.7884 0.0875326 22.2467 0.155917 22.6987L0.824877 21.5249L0.824908 21.1897Z" fill="#0082FF"/>
<path d="M10.8627 35.8923L11.5851 35.4361L12.4604 35.1018L12.6209 34.3933L12.9443 33.3432L12.9504 32.6269L12.8179 32.0196L13.8048 30.6607L13.6285 29.5495L13.2999 29.5426L12.4799 29.0514L11.9061 28.9879L11.1572 28.6803L10.891 28.5265L10.653 28.246L10.4357 28.2955L10.3372 28.6031L10.1211 28.793L9.79834 28.8064V28.5964L9.95243 28.5885L10.1205 28.5259L10.2032 28.3578L10.1901 28.2329L10.1622 28.1204L9.93025 28.0986L9.79683 28.1758L9.44031 28.3654V28.5122L9.27862 28.5049L9.26555 28.3724L9.42603 28.1405L9.58651 27.8955L9.6941 27.5247L9.52511 27.0132L9.22999 26.6503L8.89445 26.2926L7.95166 26.0899L7.5526 25.6495L7.27237 25.4191L6.90765 25.0613L6.69064 24.6984L6.57211 24.6553L6.34021 24.6902L6.03263 24.8161L5.54238 24.7246L4.90534 24.2L4.68833 24.1726L4.51326 24.5498V25.0753L4.28136 25.1595L4.12058 25.0115L4.14186 24.7462L4.23911 24.6343L4.28166 24.4252L4.45035 24.2976L4.46342 24.1167L4.32391 24.0745L4.03062 24.2836L3.61059 24.5219L3.23098 24.6343L2.96564 25.3619L2.72918 25.3613L2.71489 25.2638L2.56079 25.0671L2.36476 24.9839L2.13985 25.1097L1.87361 25.2215L1.5946 25.0535L1.45509 24.7878L1.21559 24.6763V24.1295L1.3706 22.9809L0.199219 22.9548C0.271555 23.3997 0.360302 23.8389 0.460603 24.2745L0.550874 24.4374L0.58613 24.7516L0.782771 24.9978L1.24475 25.3124L1.74898 25.789L2.04866 25.7616L2.08482 25.4662L2.22373 25.3613L2.34348 25.3762L2.44894 25.4808L2.5462 25.768L2.5611 26.1537L2.5462 27.084L1.8818 27.7697L1.78545 28.1961C3.61298 32.2375 6.67849 35.5962 10.5014 37.792L10.7594 37.01L10.8627 35.8923Z" fill="#0082FF"/>
<path d="M11.1579 12.4667L11.2974 12.088L11.2551 11.9476L11.046 12.0178L10.1221 12.6758V12.8156L10.2342 13.1381H10.6536L10.9214 13.2919L11.2837 13.4882L11.3539 13.0952L11.2974 12.6478L11.1579 12.4667Z" fill="#0082FF"/>
<path d="M14.2933 2.94497L14.9786 2.51096L14.9531 2.35625L14.7552 2.34349L14.1392 2.38513H13.1307L12.8104 2.17511H12.152L11.604 2.35625L11.0877 2.46871V2.65137L11.4226 2.70699L12.0955 2.63739L12.5867 2.72128L12.5696 2.86169L12.011 3.04344L11.3679 3.30908L10.9883 3.64553L11.0175 3.84218L11.2284 4.07955L11.7457 4.03669L12.0955 3.99597L12.8523 3.2252L13.5948 2.97233L14.2933 2.94497Z" fill="#0082FF"/>
<path d="M8.07765 7.66313V7.35555L7.93692 7.25708H7.65639L7.13818 7.59353V7.74733L7.32085 7.92999L7.48954 7.95765L7.52996 7.83182L7.67068 7.76131L7.89589 7.80386L8.02111 8.02846L8.20408 7.99959L8.18798 7.80386L8.07765 7.66313Z" fill="#0082FF"/>
<path d="M6.91382 4.31761L7.16699 4.0231L7.06152 3.74591C6.81716 3.96109 6.57888 4.18175 6.34424 4.40788L6.53784 4.4021L6.91382 4.31761Z" fill="#0082FF"/>
<path d="M5.19319 6.01118L5.45883 6.08078L5.65547 5.91301L5.94816 5.87107L6.03326 5.80056L5.97734 5.64646L5.89376 5.52063L6.10408 5.3249V5.11458L5.7573 4.99878C5.47799 5.29086 5.20657 5.59084 4.94336 5.89838H4.9695L5.19319 6.01118Z" fill="#0082FF"/>
<path d="M6.70459 4.90566V5.21385L6.92919 5.43694L7.32097 5.45031L7.57232 5.19956L7.71365 4.93362L7.76988 4.70932L7.22158 4.59686L6.70459 4.90566Z" fill="#0082FF"/>
<path d="M8.88792 4.70959L8.42746 4.73695L8.14632 4.82205L7.8667 5.04605L7.89527 5.29741L8.10498 5.3123L8.45451 5.14301L8.88791 4.91992L8.88792 4.70959Z" fill="#0082FF"/>
<path d="M8.11902 4.48527L8.46945 4.24668L8.48222 4.06554L8.31353 3.92573L8.10473 3.8689L7.92176 3.9388L7.87891 4.07952L7.95094 4.51293L8.11902 4.48527Z" fill="#0082FF"/>
<path d="M9.82818 4.62508H11.0311L10.9211 4.34515L9.74398 4.33178L9.39476 3.88257L8.98779 3.96706L9.15618 4.44272L9.82818 4.62508Z" fill="#0082FF"/>
<path d="M11.5792 6.47419L11.7609 6.29152L11.8159 6.06722L11.55 5.74475L11.0607 5.4785L10.8373 5.21408L10.2343 5.32563L10.0945 5.12899L10.1498 5.00225L10.1075 4.87733L9.85647 4.86335L9.3951 4.84937L8.6377 5.36757L8.69392 5.74476L9.18326 5.89946L9.79933 5.99672L10.5421 6.08121L10.6686 6.29153L10.4303 6.51553L9.6735 7.28599H9.08661L8.73648 7.63521L8.87568 7.77533H9.58901L10.1923 8.36374L10.4577 8.57315L10.6133 8.51784L11.0184 7.74737L11.0461 7.31305L11.13 7.286L11.2974 7.5799L11.5208 7.70603L12.2782 7.25713L12.3198 7.04711L11.5792 6.58544L11.5792 6.47419Z" fill="#0082FF"/>
<path d="M4.05831 21.6933V21.5252L2.86903 20.6992L1.80526 20.6563L1.51074 20.8268V20.9378L2.60276 20.9514L2.81369 21.2317L3.09209 21.4417L3.24618 21.5538L3.16382 21.7632H4.01604L4.05831 21.6933Z" fill="#0082FF"/>
<path d="M2.81299 22.2814L2.96526 22.3649H3.24549L3.27345 22.113L2.82606 22.1273L2.81299 22.2814Z" fill="#0082FF"/>
<path d="M4.8301 21.7491L4.42313 21.8199L4.2268 21.8476L4.28242 22.0992L3.84749 22.1132L3.82227 22.1691L3.83503 22.2676L4.21282 22.2816L4.53468 22.3372L4.63225 22.38L4.9146 22.2387L5.44587 22.1843V22.0296L5.15075 22.0007L4.8301 21.7491Z" fill="#0082FF"/>
<path d="M5.86461 22.1982L5.7251 22.3088L5.86461 22.4073L6.24361 22.3511L6.13207 22.1842L5.86461 22.1982Z" fill="#0082FF"/>
<path d="M6.85889 22.6735L6.87196 22.7294L6.99809 23.0528L7.20901 22.9951L7.22117 22.8142L7.11115 22.7158L6.85889 22.6735Z" fill="#0082FF"/>
<path d="M6.97021 23.1636V23.4302L7.02705 23.6396L7.19574 23.6682L7.18084 23.1636H6.97021Z" fill="#0082FF"/>
<path d="M19.8389 6.79471L19.9225 6.52937L19.6994 6.50141L19.3623 6.3616V6.16466H19.4751L19.628 6.27741L19.91 6.24976V6.10843L19.6441 5.87136L19.628 5.63307L19.8678 5.52123L19.9784 5.63307H20.2179L20.455 5.39601L20.7626 4.97505V4.83433L20.3155 4.58358L20.3024 4.17662L20.8188 3.77117L21.3783 3.46268L21.4628 3.28032L22.0236 3.05723L22.2618 3.01529L22.2342 2.84721L21.8838 2.80497L21.3652 2.777L21.0428 2.95875L20.7203 3.04324L20.455 2.84721L20.1334 2.69251L19.8951 2.56637V2.45453L20.3155 2.37004L20.5109 2.24481V2.09011L18.4952 2.03571L18.2141 2.51075L17.333 2.553L16.9832 2.32809L16.5908 2.35605L14.3089 3.30888V3.60339L14.1122 3.75718H13.7059L13.539 3.71494L13.2451 3.92556L13.2874 4.28846H13.6208L14.0129 4.27448L14.5049 4.65348L14.6718 5.47839L14.9371 6.08109L14.532 6.79473L13.9293 7.62205V8.75538L14.3636 9.00764L14.7432 9.38513L15.0092 9.24623L16.2531 7.69189L17.1789 7.39676L18.2572 6.97825L19.2228 6.83753L19.8389 6.79471Z" fill="#0082FF"/>
<path d="M20.2455 7.60758L19.9649 7.73341H19.754L19.5859 7.4541L19.3759 7.46778L19.1802 7.66321L19.2355 7.99966L19.3911 8.07017V8.26529L19.8105 8.39173L20.4688 8.41969L20.8755 8.15345L20.96 7.77535L20.7761 7.5243L20.2455 7.60758Z" fill="#0082FF"/>
<path d="M21.8265 11.0513L21.5049 11.1924L21.2536 11.6121L21.1548 11.8917L21.2685 11.9625L21.1548 12.1999H21.2685L21.3931 12.1589L21.4918 12.2421L21.6183 12.2561L21.952 11.8364L22.1076 11.4586L22.2766 11.0939L22.1201 11.0513L21.8265 11.0513Z" fill="#0082FF"/>
<path d="M22.8497 11.1784L22.8351 11.5136L22.5123 11.7367L22.3725 12.0607L22.4701 12.1856V12.3263L22.1494 12.4239L22.1196 12.5914L22.5694 12.4941L23.1281 12.4108L23.5773 12.2838L23.7727 12.0178L23.7864 11.8084L23.4782 11.7656L23.3098 11.444L23.1573 11.0662L22.9758 10.7583L22.9466 10.5617L23.1852 10.435L23.0861 10.2392L22.8621 10.142L22.9466 10.0298V9.91766L22.5123 9.94563L22.3163 10.3237V10.7714L22.6387 11.1215L22.8497 11.1784Z" fill="#0082FF"/>
<path d="M25.2579 15.2665H25.4673L25.525 15.1823V14.9166L25.425 14.6647L25.229 14.8887L25.2579 15.1698L25.2579 15.2665Z" fill="#0082FF"/>
<path d="M25.3014 16.0084L25.4114 15.9801L25.4953 15.785L25.4393 15.7415L25.5096 15.533L25.4953 15.4194L25.3014 15.4625L25.1874 15.5601L25.1743 15.7139L25.2293 15.9388L25.3014 16.0084Z" fill="#0082FF"/>
<path d="M26.5448 16.6118L26.7557 16.7927L27.0083 16.7656L27.0341 16.4711L26.8946 16.317H26.6715L26.2515 16.3456L26.2785 16.4292L26.5448 16.6118Z" fill="#0082FF"/>
<path d="M29.2485 17.2822L29.4007 17.3803L29.6533 17.2557L29.612 17.1563L29.1223 17.1712L28.8691 17.0731V17.1712L29.0801 17.2408L29.2485 17.2822Z" fill="#0082FF"/>
<path d="M31.5446 17.2823L31.6853 17.1015L31.643 16.9474L31.223 17.0732L31.0674 17.3115L31.1662 17.4376L31.3075 17.423L31.5446 17.2823Z" fill="#0082FF"/>
<path d="M33.7274 6.12376L34.2164 6.10856V5.99671L33.8538 5.91344L33.7696 5.80129L33.6429 5.31226L33.125 5.33991L33.0146 5.92742L33.5885 6.02528L33.7274 6.12376Z" fill="#0082FF"/>
<path d="M33.9673 4.96131H34.0499L34.3025 4.76497H34.5411L35.032 4.40207L35.0441 4.03675L34.9186 4.02307L34.442 4.47137H34.1904L33.8262 4.4428L33.6594 4.63975L33.5324 4.83457L33.3509 4.86344L33.3096 5.18621L33.7415 5.17223L33.9673 4.96131Z" fill="#0082FF"/>
<path d="M41.1247 13.5252C41.1055 13.462 41.0903 13.3985 41.0715 13.3362C40.3208 10.8996 39.1364 8.65405 37.6127 6.68367C37.4611 6.48703 37.3094 6.2916 37.1514 6.10164C37.128 6.07368 37.104 6.04815 37.0802 6.02018C36.9222 5.83053 36.7617 5.64452 36.597 5.46064C36.5575 5.41718 36.5174 5.37311 36.4776 5.32904L36.1788 5.35244L36.1077 5.47827L35.6898 5.89922L35.7025 6.16425L35.8837 6.2068L36.1077 6.51529V6.69704L35.8162 6.72591L35.4494 6.50161L34.7497 6.55753L34.05 6.75417L33.603 6.89398L33.0419 7.11829L32.5668 7.2432L32.4404 7.23014L32.4255 6.93532L32.117 6.74019H31.949V6.99246L32.117 7.08972V7.28636L32.2581 7.41128V7.67843L32.0331 7.66354L31.9772 7.56537L31.725 7.79058L31.5721 7.83253L31.0955 8.32277H30.8423L30.4652 7.9307L30.2141 7.79089L30.0041 7.62312L30.0175 7.34198L30.3402 7.44045L30.6484 7.5523L30.9824 7.71976L31.2782 7.70578L31.3918 7.56506V7.32738L31.2782 7.27207L31.1517 7.07543H30.9697L30.3409 6.64141L29.612 6.36118L29.3458 6.23535L28.8993 6.02503H28.4218L27.3422 6.75356L26.7006 7.36964L26.2095 7.85897L25.5372 8.48933L25.2007 8.81089L24.8239 9.07744V9.87558L24.9925 10.0999L25.301 10.0847L25.3983 9.94488L25.5378 9.91692L25.7904 9.7771V9.98621L25.887 9.95886V10.2673L26.056 10.4072L26.1402 10.6874L26.2098 10.981L26.4612 10.967L26.5447 10.8132L26.7134 10.715L26.8529 10.5612V10.3935L27.0085 10.0154L27.2319 9.6385V9.37135L27.0912 9.02091L27.3164 8.54556L27.5957 8.36289L27.6097 8.16625L27.848 7.87265L28.1012 7.60701L28.2954 7.6912H28.4349V8.04164L28.1984 8.32186L27.8909 8.61455V8.83976L28.2534 9.5534L28.5899 9.56738L28.8419 9.44155L29.051 9.37195L29.3029 9.35797L29.4011 9.38502L29.5145 9.56707L29.2193 9.72117L28.9665 9.72178L28.4638 9.77831L28.5489 10.1008V10.2825L28.337 10.3667L28.2686 10.2953L28.0851 10.2822L27.9586 10.464L27.8058 10.8421L27.707 11.2062L27.5675 11.2341L27.3587 11.1645L27.021 11.1785L26.756 11.2065L26.4335 11.3183L26.1673 11.3323L25.7904 11.2898L25.5937 11.2065V10.9402L25.7332 10.7855V10.4776L25.6636 10.2257L25.4539 10.2682L25.2287 10.4211L25.2576 10.6743L25.2856 11.1506L25.2005 11.4721L24.8236 11.584L24.5291 11.6681L24.5424 12.1022L24.4437 12.1161L24.3892 11.9204L24.2352 12.0177L24.0944 12.228L23.8856 12.3265L23.3528 12.8863H23.0866L22.9601 12.7036L22.7361 12.7185L22.8355 12.8441L22.7784 13.0684H22.2763L22.3024 13.2653L22.4012 13.348L22.6817 13.4887L22.989 13.6844L23.017 14.1598L22.8775 14.3981L22.9471 14.6084L22.6665 14.7622L22.4286 14.7208L21.9514 14.6084H21.4621L21.1414 14.7069L21.0989 15.0284V16.5688L21.2809 16.6943L21.4766 16.7362L21.7702 16.8773L22.0921 16.8207L22.3161 16.7648L22.5693 16.8772L22.7653 16.8906L23.086 16.359L23.3683 15.7563L24.081 15.1536L24.1503 14.8725L24.5008 14.7199L24.6418 14.8725L24.9071 14.8181L25.2153 14.4804L25.4101 14.3972L25.6074 14.5519L25.7046 14.7759L25.9703 15.2093L26.166 15.3205L26.4602 15.3497L26.7006 15.5333L26.9249 15.7703L27.1058 15.9943L27.1331 16.3864H27.2599L27.3289 16.274L27.3714 15.7852H27.4687L27.5954 15.9108H27.6921L27.5954 15.7017L27.4137 15.519L27.0912 15.309V15.112L26.8255 15.0145L26.518 14.8607L26.476 14.7069L26.3219 14.4263L26.1824 14.2868L26.2383 14.0619H26.3921L26.4766 14.2027L26.6301 14.3701L26.8958 14.4814L27.3298 14.8883L27.6386 15.0853L27.8759 15.4065L28.058 15.8269L28.2121 16.0642L28.4495 16.1907L28.2826 16.232V16.625L28.4917 16.821L28.8142 16.7651V16.0782L28.8564 15.7415L28.926 15.5333L29.3029 15.4497L29.485 15.5743H29.6807L30.0041 15.2807L29.8916 15.0716V14.6929L30.0873 14.3288L30.2691 13.8106L30.6198 13.6568L30.7885 13.6003L30.8581 13.7127L30.9824 14.1185L31.166 14.302H31.3496L31.628 14.134V13.9504L31.4593 13.7829L32.0492 13.4884L32.1742 13.4322L32.3428 13.4747V13.5993L32.2021 13.6838L32.007 13.8808L31.9651 14.1039L32.0897 14.2443L32.383 14.412L32.5389 14.5528L32.7477 14.7205H32.9164L33.0702 14.86L33.0009 14.9995L33.0158 15.2801L32.5665 15.295L32.3012 15.2524L32.0629 15.1971L31.7262 15.1409L31.5019 15.0002H31.1393L30.9703 15.1543L30.8013 15.2658L30.6627 15.3925L30.3414 15.4491L30.1427 15.4494L30.0178 15.533L29.8643 15.6858H29.6117L29.8646 16.611L30.0585 16.8062L30.535 16.7919L30.9821 16.7356L31.3748 16.7505L31.9225 16.708V16.8347L31.824 16.9043V17.4775L31.6991 17.8976L31.5994 18.1927L31.4456 18.458L31.3189 18.3738L31.0666 18.3465L30.8724 18.3331L30.4512 18.4167L30.1998 18.5556H29.822L29.4008 18.2903L29.0932 18.0669L28.8561 17.8842L28.4218 17.9824L28.1267 18.1498L28.1136 18.4024H28.2118L28.1847 18.5993H27.9747L27.427 18.5L27.0772 18.3048L26.979 17.9559L26.8404 17.9134L26.3763 17.8568L26.0688 17.7444L25.8034 17.5073L25.7481 17.3386L25.9022 16.9329L25.9293 16.5955L25.3013 16.5542H24.7527L24.3771 16.6524L23.9975 16.7356L23.3531 16.8767L22.5696 17.17L22.2471 17.1842L21.9815 17.0435H21.8004L21.5198 17.4918L21.3508 17.7167L20.8889 18.038L20.7916 18.2763L20.7071 18.7385L20.1461 19.4105H19.9099L19.5458 19.8303L18.8604 21.2029L18.789 21.777L18.8042 22.5043L18.6206 23.1909V23.8632L18.9027 24.4793L19.7418 25.516L20.9038 26.7621L21.4211 26.8594L22.7517 26.4393L23.8161 26.1588L24.2927 26.1026L24.7531 26.7621H25.1881L25.5792 26.8174L25.5522 27.1663L25.3835 27.6429L25.2586 28.2037L25.9722 29.2811L26.3649 30.1078L26.5883 31.4795L26.084 32.4591L26.0692 33.5943L26.6171 34.8112L26.7144 35.3301L26.8685 36.3932L27.5265 37.5688L27.583 38.2846L27.9748 38.5648L28.0581 38.7177L28.2538 38.7465L28.5763 38.4812L29.2617 38.3122L29.7935 38.2432L30.3121 37.835L30.9825 37.067L31.4591 36.1567V35.9333L32.1034 35.5112L32.1165 34.8109L31.9776 34.1404L32.4961 33.7052L33.1122 33.1876L33.6857 32.5715L33.6587 32.0521L33.3502 30.1492L33.4055 29.1565L34.065 28.3435L34.9182 27.4612L35.6324 26.5096L36.4576 24.493L36.4317 24.2687L35.9682 24.3383L35.0868 24.6328L34.541 24.7714L34.3027 24.7444L34.317 24.1572L33.9392 23.7502L33.5319 23.3302L33.366 23.2317L33.2252 22.6029L32.6362 21.9993L32.6232 21.5096L32.1749 20.7954L31.643 19.7732L31.4892 19.3249L31.4181 19.0587L31.6995 19.0736L31.7117 19.1569L31.7958 19.1842L31.9354 19.0301L32.2305 19.8009L33.2933 21.4819L34.0091 22.4478L34.1337 23.3432L34.2595 23.5964L34.5549 24.0717L34.8476 24.0027L35.8293 23.7778L36.1788 23.5398L36.5427 23.1757L37.0478 22.8399L37.3271 22.6712L37.7189 22.3071L38.0979 21.8184L38.3635 21.0054L38.2647 20.8385L38.1106 20.7528L37.8161 20.6975L37.5921 20.599L37.5368 20.3759L37.5499 20.0252H37.2842L37.1031 20.3194L36.9493 20.5291L36.5706 20.4878L36.374 20.4452V20.0665L36.249 19.941L36.0393 20.0534L35.8986 20.0112L35.8567 19.8009L35.6898 19.7316L35.5202 19.4088L35.1835 19.1143L35.1421 18.9748L35.3102 18.7781L35.6184 18.7511L35.8837 19.0304L36.374 19.493L36.5837 19.7021H37.0329L37.1998 19.5483L37.5079 19.5061L37.7183 19.6598V19.9404L38.0821 20.0799L38.3915 20.1784L40.085 20.1926L40.4069 20.5002L40.5464 20.7385L40.6871 20.9911L41.1053 21.4245L41.3579 21.5649L41.5135 21.5087L41.5536 21.1026H41.7928L41.8487 21.984L41.8521 21.998C41.9466 21.1892 41.9998 20.3683 41.9998 19.5343C42.0004 17.4472 41.6919 15.4306 41.1248 13.5253L41.1247 13.5252Z" fill="#0082FF"/>
<path d="M36.0232 31.6487L35.9129 31.6779L35.3804 32.2514L35.1704 32.5863L34.9324 32.7684L34.5254 33.0766L34.3726 33.6516L34.4698 33.6935L34.4565 34.0704L34.1206 34.8123L34.1486 35.2889L34.3644 35.7572C34.7212 35.4615 35.0655 35.15 35.4026 34.8315L35.5208 34.3935L36.0527 32.9377L36.0397 32.0684L36.0232 31.6487Z" fill="#0082FF"/>
</svg>
