<svg width="696" height="463" viewBox="0 0 696 463" fill="none" xmlns="http://www.w3.org/2000/svg">
<path d="M540.801 273.386C540.801 377.625 456.3 462.127 352.061 462.127C247.821 462.127 163.319 377.625 163.319 273.386C163.319 169.147 247.821 84.6448 352.061 84.6448C456.3 84.6448 540.801 169.147 540.801 273.386Z" fill="url(#paint0_radial_1_328)"/>
<path fill-rule="evenodd" clip-rule="evenodd" d="M352.061 458.418C454.25 458.418 537.092 375.577 537.092 273.386C537.092 171.195 454.25 88.3532 352.061 88.3532C249.869 88.3532 167.027 171.195 167.027 273.386C167.027 375.577 249.869 458.418 352.061 458.418ZM352.061 462.127C456.3 462.127 540.801 377.625 540.801 273.386C540.801 169.147 456.3 84.6448 352.061 84.6448C247.821 84.6448 163.319 169.147 163.319 273.386C163.319 377.625 247.821 462.127 352.061 462.127Z" fill="#F1F8FB"/>
<path d="M400.73 386.895C371.51 446.238 318.518 468.233 244.791 437.065C175.959 402.419 161.028 336.05 190.248 276.706C219.469 217.363 291.263 192.943 350.607 222.164C388.049 249.801 429.951 327.552 400.73 386.895Z" fill="url(#paint1_radial_1_328)"/>
<path fill-rule="evenodd" clip-rule="evenodd" d="M244.719 434.732C302.225 463.048 369.028 448.65 397.344 391.144C425.659 333.638 401.992 264.066 344.488 235.75C286.981 207.435 217.408 231.098 189.092 288.604C160.776 346.11 187.212 406.417 244.719 434.732ZM243.08 438.059C302.424 467.279 371.447 452.125 400.667 392.782C429.888 333.439 405.469 261.644 346.126 232.424C286.782 203.203 214.986 227.623 185.766 286.966C156.545 346.31 183.737 408.839 243.08 438.059Z" fill="url(#paint2_linear_1_328)"/>
<path opacity="0.8" fill-rule="evenodd" clip-rule="evenodd" d="M352.569 279.983C355.512 281.431 359.028 280.296 360.431 277.448C361.835 274.6 360.589 271.118 357.65 269.671C354.707 268.223 351.187 269.358 349.787 272.206C348.384 275.054 349.63 278.536 352.569 279.983ZM241.237 270.216C247.667 273.382 254.86 271.927 257.303 266.966C259.745 262.006 256.512 255.418 250.082 252.252C243.651 249.085 236.458 250.54 234.016 255.5C231.573 260.461 234.806 267.049 241.237 270.216ZM273.515 287.763C276.455 289.21 279.975 288.075 281.377 285.227C282.779 282.379 281.533 278.897 278.593 277.45C275.654 276.002 272.134 277.138 270.732 279.985C269.33 282.833 270.576 286.315 273.515 287.763ZM324.232 350.966C322.829 353.814 319.31 354.949 316.37 353.502C313.43 352.054 312.184 348.573 313.586 345.725C314.988 342.877 318.508 341.742 321.448 343.189C324.387 344.637 325.633 348.119 324.232 350.966ZM341.109 372.09C339.707 374.938 336.187 376.073 333.248 374.626C330.308 373.178 329.062 369.696 330.464 366.848C331.866 364.001 335.386 362.865 338.326 364.313C341.265 365.76 342.512 369.242 341.109 372.09ZM351.423 404.516C354.366 405.963 357.882 404.828 359.286 401.98C360.689 399.133 359.443 395.65 356.504 394.203C353.561 392.756 350.043 393.891 348.641 396.739C347.238 399.587 348.485 403.068 351.423 404.516ZM393.36 319.7C391.956 322.548 388.436 323.683 385.497 322.235C382.559 320.788 381.312 317.306 382.712 314.458C384.116 311.61 387.636 310.475 390.574 311.923C393.513 313.37 394.759 316.852 393.36 319.7ZM187.145 319.632C190.085 321.079 193.604 319.944 195.007 317.097C196.409 314.249 195.162 310.767 192.223 309.319C189.283 307.872 185.764 309.007 184.362 311.855C182.959 314.702 184.205 318.185 187.145 319.632ZM208.078 380.019C206.676 382.867 203.156 384.002 200.217 382.554C197.277 381.107 196.031 377.625 197.433 374.777C198.835 371.929 202.355 370.794 205.295 372.241C208.234 373.689 209.481 377.171 208.078 380.019ZM207.626 401.082C209.097 401.806 210.838 401.275 211.517 399.898C212.195 398.52 211.553 396.816 210.084 396.092C208.614 395.368 206.873 395.899 206.194 397.277C205.515 398.655 206.157 400.358 207.626 401.082ZM296.344 400.886C295.666 402.264 293.924 402.795 292.455 402.071C290.985 401.347 290.343 399.643 291.022 398.266C291.7 396.888 293.442 396.357 294.911 397.081C296.381 397.805 297.023 399.508 296.344 400.886ZM301.347 432.35C302.817 433.073 304.558 432.543 305.237 431.165C305.916 429.787 305.274 428.083 303.804 427.359C302.334 426.636 300.593 427.166 299.914 428.544C299.236 429.922 299.877 431.626 301.347 432.35Z" fill="url(#paint3_linear_1_328)"/>
<path d="M195.231 378.46C150.653 329.589 154.132 253.835 203.002 209.256C251.872 164.678 327.627 168.157 372.204 217.027C416.782 265.897 426.202 331.167 377.333 375.745C328.464 420.323 239.809 427.33 195.231 378.46Z" fill="url(#paint4_radial_1_328)"/>
<path fill-rule="evenodd" clip-rule="evenodd" d="M205.501 211.995C158.144 255.194 154.773 328.603 197.971 375.959C241.169 423.316 330.539 416.418 377.897 373.22C425.253 330.022 412.663 266.883 369.466 219.526C326.267 172.169 252.858 168.798 205.501 211.995ZM203.002 209.256C154.132 253.834 150.653 329.588 195.231 378.458C239.81 427.328 331.525 420.537 380.394 375.959C429.263 331.381 416.782 265.897 372.204 217.027C327.627 168.157 251.872 164.678 203.002 209.256Z" fill="url(#paint5_linear_1_328)"/>
<path opacity="0.8" fill-rule="evenodd" clip-rule="evenodd" d="M317.803 374.868C315.382 377.076 315.154 380.767 317.293 383.112C319.432 385.458 323.129 385.569 325.549 383.36C327.97 381.152 328.199 377.461 326.059 375.116C323.92 372.771 320.223 372.659 317.803 374.868ZM367.547 274.787C362.252 279.617 360.979 286.844 364.705 290.93C368.431 295.015 375.742 294.411 381.038 289.58C386.334 284.75 387.606 277.522 383.881 273.437C380.155 269.352 372.839 269.956 367.547 274.787ZM339.424 298.43C337.003 300.639 336.775 304.33 338.914 306.675C341.053 309.02 344.75 309.131 347.171 306.923C349.591 304.715 349.82 301.023 347.681 298.678C345.541 296.333 341.845 296.222 339.424 298.43ZM262.066 322.569C259.927 320.224 260.155 316.532 262.576 314.324C264.997 312.116 268.694 312.227 270.832 314.572C272.972 316.917 272.743 320.608 270.323 322.817C267.902 325.025 264.205 324.914 262.066 322.569ZM236.239 330.569C234.1 328.224 234.328 324.533 236.749 322.325C239.169 320.116 242.866 320.228 245.005 322.573C247.144 324.918 246.916 328.609 244.496 330.817C242.075 333.026 238.378 332.915 236.239 330.569ZM189.458 323.303C187.037 325.511 186.809 329.202 188.948 331.547C191.088 333.892 194.784 334.003 197.205 331.795C199.626 329.587 199.854 325.896 197.715 323.551C195.576 321.205 191.879 321.094 189.458 323.303ZM265.936 398.34C263.797 395.994 264.025 392.303 266.446 390.095C268.866 387.887 272.563 387.998 274.702 390.343C276.841 392.688 276.613 396.379 274.192 398.588C271.772 400.796 268.075 400.685 265.936 398.34ZM341.289 206.387C338.868 208.595 338.64 212.286 340.779 214.632C342.919 216.976 346.615 217.087 349.036 214.879C351.455 212.671 351.686 208.98 349.546 206.635C347.407 204.29 343.71 204.179 341.289 206.387ZM264.601 198.796C262.462 196.451 262.69 192.76 265.111 190.552C267.532 188.344 271.228 188.455 273.368 190.8C275.507 193.145 275.279 196.836 272.858 199.044C270.437 201.253 266.74 201.142 264.601 198.796ZM245.157 190.685C243.946 191.79 243.804 193.604 244.839 194.739C245.874 195.874 247.695 195.899 248.905 194.795C250.115 193.691 250.257 191.876 249.222 190.741C248.187 189.606 246.367 189.581 245.157 190.685ZM225.774 278.381C224.739 277.246 224.881 275.431 226.092 274.327C227.302 273.223 229.122 273.248 230.157 274.383C231.192 275.517 231.05 277.332 229.84 278.436C228.629 279.541 226.809 279.516 225.774 278.381ZM181.829 266.52C180.619 267.624 180.477 269.439 181.512 270.574C182.547 271.709 184.368 271.733 185.578 270.629C186.788 269.525 186.93 267.71 185.895 266.575C184.86 265.441 183.04 265.416 181.829 266.52Z" fill="url(#paint6_linear_1_328)"/>
<path d="M251.605 384.271C186.102 374.359 130.332 288.15 140.116 223.489C149.9 158.828 207.394 134.525 272.898 144.437C338.402 154.349 383.57 214.801 373.787 279.462C363.773 337.917 313.046 391.486 251.605 384.271Z" fill="url(#paint7_radial_1_328)"/>
<path fill-rule="evenodd" clip-rule="evenodd" d="M142.448 221.931C132.858 285.309 184.073 371.62 247.452 381.21C310.83 390.8 360.329 343.629 369.919 280.251C379.509 216.873 335.905 157.72 272.527 148.13C209.148 138.541 152.038 158.553 142.448 221.931ZM138.781 221.376C128.885 286.779 181.493 374.98 246.897 384.876C312.3 394.772 363.691 346.208 373.588 280.805C383.484 215.402 338.485 154.36 273.082 144.464C207.678 134.568 148.678 155.974 138.781 221.376Z" fill="url(#paint8_linear_1_328)"/>
<path opacity="0.8" fill-rule="evenodd" clip-rule="evenodd" d="M332.541 304.223C332.051 307.462 334.198 310.474 337.336 310.949C340.475 311.424 343.417 309.182 343.907 305.943C344.397 302.703 342.25 299.692 339.111 299.217C335.973 298.742 333.031 300.983 332.541 304.223ZM308.167 195.152C307.095 202.239 310.657 208.654 316.125 209.482C321.592 210.309 326.893 205.235 327.965 198.147C329.038 191.06 325.475 184.645 320.008 183.817C314.541 182.99 309.24 188.065 308.167 195.152ZM301.208 231.227C300.718 234.466 302.865 237.478 306.003 237.953C309.142 238.428 312.084 236.186 312.574 232.946C313.064 229.707 310.917 226.695 307.779 226.22C304.64 225.745 301.698 227.987 301.208 231.227ZM256.31 298.688C253.172 298.214 251.025 295.202 251.515 291.963C252.005 288.723 254.947 286.482 258.086 286.956C261.224 287.431 263.371 290.443 262.881 293.682C262.39 296.922 259.449 299.163 256.31 298.688ZM241.284 321.167C238.145 320.692 235.998 317.68 236.488 314.441C236.978 311.201 239.92 308.959 243.059 309.434C246.197 309.909 248.344 312.921 247.854 316.16C247.364 319.4 244.422 321.642 241.284 321.167ZM200.365 344.977C199.875 348.217 202.022 351.229 205.16 351.704C208.299 352.178 211.241 349.937 211.731 346.697C212.221 343.457 210.074 340.446 206.936 339.971C203.797 339.496 200.856 341.738 200.365 344.977ZM307.026 355.116C303.888 354.641 301.741 351.63 302.231 348.391C302.721 345.151 305.663 342.909 308.802 343.384C311.94 343.859 314.087 346.87 313.597 350.11C313.106 353.35 310.165 355.591 307.026 355.116ZM244.701 158.546C244.21 161.786 246.358 164.798 249.496 165.273C252.635 165.747 255.576 163.506 256.067 160.266C256.557 157.026 254.41 154.015 251.271 153.54C248.133 153.065 245.191 155.306 244.701 158.546ZM180.345 200.937C177.206 200.462 175.06 197.451 175.55 194.212C176.04 190.972 178.982 188.73 182.12 189.205C185.259 189.68 187.405 192.691 186.915 195.931C186.425 199.171 183.483 201.412 180.345 200.937ZM160.132 206.88C159.887 208.5 160.919 209.999 162.438 210.229C163.957 210.459 165.386 209.332 165.631 207.712C165.876 206.092 164.844 204.592 163.325 204.363C161.807 204.133 160.377 205.26 160.132 206.88ZM200.293 287.212C198.774 286.982 197.742 285.483 197.987 283.863C198.232 282.243 199.662 281.116 201.181 281.346C202.7 281.576 203.732 283.075 203.487 284.695C203.241 286.315 201.812 287.442 200.293 287.212ZM158.685 305.668C158.44 307.288 159.472 308.787 160.991 309.018C162.51 309.247 163.939 308.12 164.185 306.5C164.43 304.881 163.397 303.381 161.879 303.151C160.36 302.921 158.93 304.048 158.685 305.668Z" fill="url(#paint9_linear_1_328)"/>
<path d="M479.659 145.849C479.659 181.904 450.43 211.132 414.375 211.132C378.324 211.132 349.093 181.904 349.093 145.849C349.093 109.794 378.324 80.566 414.375 80.566C450.43 80.566 479.659 109.794 479.659 145.849Z" fill="#2C0F0D"/>
<path fill-rule="evenodd" clip-rule="evenodd" d="M414.375 207.078C448.191 207.078 475.606 179.665 475.606 145.849C475.606 112.034 448.191 84.6211 414.375 84.6211C380.563 84.6211 353.148 112.034 353.148 145.849C353.148 179.665 380.563 207.078 414.375 207.078ZM414.375 211.132C450.43 211.132 479.659 181.904 479.659 145.849C479.659 109.794 450.43 80.566 414.375 80.566C378.324 80.566 349.093 109.794 349.093 145.849C349.093 181.904 378.324 211.132 414.375 211.132Z" fill="url(#paint10_linear_1_328)"/>
<path d="M472.943 145.643C472.943 177.897 446.63 204.045 414.169 204.045C381.709 204.045 355.396 177.897 355.396 145.643C355.396 113.388 381.709 87.2405 414.169 87.2405C446.63 87.2405 472.943 113.388 472.943 145.643Z" fill="url(#paint11_linear_1_328)"/>
<path d="M394.099 151.932C394.771 151.932 395.316 151.387 395.316 150.716C395.316 150.044 394.771 149.499 394.099 149.499C393.428 149.499 392.883 150.044 392.883 150.716C392.883 151.387 393.428 151.932 394.099 151.932Z" fill="#743D26"/>
<path d="M407.078 131.658C407.75 131.658 408.294 131.113 408.294 130.441C408.294 129.769 407.75 129.225 407.078 129.225C406.406 129.225 405.861 129.769 405.861 130.441C405.861 131.113 406.406 131.658 407.078 131.658Z" fill="#743D26"/>
<path d="M425.732 149.499C426.403 149.499 426.948 148.954 426.948 148.283C426.948 147.611 426.403 147.066 425.732 147.066C425.06 147.066 424.515 147.611 424.515 148.283C424.515 148.954 425.06 149.499 425.732 149.499Z" fill="#743D26"/>
<path d="M425.732 172.206C426.403 172.206 426.948 171.662 426.948 170.99C426.948 170.318 426.403 169.773 425.732 169.773C425.06 169.773 424.515 170.318 424.515 170.99C424.515 171.662 425.06 172.206 425.732 172.206Z" fill="#743D26"/>
<path d="M441.137 139.767C441.809 139.767 442.353 139.222 442.353 138.551C442.353 137.879 441.809 137.334 441.137 137.334C440.465 137.334 439.921 137.879 439.921 138.551C439.921 139.222 440.465 139.767 441.137 139.767Z" fill="#743D26"/>
<path d="M394.099 121.115C394.771 121.115 395.316 120.57 395.316 119.898C395.316 119.227 394.771 118.682 394.099 118.682C393.428 118.682 392.883 119.227 392.883 119.898C392.883 120.57 393.428 121.115 394.099 121.115Z" fill="#743D26"/>
<path d="M414.561 141.399L420.285 148.25C429.07 158.759 427.675 174.4 417.167 183.185L410.314 188.911L404.59 182.061C395.804 171.552 397.199 155.911 407.708 147.126L414.561 141.399Z" fill="url(#paint12_linear_1_328)"/>
<path opacity="0.8" fill-rule="evenodd" clip-rule="evenodd" d="M409.634 188.096L414.23 141.675L414.562 141.398L420.287 148.248C429.072 158.758 427.677 174.399 417.169 183.184L410.316 188.911L409.634 188.096Z" fill="#2F9354"/>
<path d="M415.06 147.813L423.872 146.379C437.389 144.178 450.136 153.354 452.336 166.874L453.77 175.687L444.958 177.121C431.437 179.322 418.694 170.145 416.494 156.626L415.06 147.813Z" fill="url(#paint13_linear_1_328)"/>
<path opacity="0.8" fill-rule="evenodd" clip-rule="evenodd" d="M452.72 175.857L415.126 148.239L415.06 147.813L423.872 146.379C437.389 144.178 450.136 153.354 452.336 166.874L453.77 175.686L452.72 175.857Z" fill="#2F9354"/>
<path fill-rule="evenodd" clip-rule="evenodd" d="M374.326 149.335C374.479 149.683 374.886 149.842 375.231 149.69L382.932 146.33C383.277 146.178 383.439 145.773 383.286 145.424C383.133 145.076 382.726 144.917 382.381 145.069L374.684 148.429C374.335 148.581 374.173 148.987 374.326 149.335Z" fill="#323138"/>
<path d="M426.745 101.589L410.302 124.44C408.225 127.325 405.304 129.496 401.945 130.655L384.821 136.56C380.465 138.061 378.16 142.812 379.669 147.162C381.292 151.828 386.596 154.062 391.07 151.965L405.313 145.282C411.938 142.174 417.05 136.557 419.525 129.671L429.159 102.858C429.697 101.357 427.676 100.294 426.745 101.589Z" fill="url(#paint14_linear_1_328)"/>
<path d="M543.067 276.374C543.067 312.429 513.838 341.657 477.782 341.657C441.727 341.657 412.498 312.429 412.498 276.374C412.498 240.318 441.727 211.09 477.782 211.09C513.838 211.09 543.067 240.318 543.067 276.374Z" fill="#2C0F0D"/>
<path fill-rule="evenodd" clip-rule="evenodd" d="M477.782 337.602C511.599 337.602 539.013 310.189 539.013 276.374C539.013 242.558 511.599 215.145 477.782 215.145C443.966 215.145 416.556 242.558 416.556 276.374C416.556 310.189 443.966 337.602 477.782 337.602ZM477.782 341.657C513.838 341.657 543.067 312.429 543.067 276.374C543.067 240.318 513.838 211.09 477.782 211.09C441.727 211.09 412.498 240.318 412.498 276.374C412.498 312.429 441.727 341.657 477.782 341.657Z" fill="url(#paint15_linear_1_328)"/>
<path d="M536.354 276.166C536.354 308.421 510.037 334.568 477.58 334.568C445.12 334.568 418.807 308.421 418.807 276.166C418.807 243.912 445.12 217.764 477.58 217.764C510.037 217.764 536.354 243.912 536.354 276.166Z" fill="url(#paint16_linear_1_328)"/>
<path opacity="0.5" d="M448.858 287.319C449.686 287.319 450.358 286.647 450.358 285.819C450.358 284.99 449.686 284.318 448.858 284.318C448.029 284.318 447.358 284.99 447.358 285.819C447.358 286.647 448.029 287.319 448.858 287.319Z" fill="#2C0F0D"/>
<path opacity="0.5" d="M464.859 262.317C465.688 262.317 466.359 261.646 466.359 260.817C466.359 259.989 465.688 259.317 464.859 259.317C464.031 259.317 463.359 259.989 463.359 260.817C463.359 261.646 464.031 262.317 464.859 262.317Z" fill="#2C0F0D"/>
<path opacity="0.5" d="M487.863 284.318C488.691 284.318 489.363 283.647 489.363 282.818C489.363 281.99 488.691 281.318 487.863 281.318C487.034 281.318 486.363 281.99 486.363 282.818C486.363 283.647 487.034 284.318 487.863 284.318Z" fill="#2C0F0D"/>
<path opacity="0.5" d="M487.863 312.32C488.691 312.32 489.363 311.648 489.363 310.82C489.363 309.991 488.691 309.32 487.863 309.32C487.034 309.32 486.363 309.991 486.363 310.82C486.363 311.648 487.034 312.32 487.863 312.32Z" fill="#2C0F0D"/>
<path opacity="0.5" d="M506.862 272.318C507.691 272.318 508.362 271.646 508.362 270.818C508.362 269.989 507.691 269.318 506.862 269.318C506.034 269.318 505.362 269.989 505.362 270.818C505.362 271.646 506.034 272.318 506.862 272.318Z" fill="#2C0F0D"/>
<path opacity="0.5" d="M448.858 249.317C449.686 249.317 450.358 248.645 450.358 247.817C450.358 246.988 449.686 246.317 448.858 246.317C448.029 246.317 447.358 246.988 447.358 247.817C447.358 248.645 448.029 249.317 448.858 249.317Z" fill="#2C0F0D"/>
<path d="M477.968 254.385L483.692 261.236C492.478 271.745 491.083 287.386 480.57 296.172L473.721 301.898L467.992 295.048C459.207 284.538 460.606 268.897 471.115 260.112L477.968 254.385Z" fill="url(#paint17_linear_1_328)"/>
<path opacity="0.8" fill-rule="evenodd" clip-rule="evenodd" d="M473.039 301.083L477.635 254.662L477.967 254.385L483.692 261.235C492.478 271.745 491.078 287.386 480.569 296.171L473.721 301.898L473.039 301.083Z" fill="#2F9354"/>
<path d="M388.432 415.928C397.259 431.409 416.965 436.803 432.446 427.977C447.928 419.15 453.322 399.445 444.495 383.964C435.668 368.483 415.962 363.089 400.48 371.915C384.999 380.742 379.604 400.447 388.432 415.928Z" fill="url(#paint18_linear_1_328)"/>
<path fill-rule="evenodd" clip-rule="evenodd" d="M421.673 431.798C425.359 431.195 429.011 429.936 432.448 427.975C436.134 425.873 439.248 423.155 441.736 420.024L412.056 367.973C408.094 368.517 404.172 369.813 400.485 371.915C397.044 373.876 394.105 376.373 391.704 379.242L421.673 431.798Z" fill="#E3E798"/>
<path fill-rule="evenodd" clip-rule="evenodd" d="M390.431 414.791C398.63 429.172 416.936 434.182 431.315 425.983C445.698 417.784 450.705 399.48 442.506 385.099C434.31 370.719 416.005 365.709 401.622 373.908C387.243 382.107 382.231 400.411 390.431 414.791ZM388.437 415.927C397.266 431.408 416.971 436.802 432.452 427.976C447.933 419.149 453.329 399.444 444.5 383.963C435.675 368.482 415.97 363.088 400.489 371.915C385.008 380.742 379.612 400.447 388.437 415.927Z" fill="#F3F4CB"/>
<path d="M486.686 386.398C486.786 376.227 482.846 366.432 475.727 359.167C468.608 351.902 458.895 347.763 448.723 347.66C438.551 347.557 428.756 351.498 421.492 358.618C414.229 365.736 410.087 375.45 409.987 385.621L448.334 386.009L486.686 386.398Z" fill="#DBE272"/>
<path fill-rule="evenodd" clip-rule="evenodd" d="M427.922 353.543L447.798 385.968L467.319 352.684C461.7 349.484 455.306 347.727 448.725 347.66C441.313 347.585 434.101 349.658 427.922 353.543Z" fill="#E3E798"/>
<path fill-rule="evenodd" clip-rule="evenodd" d="M420.697 357.798C428.179 350.466 438.267 346.407 448.74 346.513C459.213 346.619 469.218 350.882 476.551 358.364C483.88 365.845 487.938 375.933 487.833 386.408L485.542 386.385C485.643 376.518 481.816 367.016 474.912 359.969C468.007 352.922 458.583 348.906 448.718 348.806C438.848 348.706 429.346 352.53 422.301 359.436C415.252 366.342 411.238 375.764 411.138 385.631L408.846 385.608C408.951 375.133 413.215 365.129 420.697 357.798Z" fill="#F3F4CB"/>
<path d="M219.961 30.966C205.243 19.7028 184.18 22.5038 172.917 37.2223C161.654 51.9408 164.455 73.0031 179.174 84.2663C193.892 95.5295 214.954 92.7285 226.218 78.01C237.481 63.2915 234.68 42.2292 219.961 30.966Z" fill="url(#paint19_linear_1_328)"/>
<path fill-rule="evenodd" clip-rule="evenodd" d="M181.696 29.202C178.403 31.2723 175.417 33.9536 172.915 37.2236C170.233 40.7283 168.349 44.5927 167.232 48.5988L216.722 86.469C220.297 84.3445 223.534 81.5155 226.216 78.0108C228.718 74.7413 230.526 71.1583 231.664 67.4389L181.696 29.202Z" fill="#EEF1AF"/>
<path fill-rule="evenodd" clip-rule="evenodd" d="M218.507 32.861C204.835 22.3984 185.27 25.0007 174.808 38.6727C164.346 52.3451 166.947 71.9098 180.62 82.3723C194.292 92.8349 213.857 90.2326 224.32 76.5606C234.782 62.8886 232.18 43.3235 218.507 32.861ZM219.957 30.9665C205.239 19.7034 184.176 22.5047 172.913 37.2234C161.65 51.9416 164.451 73.0038 179.17 84.2668C193.888 95.5299 214.951 92.7286 226.214 78.0104C237.477 63.2917 234.676 42.2296 219.957 30.9665Z" fill="#F3F4CB"/>
<path d="M163.932 135.446C181.065 142.515 200.685 134.357 207.754 117.224C214.823 100.092 206.665 80.4725 189.532 73.4035C172.4 66.3345 152.78 74.4926 145.711 91.6251C138.642 108.758 146.8 128.377 163.932 135.446Z" fill="url(#paint20_linear_1_328)"/>
<path fill-rule="evenodd" clip-rule="evenodd" d="M201.35 127.246C203.994 124.394 206.184 121.031 207.754 117.225C209.438 113.145 210.258 108.925 210.298 104.766L152.694 80.9976C149.79 83.9746 147.395 87.5455 145.712 91.6248C144.142 95.4309 143.323 99.3598 143.187 103.247L201.35 127.246Z" fill="#EEF1AF"/>
<path fill-rule="evenodd" clip-rule="evenodd" d="M164.843 133.241C180.757 139.807 198.982 132.229 205.549 116.314C212.115 100.4 204.537 82.1752 188.622 75.6085C172.708 69.0422 154.483 76.6202 147.917 92.5346C141.35 108.45 148.928 126.674 164.843 133.241ZM163.933 135.446C181.065 142.515 200.685 134.357 207.753 117.224C214.823 100.092 206.665 80.4726 189.532 73.4033C172.4 66.3344 152.781 74.4922 145.711 91.625C138.643 108.757 146.8 128.376 163.933 135.446Z" fill="#F3F4CB"/>
<path d="M121.923 85.3498C118.815 75.238 111.818 66.7752 102.47 61.8229C93.1223 56.8706 82.1902 55.8345 72.0784 58.9422C61.9668 62.0503 53.5041 69.0479 48.5519 78.3958C43.5992 87.7434 42.5632 98.6755 45.6713 108.787L83.7971 97.0688L121.923 85.3498Z" fill="#DBE272"/>
<path fill-rule="evenodd" clip-rule="evenodd" d="M53.3233 71.337L83.2542 97.1957L92.0928 58.0521C85.5135 56.6541 78.6262 56.9298 72.0825 58.941C64.7136 61.2062 58.2204 65.5367 53.3233 71.337Z" fill="#EEF1AF"/>
<path fill-rule="evenodd" clip-rule="evenodd" d="M47.4993 77.8368C52.6 68.2095 61.316 61.0026 71.7297 57.8016C82.144 54.6008 93.4029 55.6678 103.03 60.7684C112.658 65.8686 119.864 74.5846 123.065 84.9988L120.785 85.6992C117.77 75.8904 110.982 67.6805 101.914 62.8763C92.8452 58.0722 82.24 57.0669 72.4307 60.0821C62.6213 63.0968 54.4118 69.885 49.6072 78.9535C44.8029 88.0215 43.7982 98.627 46.8129 108.436L44.5327 109.137C41.3321 98.723 42.399 87.4641 47.4993 77.8368Z" fill="#F3F4CB"/>
<path d="M135.696 359.592L130.062 375.859C121.418 400.814 94.1798 414.037 69.2237 405.394L52.9565 399.76L58.5911 383.492C67.2349 358.537 94.4727 345.314 119.429 353.958L135.696 359.592Z" fill="url(#paint21_linear_1_328)"/>
<path opacity="0.5" fill-rule="evenodd" clip-rule="evenodd" d="M53.6269 397.826L134.909 359.319L135.696 359.592L130.062 375.859C121.418 400.816 94.1798 414.039 69.2237 405.395L52.9565 399.761L53.6269 397.826Z" fill="#2F6C42"/>
<path d="M125.596 366.79L136.718 379.931C153.781 400.089 151.272 430.263 131.113 447.326L117.974 458.448L106.851 445.308C89.7878 425.15 92.297 394.976 112.456 377.913L125.596 366.79Z" fill="url(#paint22_linear_1_328)"/>
<path opacity="0.5" fill-rule="evenodd" clip-rule="evenodd" d="M116.649 456.885L124.959 367.329L125.594 366.79L136.716 379.931C153.779 400.089 151.27 430.263 131.112 447.326L117.972 458.448L116.649 456.885Z" fill="#2F6C42"/>
<path d="M0.285821 232.542L17.4988 232.821C43.9056 233.25 64.9652 255.004 64.5366 281.411L64.2572 298.624L47.0442 298.345C20.6373 297.916 -0.422214 276.161 0.00642898 249.755L0.285821 232.542Z" fill="url(#paint23_linear_1_328)"/>
<path opacity="0.5" fill-rule="evenodd" clip-rule="evenodd" d="M62.207 298.591L0.269287 233.374L0.282803 232.542L17.496 232.821C43.9029 233.249 64.9624 255.004 64.5339 281.411L64.2544 298.624L62.207 298.591Z" fill="#2F6C42"/>
<path fill-rule="evenodd" clip-rule="evenodd" d="M623.27 176.102L604.309 138.413L606.338 137.392L625.299 175.08C629.812 184.049 633.223 193.417 635.532 202.992L643.867 182.863L645.966 183.733L636.402 206.842C641.637 231.871 639.411 258.126 629.641 282.219L656.667 260.021L658.11 261.778L627.704 286.753L602.782 342.409L628.255 331.747L629.134 333.844L601.422 345.441L568.222 419.584L566.15 418.655L621.875 294.206L608.633 280.726L610.256 279.133L622.872 291.978L625.736 285.58C625.741 285.578 625.741 285.577 625.741 285.576C635.882 262.927 639.083 238.104 635.409 214.121L607.527 202.933L608.371 200.823L634.981 211.499C632.856 199.321 628.946 187.389 623.27 176.102Z" fill="#94632A"/>
<path d="M557.688 102.248L572.6 101.878C595.475 101.312 614.476 119.396 615.044 142.27L615.412 157.18L600.5 157.55C577.629 158.117 558.624 140.033 558.06 117.159L557.688 102.248Z" fill="url(#paint24_linear_1_328)"/>
<path opacity="0.5" fill-rule="evenodd" clip-rule="evenodd" d="M613.636 157.225L557.705 102.969L557.688 102.248L572.6 101.878C595.471 101.312 614.476 119.396 615.044 142.27L615.412 157.181L613.636 157.225Z" fill="#2F6C42"/>
<path d="M639.314 194.027L635.05 179.735C628.504 157.81 640.976 134.731 662.902 128.186L677.193 123.921L681.456 138.212C688.003 160.138 675.531 183.217 653.605 189.761L639.314 194.027Z" fill="url(#paint25_linear_1_328)"/>
<path opacity="0.5" fill-rule="evenodd" clip-rule="evenodd" d="M677.7 125.62L640.009 193.821L639.314 194.027L635.05 179.735C628.504 157.81 640.976 134.73 662.902 128.186L677.193 123.92L677.7 125.62Z" fill="#2F6C42"/>
<path d="M631.087 211.422L626.163 197.344C618.607 175.746 594.971 164.364 573.372 171.922L559.296 176.848L564.22 190.926C571.776 212.524 595.412 223.905 617.011 216.348L631.087 211.422Z" fill="url(#paint26_linear_1_328)"/>
<path opacity="0.5" fill-rule="evenodd" clip-rule="evenodd" d="M559.882 178.523L630.405 211.66L631.087 211.422L626.163 197.344C618.607 175.747 594.971 164.365 573.372 171.922L559.296 176.848L559.882 178.523Z" fill="#2F6C42"/>
<path d="M619.548 289.099L619.85 274.187C620.313 251.31 602.149 232.388 579.27 231.924L564.359 231.621L564.057 246.533C563.594 269.41 581.758 288.332 604.637 288.797L619.548 289.099Z" fill="url(#paint27_linear_1_328)"/>
<path opacity="0.5" fill-rule="evenodd" clip-rule="evenodd" d="M564.324 233.395L618.828 289.085L619.549 289.099L619.851 274.187C620.314 251.31 602.145 232.388 579.27 231.924L564.359 231.621L564.324 233.395Z" fill="#2F6C42"/>
<path d="M642.498 273.636L641.383 258.763C639.668 235.945 656.775 216.059 679.589 214.344L694.466 213.226L695.581 228.099C697.295 250.917 680.188 270.804 657.37 272.518L642.498 273.636Z" fill="url(#paint28_linear_1_328)"/>
<path opacity="0.5" fill-rule="evenodd" clip-rule="evenodd" d="M694.596 214.995L643.219 273.582L642.498 273.636L641.383 258.763C639.668 235.945 656.775 216.059 679.592 214.344L694.464 213.226L694.596 214.995Z" fill="#2F6C42"/>
<path d="M610.459 341.024L613.725 326.47C618.732 304.142 640.89 290.101 663.215 295.109L677.768 298.372L674.506 312.926C669.499 335.253 647.341 349.294 625.012 344.287L610.459 341.024Z" fill="url(#paint29_linear_1_328)"/>
<path opacity="0.5" fill-rule="evenodd" clip-rule="evenodd" d="M677.383 300.103L611.163 341.182L610.459 341.024L613.725 326.47C618.732 304.142 640.89 290.102 663.215 295.108L677.768 298.372L677.383 300.103Z" fill="#2F6C42"/>
<defs>
<radialGradient id="paint0_radial_1_328" cx="0" cy="0" r="1" gradientUnits="userSpaceOnUse" gradientTransform="translate(340.936 290.443) rotate(87.4324) scale(248.319 248.32)">
<stop stop-color="#B4B8BB"/>
<stop offset="0.366165" stop-color="#E0E4E7"/>
<stop offset="0.979813" stop-color="#ECEEEF"/>
</radialGradient>
<radialGradient id="paint1_radial_1_328" cx="0" cy="0" r="1" gradientUnits="userSpaceOnUse" gradientTransform="translate(279.38 368.091) rotate(116.615) scale(111.277 111.277)">
<stop stop-color="#CB9749"/>
<stop offset="1" stop-color="#E9D8B7"/>
</radialGradient>
<linearGradient id="paint2_linear_1_328" x1="458.663" y1="225.956" x2="187.048" y2="449.22" gradientUnits="userSpaceOnUse">
<stop stop-color="#D0A777"/>
<stop offset="0.408235" stop-color="#D9AE86"/>
<stop offset="0.985021" stop-color="#EFD6B9"/>
</linearGradient>
<linearGradient id="paint3_linear_1_328" x1="328.991" y1="418.66" x2="420.511" y2="199.956" gradientUnits="userSpaceOnUse">
<stop stop-color="#8F5F33"/>
<stop offset="1" stop-color="#8F5F33" stop-opacity="0.4"/>
</linearGradient>
<radialGradient id="paint4_radial_1_328" cx="0" cy="0" r="1" gradientUnits="userSpaceOnUse" gradientTransform="translate(277.346 290.757) rotate(-170.024) scale(132.917 132.918)">
<stop stop-color="#DFB06A"/>
<stop offset="1" stop-color="#E9D8B7"/>
</radialGradient>
<linearGradient id="paint5_linear_1_328" x1="329.367" y1="493.355" x2="220.687" y2="158.979" gradientUnits="userSpaceOnUse">
<stop stop-color="#D0A777"/>
<stop offset="0.408235" stop-color="#D9AE86"/>
<stop offset="0.985021" stop-color="#EFD6B9"/>
</linearGradient>
<linearGradient id="paint6_linear_1_328" x1="197.308" y1="302.284" x2="367.499" y2="467.336" gradientUnits="userSpaceOnUse">
<stop stop-color="#8F5F33"/>
<stop offset="1" stop-color="#8F5F33" stop-opacity="0.4"/>
</linearGradient>
<radialGradient id="paint7_radial_1_328" cx="0" cy="0" r="1" gradientUnits="userSpaceOnUse" gradientTransform="translate(245.819 260.099) rotate(-171.707) scale(112.975 111.521)">
<stop stop-color="#DFB06A"/>
<stop offset="1" stop-color="#E9D8B7"/>
</radialGradient>
<linearGradient id="paint8_linear_1_328" x1="413.798" y1="386.109" x2="118.821" y2="194.772" gradientUnits="userSpaceOnUse">
<stop stop-color="#D0A777"/>
<stop offset="0.408235" stop-color="#D9AE86"/>
<stop offset="0.985021" stop-color="#EFD6B9"/>
</linearGradient>
<linearGradient id="paint9_linear_1_328" x1="193.229" y1="323.706" x2="429.372" y2="344.766" gradientUnits="userSpaceOnUse">
<stop stop-color="#8F5F33"/>
<stop offset="1" stop-color="#8F5F33" stop-opacity="0.4"/>
</linearGradient>
<linearGradient id="paint10_linear_1_328" x1="414.375" y1="80.566" x2="414.357" y2="216.837" gradientUnits="userSpaceOnUse">
<stop stop-color="#788286"/>
<stop offset="1" stop-color="#B2B9BB"/>
</linearGradient>
<linearGradient id="paint11_linear_1_328" x1="433.822" y1="244.277" x2="428.111" y2="136.927" gradientUnits="userSpaceOnUse">
<stop stop-color="#F2BA5D"/>
<stop offset="1" stop-color="#D55561"/>
</linearGradient>
<linearGradient id="paint12_linear_1_328" x1="417.649" y1="178.904" x2="391.893" y2="170.379" gradientUnits="userSpaceOnUse">
<stop stop-color="#2CDA89"/>
<stop offset="1" stop-color="#3BA240"/>
</linearGradient>
<linearGradient id="paint13_linear_1_328" x1="441.82" y1="170.834" x2="414.868" y2="151.653" gradientUnits="userSpaceOnUse">
<stop stop-color="#2CDA89"/>
<stop offset="1" stop-color="#3BA240"/>
</linearGradient>
<linearGradient id="paint14_linear_1_328" x1="400.817" y1="139.187" x2="374.592" y2="130.509" gradientUnits="userSpaceOnUse">
<stop stop-color="#AB2B37"/>
<stop offset="1" stop-color="#C5472B"/>
</linearGradient>
<linearGradient id="paint15_linear_1_328" x1="477.782" y1="211.09" x2="477.761" y2="347.361" gradientUnits="userSpaceOnUse">
<stop stop-color="#788286"/>
<stop offset="1" stop-color="#B2B9BB"/>
</linearGradient>
<linearGradient id="paint16_linear_1_328" x1="458.483" y1="276.352" x2="521.726" y2="217.784" gradientUnits="userSpaceOnUse">
<stop stop-color="#F5E2CD"/>
<stop offset="1" stop-color="#E38E72"/>
</linearGradient>
<linearGradient id="paint17_linear_1_328" x1="481.055" y1="291.89" x2="455.297" y2="283.365" gradientUnits="userSpaceOnUse">
<stop stop-color="#2CDA89"/>
<stop offset="1" stop-color="#3BA240"/>
</linearGradient>
<linearGradient id="paint18_linear_1_328" x1="420.721" y1="376.356" x2="400.032" y2="406.729" gradientUnits="userSpaceOnUse">
<stop stop-color="#C4CC57"/>
<stop offset="1" stop-color="#DBE272"/>
</linearGradient>
<linearGradient id="paint19_linear_1_328" x1="205.029" y1="81.9411" x2="212.572" y2="44.4746" gradientUnits="userSpaceOnUse">
<stop stop-color="#C4CC57"/>
<stop offset="1" stop-color="#DBE272"/>
</linearGradient>
<linearGradient id="paint20_linear_1_328" x1="165.16" y1="82.3427" x2="167.573" y2="120.485" gradientUnits="userSpaceOnUse">
<stop stop-color="#C4CC57"/>
<stop offset="1" stop-color="#DBE272"/>
</linearGradient>
<linearGradient id="paint21_linear_1_328" x1="110.154" y1="396.091" x2="59.3622" y2="353.334" gradientUnits="userSpaceOnUse">
<stop stop-color="#25CB7E"/>
<stop offset="1" stop-color="#3D9E41"/>
</linearGradient>
<linearGradient id="paint22_linear_1_328" x1="131.829" y1="439.142" x2="82.1802" y2="422.725" gradientUnits="userSpaceOnUse">
<stop stop-color="#25CB7E"/>
<stop offset="1" stop-color="#3D9E41"/>
</linearGradient>
<linearGradient id="paint23_linear_1_328" x1="44.6185" y1="284.705" x2="-6.75461" y2="255.744" gradientUnits="userSpaceOnUse">
<stop stop-color="#25CB7E"/>
<stop offset="1" stop-color="#3D9E41"/>
</linearGradient>
<linearGradient id="paint24_linear_1_328" x1="597.592" y1="145.831" x2="553.001" y2="119.157" gradientUnits="userSpaceOnUse">
<stop stop-color="#25CB7E"/>
<stop offset="1" stop-color="#3D9E41"/>
</linearGradient>
<linearGradient id="paint25_linear_1_328" x1="667.797" y1="179.26" x2="623.021" y2="160.868" gradientUnits="userSpaceOnUse">
<stop stop-color="#25CB7E"/>
<stop offset="1" stop-color="#3D9E41"/>
</linearGradient>
<linearGradient id="paint26_linear_1_328" x1="608.925" y1="208.342" x2="564.946" y2="171.226" gradientUnits="userSpaceOnUse">
<stop stop-color="#25CB7E"/>
<stop offset="1" stop-color="#3D9E41"/>
</linearGradient>
<linearGradient id="paint27_linear_1_328" x1="602.63" y1="276.992" x2="558.082" y2="252.027" gradientUnits="userSpaceOnUse">
<stop stop-color="#25CB7E"/>
<stop offset="1" stop-color="#3D9E41"/>
</linearGradient>
<linearGradient id="paint28_linear_1_328" x1="678.895" y1="260.912" x2="633.954" y2="237.538" gradientUnits="userSpaceOnUse">
<stop stop-color="#25CB7E"/>
<stop offset="1" stop-color="#3D9E41"/>
</linearGradient>
<linearGradient id="paint29_linear_1_328" x1="656.99" y1="334.515" x2="612.182" y2="300.518" gradientUnits="userSpaceOnUse">
<stop stop-color="#25CB7E"/>
<stop offset="1" stop-color="#3D9E41"/>
</linearGradient>
</defs>
</svg>
