<svg width="683" height="365" viewBox="0 0 683 365" fill="none" xmlns="http://www.w3.org/2000/svg">
<path d="M511.688 178.53C510.457 275.89 430.533 353.817 333.171 352.585C235.811 351.354 157.884 271.43 159.116 174.07C160.348 76.7098 240.272 -1.21736 337.632 0.0144036C434.992 1.24617 512.92 81.1704 511.688 178.53Z" fill="url(#paint0_linear_3683_1140)"/>
<path fill-rule="evenodd" clip-rule="evenodd" d="M159.338 172.098L511.516 176.554L511.389 186.424L159.213 181.969L159.338 172.098Z" fill="#C2844C"/>
<path d="M492.341 178.286C491.244 264.961 420.093 334.337 333.416 333.24C246.741 332.143 177.366 260.99 178.462 174.315C179.559 87.6392 250.712 18.2639 337.387 19.3607C424.062 20.4571 493.439 91.6103 492.341 178.286Z" fill="#CC915E"/>
<path fill-rule="evenodd" clip-rule="evenodd" d="M333.526 324.554C415.404 325.59 482.62 260.054 483.656 178.176C484.693 96.2978 419.156 29.0824 337.278 28.0464C255.399 27.0108 188.184 92.5462 187.148 174.425C186.112 256.303 251.648 323.518 333.526 324.554ZM333.416 333.24C420.093 334.337 491.244 264.961 492.341 178.286C493.439 91.6103 424.062 20.4571 337.387 19.3607C250.712 18.2639 179.559 87.6392 178.462 174.315C177.366 260.99 246.741 332.143 333.416 333.24Z" fill="#E8CA8F"/>
<path fill-rule="evenodd" clip-rule="evenodd" d="M473.918 102.433C484.377 122.009 490.806 144.046 492.106 167.424L178.967 163.462C180.859 140.125 187.843 118.257 198.796 98.9523L473.918 102.433ZM366.826 22.497C407.823 30.8263 442.937 55.106 465.52 88.5062L207.545 85.2422C230.962 52.424 266.682 29.0408 307.874 21.7513L366.826 22.497ZM476.166 245.803C485.83 226.258 491.555 204.397 492.274 181.246L178.45 177.276C178.586 200.438 183.752 222.437 192.922 242.219L476.166 245.803ZM468.495 259.527L200.241 256.133C217.673 285.582 244.467 308.873 276.58 321.859L390.518 323.301C422.948 311.132 450.326 288.526 468.495 259.527Z" fill="url(#paint1_radial_3683_1140)"/>
<path fill-rule="evenodd" clip-rule="evenodd" d="M333.526 324.554C415.404 325.59 482.62 260.054 483.656 178.176C484.693 96.2978 419.156 29.0824 337.278 28.0464C255.399 27.0108 188.184 92.5462 187.148 174.425C186.112 256.303 251.648 323.518 333.526 324.554ZM333.416 333.24C420.093 334.337 491.244 264.961 492.341 178.286C493.439 91.6103 424.062 20.4571 337.387 19.3607C250.712 18.2639 179.559 87.6392 178.462 174.315C177.366 260.99 246.741 332.143 333.416 333.24Z" fill="#EED199"/>
<path d="M316.589 161.648C349.326 162.063 376.201 135.859 376.615 103.122C377.03 70.3845 350.826 43.5098 318.089 43.0956C285.351 42.6814 258.477 68.8846 258.063 101.622C257.648 134.359 283.852 161.234 316.589 161.648Z" fill="url(#paint2_linear_3683_1140)"/>
<path d="M316.19 153.921C347.964 154.323 374.048 128.89 374.45 97.1156C374.852 65.341 349.42 39.2567 317.645 38.8547C285.871 38.4527 259.786 63.8852 259.384 95.6598C258.982 127.434 284.415 153.519 316.19 153.921Z" fill="url(#paint3_radial_3683_1140)"/>
<path d="M309.961 55.4471L310.181 94.3444L336.095 65.3356L311.261 95.274L349.759 89.7089L311.491 96.6806L344.559 117.164L310.763 97.9055L322.929 134.852L309.418 98.3759L294.988 134.499L308.085 97.8719L273.812 116.268L307.388 96.6286L269.309 88.6913L307.653 95.2285L283.585 64.6709L308.756 94.3264L309.961 55.4471Z" fill="url(#paint4_radial_3683_1140)"/>
<path fill-rule="evenodd" clip-rule="evenodd" d="M310.447 76.2608C310.035 77.1312 309.197 77.5985 308.575 77.3048C307.954 77.0107 307.783 76.0669 308.195 75.1961C308.606 74.3257 309.444 73.858 310.066 74.1521C310.688 74.4462 310.858 75.39 310.447 76.2608ZM291.986 87.5842C292.608 87.8782 293.446 87.4109 293.857 86.5401C294.269 85.6697 294.098 84.7255 293.476 84.4318C292.855 84.1377 292.017 84.605 291.605 85.4758C291.194 86.3462 291.364 87.2905 291.986 87.5842ZM326.74 87.7941C326.727 88.7571 326.16 89.5307 325.472 89.5219C324.785 89.5131 324.237 88.7257 324.249 87.7627C324.261 86.7998 324.829 86.0261 325.517 86.0349C326.204 86.0437 326.752 86.8311 326.74 87.7941ZM299.763 108.298C300.392 109.027 300.48 109.983 299.96 110.432C299.439 110.882 298.507 110.655 297.878 109.926C297.248 109.198 297.16 108.243 297.68 107.793C298.201 107.344 299.133 107.57 299.763 108.298ZM326.227 119.376C326.849 119.67 327.687 119.203 328.098 118.332C328.51 117.461 328.339 116.517 327.718 116.224C327.096 115.929 326.258 116.397 325.846 117.268C325.435 118.138 325.605 119.082 326.227 119.376Z" fill="#6D5654"/>
<path d="M367.297 222.464C388.587 247.336 426.009 250.24 450.881 228.95C475.754 207.66 478.658 170.238 457.368 145.365C436.077 120.493 398.655 117.589 373.783 138.879C348.91 160.169 346.006 197.591 367.297 222.464Z" fill="url(#paint5_linear_3683_1140)"/>
<path d="M372.838 217.064C393.502 241.205 429.824 244.024 453.965 223.36C478.106 202.696 480.924 166.374 460.26 142.233C439.596 118.092 403.275 115.274 379.134 135.938C354.993 156.602 352.174 192.923 372.838 217.064Z" fill="url(#paint6_radial_3683_1140)"/>
<path d="M442.724 147.409L413.644 173.24L452.541 173.571L413.656 174.665L443.241 199.921L412.753 175.766L419.182 214.129L411.35 176.027L391.616 209.547L410.111 175.327L373.447 188.319L409.61 173.993L373.172 160.378L410.084 172.649L390.92 138.798L411.312 171.924L418.39 133.676L412.715 172.158L442.724 147.409Z" fill="url(#paint7_radial_3683_1140)"/>
<path fill-rule="evenodd" clip-rule="evenodd" d="M427.408 161.506C426.483 161.771 425.576 161.45 425.389 160.789C425.198 160.128 425.794 159.377 426.72 159.112C427.645 158.846 428.552 159.168 428.739 159.828C428.93 160.49 428.334 161.241 427.408 161.506ZM406.719 155.107C406.906 155.768 407.812 156.089 408.738 155.824C409.663 155.559 410.26 154.807 410.069 154.146C409.881 153.485 408.975 153.164 408.05 153.429C407.124 153.695 406.528 154.446 406.719 155.107ZM429.492 181.36C428.758 181.986 427.806 182.07 427.358 181.548C426.911 181.025 427.14 180.094 427.871 179.468C428.601 178.841 429.557 178.758 430.005 179.28C430.452 179.802 430.223 180.734 429.492 181.36ZM396.282 174.618C396.152 175.572 395.491 176.269 394.81 176.174C394.129 176.079 393.686 175.23 393.816 174.276C393.949 173.322 394.607 172.626 395.288 172.72C395.969 172.815 396.416 173.664 396.282 174.618ZM405.422 201.814C405.61 202.475 406.516 202.796 407.442 202.53C408.367 202.265 408.964 201.514 408.772 200.853C408.585 200.192 407.682 199.871 406.753 200.136C405.828 200.402 405.231 201.153 405.422 201.814Z" fill="#6D5654"/>
<path d="M315.712 270.771C338.382 247.149 337.611 209.623 313.989 186.953C290.367 164.283 252.84 165.054 230.171 188.676C207.501 212.298 208.272 249.825 231.894 272.495C255.516 295.164 293.042 294.393 315.712 270.771Z" fill="url(#paint8_linear_3683_1140)"/>
<path d="M309.797 265.784C331.8 242.857 331.051 206.434 308.124 184.431C285.197 162.427 248.774 163.176 226.771 186.103C204.768 209.03 205.517 245.453 228.444 267.457C251.371 289.46 287.794 288.711 309.797 265.784Z" fill="url(#paint9_radial_3683_1140)"/>
<path d="M233.64 203.05L262.194 229.465L258.717 190.723L263.611 229.312L285.85 197.399L264.795 230.105L302.344 219.953L265.192 231.474L300.482 247.834L264.616 232.777L281.134 267.994L263.337 233.406L253.353 271.001L261.953 233.066L230.14 255.448L261.112 231.915L222.354 228.612L261.207 230.493L233.64 203.05Z" fill="url(#paint10_radial_3683_1140)"/>
<path fill-rule="evenodd" clip-rule="evenodd" d="M249.165 216.915C249.52 217.81 249.289 218.742 248.65 218.995C248.01 219.248 247.204 218.727 246.849 217.832C246.495 216.937 246.726 216.006 247.365 215.753C248.005 215.499 248.811 216.02 249.165 216.915ZM244.821 238.131C245.461 237.878 245.692 236.947 245.337 236.051C244.983 235.156 244.177 234.636 243.538 234.889C242.898 235.142 242.667 236.073 243.022 236.969C243.376 237.864 244.182 238.384 244.821 238.131ZM268.721 212.898C269.415 213.565 269.592 214.508 269.116 215.004C268.64 215.5 267.69 215.362 266.996 214.695C266.301 214.028 266.124 213.086 266.6 212.589C267.077 212.093 268.026 212.231 268.721 212.898ZM265.26 246.606C266.222 246.645 266.98 247.233 266.953 247.921C266.925 248.608 266.123 249.134 265.161 249.095C264.199 249.057 263.441 248.469 263.468 247.781C263.496 247.094 264.298 246.568 265.26 246.606ZM291.432 234.851C292.071 234.597 292.302 233.667 291.947 232.771C291.593 231.876 290.787 231.355 290.148 231.609C289.508 231.862 289.277 232.793 289.632 233.688C289.986 234.584 290.792 235.104 291.432 234.851Z" fill="#6D5654"/>
<path d="M135.514 211.889C135.514 249.074 105.37 279.219 68.1846 279.219C30.9991 279.219 0.854492 249.074 0.854492 211.889C0.854492 174.703 30.9991 144.559 68.1846 144.559C105.37 144.559 135.514 174.703 135.514 211.889Z" fill="#323138"/>
<path fill-rule="evenodd" clip-rule="evenodd" d="M68.1846 275.037C103.06 275.037 131.332 246.765 131.332 211.889C131.332 177.013 103.06 148.741 68.1846 148.741C33.309 148.741 5.03647 177.013 5.03647 211.889C5.03647 246.765 33.309 275.037 68.1846 275.037ZM68.1846 279.219C105.37 279.219 135.514 249.074 135.514 211.889C135.514 174.703 105.37 144.559 68.1846 144.559C30.9991 144.559 0.854492 174.703 0.854492 211.889C0.854492 249.074 30.9991 279.219 68.1846 279.219Z" fill="url(#paint11_linear_3683_1140)"/>
<path d="M68.1829 254.963C91.9724 254.963 111.257 235.678 111.257 211.889C111.257 188.1 91.9724 168.814 68.1829 168.814C44.3935 168.814 25.1084 188.1 25.1084 211.889C25.1084 235.678 44.3935 254.963 68.1829 254.963Z" fill="#351F0D"/>
<path d="M42.5397 235.96C43.8069 235.96 44.8343 234.932 44.8343 233.665C44.8343 232.398 43.8069 231.37 42.5397 231.37C41.2724 231.37 40.2451 232.398 40.2451 233.665C40.2451 234.932 41.2724 235.96 42.5397 235.96Z" fill="#503014"/>
<path d="M39.5866 229.673C40.2795 229.673 40.8412 229.111 40.8412 228.418C40.8412 227.725 40.2795 227.164 39.5866 227.164C38.8937 227.164 38.332 227.725 38.332 228.418C38.332 229.111 38.8937 229.673 39.5866 229.673Z" fill="#503014"/>
<path d="M92.362 186.841C93.0549 186.841 93.6166 186.279 93.6166 185.586C93.6166 184.893 93.0549 184.332 92.362 184.332C91.6691 184.332 91.1074 184.893 91.1074 185.586C91.1074 186.279 91.6691 186.841 92.362 186.841Z" fill="#503014"/>
<path fill-rule="evenodd" clip-rule="evenodd" d="M599.624 23.4461C601.349 24.6661 601.758 27.0528 600.538 28.7768L598.55 31.5861C597.33 33.3101 594.943 33.7186 593.219 32.4982L585.727 27.1955C584.002 25.9755 583.593 23.5888 584.813 21.8648L586.802 19.0555C588.022 17.3315 590.412 16.923 592.133 18.1434L599.624 23.4461ZM573.103 15.2702C572.877 13.1699 570.988 11.6512 568.889 11.8776L559.764 12.8613C557.664 13.0876 556.146 14.9734 556.372 17.0733L556.743 20.4953C556.968 22.5952 558.854 24.1139 560.953 23.8878L570.078 22.9042C572.177 22.6778 573.696 20.7921 573.47 18.6921L573.103 15.2702ZM576.812 42.083C577.795 40.2141 577.08 37.9016 575.21 36.9172L567.091 32.6401C565.221 31.6561 562.907 32.3732 561.924 34.2417L560.322 37.287C559.335 39.1559 560.054 41.4685 561.921 42.4529L570.043 46.7299C571.91 47.7143 574.223 46.9973 575.21 45.1283L576.812 42.083ZM546.788 25.6562C548.887 25.4298 550.773 26.9488 550.998 29.0487L551.369 32.4707C551.595 34.5706 550.077 36.4564 547.977 36.6828L538.849 37.6664C536.749 37.8928 534.864 36.3738 534.638 34.2738L534.271 30.8519C534.042 28.7519 535.56 26.8662 537.663 26.6398L546.788 25.6562ZM587.907 51.9815C587.253 49.9741 585.092 48.8792 583.084 49.5362L574.361 52.391C572.353 53.0481 571.26 55.208 571.917 57.2154L572.988 60.4863C573.642 62.4937 575.803 63.5886 577.811 62.9316L586.534 60.0767C588.542 59.4197 589.635 57.2598 588.978 55.2524L587.907 51.9815ZM531.345 14.3107C529.881 12.7882 527.46 12.7404 525.938 14.2043L519.322 20.5653C517.8 22.0292 517.75 24.4504 519.215 25.9728L521.601 28.454C523.066 29.9765 525.487 30.0243 527.009 28.5604L533.625 22.199C535.147 20.7355 535.196 18.3143 533.732 16.7919L531.345 14.3107ZM519.421 47.8057C517.983 46.2596 518.071 43.8399 519.616 42.4009L522.136 40.0558C523.682 38.6171 526.102 38.7039 527.54 40.2501L533.793 46.9686C535.235 48.5147 535.147 50.9348 533.602 52.3735L531.082 54.7185C529.533 56.1572 527.116 56.0704 525.674 54.5242L519.421 47.8057ZM604.145 37.7253C602.099 37.2056 600.018 38.4435 599.498 40.4906L597.238 49.3863C596.718 51.4334 597.957 53.5142 600.003 54.0343L603.338 54.8818C605.384 55.4019 607.468 54.164 607.988 52.1168L610.244 43.2212C610.765 41.174 609.529 39.0928 607.48 38.5727L604.145 37.7253ZM557.729 50.1573C558.735 52.0147 558.047 54.3357 556.188 55.3415L553.163 56.9802C551.304 57.986 548.983 57.2957 547.977 55.4386L543.606 47.3678C542.6 45.5104 543.293 43.1894 545.147 42.1836L548.176 40.5449C550.035 39.5391 552.352 40.2294 553.358 42.0865L557.729 50.1573Z" fill="url(#paint12_linear_3683_1140)"/>
<path d="M659.975 144.106C660.598 143.31 661.753 143.233 662.556 143.933L678.236 157.631C679.035 158.331 679.18 159.545 678.557 160.34L605.111 254.119C604.488 254.915 603.333 254.992 602.53 254.292L586.85 240.594C586.047 239.894 585.906 238.68 586.529 237.884L659.975 144.106Z" fill="url(#paint13_linear_3683_1140)"/>
<path d="M661.046 84.6357C661.688 83.4888 662.942 83.0012 663.849 83.5465L681.544 94.2133C682.45 94.759 682.664 96.1308 682.022 97.2777L606.389 232.382C605.746 233.529 604.492 234.017 603.586 233.471L585.891 222.804C584.984 222.259 584.77 220.887 585.413 219.74L661.046 84.6357Z" fill="url(#paint14_linear_3683_1140)"/>
<path d="M618.297 55.4731C618.485 54.3514 619.483 53.5617 620.531 53.7093L640.96 56.5894C642.004 56.7366 642.7 57.7654 642.513 58.8867L620.473 190.985C620.286 192.107 619.288 192.896 618.24 192.749L597.811 189.869C596.767 189.721 596.071 188.693 596.258 187.571L618.297 55.4731Z" fill="url(#paint15_linear_3683_1140)"/>
<path d="M590.146 84.2403L567.235 95.9186C567.044 96.0165 566.952 96.2555 567.032 96.4574L592.724 162.911C595.887 171.087 596.074 180.353 593.256 188.964L546.963 330.404C544.756 337.145 544.825 344.39 547.15 350.86L548.477 354.551C551.854 363.936 562.241 367.783 570.838 362.831C576.815 359.385 581.228 353.427 582.945 346.481L624.527 178.187C626.653 169.59 625.854 160.609 622.278 152.868L590.644 84.414C590.556 84.2204 590.334 84.144 590.146 84.2403Z" fill="url(#paint16_linear_3683_1140)"/>
<path d="M102.265 111.956C104.323 108.087 109.129 106.618 112.999 108.677C116.868 110.735 118.337 115.54 116.278 119.41C114.22 123.28 109.415 124.748 105.545 122.69C101.675 120.631 100.207 115.826 102.265 111.956Z" fill="url(#paint17_linear_3683_1140)"/>
<path fill-rule="evenodd" clip-rule="evenodd" d="M112.671 109.293C109.141 107.415 104.758 108.755 102.881 112.284C101.004 115.813 102.343 120.197 105.872 122.074C109.402 123.951 113.785 122.612 115.662 119.082C117.54 115.553 116.2 111.17 112.671 109.293ZM112.999 108.677C109.129 106.618 104.323 108.087 102.265 111.956C100.207 115.826 101.675 120.631 105.545 122.69C109.415 124.748 114.22 123.28 116.278 119.41C118.337 115.54 116.868 110.735 112.999 108.677Z" fill="#E03F49"/>
<path d="M102.101 114.027L108.706 114.115L114.206 110.457L110.827 116.133L111.245 122.725L108.019 116.961L102.101 114.027Z" fill="#F9747C"/>
<path d="M113.354 116.595C113.438 116.246 113.224 115.895 112.875 115.811C112.527 115.727 112.176 115.941 112.092 116.29C112.008 116.639 112.222 116.989 112.571 117.073C112.919 117.158 113.27 116.943 113.354 116.595Z" fill="#F3F4CB"/>
<path d="M106.673 118.498C106.944 118.738 107.359 118.714 107.599 118.443C107.839 118.172 107.814 117.757 107.543 117.517C107.272 117.276 106.858 117.301 106.618 117.572C106.377 117.843 106.402 118.258 106.673 118.498Z" fill="#F3F4CB"/>
<path d="M108.172 112.288C108.523 112.198 108.88 112.409 108.97 112.76C109.061 113.111 108.849 113.468 108.498 113.558C108.148 113.649 107.79 113.437 107.7 113.086C107.61 112.736 107.821 112.378 108.172 112.288Z" fill="#F3F4CB"/>
<path d="M113.796 119.076C113.88 118.728 113.665 118.377 113.317 118.293C112.968 118.209 112.617 118.423 112.533 118.771C112.449 119.12 112.663 119.471 113.012 119.555C113.361 119.639 113.711 119.425 113.796 119.076Z" fill="#F3F4CB"/>
<path d="M104.309 117.804C104.58 118.045 104.994 118.02 105.235 117.749C105.475 117.478 105.45 117.063 105.179 116.823C104.908 116.582 104.494 116.607 104.253 116.878C104.013 117.149 104.038 117.564 104.309 117.804Z" fill="#F3F4CB"/>
<path d="M105.75 111.827C106.101 111.737 106.458 111.948 106.548 112.299C106.639 112.65 106.427 113.008 106.077 113.098C105.726 113.188 105.368 112.977 105.278 112.626C105.188 112.275 105.399 111.918 105.75 111.827Z" fill="#F3F4CB"/>
<path d="M114.811 114.868C114.895 114.519 114.681 114.169 114.332 114.084C113.984 114 113.633 114.215 113.549 114.563C113.465 114.912 113.679 115.263 114.028 115.347C114.376 115.431 114.727 115.217 114.811 114.868Z" fill="#F3F4CB"/>
<path d="M107.646 120.763C107.917 121.003 108.331 120.978 108.572 120.707C108.812 120.436 108.787 120.022 108.516 119.781C108.245 119.541 107.831 119.566 107.59 119.837C107.35 120.108 107.375 120.522 107.646 120.763Z" fill="#F3F4CB"/>
<path d="M110.07 110.717C110.421 110.626 110.779 110.838 110.869 111.188C110.959 111.539 110.748 111.897 110.397 111.987C110.046 112.077 109.689 111.866 109.598 111.515C109.508 111.164 109.719 110.807 110.07 110.717Z" fill="#F3F4CB"/>
<path d="M116.413 135.285C118.472 131.415 123.277 129.947 127.147 132.005C131.017 134.063 132.485 138.869 130.426 142.738C128.368 146.608 123.563 148.077 119.693 146.018C115.824 143.96 114.355 139.154 116.413 135.285Z" fill="url(#paint18_linear_3683_1140)"/>
<path fill-rule="evenodd" clip-rule="evenodd" d="M126.819 132.621C123.29 130.744 118.907 132.083 117.03 135.612C115.152 139.142 116.491 143.525 120.021 145.402C123.55 147.28 127.933 145.94 129.811 142.411C131.688 138.881 130.349 134.498 126.819 132.621ZM127.147 132.005C123.277 129.947 118.472 131.415 116.413 135.285C114.355 139.154 115.824 143.96 119.693 146.018C123.563 148.077 128.368 146.608 130.426 142.738C132.485 138.869 131.017 134.063 127.147 132.005Z" fill="#E03F49"/>
<path d="M116.251 137.355L122.856 137.443L128.357 133.785L124.978 139.461L125.396 146.054L122.169 140.29L116.251 137.355Z" fill="#F9747C"/>
<path d="M127.506 139.923C127.59 139.574 127.375 139.223 127.027 139.139C126.678 139.055 126.327 139.27 126.243 139.618C126.159 139.967 126.373 140.318 126.722 140.402C127.071 140.486 127.421 140.271 127.506 139.923Z" fill="#F3F4CB"/>
<path d="M120.824 141.827C121.095 142.067 121.509 142.042 121.749 141.771C121.99 141.5 121.965 141.085 121.694 140.845C121.423 140.605 121.008 140.63 120.768 140.901C120.528 141.172 120.553 141.586 120.824 141.827Z" fill="#F3F4CB"/>
<path d="M122.322 135.616C122.673 135.526 123.03 135.737 123.121 136.088C123.211 136.439 123 136.796 122.649 136.887C122.298 136.977 121.941 136.766 121.85 136.415C121.76 136.064 121.971 135.706 122.322 135.616Z" fill="#F3F4CB"/>
<path d="M127.944 142.404C128.028 142.056 127.814 141.705 127.465 141.621C127.117 141.537 126.766 141.751 126.682 142.1C126.598 142.448 126.812 142.799 127.16 142.883C127.509 142.967 127.86 142.753 127.944 142.404Z" fill="#F3F4CB"/>
<path d="M118.457 141.132C118.728 141.373 119.143 141.348 119.383 141.077C119.624 140.806 119.599 140.391 119.328 140.151C119.057 139.911 118.642 139.935 118.402 140.206C118.161 140.478 118.186 140.892 118.457 141.132Z" fill="#F3F4CB"/>
<path d="M119.9 135.156C120.251 135.065 120.609 135.277 120.699 135.628C120.789 135.978 120.578 136.336 120.227 136.426C119.876 136.516 119.519 136.305 119.428 135.954C119.338 135.603 119.549 135.246 119.9 135.156Z" fill="#F3F4CB"/>
<path d="M128.962 138.196C129.046 137.848 128.831 137.497 128.483 137.413C128.134 137.328 127.783 137.543 127.699 137.891C127.615 138.24 127.829 138.591 128.178 138.675C128.527 138.759 128.877 138.545 128.962 138.196Z" fill="#F3F4CB"/>
<path d="M121.796 144.091C122.067 144.331 122.482 144.306 122.722 144.035C122.962 143.764 122.938 143.35 122.667 143.109C122.395 142.869 121.981 142.894 121.741 143.165C121.5 143.436 121.525 143.851 121.796 144.091Z" fill="#F3F4CB"/>
<path d="M124.221 134.045C124.571 133.954 124.929 134.166 125.019 134.517C125.109 134.867 124.898 135.225 124.547 135.315C124.196 135.405 123.839 135.194 123.749 134.843C123.658 134.492 123.87 134.135 124.221 134.045Z" fill="#F3F4CB"/>
<path fill-rule="evenodd" clip-rule="evenodd" d="M162.429 68.9331C162.234 68.3602 161.611 68.0542 161.038 68.2497L148.376 72.5704C147.803 72.7658 147.497 73.3888 147.693 73.9616C147.888 74.5345 148.511 74.8404 149.084 74.645L161.746 70.3243C162.319 70.1289 162.625 69.5059 162.429 68.9331Z" fill="#323138"/>
<path d="M72.9322 137.824L102.045 103.715C105.721 99.4092 110.639 96.3475 116.126 94.9504L144.088 87.8315C151.197 86.0219 155.485 78.7836 153.657 71.6796C151.697 64.0605 143.571 59.8147 136.197 62.556L112.708 71.2892C101.784 75.3502 92.9271 83.5934 88.0932 94.1978L69.2704 135.491C68.2161 137.804 71.2824 139.757 72.9322 137.824Z" fill="url(#paint19_linear_3683_1140)"/>
<path d="M167.425 290.795L135.847 285.286C129.598 284.196 123.651 288.383 122.57 294.633L118.79 316.493L117.277 321.987C113.215 336.739 124.767 351.147 140.049 350.391C145.09 350.141 149.68 347.411 152.306 343.1L153.36 341.368L154.702 341.18C159.786 340.467 164.174 337.25 166.384 332.616L167.715 329.826L172.656 328.847C176.871 328.012 180.506 325.294 182.526 321.502C189.292 308.805 181.63 293.073 167.425 290.795Z" fill="url(#paint20_linear_3683_1140)"/>
<path fill-rule="evenodd" clip-rule="evenodd" d="M122.51 294.688L122.56 294.397C122.612 294.1 122.674 293.809 122.746 293.523C123.809 295.368 124.563 297.379 124.977 299.475L130.041 325.136C131.211 331.064 135.167 336.064 140.667 338.565L151.798 343.628C151.649 343.842 151.495 344.053 151.336 344.258L140.351 339.262C134.626 336.658 130.509 331.454 129.291 325.284L124.227 299.623C123.887 297.902 123.308 296.242 122.51 294.688ZM145.127 349.008C145.443 348.877 145.753 348.736 146.058 348.585L133.829 343.151C127.004 340.119 122.631 333.323 122.7 325.855L122.913 302.563C122.931 300.636 122.663 298.729 122.127 296.9L121.801 298.788C122.042 300.023 122.16 301.285 122.148 302.555L121.935 325.848C121.864 333.621 126.415 340.694 133.518 343.85L145.127 349.008ZM154.396 340.985L144.766 334.665C141.312 332.398 138.667 329.093 137.212 325.226L127.868 300.39C127.449 299.273 126.923 298.2 126.299 297.183L123.196 292.129C123.31 291.839 123.435 291.555 123.571 291.279L126.951 296.783C127.6 297.841 128.147 298.958 128.584 300.121L137.928 324.957C139.326 328.672 141.867 331.848 145.185 334.026L155.516 340.805C155.243 340.859 154.969 340.905 154.692 340.944L154.396 340.985ZM158.958 339.693L124.363 289.918C124.515 289.694 124.674 289.476 124.84 289.265L159.652 339.353C159.423 339.472 159.192 339.586 158.958 339.693ZM165.085 334.587L130.206 285.476C130.461 285.39 130.719 285.313 130.98 285.244L165.538 333.904C165.393 334.136 165.242 334.364 165.085 334.587ZM167.945 329.542L165.71 320.201C164.786 316.34 162.66 312.873 159.639 310.299L139.441 293.088C138.496 292.283 137.63 291.39 136.855 290.42L132.49 284.958C132.794 284.922 133.101 284.898 133.411 284.885L137.452 289.943C138.197 290.874 139.029 291.733 139.937 292.506L160.135 309.717C163.279 312.396 165.492 316.005 166.454 320.023L168.696 329.393L167.945 329.542ZM172.419 328.656L171.512 317.49C171.024 311.468 167.661 306.05 162.481 302.94L140.057 289.476C138.063 288.279 136.301 286.735 134.853 284.921C135.179 284.949 135.508 284.992 135.837 285.049L135.976 285.074C137.261 286.546 138.77 287.811 140.451 288.82L162.875 302.284C168.266 305.522 171.766 311.16 172.275 317.428L173.173 328.496C172.999 328.537 172.823 328.576 172.647 328.611L172.419 328.656ZM179.079 325.513L178.145 312.611C177.606 305.162 172.696 298.745 165.647 296.277L143.661 288.581C141.577 287.851 139.645 286.778 137.938 285.416L139.632 285.711C140.954 286.603 142.392 287.326 143.914 287.859L165.899 295.556C173.236 298.124 178.347 304.803 178.908 312.556L179.799 324.864C179.566 325.088 179.326 325.305 179.079 325.513Z" fill="#D1C0AF"/>
<path d="M95.5673 302.653L84.3373 309.922L81.9383 311.389C71.3044 317.892 67.8064 331.695 74.0602 342.477L76.2007 346.168C79.238 351.404 86.8659 351.205 89.6251 345.817L90.8439 343.436C95.1027 335.119 98.0665 326.201 99.6329 316.989L101.416 306.504C101.974 303.222 98.3621 300.843 95.5673 302.653Z" fill="#F5E1AE"/>
<defs>
<linearGradient id="paint0_linear_3683_1140" x1="483.381" y1="387.065" x2="208.47" y2="2.92137" gradientUnits="userSpaceOnUse">
<stop stop-color="#C0793C"/>
<stop offset="1" stop-color="#EBB484"/>
</linearGradient>
<radialGradient id="paint1_radial_3683_1140" cx="0" cy="0" r="1" gradientUnits="userSpaceOnUse" gradientTransform="translate(335.54 180.843) rotate(90.7249) scale(141.75 148.058)">
<stop stop-color="#F1D49A"/>
<stop offset="1" stop-color="#DF9D64"/>
</radialGradient>
<linearGradient id="paint2_linear_3683_1140" x1="324.155" y1="233.052" x2="328.958" y2="80.1294" gradientUnits="userSpaceOnUse">
<stop stop-color="#CFB996"/>
<stop offset="1" stop-color="#EEEDDF"/>
</linearGradient>
<radialGradient id="paint3_radial_3683_1140" cx="0" cy="0" r="1" gradientUnits="userSpaceOnUse" gradientTransform="translate(316.917 96.3877) rotate(90.7249) scale(65.6325)">
<stop stop-color="white"/>
<stop offset="0.564807" stop-color="#EDEBDB"/>
<stop offset="0.951323" stop-color="#E2DAC5"/>
</radialGradient>
<radialGradient id="paint4_radial_3683_1140" cx="0" cy="0" r="1" gradientUnits="userSpaceOnUse" gradientTransform="translate(309.444 96.2928) rotate(86.2482) scale(35.1028)">
<stop stop-color="#E0D8C2"/>
<stop offset="1" stop-color="#E0D8C2" stop-opacity="0"/>
</radialGradient>
<linearGradient id="paint5_linear_3683_1140" x1="318.637" y1="275.266" x2="436.713" y2="177.971" gradientUnits="userSpaceOnUse">
<stop stop-color="#CFB996"/>
<stop offset="1" stop-color="#EEEDDF"/>
</linearGradient>
<radialGradient id="paint6_radial_3683_1140" cx="0" cy="0" r="1" gradientUnits="userSpaceOnUse" gradientTransform="translate(416.55 179.649) rotate(139.437) scale(65.6325)">
<stop stop-color="white"/>
<stop offset="0.564807" stop-color="#EDEBDB"/>
<stop offset="0.951323" stop-color="#E2DAC5"/>
</radialGradient>
<radialGradient id="paint7_radial_3683_1140" cx="0" cy="0" r="1" gradientUnits="userSpaceOnUse" gradientTransform="translate(411.694 173.972) rotate(134.961) scale(35.1028)">
<stop stop-color="#E0D8C2"/>
<stop offset="1" stop-color="#E0D8C2" stop-opacity="0"/>
</radialGradient>
<linearGradient id="paint8_linear_3683_1140" x1="373.02" y1="314.032" x2="264.639" y2="206.042" gradientUnits="userSpaceOnUse">
<stop stop-color="#CFB996"/>
<stop offset="1" stop-color="#EEEDDF"/>
</linearGradient>
<radialGradient id="paint9_radial_3683_1140" cx="0" cy="0" r="1" gradientUnits="userSpaceOnUse" gradientTransform="translate(268.284 225.944) rotate(43.8221) scale(65.6325)">
<stop stop-color="white"/>
<stop offset="0.564807" stop-color="#EDEBDB"/>
<stop offset="0.951323" stop-color="#E2DAC5"/>
</radialGradient>
<radialGradient id="paint10_radial_3683_1140" cx="0" cy="0" r="1" gradientUnits="userSpaceOnUse" gradientTransform="translate(263.113 231.335) rotate(39.3454) scale(35.1028)">
<stop stop-color="#E0D8C2"/>
<stop offset="1" stop-color="#E0D8C2" stop-opacity="0"/>
</radialGradient>
<linearGradient id="paint11_linear_3683_1140" x1="68.1846" y1="144.559" x2="68.1846" y2="279.219" gradientUnits="userSpaceOnUse">
<stop stop-color="#64626F"/>
<stop offset="1" stop-color="#64626F" stop-opacity="0.34"/>
</linearGradient>
<linearGradient id="paint12_linear_3683_1140" x1="590.19" y1="88.0105" x2="514.614" y2="24.2602" gradientUnits="userSpaceOnUse">
<stop stop-color="#80D78C"/>
<stop offset="1" stop-color="#61B078"/>
</linearGradient>
<linearGradient id="paint13_linear_3683_1140" x1="712.413" y1="141.118" x2="737.153" y2="236.597" gradientUnits="userSpaceOnUse">
<stop stop-color="#64B581"/>
<stop offset="0.741777" stop-color="#C8E797"/>
<stop offset="0.974604" stop-color="#E3EBB4"/>
</linearGradient>
<linearGradient id="paint14_linear_3683_1140" x1="667.478" y1="95.6432" x2="715.373" y2="154.166" gradientUnits="userSpaceOnUse">
<stop stop-color="#64B581"/>
<stop offset="0.741777" stop-color="#C8E797"/>
<stop offset="0.974604" stop-color="#E3EBB4"/>
</linearGradient>
<linearGradient id="paint15_linear_3683_1140" x1="625.376" y1="82.2492" x2="676.648" y2="113.814" gradientUnits="userSpaceOnUse">
<stop stop-color="#64B581"/>
<stop offset="0.782584" stop-color="#C8E797"/>
<stop offset="0.974604" stop-color="#E3EBB4"/>
</linearGradient>
<linearGradient id="paint16_linear_3683_1140" x1="607.968" y1="105.415" x2="704.305" y2="214.748" gradientUnits="userSpaceOnUse">
<stop stop-color="#64B581"/>
<stop offset="0.782584" stop-color="#C8E797"/>
<stop offset="0.974604" stop-color="#E3EBB4"/>
</linearGradient>
<linearGradient id="paint17_linear_3683_1140" x1="107.011" y1="125.224" x2="107.781" y2="107.838" gradientUnits="userSpaceOnUse">
<stop stop-color="#E23B45"/>
<stop offset="1" stop-color="#F4616A"/>
</linearGradient>
<linearGradient id="paint18_linear_3683_1140" x1="121.159" y1="148.552" x2="121.929" y2="131.166" gradientUnits="userSpaceOnUse">
<stop stop-color="#E23B45"/>
<stop offset="1" stop-color="#F4616A"/>
</linearGradient>
<linearGradient id="paint19_linear_3683_1140" x1="119.041" y1="81.5559" x2="159.53" y2="98.7835" gradientUnits="userSpaceOnUse">
<stop stop-color="#D55561"/>
<stop offset="1" stop-color="#EB8B75"/>
</linearGradient>
<linearGradient id="paint20_linear_3683_1140" x1="145.513" y1="312.261" x2="178.679" y2="359.45" gradientUnits="userSpaceOnUse">
<stop stop-color="#F5E6D5"/>
<stop offset="1" stop-color="#DFD1C2"/>
</linearGradient>
</defs>
</svg>
