<svg width="61" height="27" viewBox="0 0 61 27" fill="none" xmlns="http://www.w3.org/2000/svg">
<path d="M26.6936 17.2646C26.1185 17.7441 25.767 18.3996 25.6394 19.2309H31.9898C31.8618 18.4155 31.5106 17.7644 30.9355 17.2766C30.3602 16.7892 29.6571 16.5451 28.8265 16.5451C27.9797 16.5451 27.269 16.7848 26.6936 17.2646ZM35.4408 21.4128H25.6872C25.8629 22.2124 26.2781 22.8437 26.9334 23.3072C27.5881 23.7709 28.4031 24.0027 29.3779 24.0027C30.0487 24.0027 30.6438 23.9029 31.1631 23.7029C31.682 23.503 32.1655 23.1873 32.6129 22.7557L34.6021 24.9135C33.3878 26.3046 31.6142 27 29.2818 27C27.8278 27 26.5416 26.7162 25.4236 26.1488C24.305 25.5814 23.4424 24.7939 22.8353 23.7867C22.2278 22.7795 21.9246 21.6369 21.9246 20.3578C21.9246 19.0951 22.2242 17.9561 22.8236 16.9407C23.4225 15.9258 24.2453 15.1344 25.2918 14.5668C26.3381 13.9995 27.5086 13.7157 28.8027 13.7157C30.0645 13.7157 31.2069 13.9875 32.2295 14.5308C33.2517 15.0744 34.0546 15.854 34.6379 16.8689C35.2209 17.884 35.5129 19.0629 35.5129 20.4056C35.5129 20.4535 35.4888 20.7893 35.4408 21.4128Z" fill="#001E3B"/>
<path d="M44.2556 24.0385C44.7506 23.7429 45.1024 23.3072 45.3101 22.7316V21.4128H42.7458C41.212 21.4128 40.4452 21.9162 40.4452 22.9236C40.4452 23.403 40.6329 23.783 41.0085 24.0626C41.3838 24.3424 41.8987 24.4822 42.5543 24.4822C43.1931 24.4822 43.7602 24.3344 44.2556 24.0385ZM47.443 15.1423C48.513 16.0937 49.0486 17.5283 49.0486 19.4465V26.8081H45.5499V25.2014C44.8464 26.4003 43.5366 27 41.6195 27C40.6287 27 39.7702 26.8322 39.0434 26.4965C38.316 26.1605 37.761 25.6972 37.3777 25.1056C36.9942 24.5142 36.8024 23.8429 36.8024 23.0914C36.8024 21.8924 37.2537 20.9492 38.1566 20.2619C39.0591 19.5749 40.4532 19.2309 42.3383 19.2309H45.3101C45.3101 18.4153 45.062 17.7882 44.5671 17.3484C44.0718 16.909 43.3288 16.6889 42.3383 16.6889C41.6514 16.6889 40.9763 16.7969 40.3135 17.0128C39.6503 17.2285 39.0872 17.5204 38.6238 17.8881L37.2819 15.2743C37.9848 14.7788 38.8276 14.3953 39.8102 14.1233C40.7927 13.8517 41.803 13.7157 42.8416 13.7157C44.8386 13.7157 46.3725 14.1914 47.443 15.1423Z" fill="#001E3B"/>
<path d="M60.75 26.1846C60.3824 26.4567 59.9311 26.6603 59.396 26.796C58.8605 26.9316 58.2974 27 57.7064 27C56.1726 27 54.9864 26.6082 54.1477 25.8249C53.309 25.0418 52.8893 23.8908 52.8893 22.3718V17.0727H50.9006V14.1951H52.8893V11.0541H56.6279V14.1951H59.8392V17.0727H56.6279V22.324C56.6279 22.8677 56.7677 23.2872 57.0474 23.5829C57.3268 23.8788 57.722 24.0264 58.2339 24.0264C58.8247 24.0264 59.3278 23.867 59.7436 23.5469L60.75 26.1846Z" fill="#001E3B"/>
<path d="M19.5505 16.6669H16.1164V21.0971H11.3575V16.6669H1.42157C0.637228 16.6669 0.00146484 16.0307 0.00146484 15.2459V13.3815L9.94145 0H15.0623L5.84509 12.6885H11.508V8.74018H16.1164V12.6885H19.5505V16.6669Z" fill="#2CDA89"/>
<path d="M4.65356 0H1.41996C0.635768 0 5.72205e-06 0.63613 5.72205e-06 1.42092V6.26485L4.65356 0Z" fill="#2CDA89"/>
</svg>
