<svg width="38" height="38" viewBox="0 0 38 38" fill="none" xmlns="http://www.w3.org/2000/svg">
<rect width="38" height="38" rx="4" fill="#DFEBF7"/>
<path d="M21.177 20.6245L21.8141 21.1126L21.7963 21.6018C21.6259 21.6601 21.5014 21.8108 21.4972 21.9942L21.2526 32.0907V32.2063C21.2526 33.1952 22.0937 34 23.1263 34C24.1592 34 25 33.1948 25 32.2063L24.5646 21.986C24.5584 21.8391 24.4707 21.7173 24.3485 21.6444L24.3488 5.42924C24.3488 5.20154 24.1623 5.01356 23.9256 5.00006C23.6745 4.9979 21.5956 5.02842 21.2537 10.4822C20.9315 15.6232 21.0079 20.2503 21.0079 20.2959C21.0113 20.4237 21.0725 20.5444 21.1769 20.6243L21.177 20.6245ZM24.1011 32.0901V32.2057C24.1011 32.72 23.6635 33.1389 23.1263 33.1389C22.5891 33.1389 22.1515 32.72 22.1515 32.2057L22.1504 32.0996L22.384 22.4338H23.6856L24.1011 32.0901ZM22.1506 10.5343C22.325 7.75173 22.9697 6.54253 23.4499 6.09012V21.573H22.6954L22.7194 20.9275C22.7248 20.7911 22.6624 20.6609 22.5518 20.5758L21.9037 20.0794C21.8927 19.1389 21.8676 15.0359 22.1506 10.5339V10.5343Z" fill="#0085FF"/>
<path d="M15.5 16.5H17L18 33L16 33.5L14.5 32.5L15.5 16.5Z" fill="#0085FF"/>
<path d="M22 22H24L24.5 33L23 33.5L22 33V22Z" fill="#0085FF"/>
<path d="M16.3751 33.9827C17.0152 33.988 17.5638 33.7198 17.9206 33.2277C18.2203 32.8155 18.3821 32.258 18.3893 31.6153L18.3893 31.6135L17.6963 16.5138C17.6913 16.3935 17.6152 16.2934 17.5084 16.2299L17.5282 14.2738L18.8465 12.664C18.8962 12.6031 18.9242 12.5294 18.9253 12.4547L19 5.54336L19 5.53966C19 5.33774 18.8124 5.17418 18.5788 5.17164C18.3444 5.16979 18.1525 5.33312 18.1493 5.5362L18.0919 10.9112L17.5898 10.9071L17.6494 5.38075L17.6494 5.37705C17.6494 5.17583 17.4617 5.01157 17.2282 5.00903C16.9938 5.00718 16.8019 5.17052 16.7987 5.37359L16.7392 10.9001L16.2309 10.896L16.2905 5.37174L16.2905 5.36804C16.2905 5.16612 16.1028 5.00256 15.8693 5.00002C15.6349 4.99817 15.443 5.1615 15.4398 5.36457L15.3803 10.8891L14.867 10.8849L14.9252 5.51011L14.9252 5.50641C14.9252 5.30519 14.7375 5.14093 14.5039 5.13838C14.2696 5.13654 14.0777 5.29987 14.0745 5.50294L14.0125 11.2453C14.0125 11.2455 14.0123 11.2458 14.0123 11.246L14.0123 11.2497C14.0123 11.2499 14.0125 11.2499 14.0125 11.2504L14 12.4143L14 12.418C14 12.4917 14.0259 12.5642 14.0737 12.6245L15.3567 14.2558L15.3359 16.235C15.2492 16.2981 15.1899 16.3879 15.1827 16.4931L14.1745 31.3745L14.1724 31.5449L14.1724 31.5879C14.1724 32.4813 14.4866 33.2291 15.0365 33.6429C15.4206 33.9319 15.9071 34.0476 16.3751 33.9823L16.3751 33.9827ZM16.188 16.1513L16.2091 14.1483L16.2091 14.1446C16.2091 14.0709 16.1832 13.9993 16.1354 13.938L14.8524 12.3068L14.8598 11.6218L18.0845 11.6481L18.0773 12.3331L16.759 13.9429C16.7082 14.0039 16.6813 14.0776 16.6802 14.1522L16.6591 16.1557L16.188 16.1513ZM15.5949 33.0884C15.2402 32.8218 15.0224 32.2482 15.0224 31.5865C15.0224 31.5757 15.0224 31.5641 15.0234 31.5523L16.0078 16.885L16.8635 16.8922L17.5399 31.4388L17.5389 31.6077C17.5338 32.107 17.4134 32.5431 17.2007 32.8367C16.9983 33.1151 16.7319 33.2498 16.3158 33.2505C16.0265 33.2884 15.79 33.2355 15.5949 33.0881L15.5949 33.0884Z" fill="#0085FF"/>
</svg>
