<svg width="32" height="41" viewBox="0 0 32 41" fill="none" xmlns="http://www.w3.org/2000/svg">
<path d="M13.4756 9.74937C13.4756 9.74937 12.3961 0.979048 19.664 0.979004C26.9319 0.97896 25.8305 9.74937 25.8305 9.74937" stroke="#2CDA89"/>
<path d="M9.11599 9.74937C9.11599 9.74937 8.18389 0.979048 15.4518 0.979004C22.7197 0.97896 21.4709 9.74937 21.4709 9.74937" stroke="#09C06B"/>
<path d="M2.55479 9.02264H9.09561L7.64209 41L0.374512 40.2732L2.55479 9.02264Z" fill="#09C06B"/>
<path d="M9.09561 9.02264H30.1716L31.6251 41H7.64209L9.09561 9.02264Z" fill="#2CDA89"/>
<path d="M9.09561 9.02264H30.1716L31.6251 41H7.64209L9.09561 9.02264Z" fill="#2CDA89"/>
<path d="M12.0029 26.4647C12.0029 26.4647 12.0029 20.6507 13.4564 18.4704C14.91 16.2901 17.0902 15.5634 17.0902 15.5634V34.4591H14.91V26.4647H12.0029Z" fill="#0082FF"/>
<path d="M19.27 16.1084C19.27 15.3817 20.7235 15.3817 20.7235 16.1084C20.7235 16.8352 20.7235 21.9225 20.7235 21.9225C20.7235 21.9225 20.8157 23.376 21.4503 23.376C22.0849 23.376 22.1771 21.9225 22.1771 21.9225C22.1771 21.9225 22.1771 16.8352 22.1771 16.1084C22.1771 15.3817 23.6306 15.3817 23.6306 16.1084C23.6306 16.8352 23.6306 21.9225 23.6306 21.9225C23.6306 21.9225 23.7227 23.376 24.3573 23.376C24.992 23.376 25.0841 21.9225 25.0841 21.9225C25.0841 21.9225 25.0841 16.8352 25.0841 16.1084C25.0841 15.3817 26.5376 15.3817 26.5376 16.1084C26.5376 16.8352 26.5376 22.6492 26.5376 22.6492C26.5376 23.376 25.2005 24.7159 24.3573 24.8295C24.3573 24.8295 24.3573 32.8239 24.3573 34.2774C24.3573 35.7309 21.4503 35.7309 21.4503 34.2774C21.4503 32.8239 21.4503 24.8295 21.4503 24.8295C20.39 24.4829 19.27 23.376 19.27 22.6492C19.27 22.6492 19.27 16.8352 19.27 16.1084Z" fill="#0082FF"/>
</svg>
