<svg width="81" height="36" viewBox="0 0 81 36" fill="none" xmlns="http://www.w3.org/2000/svg">
<path d="M35.5915 23.0195C34.8246 23.6588 34.356 24.5329 34.1859 25.6411H42.6531C42.4824 24.5539 42.0141 23.6859 41.2474 23.0355C40.4803 22.3856 39.5428 22.0601 38.4353 22.0601C37.3062 22.0601 36.3586 22.3798 35.5915 23.0195ZM47.2544 28.5504H34.2497C34.4839 29.6165 35.0374 30.4583 35.9112 31.0763C36.7842 31.6946 37.8708 32.0036 39.1705 32.0036C40.065 32.0036 40.8583 31.8705 41.5508 31.6039C42.2427 31.3374 42.8873 30.9164 43.4839 30.3409L46.1362 33.218C44.5171 35.0728 42.1523 36 39.0424 36C37.1037 36 35.3888 35.6216 33.8981 34.8651C32.4066 34.1086 31.2565 33.0585 30.4471 31.7157C29.6371 30.3726 29.2328 28.8492 29.2328 27.1437C29.2328 25.4601 29.6322 23.9415 30.4314 22.5876C31.23 21.2344 32.327 20.1793 33.7224 19.4224C35.1174 18.666 36.6781 18.2876 38.4036 18.2876C40.086 18.2876 41.6092 18.65 42.9727 19.3744C44.3357 20.0992 45.4062 21.1386 46.1839 22.4919C46.9612 23.8454 47.3505 25.4172 47.3505 27.2075C47.3505 27.2713 47.3184 27.719 47.2544 28.5504Z" fill="#001E3B"/>
<path d="M59.0079 32.0514C59.668 31.6572 60.137 31.0763 60.414 30.3088V28.5504H56.9948C54.9498 28.5504 53.9274 29.2216 53.9274 30.5648C53.9274 31.204 54.1777 31.7106 54.6785 32.0835C55.1789 32.4565 55.8654 32.6429 56.7395 32.6429C57.5913 32.6429 58.3473 32.4459 59.0079 32.0514ZM63.2578 20.1897C64.6845 21.4583 65.3986 23.371 65.3986 25.9287V35.7442H60.7336V33.6019C59.7957 35.2004 58.0493 36 55.4931 36C54.1721 36 53.0274 35.7763 52.0583 35.3286C51.0885 34.8807 50.3485 34.2629 49.8375 33.4741C49.3261 32.6857 49.0704 31.7905 49.0704 30.7886C49.0704 29.1899 49.672 27.9323 50.8759 27.0159C52.0792 26.0998 53.9381 25.6411 56.4516 25.6411H60.414C60.414 24.5538 60.0831 23.7176 59.4233 23.1312C58.7629 22.5453 57.7722 22.2519 56.4516 22.2519C55.5356 22.2519 54.6356 22.3958 53.7518 22.6837C52.8676 22.9713 52.1167 23.3606 51.4988 23.8508L49.7097 20.3657C50.6469 19.7051 51.7706 19.1938 53.0807 18.831C54.3907 18.469 55.7378 18.2876 57.1226 18.2876C59.7853 18.2876 61.8305 18.9219 63.2578 20.1897Z" fill="#001E3B"/>
<path d="M80.9999 34.9129C80.5098 35.2757 79.9082 35.5472 79.1946 35.7282C78.4807 35.909 77.7298 36.0001 76.9419 36.0001C74.8969 36.0001 73.3151 35.4777 72.1969 34.4333C71.0786 33.3892 70.5191 31.8545 70.5191 29.8293V22.7637H67.8674V18.927H70.5191V14.7389H75.5039V18.927H79.7856V22.7637H75.5039V29.7654C75.5039 30.4904 75.6902 31.0497 76.0632 31.444C76.4357 31.8385 76.9627 32.0354 77.6452 32.0354C78.4329 32.0354 79.1038 31.8228 79.6581 31.396L80.9999 34.9129Z" fill="#001E3B"/>
<path d="M26.0673 22.2225H21.4885V28.1295H15.1433V22.2225H1.89536C0.849576 22.2225 0.00189209 21.3743 0.00189209 20.3279V17.842L13.2552 0H20.0831L7.79339 16.918H15.3439V11.6536H21.4885V16.918H26.0673V22.2225Z" fill="#2CDA89"/>
<path d="M6.20471 0H1.89324C0.847649 0 -3.43332e-05 0.848173 -3.43332e-05 1.89456V8.35313L6.20471 0Z" fill="#2CDA89"/>
</svg>
