<svg width="90" height="80" viewBox="0 0 90 80" fill="none" xmlns="http://www.w3.org/2000/svg">
<path opacity="0.1" d="M8.32266 32.8176C5.91195 35.8422 0.631136 42.6477 0.991018 50.9969C1.54763 63.9079 15.1548 70.3588 17.4139 71.4301C34.4721 79.5175 54.0021 70.5931 58.6171 68.3034C59.9122 67.6611 87.7976 53.4283 86.9429 34.337C86.8223 31.6445 86.7724 29.6108 85.4129 27.7309C85.3455 27.6377 80.2326 31.5778 78.2452 32.8693C77.2973 33.4854 78.885 23.0392 78.786 23.4019C78.428 24.7135 80.3997 22.9708 80.4783 22.9708C80.6958 22.9708 83.2365 23.5006 83.2205 23.4119C82.4352 19.0528 77.7477 17.8152 76.4513 16.9001C58.4308 4.1799 23.4822 13.7962 8.32266 32.8176Z" fill="#EBF4F8"/>
<path d="M1.19702 24.7666L10.7115 32.2762H11.394L18.2607 28.2686L10.673 21.5392L1.19702 24.7666Z" fill="#E5AE81"/>
<path d="M80.4784 22.9707L71.8314 29.1632L77.8831 32.7319L89.1253 24.3613L80.4784 22.9707Z" fill="#E5AE81"/>
<path opacity="0.1" d="M86.8413 76.3083C86.8413 77.8055 67.5368 79.0192 43.7235 79.0192C19.9102 79.0192 0.605713 77.8055 0.605713 76.3083C0.605713 74.811 19.9102 73.5973 43.7235 73.5973C67.5368 73.5973 86.8413 74.811 86.8413 76.3083Z" fill="#DBE2EA"/>
<path d="M77.8098 9.22789C81.0563 12.9015 79.5884 19.9817 74.959 25.8493C69.8705 32.2989 63.8204 34.1875 60.8936 31.3822C59.4051 29.9554 58.6974 27.2186 60.0608 25.291C61.6714 23.014 65.9817 20.6134 67.9183 18.252C71.2132 14.2347 72.2537 10.7427 73.4673 9.83136C74.6812 8.92012 76.2506 7.46329 77.8098 9.22789Z" fill="#001E3B"/>
<g opacity="0.25">
<g opacity="0.25">
<path opacity="0.25" d="M59.3954 28.4498C61.3205 29.6654 64.0173 29.4825 66.0875 28.3504C68.0941 27.2566 69.6311 25.7504 71.1448 24.1548C74.0477 21.0721 76.702 17.7677 77.6398 13.4391C77.7766 12.7163 77.661 11.8301 76.9151 11.6038C76.3983 11.4517 75.9699 12.1547 75.5155 11.9481C75.0338 11.7104 74.8327 10.7892 74.2498 10.7497C73.665 10.7631 73.0861 11.0406 72.4824 11.0805C72.8294 10.5052 73.1422 10.0756 73.4673 9.83141C74.6811 8.92028 76.2505 7.46344 77.8097 9.22794C81.0562 12.9015 79.5883 19.9818 74.9589 25.8494C69.8704 32.2989 63.8203 34.1875 60.8935 31.3822C60.1326 30.6527 59.5758 29.5808 59.3954 28.4498Z" fill="#5C3E66"/>
</g>
</g>
<path d="M76.5768 7.78521C76.4955 7.41997 76.4924 6.69907 76.3418 6.27348C76.3295 6.23835 76.3139 6.20581 76.2971 6.17419C76.2928 6.16615 76.2885 6.15832 76.284 6.1506C76.2676 6.12217 76.2501 6.09508 76.2309 6.06964C76.2298 6.0682 76.2289 6.06645 76.228 6.06511V6.06552C76.0221 5.79484 75.6846 5.68823 75.6846 5.68823C75.6846 5.68823 75.6104 5.72861 75.572 5.82563C75.5336 5.92256 75.5158 6.0134 75.5662 6.06212C75.6168 6.11084 75.6443 6.3393 75.6046 6.61049C75.5653 6.87974 75.475 7.01395 75.3997 7.41997C75.3995 7.41987 75.3991 7.41977 75.3988 7.41966C75.3944 7.44418 75.3899 7.46931 75.3856 7.49578C75.3334 7.81148 75.3023 8.12284 75.2954 8.19567C75.2943 8.20617 75.2938 8.21173 75.2938 8.21173L76.7543 8.29032C76.7543 8.29032 76.6467 8.09988 76.5768 7.78521Z" fill="#20B872"/>
<path d="M79.8269 9.73205C79.8183 9.72927 79.8092 9.72659 79.8002 9.72402C79.7789 9.71763 79.7567 9.71166 79.7336 9.7062C79.7239 9.70404 79.7142 9.70156 79.7042 9.6995C79.6751 9.69322 79.6452 9.68725 79.6138 9.68169C79.6102 9.68107 79.6068 9.68024 79.6031 9.67963C79.2436 9.61628 78.7504 9.57374 78.4358 9.16854C78.0878 8.72049 77.4471 8.32446 77.0054 8.13689C76.986 8.12865 76.9693 8.12196 76.9513 8.11454L76.9508 8.11403C76.944 8.11125 76.9385 8.10919 76.9319 8.10651C76.9122 8.09847 76.8932 8.09085 76.8753 8.08385C76.8626 8.0788 76.8505 8.07417 76.8386 8.06963C76.8227 8.06366 76.8071 8.05789 76.7927 8.05264C76.7814 8.04852 76.7705 8.04481 76.7599 8.04121C76.7471 8.03678 76.7346 8.03266 76.723 8.02895C76.713 8.02586 76.7037 8.02297 76.6947 8.0204C76.6843 8.01741 76.6742 8.01443 76.6649 8.01206C76.6565 8.00979 76.6489 8.00814 76.6413 8.00639C76.6331 8.00464 76.6248 8.00268 76.6176 8.00134C76.6106 8.00021 76.6044 7.99928 76.5982 7.99846C76.5919 7.99764 76.5855 7.99671 76.5798 7.9963C76.5742 7.99599 76.5693 7.99599 76.5646 7.99599C76.5596 7.99599 76.5546 7.99589 76.5504 7.9962C76.546 7.99661 76.5424 7.99733 76.5387 7.99805C76.5351 7.99877 76.5314 7.99939 76.5282 8.00042C76.5249 8.00135 76.5222 8.00279 76.5196 8.00413C76.517 8.00536 76.5141 8.0066 76.5117 8.00814C76.5096 8.00969 76.5076 8.01154 76.5056 8.01329C76.5038 8.01515 76.5017 8.01679 76.5002 8.01865C76.4984 8.02071 76.4972 8.02287 76.4959 8.02514C76.4944 8.0272 76.4931 8.02926 76.4918 8.03152C76.4908 8.03369 76.4899 8.03595 76.4891 8.03822C76.4879 8.04079 76.4868 8.04337 76.4858 8.04615C76.4854 8.04718 76.485 8.04821 76.4846 8.04924C76.4822 8.05655 76.4796 8.06407 76.4768 8.07138C76.4764 8.07262 76.476 8.07375 76.4755 8.07489C76.4739 8.0787 76.4721 8.0823 76.47 8.08601C76.4694 8.08714 76.4688 8.08838 76.4682 8.08962C76.4655 8.09425 76.4621 8.09868 76.4581 8.1027C76.4581 8.1027 76.3589 9.04144 76.876 9.31511C77.0973 9.43232 77.3959 9.46003 77.8153 9.88284C78.2089 10.2796 79.2853 10.2187 79.9052 9.76347C79.8817 9.75152 79.8549 9.74143 79.8269 9.73205Z" fill="#20B872"/>
<path d="M75.8092 7.89843C75.8066 7.8975 75.8037 7.89657 75.8007 7.89585C75.7877 7.89225 75.7727 7.88947 75.7539 7.88761C75.7529 7.88751 75.7516 7.88751 75.7505 7.88741C75.7322 7.88565 75.7108 7.88483 75.6876 7.88463C75.6824 7.88463 75.6771 7.88452 75.6717 7.88452C75.6463 7.88462 75.6188 7.88534 75.5885 7.88689C75.5857 7.8871 75.5824 7.8873 75.5797 7.88751C75.5507 7.88905 75.5195 7.89142 75.4866 7.8942C75.4802 7.89482 75.4738 7.89534 75.4672 7.89595C75.4308 7.89925 75.3927 7.90316 75.3522 7.9078C75.348 7.90831 75.3436 7.90893 75.3393 7.90934C75.3007 7.91388 75.2604 7.91903 75.2185 7.92469C75.2122 7.92562 75.2062 7.92634 75.1997 7.92716C75.1534 7.93355 75.1053 7.94055 75.0556 7.94807C75.0545 7.94828 75.0535 7.94838 75.0526 7.94859C74.9199 7.96898 74.7761 7.99329 74.6242 8.0212C73.6409 8.20228 73.2018 9.2092 72.6656 9.7276C72.6477 9.7449 72.6295 9.76149 72.6115 9.77756C72.603 9.78518 72.5944 9.79321 72.5858 9.80053C72.5642 9.81896 72.5424 9.83616 72.5203 9.85285C72.5151 9.85676 72.5098 9.86119 72.5047 9.865C72.477 9.88509 72.4493 9.90373 72.421 9.92062C72.4151 9.92413 72.4092 9.92691 72.4033 9.9303C72.3809 9.94308 72.3583 9.95502 72.3354 9.96563C72.3257 9.97017 72.3158 9.97387 72.3058 9.97799C72.2862 9.98623 72.2664 9.99385 72.2462 10.0003C72.235 10.0039 72.2237 10.0072 72.2125 10.0102C72.1927 10.0157 72.1722 10.0201 72.1519 10.0239C72.1405 10.0259 72.1291 10.0282 72.1174 10.0296C72.0952 10.0326 72.0726 10.0339 72.05 10.0348C72.0393 10.0352 72.0295 10.0362 72.0189 10.0362C71.9854 10.036 71.9514 10.0339 71.9163 10.0292C73.3524 10.7538 74.4298 9.50007 74.6884 9.30643C75.1567 8.95582 75.8364 7.91243 75.8364 7.91243C75.8308 7.90677 75.8209 7.90244 75.8092 7.89843Z" fill="#20B872"/>
<path d="M77.0315 8.45047C76.8786 7.92723 76.1928 7.83422 75.9385 7.83319C75.9385 7.83319 75.0102 7.59166 74.9612 8.57572C74.9329 9.14861 74.9475 9.59501 75.2491 10.0846C75.4618 10.43 75.7197 11.1101 75.9992 11.6715C76.1546 11.2195 76.4292 10.7349 76.7058 10.3404C77.0722 9.8179 77.17 8.9252 77.0315 8.45047Z" fill="#2CDA89"/>
<path d="M67.8053 14.8654C67.7961 12.8338 66.575 10.716 65.3456 8.62103C64.4242 7.05883 64.2828 4.72877 64.2743 3.64552H64.3857C64.9171 3.64552 65.3456 3.19366 65.3456 2.63849V1.75814C65.3456 1.19844 64.9171 0.746582 64.3857 0.746582H61.3778H61.3518H58.3435C57.8124 0.746582 57.384 1.19844 57.384 1.75814V2.63849C57.384 3.19366 57.8124 3.64552 58.3435 3.64552H58.4552C58.4465 4.72877 58.305 7.05883 57.384 8.62103C56.1542 10.716 54.9329 12.8338 54.9242 14.8654C54.9242 14.8792 54.9287 14.8971 54.9287 14.9104C54.9287 14.9242 54.9242 14.9329 54.9242 14.942V35.7122C54.9242 37.5366 57.3274 39.4707 61.3518 39.4773V39.4778C61.356 39.4778 61.3601 39.4773 61.3644 39.4773C61.369 39.4773 61.3731 39.4778 61.3778 39.4778V39.4773C65.4017 39.4707 67.8053 37.5366 67.8053 35.7122V14.942C67.8053 14.9329 67.8003 14.9242 67.8003 14.9104C67.8003 14.8971 67.8053 14.8792 67.8053 14.8654Z" fill="#EBF4F8"/>
<path d="M56.2804 15.2217V35.7429C56.2804 36.9581 58.5627 37.9426 61.3777 37.9426C64.1931 37.9426 66.4752 36.9581 66.4752 35.7429V15.2217H56.2804Z" fill="#FC7D3F"/>
<path d="M66.4754 15.2217C66.4754 15.8153 64.1932 16.2963 61.3778 16.2963C58.5628 16.2963 56.2805 15.8153 56.2805 15.2217C56.2805 14.6282 58.5628 14.1472 61.3778 14.1472C64.1931 14.1472 66.4754 14.6282 66.4754 15.2217Z" fill="#EF6129"/>
<path d="M65.354 2.97952C65.354 3.55766 64.9701 4.02641 64.497 4.02641H58.1753C57.702 4.02641 57.3182 3.55766 57.3182 2.97952V1.79347C57.3182 1.21534 57.7021 0.746582 58.1753 0.746582H64.497C64.9702 0.746582 65.354 1.21534 65.354 1.79347V2.97952Z" fill="#1E6EBB"/>
<path d="M57.3776 29.4855C57.3966 29.4855 57.3966 29.4562 57.3776 29.4562C57.3586 29.4562 57.3587 29.4855 57.3776 29.4855Z" fill="#1E6EBB"/>
<path d="M59.6424 5.47269C59.7799 6.56593 59.6023 7.64393 59.0917 8.62408C58.844 9.09973 58.5473 9.55108 58.2565 10.0012C57.9751 10.4369 57.6272 10.8889 57.523 11.4058C57.4965 11.5376 57.6371 11.6776 57.7664 11.5928C58.2541 11.2731 58.5542 10.7177 58.853 10.2308C59.1735 9.70836 59.5023 9.18378 59.7466 8.62027C60.1864 7.60613 60.2733 6.49496 60.0863 5.41264C60.0433 5.16462 59.6105 5.21931 59.6424 5.47269Z" fill="white"/>
<path d="M56.7994 17.44C56.8256 18.2912 56.8591 19.1394 56.9048 19.9898C56.9531 20.8813 57.1227 21.7574 57.1603 22.6491C57.1963 23.5018 57.1804 24.3513 57.1893 25.2042C57.1985 26.0949 57.2586 26.9765 57.2806 27.8663C57.282 27.9181 57.3585 27.9179 57.361 27.8663C57.4035 27.0109 57.4697 26.1678 57.4616 25.3107C57.4533 24.4231 57.3996 23.5365 57.3782 22.6491C57.3576 21.7966 57.4507 20.9484 57.4004 20.0961C57.3478 19.2053 57.2634 18.3253 57.1509 17.44C57.1234 17.223 56.7923 17.2074 56.7994 17.44Z" fill="white"/>
<path d="M57.3793 30.6436C57.3195 31.6221 57.261 32.5986 57.201 33.5762C57.1554 34.3189 56.9637 35.25 57.5507 35.834C57.9248 36.2061 58.4681 35.737 58.2525 35.2924C57.5694 33.8829 57.488 32.1865 57.53 30.6436C57.5326 30.546 57.3853 30.5474 57.3793 30.6436Z" fill="white"/>
<path d="M58.5218 41.8276C58.5218 41.8276 60.6808 38.1738 59.6442 35.1709C58.6077 32.1681 56.8895 28.9128 57.9803 26.6449C59.0711 24.3768 57.5746 22.419 59.3175 20.4553C61.0605 18.4915 60.4539 18.0435 62.0648 16.0718C63.6759 14.1003 67.8423 13.7983 68.8266 17.2534C69.8109 20.7085 69.7922 21.283 70.1952 23.4071C70.5983 25.5313 68.9449 25.8937 69.4815 27.5434C70.0183 29.1932 68.8418 32.2728 66.7496 33.2806C63.7458 34.727 64.2265 33.6607 62.3052 35.9358C60.3843 38.2108 59.6445 42.5732 58.9921 42.7508C58.3397 42.9284 58.3197 42.2039 58.5218 41.8276Z" fill="#137743"/>
<path d="M65.1096 15.6648C64.9424 17.1118 64.9243 18.5835 64.8297 20.0369C64.7866 20.699 64.7602 21.3689 64.6371 22.0223C64.5113 22.6882 64.2497 23.3144 63.9882 23.9361C63.4626 25.1854 62.8852 26.4192 62.4609 27.7083C62.2613 28.3149 62.0989 28.9347 62.0044 29.5669C61.9063 30.2238 61.9119 30.8892 61.8314 31.5475C61.667 32.8917 60.7481 33.9991 60.6489 35.3519C60.6348 35.5459 60.9354 35.5729 60.9497 35.3789C61.0371 34.2037 61.7982 33.237 62.0431 32.1022C62.184 31.4498 62.1791 30.7813 62.2374 30.1193C62.298 29.4313 62.4419 28.7547 62.6375 28.0929C63.018 26.8048 63.5623 25.5618 64.0754 24.3225C64.3318 23.7032 64.6062 23.0841 64.7678 22.4314C64.9135 21.8423 64.9633 21.2388 65.0031 20.6348C65.111 18.9922 65.2769 17.3235 65.2421 15.6768C65.2404 15.5929 65.1195 15.5778 65.1096 15.6648Z" fill="#2CDA89"/>
<path d="M62.4611 18.1237C62.5219 18.7275 62.4299 19.3192 62.3848 19.9198C62.3429 20.4784 62.4022 21.0232 62.5186 21.5701C62.7715 22.7575 63.1294 23.9283 63.4426 25.1011C63.4823 25.2497 63.7196 25.2075 63.6791 25.0582C63.3598 23.8853 63.0038 22.7158 62.7268 21.5322C62.585 20.9264 62.5354 20.3287 62.5567 19.7068C62.575 19.1684 62.6231 18.6452 62.5374 18.1099C62.5294 18.0601 62.4562 18.0746 62.4611 18.1237Z" fill="#2CDA89"/>
<path d="M64.9037 21.8703C65.1322 21.5811 65.3675 21.3368 65.6827 21.1432C65.8711 21.0276 66.0376 20.924 66.183 20.7528C66.3677 20.5357 66.5038 20.2737 66.6506 20.0305C66.7736 19.8265 66.969 19.5924 67.0287 19.3592C67.0465 19.2897 67.0224 19.2118 66.9482 19.1863C66.9339 19.1814 66.9195 19.1765 66.9051 19.1715C66.8287 19.1453 66.7429 19.2109 66.7602 19.2936C66.7762 19.37 66.5894 19.6304 66.5534 19.6932C66.4796 19.822 66.406 19.9508 66.3321 20.0796C66.185 20.3355 66.0488 20.5942 65.8192 20.7882C65.6397 20.9399 65.4245 21.0371 65.2506 21.1972C65.0666 21.3667 64.9259 21.5834 64.7848 21.7877C64.7311 21.8652 64.8462 21.943 64.9037 21.8703Z" fill="#2CDA89"/>
<path d="M60.588 23.9829C60.7655 24.8437 60.9059 25.7606 61.1927 26.5929C61.4633 27.3778 62.4373 27.9864 62.1439 28.8967C62.0941 29.0521 62.3171 29.1317 62.3811 28.9831C62.69 28.266 62.1303 27.6338 61.7341 27.0918C61.3951 26.6282 61.2786 26.131 61.1426 25.5826C61.0077 25.0396 60.8695 24.4984 60.7209 23.9589C60.6981 23.8764 60.5702 23.8964 60.588 23.9829Z" fill="#2CDA89"/>
<path d="M62.3009 29.619C62.5566 28.9362 63.38 28.9431 63.9803 28.8165C64.4295 28.7218 64.8643 28.549 65.2601 28.3173C66.0011 27.8838 66.7149 27.1908 67.0328 26.3798C67.0887 26.2372 66.8732 26.1199 66.7915 26.2548C66.223 27.1942 65.553 27.9506 64.5043 28.3654C63.7148 28.6776 62.4478 28.5621 62.1665 29.57C62.142 29.6577 62.2682 29.7063 62.3009 29.619Z" fill="#2CDA89"/>
<path d="M58.9831 25.8619C59.5985 27.2292 59.7893 28.6965 59.9912 30.1676C60.0745 30.7736 60.1625 31.3835 60.3669 31.9627C60.6048 32.6366 61.1095 33.1613 61.3259 33.8406C61.3717 33.9846 61.5757 33.9541 61.5603 33.7981C61.4989 33.1646 60.9635 32.6882 60.7125 32.1256C60.4091 31.446 60.3107 30.6971 60.2025 29.9673C59.9916 28.5445 59.7625 27.0994 59.0905 25.8102C59.0552 25.7423 58.9515 25.7917 58.9831 25.8619Z" fill="#2CDA89"/>
<path d="M61.4917 33.7733C61.9696 33.1272 62.757 33.0769 63.4858 32.9573C64.0524 32.8644 64.5755 32.6902 65.059 32.3748C65.5698 32.0415 66 31.5991 66.4081 31.1501C66.791 30.7291 67.2048 30.3134 67.3788 29.7587C67.4369 29.5735 67.1524 29.4696 67.095 29.6554C66.9044 30.2748 66.3657 30.7812 65.9296 31.2399C65.4939 31.6981 65.0064 32.1463 64.4309 32.4215C63.4374 32.8966 62.064 32.675 61.3774 33.6941C61.3273 33.7685 61.4384 33.8452 61.4917 33.7733Z" fill="#2CDA89"/>
<path d="M62.4321 42.6489C62.4321 42.6489 65.5972 39.8218 65.52 36.646C65.4427 33.4702 64.7924 29.847 66.5194 28.0165C68.2466 26.1861 67.4139 23.8666 69.6703 22.5238C71.9267 21.181 71.4845 20.5701 73.6174 19.1798C75.7502 17.7893 79.8122 18.7648 79.7027 22.3557C79.5931 25.9467 79.401 26.4885 79.1411 28.6347C78.8811 30.781 77.1956 30.6253 77.207 32.36C77.2182 34.0949 75.1634 36.6728 72.8641 36.9987C69.563 37.4665 70.3444 36.596 67.824 38.1816C65.3035 39.7671 63.2759 43.6998 62.6004 43.6713C61.9248 43.6426 62.1252 42.9463 62.4321 42.6489Z" fill="#20B872"/>
<path d="M76.741 19.898C76.4683 21.2554 76.176 22.6278 75.5712 23.883C74.9306 25.2127 73.9168 26.3491 72.9129 27.4156C71.9065 28.4851 70.8477 29.5 69.9488 30.6662C69.1061 31.7594 68.4599 32.9843 67.8292 34.2073C67.0723 35.6752 66.3235 37.1562 65.2658 38.4359C65.1521 38.5735 65.3596 38.7574 65.4746 38.6197C67.3439 36.3784 68.2347 33.541 69.9206 31.1813C70.8052 29.943 71.8507 28.8305 72.8638 27.6985C73.8236 26.6259 74.8289 25.5469 75.508 24.2658C76.224 22.9147 76.4937 21.3917 76.7742 19.9043C76.7781 19.883 76.7453 19.8765 76.741 19.898Z" fill="#2CDA89"/>
<path d="M73.8298 21.6399C73.5001 21.9558 73.3851 22.3748 73.3701 22.8225C73.3499 23.4335 73.413 23.9722 73.228 24.5704C72.9364 25.5135 72.7329 26.6477 73.0112 27.6209C73.0226 27.6611 73.0813 27.6857 73.1158 27.6575C73.8984 27.0191 75.0135 27.0683 75.847 26.501C76.6684 25.942 77.207 25.0713 77.7259 24.2461C77.7787 24.1622 77.6383 24.093 77.5866 24.1783C77.0491 25.065 76.4567 26.0146 75.5319 26.5432C74.7418 26.9947 73.7946 27.0098 73.0393 27.5405C73.0754 27.5585 73.1113 27.5766 73.1475 27.5946C73.1243 27.08 73.0506 26.587 73.0927 26.0683C73.1312 25.5928 73.2322 25.1312 73.3709 24.6757C73.4974 24.2597 73.5676 23.8747 73.5533 23.4403C73.5336 22.8332 73.4562 22.1892 73.9061 21.7068C73.9509 21.6585 73.8762 21.5953 73.8298 21.6399Z" fill="#2CDA89"/>
<path d="M76.4583 27.0664C75.9528 27.7005 75.4264 28.3454 74.6373 28.6233C73.9462 28.8667 73.2452 28.987 72.5739 29.2992C71.932 29.5977 71.3268 29.9688 70.7272 30.3435C70.2352 30.6512 69.6226 30.9993 69.4993 31.614C69.4793 31.7139 69.619 31.7574 69.6655 31.6696C70.0385 30.9668 70.7027 30.6175 71.3608 30.2182C72.0109 29.8237 72.6805 29.4513 73.3997 29.1976C73.9898 28.9894 74.6277 28.9124 75.1714 28.5849C75.7503 28.2363 76.1653 27.6921 76.564 27.1595C76.618 27.0878 76.5154 26.9948 76.4583 27.0664Z" fill="#2CDA89"/>
<path d="M70.8081 23.5566C70.4797 24.0986 70.4714 24.7733 70.3001 25.3725C70.1349 25.9504 69.9104 26.5112 69.7644 27.0946C69.6294 27.6338 69.5685 28.193 69.6686 28.7433C69.7836 29.3749 70.0073 29.9286 69.9835 30.583C69.9781 30.7308 70.1986 30.7303 70.2312 30.5989C70.3591 30.0838 70.1595 29.5545 70.0279 29.0602C69.861 28.4322 69.8627 27.8398 70.0048 27.2059C70.1314 26.6409 70.3245 26.0954 70.4793 25.5383C70.6524 24.9152 70.6303 24.192 70.9293 23.6157C70.9701 23.5375 70.8524 23.4833 70.8081 23.5566Z" fill="#2CDA89"/>
<path d="M67.4481 28.6146C67.2621 29.6306 66.9498 30.7352 67.1085 31.7728C67.2534 32.7209 67.701 33.5864 67.8162 34.5426C67.8299 34.6561 68.003 34.6468 67.9944 34.5311C67.9296 33.6487 67.5209 32.8476 67.3272 31.9937C67.0785 30.8965 67.4141 29.7295 67.567 28.6379C67.5779 28.5612 67.4624 28.5373 67.4481 28.6146Z" fill="#2CDA89"/>
<path d="M67.3338 35.7301C68.3847 34.9576 69.736 35.2109 70.9512 35.0687C71.4752 35.0073 71.9832 34.8636 72.4363 34.5876C72.8291 34.3485 73.3639 33.9532 73.4778 33.4868C73.4958 33.4137 73.4024 33.3499 73.3411 33.3949C73.1379 33.5441 73.012 33.7642 72.8319 33.9415C72.5743 34.195 72.2669 34.4055 71.9357 34.5512C71.3732 34.7986 70.7576 34.8478 70.151 34.8738C69.1348 34.917 68.0802 34.9325 67.2554 35.6104C67.1858 35.6677 67.2584 35.7854 67.3338 35.7301Z" fill="#2CDA89"/>
<path d="M31.1995 35.3262C31.2648 35.1968 35.9111 28.5434 36.8741 24.7103C38.431 18.5132 36.2229 10.4181 36.2229 10.4181L37.5597 9.08936C37.5597 9.08936 42.6909 11.3515 43.8833 16.8238C45.0754 22.296 44.4814 25.406 41.3962 30.3458C38.0282 35.7379 32.266 36.7537 32.266 36.7537L31.1995 35.3262Z" fill="#FCD400"/>
<path d="M37.5139 9.18046C39.1261 10.2809 41.5814 12.4846 42.3595 16.0557C43.5517 21.528 42.9576 24.638 39.8723 29.5776C37.2798 33.7285 33.269 35.2857 31.5594 35.7829L32.2962 36.7692C32.2962 36.7692 38.0583 35.7533 41.4263 30.3612C44.5116 25.4215 45.1058 22.3114 43.9136 16.8391C42.7213 11.367 37.59 9.10486 37.59 9.10486L37.5139 9.18046Z" fill="#DDB303"/>
<path d="M32.2659 36.7539L31.1995 35.3264L32.5014 34.5154L32.7522 36.0278L32.2659 36.7539Z" fill="#44312E"/>
<path d="M35.5377 6.50043L34.3816 5.5929L32.7064 7.44051C32.8893 8.06098 33.5368 8.68506 33.5368 8.68506L34.0596 8.11423L36.2229 10.4181L37.3507 9.29729C37.433 9.31295 37.5526 9.34622 37.7287 9.41234C38.2579 9.61062 38.3817 9.56643 38.3817 9.56643L37.5598 9.08954L35.0118 7.07476L35.5377 6.50043Z" fill="#DDB303"/>
<path d="M33.6503 32.7084C34.3883 32.0304 35.0369 31.282 35.6249 30.4711C36.238 29.6256 36.8292 28.795 37.315 27.8671C37.7845 26.9705 38.1751 26.034 38.4784 25.0685C38.6308 24.5833 38.7634 24.092 38.8752 23.5957C38.9791 23.134 39.1718 22.5483 39.018 22.0811C38.9417 21.8494 38.6491 21.8031 38.5099 22.006C38.2372 22.4034 38.2298 22.9809 38.132 23.4411C38.0339 23.9033 37.9177 24.3615 37.7844 24.8147C37.5063 25.7604 37.1621 26.692 36.7519 27.5885C36.3487 28.47 35.906 29.3815 35.3525 30.1785C34.7816 31.0004 34.142 31.7803 33.4756 32.5264C33.3684 32.6464 33.5294 32.8196 33.6503 32.7084Z" fill="#FFE473"/>
<path d="M38.787 20.2133C38.9704 18.84 38.9364 17.4298 38.8809 16.048C38.8538 15.3759 38.8152 14.7017 38.7451 14.0326C38.7101 13.6975 38.6623 13.3633 38.6134 13.0301C38.5624 12.6824 38.5244 12.3865 38.3036 12.1045C38.1951 11.9663 37.9792 12.0517 37.9332 12.1968C37.8377 12.4976 37.8965 12.7785 37.949 13.0822C38.0084 13.4242 38.0586 13.7675 38.1131 14.1102C38.2215 14.7918 38.3223 15.4731 38.3943 16.1597C38.5359 17.5087 38.5371 18.8591 38.605 20.2119C38.6111 20.3314 38.7718 20.3272 38.787 20.2133Z" fill="#FFE473"/>
<path d="M32.186 37.4823C32.1851 37.3373 33.2917 29.2979 32.4034 25.4467C30.9675 19.2206 25.3152 13.019 25.3152 13.019L25.9002 11.2274C25.9002 11.2274 31.4987 10.9047 35.0522 15.2335C38.6056 19.5624 39.4929 22.6018 38.9956 28.4047C38.4528 34.7391 33.7855 38.2675 33.7855 38.2675L32.186 37.4823Z" fill="#FCD400"/>
<path d="M25.9009 11.3293C27.8374 11.5749 31.027 12.4185 33.3458 15.2436C36.8992 19.5725 37.7867 22.6118 37.2893 28.4146C36.8715 33.2908 34.01 36.5036 32.7143 37.7248L33.8195 38.2673C33.8195 38.2673 38.4869 34.7388 39.0298 28.4044C39.5271 22.6016 38.6397 19.5623 35.0862 15.2334C31.5328 10.9045 25.9341 11.2272 25.9341 11.2272L25.9009 11.3293Z" fill="#DDB303"/>
<path d="M33.7856 38.2675L32.186 37.4822L32.9757 36.1672L33.8878 37.3995L33.7856 38.2675Z" fill="#44312E"/>
<path d="M22.9209 9.84339L21.4784 9.56189L20.8284 11.9696C21.2738 12.4387 22.1344 12.6995 22.1344 12.6995L22.3399 11.9531L25.3151 13.0191L25.8086 11.5078C25.8891 11.4842 26.0107 11.4593 26.1975 11.4378C26.7591 11.3735 26.8491 11.2778 26.8491 11.2778L25.9002 11.2275L22.7141 10.5942L22.9209 9.84339Z" fill="#DDB303"/>
<path d="M33.1757 34.0355C33.5241 33.096 33.7606 32.1342 33.9148 31.1446C34.0756 30.1126 34.2237 29.1038 34.2336 28.0565C34.2433 27.0445 34.1646 26.0329 33.995 25.0352C33.9098 24.5338 33.804 24.036 33.6774 23.5434C33.5598 23.0849 33.4647 22.4758 33.1149 22.1297C32.9415 21.9582 32.6599 22.0503 32.6284 22.2943C32.5666 22.7723 32.8228 23.2898 32.9455 23.7442C33.0685 24.2002 33.1736 24.6611 33.2614 25.1253C33.4444 26.0939 33.5624 27.08 33.6055 28.0649C33.648 29.0333 33.6689 30.0464 33.539 31.008C33.4052 31.9997 33.1908 32.9854 32.9374 33.953C32.8965 34.1088 33.1185 34.1895 33.1757 34.0355Z" fill="#FFE473"/>
<path d="M32.0587 20.572C31.5966 19.2658 30.924 18.0256 30.2454 16.8208C29.9152 16.2348 29.5739 15.6521 29.2068 15.0885C29.0229 14.8061 28.8282 14.5303 28.633 14.2559C28.4292 13.9694 28.2605 13.7233 27.9355 13.573C27.7761 13.4993 27.6227 13.6735 27.6479 13.8237C27.6999 14.135 27.88 14.3584 28.0652 14.6048C28.2738 14.8822 28.4747 15.165 28.6793 15.4453C29.0863 16.0029 29.4862 16.5633 29.8631 17.1418C30.6034 18.2784 31.2195 19.48 31.8961 20.6535C31.9559 20.7573 32.097 20.6804 32.0587 20.572Z" fill="#FFE473"/>
<path d="M27.0339 19.2642L32.7388 22.6799H24.5197L27.0339 19.2642Z" fill="#DBE2EA"/>
<path d="M24.5195 22.6799H13.0475V56.5715H24.5195V22.6799Z" fill="#DBE2EA"/>
<path d="M32.7388 22.6799H24.5195V56.5715H32.7388V22.6799Z" fill="#B6C7D2"/>
<path d="M13.0476 22.68L18.5502 16.4958H28.5551C28.7692 16.4958 28.8923 16.7393 28.7654 16.9118L24.5196 22.68H13.0476Z" fill="#EBF4F8"/>
<path d="M28.8152 16.7339C28.8152 16.7339 32.7696 21.8106 32.7389 22.0258C32.7083 22.241 32.7389 22.68 32.7389 22.68L27.0338 19.2641L28.8152 16.7339Z" fill="#70808B"/>
<path d="M28.5767 16.4957H18.6253C18.4928 16.4957 18.3854 16.3883 18.3854 16.2558V14.9966C18.3854 14.864 18.4928 14.7566 18.6253 14.7566H28.5767C28.7092 14.7566 28.8166 14.864 28.8166 14.9966V16.2558C28.8166 16.3883 28.7092 16.4957 28.5767 16.4957Z" fill="#DBE2EA"/>
<path d="M28.4217 54.3701C28.3873 54.3701 28.3595 54.3422 28.3595 54.3079V23.5203C28.3595 23.4859 28.3873 23.4581 28.4217 23.4581C28.4561 23.4581 28.4839 23.4859 28.4839 23.5203V54.3079C28.4839 54.3422 28.4561 54.3701 28.4217 54.3701Z" fill="#DBE2EA"/>
<path d="M15.2094 33.2599C15.3473 33.2599 15.4826 33.2793 15.6154 33.3179C15.7483 33.3566 15.8635 33.4146 15.9611 33.4919C16.0619 33.4248 16.1755 33.3693 16.3016 33.3255C16.4277 33.2818 16.5799 33.2599 16.7581 33.2599C16.8859 33.2599 17.0112 33.2768 17.134 33.3104C17.2567 33.3439 17.366 33.397 17.4619 33.4692C17.5578 33.5416 17.6342 33.6375 17.6915 33.7568C17.7485 33.8761 17.7773 34.0217 17.7773 34.1933V35.7823C17.7436 35.7925 17.6905 35.8026 17.6183 35.8125C17.5459 35.8227 17.4711 35.8278 17.3938 35.8278C17.3197 35.8278 17.2533 35.8227 17.1945 35.8125C17.1356 35.8026 17.0861 35.7823 17.0457 35.752C17.0054 35.7218 16.9743 35.6806 16.9523 35.6285C16.9305 35.5764 16.9196 35.5083 16.9196 35.4241V34.2184C16.9196 34.1175 16.8909 34.0443 16.8338 33.999C16.7766 33.9535 16.6993 33.9309 16.6017 33.9309C16.5547 33.9309 16.5041 33.9419 16.4504 33.9637C16.3965 33.9855 16.3562 34.0083 16.3293 34.0318C16.3326 34.0453 16.3344 34.0578 16.3344 34.0696V34.1024V35.7823C16.2974 35.7925 16.2427 35.8026 16.1704 35.8125C16.0981 35.8227 16.0249 35.8278 15.951 35.8278C15.8769 35.8278 15.8105 35.8227 15.7518 35.8125C15.6928 35.8026 15.6432 35.7823 15.6028 35.752C15.5626 35.7218 15.5315 35.6806 15.5095 35.6285C15.4876 35.5764 15.4768 35.5083 15.4768 35.4241V34.2184C15.4768 34.1175 15.4457 34.0443 15.3833 33.999C15.3211 33.9535 15.2462 33.9309 15.1589 33.9309C15.0983 33.9309 15.0462 33.9401 15.0025 33.9585C14.9588 33.9771 14.9218 33.9948 14.8915 34.0116V35.7823C14.8579 35.7925 14.8049 35.8026 14.7327 35.8125C14.6603 35.8227 14.5854 35.8278 14.5081 35.8278C14.4341 35.8278 14.3677 35.8227 14.3088 35.8125C14.25 35.8026 14.2004 35.7823 14.16 35.752C14.1197 35.7218 14.0885 35.6806 14.0667 35.6285C14.0447 35.5764 14.0339 35.5083 14.0339 35.4241V33.9007C14.0339 33.8098 14.0532 33.7375 14.0919 33.6836C14.1305 33.63 14.1835 33.5795 14.2508 33.5323C14.3652 33.4516 14.5073 33.3861 14.6772 33.3355C14.8468 33.2851 15.0244 33.2599 15.2094 33.2599Z" fill="white"/>
<path d="M18.2816 32.6545C18.2816 32.5268 18.3245 32.4191 18.4102 32.3317C18.496 32.2442 18.6095 32.2006 18.7508 32.2006C18.8921 32.2006 19.0056 32.2442 19.0914 32.3317C19.1771 32.4191 19.22 32.5268 19.22 32.6545C19.22 32.7824 19.1771 32.8899 19.0914 32.9774C19.0056 33.0648 18.8921 33.1085 18.7508 33.1085C18.6095 33.1085 18.496 33.0648 18.4102 32.9774C18.3245 32.8899 18.2816 32.7824 18.2816 32.6545ZM19.1796 35.7823C19.1425 35.789 19.0879 35.7982 19.0156 35.8101C18.9432 35.8218 18.8702 35.8277 18.7961 35.8277C18.7223 35.8277 18.6557 35.8228 18.5969 35.8126C18.538 35.8025 18.4884 35.7823 18.4481 35.752C18.4077 35.7218 18.3766 35.6806 18.3547 35.6285C18.3328 35.5764 18.322 35.5083 18.322 35.4241V33.371C18.3589 33.3642 18.4136 33.355 18.486 33.3431C18.5582 33.3314 18.6314 33.3254 18.7054 33.3254C18.7793 33.3254 18.8458 33.3305 18.9047 33.3407C18.9635 33.3508 19.0131 33.371 19.0534 33.4011C19.0939 33.4314 19.1249 33.4726 19.1468 33.5247C19.1687 33.577 19.1796 33.645 19.1796 33.729V35.7823Z" fill="white"/>
<path d="M20.5973 35.7822C20.5602 35.7889 20.5055 35.7981 20.4332 35.81C20.3609 35.8218 20.2878 35.8276 20.2138 35.8276C20.1399 35.8276 20.0733 35.8227 20.0146 35.8125C19.9557 35.8024 19.9062 35.7822 19.8657 35.7519C19.8254 35.7218 19.7943 35.6806 19.7724 35.6284C19.7505 35.5763 19.7396 35.5082 19.7396 35.424V32.4981C19.7766 32.4914 19.8313 32.4821 19.9036 32.4704C19.9759 32.4585 20.049 32.4526 20.1231 32.4526C20.1969 32.4526 20.2635 32.4578 20.3223 32.4678C20.3811 32.4779 20.4309 32.4981 20.4711 32.5283C20.5115 32.5586 20.5426 32.5998 20.5646 32.6518C20.5863 32.7041 20.5973 32.7721 20.5973 32.8563V35.7822Z" fill="white"/>
<path d="M23.5332 35.3433C23.5163 35.5014 23.4702 35.6225 23.3944 35.7065C23.3188 35.7906 23.2086 35.8327 23.064 35.8327C22.9564 35.8327 22.8606 35.8065 22.7764 35.7544C22.6924 35.7023 22.6016 35.6141 22.5041 35.4896L22.0047 34.8641V35.7822C21.9676 35.7889 21.913 35.7981 21.8407 35.8099C21.7683 35.8218 21.6952 35.8276 21.6213 35.8276C21.5472 35.8276 21.4808 35.8226 21.422 35.8125C21.3631 35.8024 21.3134 35.7822 21.2732 35.7519C21.2328 35.7218 21.2016 35.6805 21.1797 35.6284C21.1579 35.5763 21.1471 35.5082 21.1471 35.424V32.5031C21.184 32.4929 21.2387 32.4821 21.311 32.4702C21.3833 32.4585 21.4564 32.4526 21.5305 32.4526C21.6043 32.4526 21.6708 32.4577 21.7297 32.4678C21.7886 32.4779 21.8382 32.4981 21.8785 32.5283C21.9189 32.5586 21.9499 32.5997 21.9718 32.6518C21.9938 32.7041 22.0047 32.7721 22.0047 32.8563V34.188L22.8723 33.3001C23.0472 33.3001 23.1877 33.3389 23.2936 33.4162C23.3995 33.4936 23.4525 33.5911 23.4525 33.7088C23.4525 33.7592 23.4441 33.8054 23.4273 33.8476C23.4104 33.8897 23.3844 33.9325 23.3491 33.9762C23.3138 34.0199 23.2684 34.0662 23.2129 34.1149C23.1574 34.1637 23.0927 34.2201 23.0187 34.2839L22.7261 34.5361L23.5332 35.3433Z" fill="white"/>
<path d="M13.0476 22.6799C13.0476 22.6799 13.6119 22.8939 13.6119 24.4123C13.6119 25.9308 13.1828 28.7366 13.7441 28.6705C14.3052 28.6046 14.7673 27.8453 14.5363 26.5249C14.3052 25.2046 14.2391 23.7851 14.9654 23.8511C15.6916 23.9172 15.0645 25.4539 15.5596 25.6758C16.0547 25.8978 16.4838 25.2046 16.3848 24.3793C16.2857 23.554 16.5169 23.158 18.1344 23.1909C19.7519 23.224 20.4861 23.9172 20.1684 24.9405C19.8509 25.9638 18.9351 29.0006 19.7396 29.5288C20.544 30.057 20.8485 29.0997 20.5973 27.9443C20.346 26.789 20.5941 25.7987 20.9322 25.1715C21.2703 24.5444 20.727 23.5271 21.1472 23.4581C21.5674 23.389 22.6896 23.422 22.5906 24.2142C22.4916 25.0065 23.2178 26.2609 23.3168 25.1715C23.4159 24.0822 24.204 22.6799 24.5196 22.6799H13.0476Z" fill="white"/>
<path d="M17.7202 27.3395C17.7202 27.3395 16.7581 28.7972 17.4636 28.9461C18.169 29.0948 18.1724 28.0356 17.7202 27.3395Z" fill="white"/>
<path d="M31.1761 23.0917C32.2357 21.1797 33.3081 19.1493 35.1384 17.954C35.6222 17.6381 36.1679 17.3842 36.7453 17.3634C37.8942 17.3217 38.91 18.2398 39.3205 19.3134C39.7312 20.3873 39.6562 21.5813 39.5014 22.7205C38.8671 27.3886 36.9724 31.8678 34.1393 35.6318C31.3062 39.3959 27.5467 42.4437 23.3192 44.5227C22.7336 44.8107 22.1209 45.0851 21.4692 45.1171C20.7011 45.1548 19.9522 44.8489 19.3031 44.4364C18.3304 43.8184 17.4971 42.9053 17.2057 41.7903C16.4057 38.7286 19.9996 37.1682 21.8246 35.5395C24.3329 33.3011 26.4474 30.654 28.3017 27.8588C29.3277 26.3121 30.2765 24.715 31.1761 23.0917Z" fill="#2CDA89"/>
<path d="M37.8188 17.8373C38.2295 18.9111 38.1545 20.1051 37.9998 21.2442C37.3654 25.9124 35.4707 30.3916 32.6375 34.1556C29.8044 37.9197 26.0449 40.9674 21.8173 43.0465C21.2319 43.3345 20.6191 43.609 19.9675 43.6409C19.1994 43.6786 18.4505 43.3727 17.8014 42.9603C17.7683 42.9393 17.7359 42.9171 17.703 42.8954C18.1065 43.5151 18.6752 44.0377 19.303 44.4366C19.9522 44.849 20.7011 45.155 21.4692 45.1172C22.1209 45.0852 22.7336 44.8108 23.3192 44.5228C27.5467 42.4436 31.3062 39.396 34.1392 35.6319C36.9724 31.8679 38.8671 27.3886 39.5014 22.7205C39.6562 21.5814 39.7311 20.3874 39.3205 19.3135C39.0278 18.548 38.4275 17.8622 37.6908 17.5463C37.7383 17.6415 37.7812 17.7388 37.8188 17.8373Z" fill="#20B872"/>
<path d="M20.4458 37.82C21.3936 37.1711 22.5844 36.9086 23.4525 36.1565C23.9925 35.6889 24.4222 35.0266 25.1119 34.8403C25.2798 34.795 25.5305 34.8478 25.5158 35.0211C25.5044 35.156 25.3397 35.2064 25.2188 35.2674C25.098 35.3285 25.0144 35.5313 25.1424 35.5759C25.2018 35.5966 25.2645 35.5596 25.3155 35.5227C26.2411 34.855 26.7773 33.792 27.3866 32.8271C27.7702 32.2196 28.1945 31.6377 28.6558 31.0869C29.1873 30.4519 29.7885 29.8198 29.9796 29.0141C30.0586 28.6806 30.0643 28.3256 30.2085 28.0147C30.356 27.6967 30.6323 27.4596 30.8346 27.1736C31.037 26.8874 31.1599 26.4869 30.9675 26.194C30.4438 26.3961 30.1353 26.924 29.8366 27.3994C29.416 28.0685 28.9376 28.7012 28.4084 29.288C27.7047 30.0682 26.9111 30.7682 26.2622 31.5947C25.7267 32.2767 25.2955 33.0379 24.7356 33.7002C23.9064 34.6811 22.832 35.4035 21.7978 36.1475C21.2732 36.5249 20.755 36.9112 20.2719 37.3411C20.1636 37.4375 19.8527 37.6357 19.8876 37.8126C19.9462 38.1098 20.3053 37.9163 20.4458 37.82Z" fill="#54EDA0"/>
<path d="M31.7213 28.6703C31.777 28.369 32.4314 27.6889 32.4706 27.4192C32.5101 27.1498 32.6667 26.7367 32.6941 26.5186C32.7216 26.3007 32.9182 26.2807 33.1056 25.6822C33.2931 25.0838 33.3504 25.1607 33.8162 24.3683C34.2818 23.5761 34.5533 23.3167 34.5533 23.3167L34.5104 24.3034C34.5104 24.3034 34.2881 24.4227 34.1456 24.9075C34.003 25.3922 33.9523 25.3808 33.8478 25.6563C33.7436 25.9317 33.7569 26.0629 33.5976 26.3687C33.4384 26.6747 33.2537 26.9748 33.2196 27.1273C33.1855 27.2798 33.8303 26.7837 33.148 27.3994C32.4658 28.0152 31.5183 29.7668 31.7213 28.6703Z" fill="#54EDA0"/>
<path d="M20.241 40.0718C19.9808 40.1427 19.081 40.7858 19.1267 40.9849C19.1723 41.1841 19.2668 41.7065 19.6421 41.3242C20.0174 40.942 20.1687 40.9439 20.5283 40.5084C20.8879 40.0728 21.0013 39.884 21.829 39.4646C22.6566 39.0453 23.4359 39.033 23.4459 38.4743C23.456 37.9157 23.1424 37.9031 22.611 38.1579C22.0794 38.4128 22.2856 38.4999 21.5651 38.9652C20.8447 39.4304 20.241 40.0718 20.241 40.0718Z" fill="#54EDA0"/>
<path d="M25.3639 38.2571C25.3972 38.3651 25.7026 38.7355 25.7638 38.4616C25.8252 38.1877 25.8794 37.989 25.8794 37.989L25.4364 37.8303L25.3639 38.2571Z" fill="#54EDA0"/>
<path d="M27.0446 36.1457L27.4258 36.4565L27.6637 36.1647C27.459 35.8358 27.0446 36.1457 27.0446 36.1457Z" fill="#54EDA0"/>
<path d="M9.43719 25.7568C9.43719 25.7568 6.58111 23.9167 5.03466 21.6336C3.48812 19.3506 3.03616 18.8565 3.65735 18.8043C4.27844 18.752 5.5819 20.6132 7.16872 22.2008C8.75544 23.7885 9.83271 25.0469 9.43719 25.7568Z" fill="#2CDA89"/>
<path d="M10.0021 25.7042C10.0021 25.7042 6.81956 22.1636 5.28569 19.0476C3.75191 15.9314 2.8038 13.9921 3.75325 13.8419C4.70281 13.6918 6.54528 15.505 7.67076 17.9755C8.79634 20.446 10.4288 26.1681 10.2154 25.9362L10.0021 25.7042Z" fill="#20B872"/>
<path d="M10.8835 25.3092C10.8835 25.3092 10.0918 15.9877 8.71681 15.0164C7.34176 14.0451 8.79241 21.7031 9.43832 23.5524C10.084 25.4017 10.8199 26.376 10.8835 25.3092Z" fill="#2CDA89"/>
<path d="M11.0793 32.209C11.0793 32.209 8.18166 28.4934 8.19278 26.6514C8.2037 24.8093 10.7121 23.2029 12.9255 25.069C15.1389 26.935 17.3171 31.6161 18.8956 35.2479C20.4742 38.8798 23.4271 47.3578 22.5948 47.2793C21.7623 47.2008 19.3052 43.9419 17.9277 42.0153C16.5502 40.0886 11.0793 32.209 11.0793 32.209Z" fill="#FC7D3F"/>
<path d="M8.91148 29.0671C9.91007 28.8373 10.9031 28.5698 11.6276 27.7996C11.791 27.6259 11.5338 27.3574 11.3695 27.5321C10.6889 28.2557 9.75907 28.4905 8.82362 28.7059C8.58992 28.7596 8.67839 29.1208 8.91148 29.0671Z" fill="#EF6129"/>
<path d="M12.6539 27.1438C12.826 26.9778 12.5681 26.71 12.3957 26.8763C12.2235 27.0425 12.4815 27.3102 12.6539 27.1438Z" fill="#EF6129"/>
<path d="M11.6071 30.8803C12.9561 30.5199 14.2941 30.1162 15.2809 29.0734C15.4449 28.9001 15.1877 28.6317 15.0228 28.8059C14.0791 29.8032 12.8072 30.175 11.5192 30.519C11.2879 30.5808 11.3758 30.9422 11.6071 30.8803Z" fill="#EF6129"/>
<path d="M15.7677 31.3544C15.9398 31.1883 15.682 30.9205 15.5096 31.0869C15.3375 31.253 15.5953 31.5207 15.7677 31.3544Z" fill="#EF6129"/>
<path d="M12.1625 33.6524C12.8126 33.4987 13.4172 33.2372 13.9722 32.865C14.1695 32.7326 13.9931 32.4053 13.7945 32.5385C13.2646 32.8938 12.696 33.1442 12.0746 33.2911C11.8413 33.3462 11.9296 33.7073 12.1625 33.6524Z" fill="#EF6129"/>
<path d="M14.6855 37.3656C15.4991 37.19 16.2244 36.8133 16.8395 36.2529C17.0164 36.0917 16.7582 35.8243 16.5814 35.9855C16.0118 36.5044 15.351 36.8418 14.5977 37.0044C14.3632 37.055 14.4519 37.416 14.6855 37.3656Z" fill="#EF6129"/>
<path d="M15.7313 34.1653C16.295 34.1038 16.8262 33.9466 17.3276 33.6805C17.5393 33.5681 17.361 33.2418 17.1497 33.3539C16.7081 33.5882 16.2356 33.7394 15.7379 33.7937C15.503 33.8192 15.4937 34.1912 15.7313 34.1653Z" fill="#EF6129"/>
<path d="M14.8854 34.7689C15.0575 34.6029 14.7997 34.3351 14.6272 34.5014C14.4551 34.6676 14.7129 34.9353 14.8854 34.7689Z" fill="#EF6129"/>
<path d="M17.3365 41.2651C17.909 41.1119 18.4528 40.8883 18.9664 40.5926C19.1738 40.4732 18.9962 40.1465 18.7887 40.266C18.3017 40.5463 17.7917 40.7585 17.2486 40.9038C17.0173 40.9656 17.1051 41.327 17.3365 41.2651Z" fill="#EF6129"/>
<path d="M18.1151 39.2473C18.2872 39.0813 18.0294 38.8135 17.857 38.9798C17.6849 39.1459 17.9427 39.4137 18.1151 39.2473Z" fill="#EF6129"/>
<path d="M18.6882 38.9946C19.2042 38.8662 19.6802 38.6468 20.1093 38.332C20.2997 38.1925 20.1238 37.8644 19.9315 38.0054C19.5269 38.3023 19.0879 38.5119 18.6003 38.6334C18.3678 38.6913 18.4559 39.0524 18.6882 38.9946Z" fill="#EF6129"/>
<path d="M19.68 44.3522C20.0212 44.2774 20.3409 44.1395 20.6266 43.9385C20.8204 43.8025 20.6443 43.4746 20.4488 43.6119C20.1865 43.7963 19.9055 43.9222 19.5921 43.991C19.3577 44.0423 19.4464 44.4033 19.68 44.3522Z" fill="#EF6129"/>
<path d="M21.3676 26.0605C21.3676 26.0605 20.6251 23.7439 20.8082 21.778C20.9914 19.8122 20.9661 19.3333 21.3334 19.5869C21.7006 19.8406 21.5751 21.4625 21.7304 23.0622C21.8857 24.6618 21.9091 25.8479 21.3676 26.0605Z" fill="#20B872"/>
<path d="M21.7041 26.2883C21.7041 26.2883 21.5544 22.8828 22.1234 20.4621C22.6926 18.0413 23.0503 16.5377 23.6436 16.8865C24.2369 17.2352 24.4313 19.0761 23.93 20.9541C23.4288 22.8321 21.7291 26.7387 21.7165 26.5136L21.7041 26.2883Z" fill="#20B872"/>
<path d="M22.371 26.4707C22.371 26.4707 26.1727 20.9559 25.854 19.7934C25.5355 18.631 22.8547 23.5255 22.3708 24.842C21.8868 26.1584 21.8506 27.0318 22.371 26.4707Z" fill="#20B872"/>
<path d="M19.3412 30.3754C19.3412 30.3754 19.4288 27.0029 20.2726 25.9892C21.1165 24.9756 23.2342 25.228 23.6095 27.2667C23.9849 29.3052 23.0604 32.8845 22.2816 35.6109C21.5026 38.3372 19.2798 44.3684 18.8551 43.9466C18.4305 43.5245 18.554 40.6048 18.6686 38.9131C18.783 37.2211 19.3412 30.3754 19.3412 30.3754Z" fill="#FC7D3F"/>
<path d="M19.5715 27.652C20.2282 27.9791 20.899 28.2828 21.65 28.1863C21.8192 28.1647 21.7991 27.8991 21.6289 27.921C20.9233 28.0116 20.3025 27.7187 19.6872 27.4122C19.5335 27.3356 19.4181 27.5756 19.5715 27.652Z" fill="#EF6129"/>
<path d="M22.5156 28.2905C22.6864 28.2769 22.6656 28.0116 22.4946 28.0252C22.3239 28.0388 22.3446 28.3041 22.5156 28.2905Z" fill="#EF6129"/>
<path d="M20.2374 29.8807C21.1472 30.2949 22.0708 30.6803 23.0908 30.5523C23.2603 30.5311 23.2401 30.2657 23.0697 30.287C22.0942 30.4094 21.2219 30.0365 20.3531 29.641C20.197 29.5698 20.0813 29.8097 20.2374 29.8807Z" fill="#EF6129"/>
<path d="M22.3226 32.0351C22.4932 32.0215 22.4725 31.7562 22.3016 31.7698C22.1307 31.7834 22.1515 32.0487 22.3226 32.0351Z" fill="#EF6129"/>
<path d="M19.2839 31.6662C19.7132 31.8768 20.1665 32.0073 20.6426 32.0539C20.8121 32.0705 20.8634 31.8092 20.6929 31.7925C20.2384 31.7479 19.8099 31.6278 19.3995 31.4264C19.2455 31.3508 19.1299 31.5907 19.2839 31.6662Z" fill="#EF6129"/>
<path d="M18.9901 34.8672C19.52 35.1401 20.0923 35.2616 20.6874 35.2315C20.8585 35.2229 20.8373 34.9576 20.6661 34.9662C20.1152 34.994 19.5964 34.8802 19.1058 34.6274C18.9532 34.5488 18.838 34.7888 18.9901 34.8672Z" fill="#EF6129"/>
<path d="M21.024 33.573C21.3636 33.7954 21.7291 33.95 22.1273 34.0309C22.2955 34.065 22.3453 33.8035 22.1774 33.7694C21.8267 33.6982 21.4967 33.5669 21.1968 33.3705C21.0552 33.2778 20.8809 33.4793 21.024 33.573Z" fill="#EF6129"/>
<path d="M20.2816 33.5221C20.4523 33.5085 20.4315 33.2431 20.2605 33.2567C20.0899 33.2703 20.1106 33.5357 20.2816 33.5221Z" fill="#EF6129"/>
<path d="M18.6827 38.2292C19.069 38.4048 19.4714 38.5285 19.89 38.5986C20.0589 38.6267 20.1093 38.3654 19.9402 38.3372C19.5433 38.2707 19.1649 38.1561 18.7984 37.9894C18.6424 37.9185 18.5266 38.1582 18.6827 38.2292Z" fill="#EF6129"/>
<path d="M20.0309 37.4676C20.2017 37.454 20.1809 37.1887 20.0099 37.2023C19.8391 37.2158 19.8599 37.4811 20.0309 37.4676Z" fill="#EF6129"/>
<path d="M20.4628 37.5883C20.8066 37.752 21.1696 37.8471 21.5501 37.8683C21.7188 37.8776 21.7707 37.6162 21.6002 37.6069C21.2415 37.5869 20.9033 37.5032 20.5786 37.3486C20.4236 37.2749 20.3079 37.5147 20.4628 37.5883Z" fill="#EF6129"/>
<path d="M18.5746 41.0022C18.7972 41.1159 19.0368 41.1851 19.2861 41.2041C19.4553 41.2169 19.507 40.9556 19.3364 40.9427C19.1074 40.9253 18.8947 40.8671 18.6903 40.7626C18.5374 40.6843 18.4223 40.9243 18.5746 41.0022Z" fill="#EF6129"/>
<path d="M42.6258 48.908C36.8467 47.5754 38.6402 37.8434 41.3802 25.9601C44.1203 14.0768 46.7694 4.54207 52.5486 5.87458C58.3278 7.2073 60.7914 17.9208 58.0513 29.8041C55.3111 41.6874 48.4049 50.2405 42.6258 48.908Z" fill="#F7AE66"/>
<path d="M52.7721 10.9158C52.473 11.4436 53.0167 12.3753 53.9613 13.5129C54.8964 14.6825 56.1873 16.1316 57.563 17.7731C58.1296 18.485 58.6628 19.1749 59.163 19.8192C59.1204 17.0603 58.7576 14.5494 58.1054 12.4374C57.2826 11.8332 56.4745 11.3675 55.7513 11.0624C54.1742 10.4284 53.0534 10.4128 52.7721 10.9158Z" fill="#CE9561"/>
<path d="M58.0513 29.8042C58.4011 28.287 58.6649 26.7894 58.849 25.3275C58.5851 24.9947 58.3094 24.6632 58.0084 24.3378C56.2847 22.5389 54.3498 21.3125 52.8175 20.7348C51.264 20.1742 50.1656 20.185 49.8886 20.6941C49.5981 21.2236 50.1407 22.1386 51.1066 23.2411C52.0657 24.3702 53.4111 25.7496 54.8841 27.2802C55.9846 28.4727 57.0018 29.5917 57.8849 30.487C57.941 30.2598 57.9983 30.0338 58.0513 29.8042Z" fill="#CE9561"/>
<path d="M46.9904 30.3205C46.6878 30.8469 47.2672 31.8055 48.268 32.9927C49.2586 34.2132 50.623 35.7392 52.0672 37.4769C52.8319 38.445 53.5373 39.3781 54.1792 40.2168C54.9096 38.8804 55.5865 37.4242 56.1922 35.8664C55.9462 35.5011 55.6879 35.1363 55.4027 34.7764C53.6897 32.7036 51.6797 31.2597 50.0712 30.552C48.4359 29.8657 47.2746 29.8197 46.9904 30.3205Z" fill="#CE9561"/>
<path d="M45.9841 40.3742C45.5437 40.2248 45.1725 40.2055 44.9254 40.3685C44.6781 40.5317 44.5796 40.8655 44.6319 41.3549C44.6581 41.5994 44.7219 41.8822 44.823 42.1993C44.926 42.5118 45.0541 42.8836 45.2557 43.2101C45.9601 44.5081 47.122 45.8703 48.5159 47.2339C49.556 46.452 50.5771 45.4372 51.551 44.2178C50.0623 42.8647 48.5803 41.8283 47.506 41.174C47.1828 41.002 46.9451 40.8287 46.6913 40.6935C46.4422 40.5569 46.2045 40.4491 45.9841 40.3742Z" fill="#CE9561"/>
<path d="M61.9812 34.5973C61.1396 37.5584 57.5886 39.1439 54.0504 38.1381C50.5119 37.1324 48.3265 33.9167 49.1681 30.9555C50.0098 27.9939 53.5602 26.4083 57.0986 27.414C60.6369 28.4197 62.823 31.6356 61.9812 34.5973Z" fill="#FF2222"/>
<path d="M61.7473 31.3083C61.7971 31.8785 61.7476 32.4565 61.586 33.0254C60.7443 35.9865 57.1935 37.572 53.6552 36.5663C51.4352 35.9353 49.7481 34.4345 49.0066 32.6723C49.2161 35.0703 51.1914 37.3257 54.0502 38.1383C57.5887 39.1441 61.1395 37.5586 61.9811 34.5974C62.2946 33.4937 62.1877 32.355 61.7473 31.3083Z" fill="#EA1111"/>
<path d="M58.0949 29.0261C59.0226 29.251 59.8575 29.0922 59.8575 29.0922C59.8575 29.0922 59.2547 28.4894 58.3431 28.1648C59.0848 27.8772 59.3879 27.3084 59.3879 27.3084C59.3879 27.3084 58.4437 27.1028 57.61 27.2961C57.7322 26.6647 57.325 26.0189 57.325 26.0189C57.325 26.0189 56.5936 26.3314 56.3267 26.9295C55.7571 26.3238 54.8787 25.9792 54.8787 25.9792C54.8787 25.9792 54.7882 26.6266 55.243 27.2791C54.3151 27.0533 53.4807 27.2127 53.4807 27.2127C53.4807 27.2127 54.084 27.8155 54.9962 28.1402C54.2529 28.4271 53.9504 28.9964 53.9504 28.9964C53.9504 28.9964 54.8946 29.202 55.7282 29.0087C55.6059 29.6401 56.0132 30.2859 56.0132 30.2859C56.0132 30.2859 56.7441 29.9736 57.0113 29.3758C57.5822 29.9813 58.4595 30.3252 58.4595 30.3252C58.4595 30.3252 58.5501 29.6778 58.0949 29.0261Z" fill="#2CDA89"/>
<path d="M34.585 27.7659C33.2562 28.2588 30.7756 26.8323 29.675 29.2012C28.5746 31.5701 30.2023 36.1444 32.0722 37.7383C33.9422 39.3325 37.1713 38.7847 39.1625 38.0995C41.4882 37.2994 44.5376 34.9718 43.5825 31.0466C42.7472 27.6127 40.8802 24.9552 37.9053 25.7621C36.0938 26.2534 36.7616 26.9585 34.585 27.7659Z" fill="#FF2222"/>
<path d="M39.7207 25.7072C40.6956 26.6978 41.3914 28.2486 41.818 30.0022C42.7731 33.9275 39.7237 36.2551 37.398 37.0553C35.8698 37.581 33.6127 38.0258 31.8003 37.4839C31.8902 37.5753 31.9809 37.6605 32.0722 37.7384C33.9422 39.3325 37.1713 38.7846 39.1626 38.0995C41.4883 37.2994 44.5377 34.9717 43.5827 31.0466C42.9322 28.3737 41.6568 26.1715 39.7207 25.7072Z" fill="#EA1111"/>
<path d="M34.2051 27.8556C34.2051 27.8556 33.8596 26.1133 33.8963 25.1958C33.9328 24.2782 34.4518 22.7101 34.4518 22.7101L35.1647 22.8482C35.1647 22.8482 34.5346 23.8884 34.4482 25.0653C34.3877 25.8877 34.5849 27.7658 34.5849 27.7658L34.2051 27.8556Z" fill="#44312E"/>
<path d="M32.1796 28.1983C31.4741 28.2565 31.0009 28.6519 30.6081 29.2209C30.219 29.7847 29.9811 30.4675 29.8794 31.1416C29.7713 31.8584 29.8131 32.5496 29.925 33.2632C30.0365 33.9743 30.1959 34.8794 30.9308 35.1753C31.1944 35.2815 31.5116 35.0606 31.5803 34.8097C31.7427 34.2169 31.3196 33.6526 31.16 33.0945C31.0123 32.5788 30.9704 32.046 31.0081 31.5114C31.076 30.5483 31.4924 29.4803 32.4004 29.0254C32.7832 28.8336 32.617 28.1621 32.1796 28.1983Z" fill="#FF6666"/>
<path d="M31.593 35.7709C31.8004 36.2241 32.1436 36.6052 32.5615 36.8753C32.9839 37.1481 33.7262 37.4036 34.1811 37.082C34.4859 36.8666 34.6148 36.287 34.1846 36.1007C33.7973 35.9332 33.408 36.0395 33.002 35.9606C32.6181 35.8859 32.3062 35.7143 32.0392 35.4292C31.8059 35.1799 31.4663 35.4937 31.593 35.7709Z" fill="#FF6666"/>
<path d="M35.6918 36.8765C36.4447 36.8792 36.4502 35.709 35.6959 35.7063C34.943 35.7035 34.9376 36.8738 35.6918 36.8765Z" fill="#FF6666"/>
<path d="M78.2669 32.2762H10.7115V75.4592H78.2669V32.2762Z" fill="#E5AE81"/>
<g opacity="0.32">
<g opacity="0.32">
<path opacity="0.32" d="M10.7115 32.2762V35.2966L78.2669 37.4096V32.2762H10.7115Z" fill="#935032"/>
</g>
</g>
<path d="M89.1254 24.3613L78.2454 32.2942V32.8692L89.217 24.9683L89.1254 24.3613Z" fill="#CB9068"/>
<path d="M10.7116 32.8735L1.05835 25.3393L1.19709 24.7666L10.7116 32.2762V32.8735Z" fill="#CB9068"/>
</svg>
