<svg width="601" height="481" viewBox="0 0 601 481" fill="none" xmlns="http://www.w3.org/2000/svg">
<path d="M225.609 7.14709C199.289 12.549 69.9207 39.1011 19.6384 158.288C12.193 175.935 -20.5598 259.713 19.6384 342.15C69.5581 444.525 192.346 463.555 233.411 469.919C378.32 492.379 489.698 415.523 548.609 374.872C582.984 351.151 611.901 295.081 596.634 247.326C577.623 187.863 465.233 201.762 437.822 122.45C427.895 93.7299 448.934 79.5171 436.261 52.3338C411.271 -1.26927 300.462 -8.21635 225.609 7.14709Z" fill="#EBF4F8"/>
<path d="M536.812 461.233C536.812 472.149 428.53 481 294.957 481C161.385 481 53.1025 472.149 53.1025 461.233C53.1025 450.314 161.385 441.464 294.957 441.464C428.53 441.463 536.812 450.314 536.812 461.233Z" fill="#DBE2EA"/>
<path d="M481.825 93.7399C499.837 114.123 491.694 153.408 466.006 185.965C437.772 221.751 404.203 232.231 387.963 216.665C379.705 208.749 375.778 193.562 383.343 182.868C392.279 170.233 416.196 156.912 426.942 143.811C445.223 121.52 450.996 102.144 457.731 97.0875C464.466 92.0328 473.174 83.9498 481.825 93.7399Z" fill="#001E3B"/>
<g opacity="0.25">
<g opacity="0.25">
<path opacity="0.25" d="M379.65 200.395C390.333 207.139 405.296 206.125 416.782 199.844C427.916 193.775 436.444 185.418 444.842 176.564C460.949 159.459 475.678 141.124 480.879 117.106C481.64 113.097 480.997 108.178 476.858 106.923C473.991 106.079 471.615 109.98 469.092 108.833C466.42 107.515 465.305 102.403 462.07 102.183C458.825 102.259 455.613 103.799 452.262 104.021C454.187 100.829 455.924 98.4439 457.728 97.089C464.463 92.0335 473.172 83.9498 481.822 93.7407C499.835 114.124 491.69 153.409 466.004 185.966C437.769 221.752 404.2 232.232 387.96 216.666C383.74 212.618 380.652 206.67 379.65 200.395Z" fill="#5C3E66"/>
</g>
</g>
<path d="M474.985 85.7349C474.535 83.7086 474.517 79.7084 473.682 77.347C473.613 77.1517 473.527 76.9707 473.434 76.7965C473.41 76.7514 473.386 76.7079 473.361 76.665C473.27 76.5073 473.173 76.3564 473.066 76.2152C473.06 76.2069 473.056 76.1986 473.051 76.1904V76.1926C471.908 74.6912 470.034 74.0994 470.034 74.0994C470.034 74.0994 469.623 74.324 469.41 74.861C469.198 75.3995 469.099 75.9034 469.379 76.1738C469.66 76.4442 469.811 77.7113 469.592 79.2164C469.373 80.7103 468.872 81.4554 468.454 83.7086C468.453 83.7078 468.451 83.707 468.45 83.707C468.425 83.8422 468.4 83.9812 468.375 84.1284C468.085 85.8799 467.913 87.6081 467.875 88.0122C467.869 88.07 467.865 88.1008 467.865 88.1008L475.969 88.5372C475.97 88.5372 475.373 87.4804 474.985 85.7349Z" fill="#20B872"/>
<path d="M493.017 96.5376C492.97 96.5219 492.919 96.5076 492.869 96.4926C492.752 96.458 492.629 96.425 492.5 96.3949C492.447 96.3814 492.392 96.3679 492.337 96.3566C492.175 96.3221 492.009 96.289 491.835 96.2583C491.816 96.2545 491.796 96.25 491.776 96.2462C489.781 95.8962 487.045 95.6596 485.299 93.4109C483.368 90.9234 479.814 88.728 477.364 87.687C477.255 87.6405 477.162 87.6037 477.063 87.5624C477.062 87.5616 477.061 87.5609 477.06 87.5601C477.022 87.5443 476.992 87.5331 476.955 87.518C476.845 87.4737 476.741 87.4309 476.641 87.3919C476.57 87.3648 476.503 87.3385 476.438 87.3138C476.349 87.28 476.263 87.2484 476.182 87.2199C476.119 87.1958 476.058 87.1756 476 87.156C475.928 87.132 475.859 87.108 475.795 87.0877C475.741 87.0704 475.688 87.0546 475.638 87.0396C475.581 87.0231 475.524 87.0073 475.472 86.9938C475.426 86.9818 475.383 86.972 475.342 86.9623C475.295 86.9517 475.25 86.9427 475.21 86.9352C475.171 86.9277 475.137 86.9232 475.102 86.9187C475.067 86.9142 475.031 86.9097 475 86.9074C474.969 86.9052 474.942 86.9044 474.914 86.9044C474.888 86.9044 474.861 86.9044 474.837 86.9067C474.813 86.9082 474.792 86.9127 474.772 86.9164C474.752 86.9202 474.73 86.9232 474.713 86.9292C474.696 86.9352 474.681 86.9427 474.666 86.9495C474.651 86.957 474.636 86.9645 474.623 86.972C474.609 86.9803 474.6 86.9916 474.588 87.0013C474.578 87.0111 474.567 87.0201 474.558 87.0306C474.549 87.0419 474.543 87.0539 474.534 87.0667C474.527 87.0779 474.519 87.0899 474.513 87.102C474.506 87.114 474.502 87.1267 474.497 87.1388C474.491 87.1538 474.484 87.1673 474.479 87.1831L474.473 87.2003C474.458 87.2409 474.444 87.2822 474.429 87.3228C474.426 87.3295 474.425 87.3363 474.422 87.343C474.412 87.3641 474.403 87.3836 474.392 87.4039C474.388 87.4107 474.386 87.4174 474.382 87.4242C474.366 87.4497 474.347 87.4745 474.326 87.497C474.326 87.497 473.775 92.7057 476.645 94.2244C477.873 94.874 479.53 95.028 481.856 97.3743C484.04 99.5757 490.012 99.2385 493.451 96.7111C493.322 96.6458 493.173 96.5895 493.017 96.5376Z" fill="#20B872"/>
<path d="M470.726 86.363C470.711 86.3577 470.696 86.3532 470.679 86.348C470.606 86.3292 470.523 86.3134 470.419 86.3029C470.413 86.3029 470.406 86.3021 470.401 86.3021C470.298 86.2924 470.179 86.2879 470.051 86.2864C470.022 86.2864 469.993 86.2856 469.963 86.2856C469.821 86.2864 469.67 86.2901 469.502 86.2991C469.487 86.2999 469.468 86.3014 469.453 86.3021C469.292 86.3112 469.119 86.3239 468.936 86.3397C468.9 86.3434 468.865 86.3465 468.828 86.3487C468.626 86.3675 468.414 86.3893 468.189 86.4148C468.166 86.4178 468.141 86.4208 468.117 86.4238C467.904 86.4486 467.679 86.4771 467.447 86.5087C467.412 86.5132 467.378 86.5185 467.343 86.523C467.085 86.5583 466.819 86.5973 466.543 86.6394C466.537 86.6401 466.532 86.6409 466.527 86.6416C465.791 86.7543 464.992 86.8895 464.149 87.0449C458.693 88.0491 456.257 93.6363 453.281 96.5129C453.182 96.6091 453.082 96.7007 452.982 96.7901C452.934 96.8321 452.887 96.8764 452.839 96.917C452.72 97.0191 452.599 97.1145 452.477 97.2069C452.448 97.2294 452.419 97.2535 452.39 97.2752C452.237 97.3864 452.083 97.4893 451.925 97.5832C451.893 97.6035 451.86 97.6185 451.827 97.6373C451.703 97.7071 451.578 97.774 451.45 97.8333C451.396 97.8588 451.341 97.8791 451.287 97.9016C451.177 97.9475 451.067 97.9895 450.955 98.0256C450.893 98.0466 450.831 98.0639 450.768 98.0811C450.659 98.1112 450.546 98.136 450.433 98.1563C450.369 98.1683 450.306 98.1795 450.241 98.1885C450.119 98.2051 449.992 98.2126 449.866 98.2171C449.808 98.2193 449.753 98.2254 449.694 98.2246C449.509 98.2238 449.32 98.2126 449.125 98.1855C457.093 102.206 463.072 95.2504 464.506 94.1756C467.105 92.2303 470.876 86.4411 470.876 86.4411C470.845 86.4095 470.791 86.3848 470.726 86.363Z" fill="#20B872"/>
<path d="M477.507 89.4258C476.659 86.5229 472.855 86.0062 471.442 86.0002C471.442 86.0002 466.292 84.661 466.02 90.1213C465.862 93.2998 465.943 95.7769 467.617 98.4927C468.797 100.409 470.229 104.184 471.78 107.298C472.64 104.79 474.166 102.102 475.701 99.913C477.734 97.0139 478.276 92.0606 477.507 89.4258Z" fill="#2CDA89"/>
<path d="M426.314 125.02C426.263 113.748 419.488 101.997 412.666 90.3729C407.553 81.7048 406.767 68.776 406.722 62.7659H407.339C410.288 62.7659 412.666 60.2581 412.666 57.1779V52.2938C412.666 49.1873 410.288 46.6803 407.339 46.6803H390.65H390.505H373.813C370.866 46.6803 368.489 49.1873 368.489 52.2938V57.1779C368.489 60.2581 370.866 62.7659 373.813 62.7659H374.433C374.384 68.776 373.6 81.7048 368.489 90.3729C361.665 101.997 354.89 113.748 354.841 125.02C354.841 125.097 354.866 125.196 354.866 125.27C354.866 125.347 354.841 125.395 354.841 125.446V240.692C354.841 250.815 368.176 261.545 390.505 261.581V261.584C390.528 261.584 390.552 261.581 390.574 261.581C390.6 261.581 390.623 261.584 390.65 261.584V261.581C412.977 261.545 426.313 250.814 426.313 240.692V125.446C426.313 125.395 426.286 125.347 426.286 125.27C426.286 125.196 426.314 125.097 426.314 125.02Z" fill="#D0D0D0"/>
<path d="M362.366 126.997V240.862C362.366 247.605 375.029 253.067 390.649 253.067C406.271 253.067 418.934 247.605 418.934 240.862V126.997H362.366Z" fill="#E4E4E4"/>
<path d="M418.934 126.997C418.934 130.291 406.271 132.959 390.649 132.959C375.029 132.959 362.366 130.291 362.366 126.997C362.366 123.705 375.029 121.036 390.649 121.036C406.27 121.036 418.934 123.705 418.934 126.997Z" fill="#FAFAFA"/>
<path d="M412.713 59.0699C412.713 62.2777 410.584 64.8786 407.957 64.8786H372.881C370.255 64.8786 368.126 62.2777 368.126 59.0699V52.489C368.126 49.2812 370.255 46.6803 372.881 46.6803H407.957C410.584 46.6803 412.713 49.2812 412.713 52.489V59.0699Z" fill="#1E6EBB"/>
<path d="M368.456 206.164C368.591 206.164 368.591 205.953 368.456 205.953C368.319 205.953 368.319 206.164 368.456 206.164Z" fill="#1E6EBB"/>
<path d="M381.021 72.9037C381.784 78.9693 380.799 84.9508 377.966 90.3893C376.591 93.0286 374.945 95.5326 373.331 98.03C371.769 100.448 369.839 102.957 369.261 105.824C369.113 106.556 369.895 107.333 370.612 106.862C373.319 105.088 374.983 102.005 376.641 99.3038C378.419 96.4054 380.244 93.495 381.599 90.3691C384.039 84.7421 384.522 78.5765 383.484 72.5717C383.246 71.195 380.844 71.4985 381.021 72.9037Z" fill="white"/>
<path d="M365.247 139.306C365.392 144.029 365.578 148.735 365.833 153.453C366.099 158.401 367.041 163.262 367.251 168.208C367.45 172.939 367.36 177.654 367.411 182.386C367.462 187.328 367.796 192.22 367.918 197.157C367.924 197.445 368.349 197.442 368.363 197.157C368.599 192.411 368.967 187.734 368.922 182.977C368.875 178.052 368.578 173.133 368.458 168.208C368.346 163.479 368.861 158.772 368.583 154.043C368.291 149.1 367.822 144.217 367.198 139.306C367.045 138.101 365.208 138.015 365.247 139.306Z" fill="white"/>
<path d="M368.465 212.567C368.133 217.997 367.808 223.413 367.476 228.839C367.222 232.959 366.159 238.125 369.416 241.367C371.492 243.432 374.506 240.828 373.311 238.362C369.521 230.541 369.069 221.128 369.301 212.567C369.316 212.026 368.498 212.034 368.465 212.567Z" fill="white"/>
<path d="M374.804 274.624C374.804 274.624 386.783 254.35 381.032 237.687C375.282 221.026 365.746 202.964 371.799 190.38C377.852 177.796 369.548 166.932 379.219 156.036C388.891 145.14 385.525 142.654 394.464 131.715C403.401 120.775 426.52 119.099 431.982 138.27C437.443 157.44 437.34 160.629 439.576 172.414C441.812 184.2 432.638 186.211 435.616 195.365C438.595 204.519 432.067 221.607 420.456 227.198C403.79 235.225 406.457 229.309 395.797 241.932C385.138 254.554 381.034 278.76 377.413 279.745C373.793 280.732 373.683 276.711 374.804 274.624Z" fill="#137743"/>
<path d="M411.358 129.455C410.43 137.484 410.329 145.65 409.805 153.714C409.566 157.388 409.42 161.105 408.736 164.731C408.039 168.426 406.588 171.9 405.136 175.349C402.219 182.282 399.016 189.127 396.661 196.28C395.554 199.645 394.653 203.085 394.13 206.592C393.584 210.237 393.615 213.93 393.169 217.583C392.257 225.041 387.159 231.185 386.609 238.691C386.53 239.767 388.198 239.917 388.278 238.841C388.762 232.32 392.986 226.955 394.344 220.659C395.126 217.039 395.099 213.33 395.422 209.657C395.758 205.839 396.558 202.085 397.642 198.413C399.755 191.266 402.773 184.369 405.62 177.492C407.043 174.056 408.567 170.622 409.462 167C410.271 163.731 410.546 160.383 410.767 157.031C411.367 147.917 412.287 138.658 412.094 129.521C412.083 129.057 411.413 128.972 411.358 129.455Z" fill="#2CDA89"/>
<path d="M396.66 143.099C396.997 146.45 396.487 149.733 396.237 153.066C396.004 156.165 396.333 159.188 396.979 162.222C398.383 168.811 400.368 175.308 402.106 181.815C402.326 182.639 403.643 182.404 403.417 181.577C401.647 175.068 399.672 168.579 398.134 162.013C397.347 158.65 397.072 155.334 397.189 151.883C397.292 148.896 397.558 145.994 397.082 143.022C397.039 142.746 396.633 142.828 396.66 143.099Z" fill="#2CDA89"/>
<path d="M410.215 163.888C411.482 162.283 412.788 160.928 414.537 159.853C415.582 159.211 416.506 158.637 417.313 157.687C418.337 156.483 419.093 155.029 419.907 153.679C420.589 152.548 421.674 151.248 422.005 149.954C422.104 149.569 421.97 149.137 421.558 148.995C421.478 148.968 421.399 148.941 421.319 148.913C420.896 148.768 420.419 149.132 420.516 149.591C420.603 150.014 419.567 151.459 419.368 151.808C418.959 152.522 418.55 153.237 418.14 153.952C417.324 155.372 416.567 156.807 415.293 157.883C414.297 158.725 413.103 159.265 412.139 160.153C411.118 161.093 410.338 162.296 409.554 163.43C409.257 163.86 409.896 164.291 410.215 163.888Z" fill="#2CDA89"/>
<path d="M386.268 175.61C387.253 180.385 388.032 185.473 389.624 190.091C391.125 194.447 396.529 197.824 394.903 202.875C394.625 203.736 395.862 204.179 396.218 203.354C397.932 199.376 394.827 195.868 392.628 192.86C390.747 190.287 390.101 187.529 389.346 184.486C388.598 181.474 387.83 178.47 387.007 175.476C386.879 175.02 386.169 175.131 386.268 175.61Z" fill="#2CDA89"/>
<path d="M395.772 206.882C397.193 203.094 401.76 203.132 405.091 202.429C407.583 201.904 409.995 200.945 412.192 199.659C416.304 197.254 420.263 193.409 422.029 188.908C422.339 188.118 421.142 187.466 420.689 188.215C417.535 193.428 413.818 197.625 407.998 199.926C403.618 201.659 396.588 201.017 395.027 206.61C394.891 207.097 395.591 207.367 395.772 206.882Z" fill="#2CDA89"/>
<path d="M377.364 186.036C380.778 193.624 381.838 201.763 382.958 209.927C383.42 213.29 383.909 216.674 385.042 219.887C386.361 223.627 389.163 226.538 390.363 230.307C390.618 231.106 391.749 230.936 391.664 230.072C391.323 226.556 388.353 223.914 386.959 220.792C385.276 217.021 384.729 212.866 384.129 208.817C382.958 200.922 381.687 192.904 377.959 185.75C377.763 185.372 377.189 185.645 377.364 186.036Z" fill="#2CDA89"/>
<path d="M391.283 229.933C393.934 226.349 398.304 226.068 402.347 225.407C405.492 224.891 408.395 223.925 411.076 222.174C413.91 220.325 416.297 217.87 418.563 215.379C420.685 213.043 422.983 210.735 423.948 207.659C424.271 206.631 422.691 206.054 422.373 207.085C421.315 210.521 418.327 213.331 415.907 215.877C413.489 218.419 410.784 220.905 407.592 222.433C402.079 225.07 394.458 223.84 390.648 229.494C390.37 229.907 390.988 230.332 391.283 229.933Z" fill="#2CDA89"/>
<path d="M396.501 279.181C396.501 279.181 414.064 263.493 413.635 245.871C413.207 228.25 409.598 208.148 419.18 197.991C428.764 187.835 424.143 174.964 436.664 167.514C449.183 160.063 446.73 156.674 458.564 148.959C470.399 141.244 492.936 146.657 492.329 166.581C491.721 186.505 490.655 189.512 489.213 201.421C487.771 213.33 478.419 212.466 478.482 222.091C478.544 231.717 467.143 246.022 454.385 247.83C436.069 250.425 440.404 245.595 426.419 254.393C412.434 263.19 401.184 285.012 397.435 284.854C393.687 284.695 394.799 280.83 396.501 279.181Z" fill="#20B872"/>
<path d="M475.895 152.944C474.38 160.475 472.76 168.09 469.403 175.056C465.85 182.433 460.224 188.738 454.654 194.657C449.069 200.591 443.195 206.222 438.207 212.693C433.532 218.76 429.946 225.556 426.447 232.341C422.247 240.487 418.092 248.704 412.223 255.804C411.592 256.569 412.743 257.588 413.382 256.823C423.755 244.387 428.697 228.644 438.051 215.551C442.959 208.681 448.761 202.507 454.382 196.226C459.708 190.275 465.286 184.287 469.053 177.18C473.027 169.683 474.523 161.232 476.079 152.98C476.101 152.863 475.919 152.827 475.895 152.944Z" fill="#2CDA89"/>
<path d="M459.742 162.609C457.912 164.362 457.274 166.687 457.191 169.171C457.079 172.561 457.429 175.55 456.403 178.869C454.785 184.102 453.656 190.396 455.199 195.797C455.263 196.018 455.589 196.156 455.78 195.999C460.121 192.456 466.309 192.729 470.934 189.582C475.491 186.48 478.479 181.649 481.359 177.07C481.652 176.606 480.873 176.221 480.586 176.694C477.604 181.615 474.317 186.882 469.186 189.817C464.803 192.322 459.546 192.405 455.355 195.35C455.555 195.45 455.755 195.549 455.955 195.649C455.827 192.795 455.417 190.06 455.651 187.182C455.865 184.543 456.426 181.982 457.196 179.454C457.898 177.146 458.287 175.01 458.208 172.6C458.098 169.23 457.668 165.658 460.164 162.982C460.413 162.713 459.999 162.363 459.742 162.609Z" fill="#2CDA89"/>
<path d="M474.327 192.72C471.523 196.238 468.603 199.816 464.224 201.358C460.389 202.709 456.499 203.376 452.775 205.108C449.213 206.764 445.855 208.822 442.529 210.903C439.798 212.609 436.399 214.542 435.715 217.952C435.604 218.506 436.379 218.748 436.638 218.261C438.707 214.361 442.393 212.423 446.044 210.206C449.651 208.017 453.366 205.951 457.357 204.544C460.632 203.389 464.171 202.962 467.188 201.145C470.401 199.211 472.703 196.191 474.915 193.236C475.213 192.837 474.644 192.322 474.327 192.72Z" fill="#2CDA89"/>
<path d="M442.974 173.244C441.152 176.252 441.107 179.995 440.156 183.32C439.24 186.527 437.994 189.639 437.184 192.876C436.436 195.867 436.097 198.97 436.653 202.024C437.291 205.528 438.532 208.601 438.4 212.231C438.37 213.052 439.593 213.05 439.774 212.319C440.484 209.462 439.376 206.525 438.647 203.781C437.72 200.298 437.73 197.01 438.518 193.494C439.221 190.359 440.292 187.332 441.152 184.241C442.111 180.784 441.988 176.771 443.647 173.573C443.874 173.138 443.222 172.839 442.974 173.244Z" fill="#2CDA89"/>
<path d="M424.333 201.31C423.301 206.947 421.567 213.075 422.447 218.834C423.252 224.093 425.736 228.895 426.375 234.201C426.451 234.831 427.411 234.779 427.364 234.138C427.004 229.24 424.737 224.796 423.662 220.059C422.282 213.97 424.144 207.495 424.992 201.438C425.052 201.013 424.411 200.881 424.333 201.31Z" fill="#2CDA89"/>
<path d="M423.699 240.791C429.53 236.505 437.028 237.911 443.771 237.121C446.677 236.781 449.496 235.983 452.011 234.452C454.191 233.124 457.158 230.931 457.79 228.344C457.889 227.938 457.371 227.583 457.031 227.834C455.904 228.662 455.204 229.883 454.205 230.866C452.776 232.272 451.07 233.44 449.233 234.248C446.112 235.621 442.695 235.894 439.33 236.039C433.691 236.279 427.839 236.364 423.262 240.126C422.878 240.445 423.281 241.097 423.699 240.791Z" fill="#2CDA89"/>
<path d="M223.202 238.55C223.564 237.832 249.345 200.915 254.688 179.646C263.327 145.261 251.075 100.344 251.075 100.344L258.492 92.9716C258.492 92.9716 286.963 105.524 293.579 135.887C300.194 166.25 296.898 183.507 279.779 210.916C261.091 240.835 229.119 246.472 229.119 246.472L223.202 238.55Z" fill="#FCD400"/>
<path d="M258.239 93.4769C267.185 99.5824 280.81 111.81 285.126 131.624C291.741 161.988 288.445 179.244 271.326 206.652C256.941 229.684 234.687 238.324 225.201 241.083L229.289 246.555C229.289 246.555 261.26 240.919 279.948 211C297.067 183.591 300.364 166.335 293.749 135.972C287.134 105.608 258.661 93.0564 258.661 93.0564L258.239 93.4769Z" fill="#DDB303"/>
<path d="M229.119 246.471L223.202 238.55L230.426 234.05L231.818 242.443L229.119 246.471Z" fill="#44312E"/>
<path d="M247.274 78.6067L240.86 73.5708L231.564 83.8221C232.58 87.265 236.173 90.7282 236.173 90.7282L239.073 87.5609L251.076 100.344L257.334 94.1252C257.79 94.2116 258.453 94.3964 259.431 94.7629C262.367 95.864 263.055 95.6176 263.055 95.6176L258.492 92.9716L244.356 81.7927L247.274 78.6067Z" fill="#DDB303"/>
<path d="M236.802 224.025C240.897 220.263 244.495 216.111 247.758 211.612C251.16 206.92 254.44 202.311 257.136 197.162C259.741 192.188 261.908 186.991 263.591 181.635C264.438 178.943 265.172 176.216 265.793 173.463C266.37 170.901 267.439 167.651 266.586 165.058C266.163 163.773 264.538 163.516 263.766 164.642C262.253 166.847 262.212 170.052 261.669 172.605C261.125 175.169 260.48 177.712 259.741 180.226C258.197 185.474 256.288 190.643 254.013 195.617C251.776 200.507 249.319 205.565 246.248 209.988C243.079 214.549 239.532 218.876 235.833 223.015C235.238 223.682 236.13 224.641 236.802 224.025Z" fill="#FFE473"/>
<path d="M265.304 154.694C266.321 147.074 266.133 139.249 265.824 131.582C265.675 127.853 265.461 124.112 265.07 120.399C264.877 118.54 264.612 116.686 264.34 114.837C264.057 112.907 263.846 111.265 262.62 109.702C262.019 108.934 260.821 109.408 260.566 110.213C260.037 111.882 260.363 113.44 260.654 115.126C260.983 117.024 261.262 118.928 261.564 120.83C262.166 124.612 262.725 128.391 263.125 132.201C263.91 139.687 263.917 147.179 264.294 154.685C264.328 155.349 265.22 155.327 265.304 154.694Z" fill="#FFE473"/>
<path d="M228.677 250.513C228.672 249.708 234.813 205.101 229.883 183.732C221.916 149.186 190.554 114.776 190.554 114.776L193.799 104.835C193.799 104.835 224.863 103.044 244.58 127.063C264.297 151.082 269.221 167.947 266.461 200.144C263.449 235.291 237.552 254.87 237.552 254.87L228.677 250.513Z" fill="#FCD400"/>
<path d="M193.803 105.4C204.548 106.762 222.245 111.444 235.112 127.119C254.829 151.138 259.753 168.003 256.993 200.2C254.674 227.254 238.797 245.083 231.609 251.859L237.739 254.869C237.739 254.869 263.636 235.29 266.649 200.144C269.409 167.945 264.484 151.082 244.767 127.063C225.05 103.043 193.987 104.834 193.987 104.834L193.803 105.4Z" fill="#DDB303"/>
<path d="M237.552 254.87L228.677 250.512L233.058 243.215L238.12 250.055L237.552 254.87Z" fill="#44312E"/>
<path d="M177.269 97.1542L169.266 95.5927L165.658 108.952C168.13 111.555 172.905 113.002 172.905 113.002L174.045 108.861L190.553 114.776L193.292 106.389C193.738 106.259 194.412 106.12 195.449 106.002C198.565 105.645 199.065 105.113 199.065 105.113L193.798 104.835L176.121 101.32L177.269 97.1542Z" fill="#DDB303"/>
<path d="M234.168 231.388C236.1 226.174 237.413 220.839 238.269 215.347C239.161 209.622 239.983 204.023 240.037 198.213C240.091 192.598 239.654 186.985 238.713 181.449C238.24 178.667 237.653 175.905 236.951 173.171C236.298 170.628 235.77 167.249 233.83 165.328C232.868 164.376 231.305 164.887 231.13 166.241C230.787 168.893 232.21 171.765 232.89 174.286C233.572 176.816 234.156 179.373 234.642 181.949C235.659 187.324 236.313 192.794 236.552 198.26C236.787 203.633 236.903 209.254 236.183 214.591C235.44 220.093 234.252 225.561 232.844 230.932C232.618 231.795 233.851 232.243 234.168 231.388Z" fill="#FFE473"/>
<path d="M227.97 156.683C225.406 149.437 221.675 142.555 217.909 135.87C216.078 132.618 214.183 129.386 212.146 126.257C211.127 124.691 210.046 123.161 208.963 121.638C207.832 120.049 206.896 118.683 205.093 117.849C204.208 117.44 203.357 118.407 203.497 119.24C203.786 120.967 204.785 122.207 205.813 123.574C206.97 125.114 208.085 126.682 209.22 128.238C211.478 131.331 213.698 134.441 215.788 137.651C219.896 143.958 223.314 150.625 227.069 157.137C227.4 157.711 228.183 157.286 227.97 156.683Z" fill="#FFE473"/>
<path d="M200.09 149.427L231.745 168.38H186.14L200.09 149.427Z" fill="#DBE2EA"/>
<path d="M186.138 168.38H122.485V356.431H186.138V168.38Z" fill="#A6A9AC"/>
<path d="M231.744 168.38H186.138V356.431H231.744V168.38Z" fill="#B0B9BE"/>
<path d="M122.485 168.38L153.016 134.066H208.531C209.719 134.066 210.402 135.417 209.697 136.375L186.14 168.38H122.485Z" fill="#CBD2D5"/>
<path d="M209.974 135.387C209.974 135.387 231.915 163.556 231.744 164.75C231.574 165.945 231.744 168.38 231.744 168.38L200.09 149.426L209.974 135.387Z" fill="#70808B"/>
<path d="M208.232 134.067H153.853C152.886 134.067 152.103 133.284 152.103 132.317V126.167C152.103 125.201 152.886 124.417 153.853 124.417H208.232C209.199 124.417 209.982 125.201 209.982 126.167V132.317C209.982 133.284 209.199 134.067 208.232 134.067Z" fill="#A5ABB1"/>
<path d="M207.79 344.217C207.599 344.217 207.444 344.062 207.444 343.871V173.044C207.444 172.852 207.599 172.698 207.79 172.698C207.981 172.698 208.135 172.852 208.135 173.044V343.871C208.135 344.062 207.981 344.217 207.79 344.217Z" fill="#DBE2EA"/>
<path d="M134.48 227.085C135.246 227.085 135.997 227.193 136.733 227.407C137.47 227.621 138.109 227.943 138.652 228.372C139.211 228 139.841 227.692 140.541 227.448C141.241 227.207 142.085 227.085 143.074 227.085C143.783 227.085 144.479 227.179 145.16 227.365C145.84 227.552 146.447 227.846 146.98 228.247C147.511 228.648 147.935 229.18 148.253 229.843C148.57 230.505 148.729 231.313 148.729 232.264V241.082C148.542 241.137 148.247 241.192 147.846 241.249C147.445 241.306 147.03 241.333 146.601 241.333C146.19 241.333 145.821 241.305 145.495 241.249C145.168 241.193 144.894 241.082 144.669 240.914C144.445 240.745 144.273 240.518 144.152 240.228C144.03 239.939 143.97 239.56 143.97 239.094V232.405C143.97 231.845 143.812 231.439 143.494 231.187C143.176 230.935 142.747 230.809 142.206 230.809C141.944 230.809 141.664 230.87 141.367 230.99C141.068 231.111 140.844 231.237 140.695 231.369C140.713 231.444 140.723 231.513 140.723 231.578V231.76V241.082C140.517 241.137 140.214 241.192 139.813 241.249C139.411 241.305 139.005 241.333 138.595 241.333C138.185 241.333 137.816 241.305 137.49 241.249C137.163 241.193 136.887 241.082 136.664 240.914C136.44 240.745 136.268 240.518 136.146 240.228C136.024 239.939 135.964 239.56 135.964 239.094V232.405C135.964 231.845 135.792 231.439 135.446 231.187C135.101 230.935 134.685 230.809 134.201 230.809C133.865 230.809 133.575 230.86 133.333 230.962C133.09 231.066 132.885 231.164 132.717 231.257V241.082C132.531 241.138 132.237 241.193 131.836 241.25C131.434 241.306 131.019 241.334 130.59 241.334C130.178 241.334 129.81 241.306 129.484 241.25C129.157 241.194 128.883 241.082 128.659 240.915C128.434 240.746 128.261 240.518 128.141 240.229C128.018 239.939 127.958 239.561 127.958 239.094V230.641C127.958 230.137 128.066 229.736 128.28 229.438C128.494 229.139 128.789 228.859 129.162 228.598C129.797 228.15 130.584 227.786 131.527 227.506C132.469 227.224 133.454 227.085 134.48 227.085Z" fill="white"/>
<path d="M151.527 223.725C151.527 223.015 151.765 222.418 152.241 221.934C152.717 221.448 153.346 221.206 154.131 221.206C154.915 221.206 155.544 221.447 156.02 221.934C156.496 222.418 156.734 223.015 156.734 223.725C156.734 224.434 156.496 225.031 156.02 225.516C155.544 226.002 154.915 226.245 154.131 226.245C153.346 226.245 152.717 226.003 152.241 225.516C151.765 225.031 151.527 224.435 151.527 223.725ZM156.509 241.081C156.303 241.118 156 241.169 155.599 241.235C155.198 241.299 154.792 241.332 154.382 241.332C153.971 241.332 153.603 241.305 153.276 241.249C152.95 241.192 152.675 241.081 152.45 240.913C152.227 240.745 152.054 240.517 151.932 240.227C151.81 239.938 151.75 239.56 151.75 239.093V227.7C151.956 227.664 152.259 227.612 152.661 227.547C153.061 227.482 153.467 227.449 153.878 227.449C154.288 227.449 154.656 227.477 154.984 227.532C155.31 227.589 155.585 227.701 155.809 227.868C156.033 228.036 156.206 228.265 156.327 228.553C156.448 228.844 156.509 229.221 156.509 229.688V241.081Z" fill="white"/>
<path d="M164.375 241.081C164.17 241.118 163.866 241.169 163.465 241.235C163.064 241.299 162.658 241.332 162.248 241.332C161.837 241.332 161.468 241.305 161.142 241.249C160.816 241.192 160.541 241.081 160.316 240.913C160.092 240.745 159.92 240.517 159.798 240.227C159.677 239.938 159.616 239.56 159.616 239.093V222.858C159.822 222.821 160.125 222.771 160.526 222.704C160.928 222.638 161.333 222.606 161.744 222.606C162.154 222.606 162.523 222.634 162.85 222.69C163.176 222.746 163.452 222.858 163.675 223.026C163.899 223.194 164.072 223.422 164.193 223.712C164.314 224.002 164.375 224.379 164.375 224.846V241.081Z" fill="white"/>
<path d="M180.665 238.645C180.571 239.522 180.315 240.195 179.896 240.66C179.475 241.127 178.865 241.359 178.062 241.359C177.465 241.359 176.933 241.216 176.466 240.927C176.001 240.637 175.497 240.148 174.954 239.457L172.185 235.986V241.08C171.979 241.118 171.675 241.168 171.274 241.234C170.873 241.299 170.467 241.332 170.057 241.332C169.646 241.332 169.278 241.305 168.951 241.249C168.624 241.193 168.349 241.08 168.125 240.913C167.901 240.745 167.728 240.516 167.608 240.227C167.486 239.938 167.426 239.56 167.426 239.093V222.886C167.631 222.83 167.934 222.77 168.335 222.704C168.736 222.639 169.142 222.607 169.553 222.607C169.963 222.607 170.332 222.635 170.658 222.69C170.986 222.746 171.261 222.858 171.485 223.026C171.709 223.194 171.881 223.422 172.002 223.711C172.124 224.002 172.185 224.379 172.185 224.846V232.235L176.999 227.308C177.969 227.308 178.748 227.523 179.335 227.952C179.924 228.381 180.218 228.923 180.218 229.575C180.218 229.855 180.171 230.112 180.078 230.344C179.984 230.579 179.839 230.817 179.643 231.058C179.447 231.301 179.195 231.557 178.888 231.828C178.58 232.099 178.22 232.411 177.81 232.766L176.186 234.165L180.665 238.645Z" fill="white"/>
<path d="M122.485 168.38C122.485 168.38 125.617 169.567 125.617 177.993C125.617 186.418 123.236 201.985 126.35 201.62C129.463 201.254 132.027 197.04 130.745 189.713C129.463 182.387 129.097 174.511 133.127 174.877C137.155 175.244 133.676 183.77 136.423 185.002C139.17 186.234 141.552 182.387 141.001 177.809C140.452 173.229 141.734 171.031 150.709 171.214C159.684 171.398 163.758 175.244 161.995 180.922C160.234 186.6 155.152 203.45 159.617 206.381C164.08 209.311 165.769 204 164.375 197.589C162.981 191.178 164.357 185.684 166.234 182.204C168.109 178.724 165.094 173.08 167.426 172.697C169.758 172.313 175.985 172.496 175.436 176.892C174.887 181.289 178.916 188.249 179.465 182.204C180.014 176.16 184.387 168.38 186.139 168.38H122.485V168.38Z" fill="white"/>
<path d="M148.411 194.234C148.411 194.234 143.073 202.324 146.987 203.149C150.901 203.974 150.92 198.096 148.411 194.234Z" fill="white"/>
<path d="M223.073 170.665C228.952 160.055 234.903 148.79 245.058 142.158C247.742 140.405 250.77 138.996 253.974 138.881C260.348 138.65 265.984 143.743 268.263 149.701C270.541 155.659 270.125 162.284 269.266 168.605C265.746 194.506 255.233 219.36 239.514 240.246C223.794 261.13 202.934 278.042 179.477 289.577C176.229 291.175 172.828 292.699 169.212 292.876C164.95 293.084 160.795 291.387 157.193 289.1C151.796 285.67 147.173 280.603 145.556 274.416C141.117 257.429 161.058 248.77 171.184 239.733C185.102 227.314 196.833 212.625 207.124 197.116C212.818 188.534 218.082 179.672 223.073 170.665Z" fill="#31BB7B"/>
<path d="M259.931 141.51C262.209 147.468 261.793 154.093 260.935 160.414C257.415 186.315 246.903 211.169 231.183 232.054C215.462 252.939 194.603 269.85 171.145 281.386C167.897 282.984 164.496 284.508 160.881 284.685C156.619 284.893 152.464 283.197 148.862 280.908C148.679 280.791 148.498 280.668 148.317 280.549C150.556 283.986 153.711 286.886 157.195 289.1C160.796 291.389 164.951 293.086 169.214 292.876C172.829 292.7 176.23 291.176 179.478 289.579C202.935 278.042 223.795 261.132 239.516 240.246C255.236 219.36 265.749 194.509 269.268 168.606C270.127 162.285 270.543 155.66 268.265 149.702C266.64 145.455 263.309 141.649 259.221 139.896C259.485 140.424 259.722 140.963 259.931 141.51Z" fill="#0B9555"/>
<path d="M163.534 252.387C168.793 248.786 175.4 247.33 180.218 243.157C183.213 240.562 185.598 236.886 189.425 235.853C190.356 235.601 191.748 235.895 191.666 236.856C191.603 237.604 190.688 237.883 190.018 238.223C189.347 238.562 188.884 239.688 189.594 239.935C189.923 240.048 190.272 239.844 190.556 239.638C195.69 235.934 198.666 230.035 202.046 224.681C204.175 221.311 206.53 218.083 209.088 215.026C212.039 211.503 215.374 207.995 216.434 203.525C216.872 201.674 216.904 199.705 217.704 197.98C218.523 196.216 220.056 194.901 221.178 193.313C222.301 191.725 222.983 189.503 221.915 187.877C219.009 188.999 217.298 191.929 215.64 194.566C213.308 198.278 210.652 201.789 207.715 205.045C203.811 209.374 199.406 213.258 195.807 217.844C192.836 221.629 190.444 225.852 187.337 229.526C182.736 234.969 176.775 238.978 171.037 243.106C168.126 245.2 165.251 247.344 162.57 249.729C161.969 250.263 160.244 251.364 160.438 252.344C160.763 253.995 162.754 252.921 163.534 252.387Z" fill="#109451"/>
<path d="M226.097 201.619C226.406 199.946 230.037 196.174 230.255 194.678C230.474 193.183 231.343 190.89 231.494 189.68C231.647 188.472 232.738 188.36 233.778 185.04C234.818 181.719 235.137 182.145 237.72 177.75C240.303 173.353 241.81 171.914 241.81 171.914L241.572 177.389C241.572 177.389 240.339 178.05 239.549 180.741C238.757 183.43 238.475 183.367 237.897 184.896C237.317 186.425 237.392 187.151 236.508 188.849C235.624 190.547 234.6 192.213 234.41 193.058C234.221 193.904 237.799 191.151 234.014 194.567C230.227 197.984 224.971 207.703 226.097 201.619Z" fill="#109451"/>
<path d="M162.397 264.881C160.953 265.274 155.961 268.842 156.214 269.948C156.467 271.053 156.992 273.95 159.074 271.83C161.156 269.71 161.996 269.719 163.991 267.304C165.987 264.887 166.616 263.84 171.207 261.513C175.8 259.186 180.124 259.117 180.179 256.018C180.235 252.918 178.496 252.849 175.546 254.262C172.596 255.677 173.741 256.16 169.743 258.741C165.748 261.323 162.397 264.881 162.397 264.881Z" fill="#54EDA0"/>
<path d="M190.823 254.811C191.008 255.411 192.702 257.465 193.042 255.947C193.382 254.427 193.683 253.325 193.683 253.325L191.226 252.444L190.823 254.811Z" fill="#54EDA0"/>
<path d="M200.149 243.097L202.264 244.82L203.585 243.202C202.45 241.378 200.149 243.097 200.149 243.097Z" fill="#54EDA0"/>
<path d="M102.453 185.453C102.453 185.453 86.6052 175.243 78.0249 162.575C69.4432 149.907 66.9354 147.166 70.3821 146.877C73.8287 146.586 81.0615 156.912 89.8655 165.722C98.6696 174.531 104.647 181.514 102.453 185.453Z" fill="#2CDA89"/>
<path d="M105.586 185.161C105.586 185.161 87.9278 165.515 79.4174 148.225C70.907 130.935 65.6466 120.174 70.9146 119.341C76.1826 118.508 86.4069 128.568 92.6512 142.276C98.8964 155.984 107.954 187.734 106.77 186.448L105.586 185.161Z" fill="#20B872"/>
<path d="M110.476 182.969C110.476 182.969 106.083 131.248 98.4546 125.858C90.8252 120.468 98.8744 162.959 102.458 173.22C106.041 183.483 110.123 188.888 110.476 182.969Z" fill="#2CDA89"/>
<path d="M111.564 221.254C111.564 221.254 95.4862 200.637 95.547 190.415C95.6086 180.195 109.527 171.281 121.808 181.635C134.09 191.99 146.175 217.963 154.934 238.114C163.692 258.266 180.078 305.308 175.459 304.872C170.84 304.437 157.207 286.354 149.563 275.663C141.92 264.975 111.564 221.254 111.564 221.254Z" fill="#FC7D3F"/>
<path d="M99.5348 203.82C105.075 202.545 110.585 201.059 114.605 196.787C115.512 195.824 114.085 194.334 113.173 195.302C109.396 199.318 104.238 200.62 99.0474 201.816C97.751 202.114 98.2415 204.117 99.5348 203.82Z" fill="#EF6129"/>
<path d="M120.3 193.148C121.255 192.226 119.825 190.741 118.868 191.664C117.913 192.586 119.344 194.071 120.3 193.148Z" fill="#EF6129"/>
<path d="M114.493 213.881C121.978 211.882 129.402 209.641 134.877 203.855C135.787 202.894 134.36 201.404 133.446 202.371C128.209 207.905 121.152 209.967 114.006 211.875C112.723 212.219 113.209 214.224 114.493 213.881Z" fill="#EF6129"/>
<path d="M137.579 216.512C138.533 215.59 137.103 214.105 136.146 215.026C135.191 215.949 136.622 217.434 137.579 216.512Z" fill="#EF6129"/>
<path d="M117.573 229.262C121.18 228.408 124.534 226.959 127.615 224.893C128.71 224.159 127.73 222.342 126.628 223.082C123.688 225.053 120.533 226.443 117.085 227.258C115.791 227.563 116.281 229.567 117.573 229.262Z" fill="#EF6129"/>
<path d="M131.574 249.866C136.088 248.892 140.112 246.802 143.525 243.692C144.507 242.798 143.075 241.313 142.093 242.207C138.933 245.087 135.266 246.959 131.087 247.861C129.785 248.142 130.277 250.146 131.574 249.866Z" fill="#EF6129"/>
<path d="M137.377 232.108C140.505 231.768 143.453 230.894 146.235 229.418C147.409 228.795 146.42 226.984 145.248 227.607C142.798 228.905 140.176 229.745 137.415 230.046C136.11 230.187 136.059 232.251 137.377 232.108Z" fill="#EF6129"/>
<path d="M132.682 235.458C133.637 234.535 132.206 233.05 131.25 233.973C130.295 234.895 131.725 236.381 132.682 235.458Z" fill="#EF6129"/>
<path d="M146.283 271.502C149.459 270.652 152.477 269.412 155.327 267.769C156.477 267.107 155.493 265.295 154.341 265.959C151.639 267.513 148.808 268.692 145.796 269.498C144.513 269.842 144.999 271.846 146.283 271.502Z" fill="#EF6129"/>
<path d="M150.602 260.307C151.557 259.384 150.127 257.899 149.17 258.821C148.214 259.744 149.646 261.23 150.602 260.307Z" fill="#EF6129"/>
<path d="M153.782 258.904C156.646 258.191 159.286 256.974 161.667 255.227C162.723 254.453 161.747 252.633 160.68 253.416C158.435 255.063 156 256.226 153.294 256.901C152.004 257.221 152.493 259.225 153.782 258.904Z" fill="#EF6129"/>
<path d="M159.286 288.631C161.18 288.216 162.954 287.451 164.538 286.336C165.615 285.58 164.637 283.762 163.552 284.523C162.097 285.547 160.537 286.246 158.799 286.627C157.499 286.912 157.991 288.915 159.286 288.631Z" fill="#EF6129"/>
<path d="M168.649 187.138C168.649 187.138 164.529 174.285 165.545 163.376C166.562 152.468 166.421 149.812 168.459 151.219C170.497 152.626 169.8 161.626 170.663 170.502C171.525 179.378 171.654 185.958 168.649 187.138Z" fill="#20B872"/>
<path d="M170.516 188.402C170.516 188.402 169.687 169.507 172.844 156.075C176.001 142.643 177.987 134.3 181.278 136.235C184.571 138.17 185.648 148.384 182.868 158.804C180.086 169.225 170.655 190.902 170.585 189.652L170.516 188.402Z" fill="#20B872"/>
<path d="M174.219 189.414C174.219 189.414 195.312 158.815 193.544 152.365C191.776 145.914 176.903 173.073 174.217 180.377C171.531 187.681 171.331 192.527 174.219 189.414Z" fill="#20B872"/>
<path d="M157.407 211.079C157.407 211.079 157.892 192.367 162.575 186.743C167.257 181.118 179.008 182.518 181.09 193.83C183.172 205.142 178.043 225.002 173.721 240.13C169.4 255.257 157.066 288.723 154.709 286.381C152.353 284.04 153.04 267.838 153.674 258.451C154.309 249.063 157.407 211.079 157.407 211.079Z" fill="#FC7D3F"/>
<path d="M158.684 195.968C162.328 197.783 166.049 199.467 170.215 198.932C171.155 198.812 171.045 197.339 170.1 197.46C166.185 197.963 162.739 196.337 159.326 194.637C158.472 194.213 157.833 195.545 158.684 195.968Z" fill="#EF6129"/>
<path d="M175.019 199.511C175.966 199.435 175.851 197.963 174.903 198.039C173.955 198.115 174.07 199.587 175.019 199.511Z" fill="#EF6129"/>
<path d="M162.38 208.335C167.428 210.633 172.552 212.77 178.211 212.062C179.152 211.944 179.04 210.471 178.095 210.59C172.682 211.267 167.841 209.198 163.021 207.005C162.156 206.611 161.514 207.941 162.38 208.335Z" fill="#EF6129"/>
<path d="M173.948 220.288C174.895 220.212 174.78 218.74 173.831 218.816C172.884 218.892 172.999 220.364 173.948 220.288Z" fill="#EF6129"/>
<path d="M157.088 218.241C159.47 219.41 161.985 220.134 164.628 220.391C165.567 220.484 165.852 219.034 164.906 218.941C162.384 218.694 160.007 218.028 157.729 216.91C156.874 216.492 156.234 217.822 157.088 218.241Z" fill="#EF6129"/>
<path d="M155.459 236.003C158.398 237.518 161.575 238.191 164.875 238.023C165.826 237.976 165.707 236.505 164.759 236.551C161.701 236.706 158.823 236.074 156.1 234.672C155.253 234.236 154.614 235.568 155.459 236.003Z" fill="#EF6129"/>
<path d="M166.744 228.822C168.628 230.056 170.655 230.914 172.865 231.363C173.798 231.552 174.074 230.101 173.143 229.912C171.197 229.517 169.365 228.788 167.701 227.698C166.917 227.184 165.95 228.302 166.744 228.822Z" fill="#EF6129"/>
<path d="M162.624 228.54C163.571 228.463 163.455 226.991 162.507 227.067C161.56 227.143 161.675 228.615 162.624 228.54Z" fill="#EF6129"/>
<path d="M153.751 254.657C155.895 255.632 158.127 256.319 160.45 256.707C161.387 256.864 161.667 255.413 160.728 255.256C158.526 254.888 156.426 254.252 154.393 253.327C153.528 252.933 152.886 254.263 153.751 254.657Z" fill="#EF6129"/>
<path d="M161.232 250.431C162.179 250.355 162.064 248.883 161.115 248.959C160.168 249.034 160.283 250.506 161.232 250.431Z" fill="#EF6129"/>
<path d="M163.628 251.102C165.536 252.01 167.55 252.537 169.661 252.653C170.597 252.706 170.885 251.256 169.939 251.203C167.949 251.093 166.073 250.628 164.269 249.771C163.41 249.362 162.769 250.693 163.628 251.102Z" fill="#EF6129"/>
<path d="M153.153 270.044C154.388 270.675 155.717 271.059 157.101 271.163C158.039 271.235 158.326 269.784 157.379 269.712C156.11 269.616 154.929 269.293 153.794 268.713C152.946 268.279 152.307 269.611 153.153 270.044Z" fill="#EF6129"/>
<path d="M286.603 313.909C254.537 306.515 264.489 252.517 279.692 186.58C294.895 120.645 309.594 67.7394 341.661 75.1336C373.727 82.5279 387.398 141.974 372.193 207.909C356.99 273.846 318.67 321.303 286.603 313.909Z" fill="#E2AF7C"/>
<path d="M342.901 103.106C341.241 106.034 344.258 111.204 349.499 117.516C354.688 124.006 361.851 132.046 369.483 141.155C372.627 145.104 375.586 148.932 378.361 152.507C378.125 137.2 376.111 123.268 372.493 111.549C367.928 108.196 363.444 105.612 359.431 103.919C350.681 100.401 344.462 100.315 342.901 103.106Z" fill="#CE9561"/>
<path d="M372.193 207.91C374.134 199.492 375.598 191.183 376.619 183.071C375.156 181.224 373.626 179.385 371.956 177.579C362.391 167.598 351.656 160.794 343.152 157.587C334.532 154.477 328.438 154.537 326.902 157.362C325.289 160.3 328.299 165.377 333.66 171.495C338.981 177.759 346.447 185.413 354.62 193.905C360.725 200.523 366.369 206.731 371.269 211.699C371.581 210.438 371.9 209.183 372.193 207.91Z" fill="#CE9561"/>
<path d="M310.821 210.775C309.142 213.696 312.356 219.015 317.909 225.601C323.407 232.374 330.976 240.841 338.99 250.484C343.233 255.854 347.147 261.032 350.709 265.685C354.761 258.27 358.517 250.189 361.878 241.547C360.513 239.519 359.08 237.495 357.498 235.497C347.993 223.996 336.84 215.985 327.915 212.059C318.841 208.252 312.398 207.996 310.821 210.775Z" fill="#CE9561"/>
<path d="M305.237 266.559C302.792 265.729 300.733 265.623 299.361 266.528C297.99 267.433 297.443 269.286 297.734 272.001C297.879 273.357 298.233 274.927 298.794 276.685C299.366 278.42 300.077 280.483 301.195 282.293C305.103 289.496 311.551 297.054 319.285 304.621C325.056 300.283 330.722 294.652 336.126 287.887C327.865 280.378 319.643 274.628 313.681 270.997C311.888 270.044 310.569 269.081 309.161 268.331C307.779 267.573 306.46 266.974 305.237 266.559Z" fill="#CE9561"/>
<path d="M393.997 234.506C389.327 250.936 369.627 259.733 349.993 254.152C330.359 248.572 318.233 230.729 322.903 214.298C327.574 197.866 347.272 189.068 366.906 194.648C386.539 200.227 398.668 218.073 393.997 234.506Z" fill="#FF2222"/>
<path d="M392.701 216.256C392.978 219.419 392.703 222.626 391.806 225.783C387.136 242.214 367.435 251.01 347.801 245.43C335.484 241.929 326.123 233.602 322.008 223.823C323.17 237.13 334.132 249.644 349.994 254.152C369.628 259.733 389.328 250.936 393.999 234.506C395.739 228.382 395.145 222.062 392.701 216.256Z" fill="#EA1111"/>
<path d="M372.435 203.593C377.583 204.841 382.216 203.959 382.216 203.959C382.216 203.959 378.871 200.614 373.813 198.813C377.928 197.218 379.61 194.062 379.61 194.062C379.61 194.062 374.371 192.92 369.745 193.993C370.423 190.49 368.165 186.905 368.165 186.905C368.165 186.905 364.106 188.64 362.625 191.959C359.464 188.598 354.592 186.685 354.592 186.685C354.592 186.685 354.089 190.278 356.613 193.899C351.464 192.646 346.833 193.53 346.833 193.53C346.833 193.53 350.181 196.876 355.241 198.678C351.118 200.268 349.438 203.427 349.438 203.427C349.438 203.427 354.678 204.568 359.304 203.496C358.625 206.998 360.884 210.584 360.884 210.584C360.884 210.584 364.939 208.85 366.424 205.533C369.591 208.894 374.458 210.802 374.458 210.802C374.458 210.802 374.961 207.208 372.435 203.593Z" fill="#2CDA89"/>
<path d="M241.987 196.6C234.614 199.336 220.848 191.42 214.743 204.565C208.637 217.708 217.67 243.089 228.045 251.935C238.42 260.778 256.337 257.74 267.386 253.938C280.291 249.498 297.211 236.583 291.911 214.803C287.275 195.75 276.916 181.005 260.411 185.482C250.358 188.208 254.063 192.12 241.987 196.6Z" fill="#FF2222"/>
<path d="M270.483 185.177C275.892 190.673 279.753 199.278 282.12 209.008C287.42 230.788 270.5 243.703 257.596 248.143C249.116 251.06 236.592 253.528 226.536 250.521C227.035 251.029 227.539 251.501 228.046 251.934C238.421 260.777 256.339 257.739 267.388 253.938C280.292 249.497 297.212 236.582 291.912 214.802C288.303 199.972 281.227 187.754 270.483 185.177Z" fill="#EA1111"/>
<path d="M239.88 197.098C239.88 197.098 237.963 187.431 238.167 182.34C238.37 177.248 241.249 168.548 241.249 168.548L245.206 169.314C245.206 169.314 241.709 175.086 241.229 181.617C240.894 186.179 241.989 196.6 241.989 196.6L239.88 197.098Z" fill="#44312E"/>
<path d="M228.641 199C224.727 199.323 222.1 201.518 219.921 204.674C217.762 207.802 216.442 211.592 215.878 215.331C215.278 219.308 215.51 223.143 216.131 227.103C216.75 231.049 217.634 236.07 221.712 237.713C223.174 238.302 224.935 237.075 225.316 235.684C226.217 232.395 223.87 229.264 222.984 226.167C222.165 223.305 221.932 220.35 222.142 217.384C222.519 212.039 224.828 206.113 229.866 203.589C231.99 202.525 231.068 198.799 228.641 199Z" fill="#FF6666"/>
<path d="M225.386 241.017C226.536 243.533 228.441 245.647 230.76 247.145C233.103 248.659 237.222 250.076 239.746 248.292C241.437 247.096 242.153 243.88 239.766 242.847C237.617 241.917 235.456 242.506 233.203 242.068C231.074 241.655 229.343 240.703 227.862 239.12C226.568 237.738 224.682 239.477 225.386 241.017Z" fill="#FF6666"/>
<path d="M248.128 247.152C252.306 247.167 252.337 240.674 248.152 240.659C243.974 240.644 243.944 247.136 248.128 247.152Z" fill="#FF6666"/>
<path d="M484.361 221.626H109.522V461.232H484.361V221.626Z" fill="#D59A69"/>
<g opacity="0.39">
<g opacity="0.39">
<path opacity="0.39" d="M484.361 223.825L108.263 228.707L83.1025 297.43H526.984L521.351 287.666L484.361 223.825Z" fill="#70808B"/>
</g>
</g>
<path d="M109.524 221.627L84.6055 292.893H524.018L484.362 221.627H109.524Z" fill="#EDB98E"/>
<path d="M439.924 363.724C439.924 363.724 416.679 356.951 403.435 363.724C390.193 370.495 375.405 380.648 374.08 406.031C372.756 431.413 389.972 458.34 399.684 461.652C409.395 464.963 415.354 467.39 418.886 461.652C422.417 455.913 439.924 363.724 439.924 363.724Z" fill="#ED622A"/>
<path d="M439.039 368.425C439.039 368.425 423.147 362.906 415.202 369.75C407.256 376.591 389.598 397.373 394.233 416.338C398.869 435.302 409.131 465.4 419.174 466.643C427.729 467.703 436.391 471.801 439.039 461.347V368.425Z" fill="#F37C42"/>
<path d="M443.453 363.192C443.453 363.192 466.698 356.42 479.942 363.192C493.184 369.964 507.972 380.115 509.297 405.499C510.621 430.881 493.405 457.809 483.693 461.12C473.982 464.431 468.023 466.858 464.491 461.12C460.96 455.381 443.453 363.192 443.453 363.192Z" fill="#ED622A"/>
<path d="M444.337 367.893C444.337 367.893 460.229 362.374 468.174 369.217C476.12 376.06 493.778 396.841 489.143 415.806C484.508 434.77 474.244 464.868 464.201 466.112C455.647 467.172 446.985 471.269 444.337 460.815V367.893V367.893Z" fill="#F37C42"/>
<path d="M448.089 348.035C447.206 350.094 440.585 349.212 437.2 350.978C433.816 352.745 430.607 365.791 430.607 365.791C430.888 365.646 435.759 366.515 440.755 366.979C440.752 367.152 440.751 367.255 440.751 367.255C441.31 366.968 449.855 369.225 451.622 365.791C453.387 362.355 448.972 345.975 448.089 348.035Z" fill="#26B472"/>
<path d="M457.601 378.659C455.285 365.603 445.775 363.869 439.763 364.13C433.753 363.868 424.243 365.603 421.926 378.659C418.476 398.106 413.144 408.771 419.417 427.275C425.69 445.781 427.257 454.563 428.198 458.014C429.059 461.17 427.595 467.986 438.15 468.885L438.155 468.992C438.731 469.006 439.239 468.984 439.763 468.97C440.288 468.984 440.796 469.006 441.373 468.992L441.377 468.885C451.932 467.987 450.468 461.17 451.328 458.014C452.269 454.563 453.838 445.781 460.111 427.275C466.384 408.771 461.051 398.106 457.601 378.659Z" fill="#F69672"/>
<path d="M416.435 374.153C407.23 384.343 398.901 397.176 397.158 411.067C396.766 414.193 401.989 414.339 402.163 411.067C402.921 396.8 411.403 387.455 419.668 376.646C421.085 374.792 417.989 372.434 416.435 374.153Z" fill="#F69672"/>
<path d="M403.315 426.181C403.258 431.694 404.236 436.731 405.583 442.071C406.596 446.09 407.98 452.293 412.088 454.036C413.236 454.522 415.011 454.273 415.274 452.739C415.994 448.544 413.194 445.29 411.456 441.557C409.107 436.516 407.658 431.157 406.264 425.781C405.835 424.13 403.331 424.492 403.315 426.181Z" fill="#F69672"/>
<path d="M418.678 463.348C423.975 463.348 423.983 455.117 418.678 455.117C413.383 455.117 413.374 463.348 418.678 463.348Z" fill="#F69672"/>
<path d="M394.858 427.193C394.608 409.027 382.548 393.814 366.093 388.705L365.493 345.113C367.865 343.478 369.408 340.731 369.365 337.634C369.297 332.707 365.247 328.763 360.318 328.831L354.596 328.91L350.615 328.964L344.89 329.042C339.961 329.111 336.023 333.164 336.09 338.09C336.132 341.188 337.748 343.892 340.164 345.46L340.764 389.057C324.456 394.616 312.817 410.152 313.066 428.316C313.261 442.491 320.648 454.873 331.703 462.065C331.462 462.671 331.331 463.33 331.341 464.027C331.379 466.859 333.705 469.12 336.537 469.081L372.516 468.587C375.347 468.548 377.612 466.224 377.573 463.391C377.563 462.695 377.411 462.039 377.155 461.439C388.008 453.95 395.052 441.367 394.858 427.193Z" fill="#EBF4F8"/>
<path d="M361.546 335.224C361.581 337.731 359.326 339.8 356.51 339.838L349.413 339.935C346.598 339.974 344.285 337.969 344.25 335.461L344.075 322.654C344.04 320.142 346.298 318.078 349.113 318.039L356.21 317.941C359.025 317.903 361.336 319.904 361.37 322.415L361.546 335.224Z" fill="#2C2B2B"/>
<path d="M387.582 427.38C387.837 445.944 373.004 461.217 354.417 461.472C335.852 461.727 320.582 446.868 320.326 428.304C320.243 422.194 321.802 416.446 324.618 411.454L382.853 410.653C385.783 415.567 387.497 421.269 387.582 427.38Z" fill="#06A75D"/>
<path d="M382.854 410.654C382.874 412.128 369.855 413.496 353.774 413.716C337.694 413.938 324.639 412.927 324.619 411.453C324.6 409.981 337.622 408.612 353.702 408.391C369.781 408.17 382.834 409.181 382.854 410.654Z" fill="#10C26F"/>
<path d="M346.032 350.06C345.833 356.527 344.816 363.018 344.051 369.443C343.689 372.485 343.222 375.428 343 378.489C342.804 381.165 341.677 383.831 342.196 386.453C342.474 387.856 344.397 388.521 345.537 387.757C350.033 384.75 348.098 376.211 347.663 371.692C346.976 364.548 346.228 357.23 346.22 350.057C346.22 349.936 346.035 349.939 346.032 350.06Z" fill="white"/>
<path d="M325.963 422.762C325.097 430.036 322.303 438.261 327.547 444.531C329.667 447.068 332.488 449.172 335.146 451.114C337.724 452.997 341.027 455.315 344.324 454.185C345.927 453.636 346.399 451.735 345.244 450.497C343.455 448.579 340.613 447.858 338.452 446.366C336.256 444.848 334.032 443.133 332.171 441.214C329.806 438.775 329.382 436.298 329.148 433.026C328.903 429.592 328.576 426.17 328.413 422.729C328.336 421.105 326.144 421.24 325.963 422.762Z" fill="white"/>
<path d="M207.175 416.707C208.478 415.156 209.265 413.154 209.265 410.968C209.265 406.03 205.263 402.03 200.326 402.03H158.741C153.803 402.03 149.801 406.03 149.801 410.968C149.801 413.154 150.588 415.155 151.89 416.707C149.207 420.311 147.6 424.762 147.6 429.599V449.059C147.6 461.001 157.279 470.683 169.223 470.683H189.844C201.786 470.683 211.468 461.001 211.468 449.059V429.599C211.468 424.761 209.86 420.31 207.175 416.707Z" fill="#EBF4F8"/>
<path d="M150.588 432.843V444.547V445.268C150.588 457.22 160.276 466.891 172.211 466.891H186.858C198.808 466.891 208.481 457.22 208.481 445.268V444.547V432.843H150.588Z" fill="#FC7D3F"/>
<path d="M208.477 432.944C208.477 434.479 195.517 435.726 179.531 435.726C163.543 435.726 150.584 434.479 150.584 432.944C150.584 431.407 163.543 430.159 179.531 430.159C195.517 430.159 208.477 431.407 208.477 432.944Z" fill="#EF6129"/>
<path d="M210.543 410.61C210.543 415.672 206.441 419.778 201.379 419.778H157.68C152.618 419.778 148.516 415.672 148.516 410.61C148.516 405.551 152.618 401.446 157.68 401.446H201.379C206.441 401.446 210.543 405.551 210.543 410.61Z" fill="#303030"/>
<path d="M212.389 419.849C212.389 421.836 210.777 423.45 208.788 423.45H149.679C147.687 423.45 146.077 421.836 146.077 419.849C146.077 417.858 147.687 416.247 149.679 416.247H208.788C210.777 416.247 212.389 417.858 212.389 419.849Z" fill="#303030"/>
<path d="M210.544 415.648C210.544 416.555 209.758 417.291 208.789 417.291H151.082C150.113 417.291 149.327 416.555 149.327 415.648C149.327 414.738 150.113 414.004 151.082 414.004H208.789C209.758 414.004 210.544 414.738 210.544 415.648Z" fill="#FFC122"/>
<path d="M208.559 414.532C210.564 411.355 212.675 407.645 216.332 406.161C216.685 406.018 217.053 405.904 217.418 405.801C217.814 405.688 218.848 405.566 219.111 406.019C219.73 407.094 217.914 408.321 217.245 408.805C215.698 409.919 214.004 410.813 212.228 411.504C212.467 411.915 212.705 412.326 212.946 412.737C214.939 411.189 217.795 411.118 220.212 411.206C221.421 411.251 223.036 411.379 223.896 412.369C225.356 414.051 222.954 414.667 221.789 414.898C219.84 415.285 217.799 415.413 215.816 415.41C213.936 415.407 212.024 415.04 210.16 415.16C209.576 415.197 209.235 415.894 209.672 416.336C211.595 418.287 215.441 417.911 217.915 417.68C220.306 417.459 224.116 417.046 225.632 414.887C227.632 412.043 223.896 409.851 221.507 409.563C218.26 409.169 214.44 409.446 211.903 411.694C211.234 412.286 212.084 413.184 212.796 412.853C215.168 411.748 217.88 410.202 219.564 408.137C220.668 406.785 220.837 404.534 218.843 403.928C216.598 403.243 213.996 404.759 212.346 406.145C209.938 408.167 208.493 410.931 207.167 413.719C206.724 414.646 207.998 415.423 208.559 414.532Z" fill="#FFC122"/>
<path d="M155.537 439.934C155.805 442.836 155.556 445.752 155.788 448.648C155.959 450.81 156.65 452.929 157.524 454.902C158.425 456.936 159.659 458.843 161.196 460.455C162.406 461.725 164.436 464.011 166.348 463.694C166.721 463.632 167.02 463.113 166.877 462.761C166.527 461.896 165.931 461.575 165.17 461.103C164.233 460.521 163.369 459.843 162.565 459.088C161.041 457.658 159.724 456.037 158.705 454.212C156.25 449.816 156.401 444.778 155.813 439.935C155.791 439.762 155.52 439.756 155.537 439.934Z" fill="white"/>
<path d="M170.974 463.96C172.807 465.084 176.492 466.92 178.514 465.409C178.889 465.128 178.936 464.609 178.514 464.337C177.605 463.749 176.544 463.835 175.508 463.691C174.211 463.509 172.989 463.097 171.824 462.506C170.862 462.02 170.044 463.388 170.974 463.96Z" fill="white"/>
</svg>
