<svg width="41" height="41" viewBox="0 0 41 41" fill="none" xmlns="http://www.w3.org/2000/svg">
<path fill-rule="evenodd" clip-rule="evenodd" d="M37.8872 0H25.9424C24.3215 0 23 1.3219 23 2.9424V14.8863C23 16.5072 24.3219 17.8287 25.9424 17.8287H37.8863C39.5072 17.8287 40.8287 16.5068 40.8287 14.8863V2.94152C40.8287 1.32067 39.5081 0 37.8872 0ZM35.6004 7.80881C36.2111 7.80881 36.7061 8.30413 36.7061 8.91445C36.7061 9.52511 36.2108 10.0201 35.6004 10.0201H28.2296C27.6189 10.0201 27.124 9.52476 27.124 8.91445C27.124 8.30379 27.6193 7.80881 28.2296 7.80881H35.6004Z" fill="#0082FF"/>
<path fill-rule="evenodd" clip-rule="evenodd" d="M38.0588 40.9993H26.114C24.4931 40.9993 23.1716 39.6774 23.1716 38.0569L23.1719 26.1129C23.1719 24.4921 24.4938 23.1705 26.1143 23.1705H38.0583C39.6791 23.1705 41.0007 24.4924 41.0007 26.1129V38.0569C41.0003 39.6781 39.6796 40.9993 38.0588 40.9993ZM35.772 28.5026H28.4012C27.7905 28.5026 27.2955 28.9979 27.2955 29.6082C27.2955 30.2189 27.7909 30.7139 28.4012 30.7139H35.772C36.3827 30.7139 36.8777 30.2186 36.8777 29.6082C36.8777 28.9976 36.3823 28.5026 35.772 28.5026ZM35.772 33.4569H28.4012C27.7905 33.4569 27.2955 33.9522 27.2955 34.5625C27.2955 35.1732 27.7909 35.6682 28.4012 35.6682H35.772C36.3827 35.6682 36.8777 35.1728 36.8777 34.5625C36.8777 33.9522 36.3823 33.4569 35.772 33.4569ZM2.9424 0H14.8863C16.5066 0 17.8287 1.3219 17.8287 2.9424V14.8863C17.8287 16.5072 16.5068 17.8287 14.8863 17.8287L2.9424 17.8284C1.32216 17.8284 0 16.5065 0 14.886L0.000343261 2.94205C0.000343261 1.3212 1.32155 0 2.9424 0ZM7.80916 5.2289V7.80881H5.22925C4.61859 7.80881 4.12361 8.30413 4.12361 8.91445C4.12361 9.52511 4.61893 10.0201 5.22925 10.0201H7.80916V12.6C7.80916 13.2107 8.30448 13.7056 8.9148 13.7056C9.52546 13.7056 10.0204 13.2103 10.0204 12.6V10.0201H12.6004C13.211 10.0201 13.706 9.52476 13.706 8.91445C13.706 8.30379 13.2107 7.80881 12.6004 7.80881H10.0204V5.2289C10.0204 4.61824 9.52511 4.12326 8.9148 4.12326C8.30448 4.12326 7.80916 4.61858 7.80916 5.2289Z" fill="#2CDA89"/>
<path fill-rule="evenodd" clip-rule="evenodd" d="M2.9424 40.8287H14.8863C16.5066 40.8287 17.8287 39.5068 17.8287 37.8863V25.9424C17.8287 24.3215 16.5068 23 14.8863 23L2.9424 23.0003C1.32216 23.0003 0 24.3222 0 25.9427V37.8867C0.000343239 39.5075 1.32155 40.8287 2.9424 40.8287ZM11.5881 27.6774C12.0196 27.2459 12.7199 27.2459 13.1517 27.6774C13.5832 28.1089 13.5832 28.8091 13.1517 29.2409L10.4784 31.9143L13.1517 34.5876C13.5832 35.0191 13.5832 35.7193 13.1517 36.1511C12.7202 36.5826 12.0199 36.5826 11.5881 36.1511L8.9148 33.4778L6.24147 36.1511C5.80999 36.5826 5.10974 36.5826 4.67792 36.1511C4.24644 35.7197 4.24644 35.0194 4.67792 34.5876L7.35124 31.9143L4.67792 29.2409C4.24644 28.8095 4.24644 28.1092 4.67792 27.6774C5.1094 27.2459 5.80966 27.2459 6.24147 27.6774L8.9148 30.3507L11.5881 27.6774Z" fill="#0082FF"/>
</svg>
