<svg width="46" height="41" viewBox="0 0 46 41" fill="none" xmlns="http://www.w3.org/2000/svg">
<path d="M23.6256 10.4951C23.4336 10.3727 21.9192 9.46786 21.3192 9.19199L20.5753 7.39199C20.7961 6.79683 21.2208 5.12874 21.2953 4.8383H21.2951C21.3557 4.56977 21.2742 4.28887 21.0792 4.09434L19.9056 2.92798C19.7116 2.73211 19.4302 2.65041 19.1617 2.71202C18.9408 2.76241 17.2416 3.19197 16.608 3.43206L14.808 2.6881C14.5463 2.11206 13.6656 0.636139 13.5048 0.381695V0.381528C13.3602 0.14481 13.1031 0.000334286 12.8256 0H11.1743C10.8988 0.000167409 10.6425 0.141463 10.4951 0.374332C10.3727 0.566354 9.46786 2.08074 9.19199 2.68074L7.39199 3.4247C6.79683 3.20388 5.12874 2.77918 4.8383 2.70465V2.70482C4.56977 2.64422 4.28887 2.72575 4.09434 2.92078L2.92798 4.09434C2.73211 4.28837 2.65041 4.5698 2.71202 4.8383C2.76241 5.05911 3.19197 6.75835 3.43206 7.39199L2.6881 9.192C2.11206 9.45366 0.636139 10.3344 0.381695 10.4951H0.381528C0.14481 10.6398 0.000334286 10.8969 0 11.1743V12.8232C0.0001674 13.0989 0.141463 13.3552 0.374332 13.5024C0.566354 13.6247 2.08074 14.5296 2.68074 14.8055L3.4247 16.6055C3.20388 17.2006 2.77918 18.8687 2.70465 19.1592H2.70482C2.64421 19.4279 2.72575 19.7088 2.92078 19.9031L4.08714 21.0695V21.0697C4.28117 21.2655 4.5626 21.3471 4.8311 21.2856C5.05191 21.2352 6.75115 20.8057 7.38479 20.5656L9.1848 21.3095C9.44646 21.8856 10.3272 23.3615 10.4879 23.6159C10.6332 23.8558 10.8939 24.0017 11.1743 24H12.8232C13.0989 23.9998 13.3552 23.8585 13.5024 23.6257C13.6247 23.4336 14.5296 21.9192 14.8055 21.3192L16.6055 20.5753C17.2006 20.7961 18.8687 21.2208 19.1592 21.2953V21.2952C19.4279 21.3558 19.7088 21.2742 19.9031 21.0792L21.0695 19.9128H21.0697C21.2655 19.7188 21.3471 19.4374 21.2856 19.1689C21.2352 18.9481 20.8057 17.2488 20.5656 16.6152L21.3095 14.8152C21.8856 14.5535 23.3615 13.6728 23.6159 13.5121C23.8558 13.3668 24.0017 13.1061 24 12.8257V11.1743C24.0022 10.8983 23.8602 10.6408 23.6257 10.4951L23.6256 10.4951ZM11.9997 17.2246C10.6128 17.2234 9.28315 16.6711 8.3033 15.6896C7.32346 14.7079 6.77369 13.3773 6.77502 11.9903C6.77619 10.6033 7.32847 9.27355 8.30999 8.2937C9.29168 7.31386 10.6223 6.76421 12.0093 6.76541C13.3962 6.76675 14.726 7.31887 15.7059 8.30056C16.6857 9.28225 17.2354 10.6128 17.2342 11.9998C17.231 13.3862 16.6782 14.7147 15.697 15.6943C14.7156 16.6736 13.386 17.224 11.9997 17.2246H11.9997Z" fill="#0082FF"/>
<path d="M45.6256 27.4951C45.4336 27.3727 43.9192 26.4679 43.3192 26.192L42.5753 24.392C42.7961 23.7968 43.2208 22.1287 43.2953 21.8383H43.2951C43.3557 21.5698 43.2742 21.2889 43.0792 21.0943L41.9056 19.928C41.7116 19.7321 41.4302 19.6504 41.1617 19.712C40.9408 19.7624 39.2416 20.192 38.608 20.4321L36.808 19.6881C36.5463 19.1121 35.6656 17.6361 35.5048 17.3817V17.3815C35.3602 17.1448 35.1031 17.0003 34.8256 17H33.1743C32.8988 17.0002 32.6425 17.1415 32.4951 17.3743C32.3727 17.5664 31.4679 19.0807 31.192 19.6807L29.392 20.4247C28.7968 20.2039 27.1287 19.7792 26.8383 19.7047V19.7048C26.5698 19.6442 26.2889 19.7257 26.0943 19.9208L24.928 21.0943C24.7321 21.2884 24.6504 21.5698 24.712 21.8383C24.7624 22.0591 25.192 23.7583 25.4321 24.392L24.6881 26.192C24.1121 26.4537 22.6361 27.3344 22.3817 27.4951H22.3815C22.1448 27.6398 22.0003 27.8969 22 28.1743V29.8232C22.0002 30.0989 22.1415 30.3552 22.3743 30.5024C22.5664 30.6247 24.0807 31.5296 24.6807 31.8055L25.4247 33.6055C25.2039 34.2006 24.7792 35.8687 24.7047 36.1592H24.7048C24.6442 36.4279 24.7257 36.7088 24.9208 36.9031L26.0871 38.0695V38.0697C26.2812 38.2655 26.5626 38.3471 26.8311 38.2856C27.0519 38.2352 28.7511 37.8057 29.3848 37.5656L31.1848 38.3095C31.4465 38.8856 32.3272 40.3615 32.4879 40.6159C32.6332 40.8558 32.8939 41.0017 33.1743 41H34.8232C35.0989 40.9998 35.3552 40.8585 35.5024 40.6257C35.6247 40.4336 36.5296 38.9192 36.8055 38.3192L38.6055 37.5753C39.2006 37.7961 40.8687 38.2208 41.1592 38.2953V38.2952C41.4279 38.3558 41.7088 38.2742 41.9031 38.0792L43.0695 36.9128H43.0697C43.2655 36.7188 43.3471 36.4374 43.2856 36.1689C43.2352 35.9481 42.8057 34.2488 42.5656 33.6152L43.3095 31.8152C43.8856 31.5535 45.3615 30.6728 45.6159 30.5121C45.8558 30.3668 46.0017 30.1061 46 29.8257V28.1743C46.0022 27.8983 45.8602 27.6408 45.6257 27.4951L45.6256 27.4951ZM33.9997 34.2246C32.6128 34.2234 31.2831 33.6711 30.3033 32.6896C29.3235 31.7079 28.7737 30.3773 28.775 28.9903C28.7762 27.6033 29.3285 26.2735 30.31 25.2937C31.2917 24.3139 32.6223 23.7642 34.0093 23.7654C35.3962 23.7668 36.726 24.3189 37.7059 25.3006C38.6857 26.2822 39.2354 27.6128 39.2342 28.9998C39.231 30.3862 38.6782 31.7147 37.697 32.6943C36.7156 33.6736 35.386 34.224 33.9997 34.2246H33.9997Z" fill="#2CDA89"/>
</svg>
