<svg width="32" height="41" viewBox="0 0 32 41" fill="none" xmlns="http://www.w3.org/2000/svg">
<path fill-rule="evenodd" clip-rule="evenodd" d="M15.5456 40.6272C6.95999 40.6272 0 38.1219 0 35.031C0 32.6359 4.18654 30.598 10.063 29.7996C13.0264 33.9479 15.5456 36.2745 15.5456 36.2745C15.5456 36.2745 18.0649 33.9475 21.0287 29.7996C26.9051 30.5981 31.0912 32.6359 31.0912 35.031C31.0912 38.1219 24.1317 40.6272 15.5456 40.6272Z" fill="#2CDA89"/>
<path fill-rule="evenodd" clip-rule="evenodd" d="M15.546 32.3342C15.546 32.3342 7.46217 22.3848 4.97676 14.8498C4.57945 13.7021 4.35303 12.475 4.35303 11.1928C4.35303 5.01146 9.36416 0 15.5459 0C21.7272 0 26.7387 5.01113 26.7387 11.1928C26.7387 12.475 26.5123 13.7021 26.1158 14.8498C23.6295 23.0074 15.546 32.3342 15.546 32.3342ZM15.546 6.8394C13.1422 6.8394 11.1933 8.78827 11.1933 11.1921C11.1933 13.5959 13.1422 15.5447 15.546 15.5447C17.9498 15.5447 19.8987 13.5959 19.8987 11.1921C19.8987 8.78827 17.9498 6.8394 15.546 6.8394Z" fill="#0082FF"/>
</svg>
