<svg width="858" height="751" viewBox="0 0 858 751" fill="none" xmlns="http://www.w3.org/2000/svg">
<path d="M657.79 630.282C641.32 635.296 624.779 648.269 615.669 656.268C611.419 660.001 610.405 666.19 613.226 671.075L651.354 737.105C654.112 741.882 659.819 744.125 665.115 742.512L689.683 735.033L714.249 727.554C719.545 725.941 723.034 720.899 722.662 715.395L717.53 639.32C717.148 633.693 712.857 629.119 707.248 628.387C695.224 626.825 674.259 625.268 657.79 630.282Z" fill="#2CDA89"/>
<path d="M710.068 640.331L711.958 655.653C712.337 658.716 710.011 661.468 706.915 661.586C699.288 661.881 684.964 663.11 669.25 667.894C653.521 672.683 640.94 679.645 634.437 683.652C631.803 685.278 628.343 684.287 626.946 681.534L619.977 667.759C618.956 665.739 619.343 663.311 620.923 661.684C625.945 656.517 638.539 645.592 660.43 638.927C682.309 632.266 698.849 634.322 705.897 635.814C708.117 636.284 709.791 638.085 710.068 640.331Z" fill="white"/>
<path d="M710.068 640.331L711.958 655.653C712.337 658.716 710.011 661.468 706.915 661.586C699.288 661.881 684.964 663.11 669.25 667.894C653.521 672.683 640.94 679.645 634.437 683.652C631.803 685.278 628.343 684.287 626.946 681.534L619.977 667.759C618.956 665.739 619.343 663.311 620.923 661.684C625.945 656.517 638.539 645.592 660.43 638.927C682.309 632.266 698.849 634.322 705.897 635.814C708.117 636.284 709.791 638.085 710.068 640.331Z" fill="white"/>
<path d="M663.539 649.35L663.749 667.131C663.749 667.131 665.424 666.472 668.469 665.545C671.515 664.618 673.275 664.231 673.275 664.231L663.539 649.35Z" fill="#FF2A2A"/>
<path d="M660.456 639.039L663.058 647.587" stroke="#001E3B" stroke-width="1.62" stroke-miterlimit="10" stroke-linecap="round" stroke-linejoin="round"/>
<path d="M640.473 647.433L643.013 655.775" stroke="#001E3B" stroke-width="1.62" stroke-miterlimit="10" stroke-linecap="round" stroke-linejoin="round"/>
<path d="M621.317 661.257L623.918 669.802" stroke="#001E3B" stroke-width="1.62" stroke-miterlimit="10" stroke-linecap="round" stroke-linejoin="round"/>
<path d="M657.343 639.811L658.782 644.54C658.632 644.586 658.471 644.652 658.321 644.698C658.188 644.739 658.061 644.795 657.93 644.835L656.481 640.074C656.411 639.844 656.548 639.582 656.781 639.512C657.029 639.436 657.273 639.581 657.343 639.811Z" fill="#001E3B"/>
<path d="M652.798 641.376L654.258 646.172C654.096 646.236 653.93 646.286 653.767 646.356C653.66 646.407 653.523 646.448 653.41 646.5L651.93 641.64C651.855 641.391 651.981 641.154 652.233 641.077C652.463 641.007 652.722 641.127 652.798 641.376Z" fill="#001E3B"/>
<path d="M648.494 643.157L649.949 647.934C649.773 648.009 649.616 648.091 649.439 648.163C649.326 648.215 649.232 648.261 649.123 648.315L647.633 643.42C647.563 643.189 647.683 642.933 647.932 642.858C648.165 642.787 648.424 642.927 648.494 643.157Z" fill="#001E3B"/>
<path d="M644.476 645.211L645.88 649.825C645.686 649.899 645.512 649.99 645.34 650.077C645.247 650.126 645.153 650.172 645.059 650.218L643.614 645.473C643.544 645.243 643.681 644.982 643.914 644.911C644.146 644.84 644.406 644.981 644.476 645.211Z" fill="#001E3B"/>
<path d="M636.629 649.694L637.974 654.11C637.774 654.223 637.578 654.356 637.378 654.469C637.317 654.509 637.239 654.55 637.182 654.602L635.767 649.956C635.697 649.726 635.834 649.465 636.067 649.394C636.3 649.323 636.559 649.464 636.629 649.694Z" fill="#001E3B"/>
<path d="M632.398 652.356L633.752 656.804C633.54 656.942 633.347 657.088 633.137 657.225C633.075 657.262 633.029 657.293 632.976 657.348L631.536 652.619C631.466 652.388 631.609 652.146 631.842 652.075C632.074 652.004 632.328 652.126 632.398 652.356Z" fill="#001E3B"/>
<path d="M628.49 655.426L629.783 659.674C629.576 659.83 629.351 659.986 629.139 660.162C629.089 660.192 629.063 660.22 629.017 660.252L627.628 655.689C627.552 655.44 627.695 655.198 627.927 655.127C628.179 655.05 628.414 655.178 628.49 655.426Z" fill="#001E3B"/>
<path d="M624.861 658.751L626.065 662.704C625.848 662.895 625.624 663.089 625.388 663.287C625.359 663.313 625.348 663.337 625.316 663.347L623.997 659.014C623.927 658.784 624.067 658.522 624.299 658.451C624.549 658.378 624.791 658.521 624.861 658.751Z" fill="#001E3B"/>
<path d="M681.942 634.808L684.482 643.15" stroke="#001E3B" stroke-width="1.62" stroke-miterlimit="10" stroke-linecap="round" stroke-linejoin="round"/>
<path d="M705.662 635.973L708.153 644.157" stroke="#001E3B" stroke-width="1.62" stroke-miterlimit="10" stroke-linecap="round" stroke-linejoin="round"/>
<path d="M663.688 637.879L665.128 642.608C665.277 642.563 665.448 642.528 665.598 642.483C665.735 642.441 665.871 642.417 666.002 642.377L664.552 637.616C664.482 637.386 664.22 637.246 663.988 637.317C663.739 637.393 663.618 637.649 663.688 637.879Z" fill="#001E3B"/>
<path d="M668.334 636.646L669.794 641.442C669.967 641.404 670.13 641.355 670.307 641.321C670.424 641.303 670.558 641.262 670.68 641.242L669.201 636.382C669.125 636.133 668.888 636.007 668.639 636.083C668.403 636.154 668.258 636.397 668.334 636.646Z" fill="#001E3B"/>
<path d="M672.899 635.727L674.354 640.504C674.541 640.468 674.717 640.449 674.904 640.41C675.027 640.39 675.13 640.376 675.251 640.36L673.761 635.465C673.691 635.235 673.448 635.089 673.199 635.165C672.966 635.236 672.829 635.497 672.899 635.727Z" fill="#001E3B"/>
<path d="M677.378 635.194L678.782 639.808C678.985 639.761 679.18 639.74 679.372 639.716C679.476 639.705 679.58 639.691 679.684 639.677L678.24 634.932C678.169 634.702 677.91 634.561 677.677 634.632C677.445 634.703 677.308 634.964 677.378 635.194Z" fill="#001E3B"/>
<path d="M686.393 634.543L687.738 638.959C687.967 638.942 688.204 638.943 688.433 638.926C688.505 638.924 688.596 638.914 688.67 638.927L687.255 634.281C687.185 634.051 686.926 633.91 686.693 633.981C686.46 634.052 686.323 634.313 686.393 634.543Z" fill="#001E3B"/>
<path d="M691.388 634.397L692.742 638.845C692.996 638.841 693.237 638.855 693.49 638.851C693.559 638.848 693.615 638.848 693.69 638.864L692.25 634.135C692.18 633.905 691.926 633.783 691.694 633.854C691.461 633.925 691.318 634.167 691.388 634.397Z" fill="#001E3B"/>
<path d="M696.347 634.768L697.64 639.015C697.898 639.03 698.172 639.034 698.449 639.061C698.504 639.059 698.542 639.068 698.598 639.068L697.208 634.505C697.133 634.257 696.879 634.135 696.646 634.206C696.397 634.281 696.271 634.519 696.347 634.768Z" fill="#001E3B"/>
<path d="M701.212 635.506L702.415 639.459C702.702 639.497 702.999 639.533 703.302 639.566C703.341 639.572 703.366 639.585 703.395 639.576L702.076 635.243C702.006 635.013 701.744 634.873 701.514 634.943C701.263 635.023 701.142 635.276 701.212 635.506Z" fill="#001E3B"/>
<path d="M710.068 640.331L711.958 655.653C712.337 658.716 710.011 661.468 706.915 661.586C699.288 661.881 684.964 663.11 669.25 667.894C653.521 672.683 640.94 679.645 634.437 683.652C631.803 685.278 628.343 684.287 626.946 681.534L619.977 667.759C618.956 665.739 619.343 663.311 620.923 661.684C625.945 656.517 638.539 645.592 660.43 638.927C682.309 632.266 698.849 634.322 705.897 635.814C708.117 636.284 709.791 638.085 710.068 640.331Z" stroke="white" stroke-width="1.62" stroke-miterlimit="10"/>
<path d="M626.065 679.793L655.349 731.508C656.969 734.371 660.172 735.987 663.442 735.538C667.558 734.976 674.251 733.637 684.49 730.52C696.255 726.938 704.773 723.882 709.852 721.95C713.159 720.692 715.276 717.453 715.078 713.931L711.719 653.716" stroke="white" stroke-width="0.62" stroke-miterlimit="10"/>
<path fill-rule="evenodd" clip-rule="evenodd" d="M830.318 416.152L831.366 402.517L823.145 400.074C822.578 397.17 821.611 394.318 820.24 391.599L825.34 384.972L816.051 374.579L808.469 378.433C805.871 376.718 803.085 375.375 800.184 374.399L798.995 366.777L798.907 366.219L794.885 365.92L792.192 365.72L790.712 365.608L790.518 365.591L786.331 365.279L784.72 365.161L784.535 365.739L784.084 367.165L782.214 373.057C781.61 373.16 781.005 373.284 780.405 373.428C780.054 373.503 779.701 373.591 779.348 373.682C777.322 374.212 775.333 374.924 773.408 375.821L766.5 370.884L755.725 379.777L759.764 387.081C757.995 389.571 756.607 392.247 755.598 395.033L747.099 396.228L746.053 409.863L754.276 412.307C754.84 415.21 755.802 418.06 757.178 420.783L752.075 427.41L761.368 437.801L768.948 433.947C771.548 435.663 774.332 437.009 777.235 437.983L778.51 446.163L792.689 447.219L795.201 439.325C798.22 438.792 801.179 437.872 804.005 436.565L810.914 441.5L821.685 432.608L817.649 425.299C819.422 422.811 820.808 420.133 821.814 417.347L830.318 416.152ZM797.817 416.373C792.261 420.96 783.868 420.336 779.071 414.974C774.282 409.612 774.896 401.547 780.452 396.958C786.01 392.368 794.402 392.991 799.199 398.356C803.988 403.715 803.373 411.782 797.817 416.373Z" fill="#595E61"/>
<path fill-rule="evenodd" clip-rule="evenodd" d="M848.715 358.765L849.21 353.468L846.141 352.467C845.951 351.336 845.61 350.22 845.115 349.154L847.085 346.609L843.675 342.509L840.799 343.96C839.836 343.278 838.801 342.738 837.719 342.342L837.33 339.369L837.302 339.154L835.795 339.012L834.786 338.919L834.231 338.867L834.16 338.86L832.59 338.712L831.989 338.656L831.911 338.881L831.732 339.432L830.985 341.711C830.759 341.748 830.528 341.795 830.303 341.843C830.172 341.873 830.037 341.904 829.906 341.94C829.141 342.133 828.39 342.396 827.658 342.735L825.102 340.772L820.988 344.164L822.45 347.03C821.764 347.987 821.224 349.02 820.822 350.098L817.622 350.514L817.125 355.811L820.194 356.812C820.387 357.945 820.725 359.06 821.219 360.125L819.251 362.672L822.662 366.77L825.538 365.318C826.5 366.003 827.535 366.543 828.618 366.937L829.035 370.127L834.35 370.623L835.354 367.566C836.491 367.379 837.61 367.04 838.681 366.548L841.237 368.509L845.349 365.119L843.891 362.251C844.577 361.292 845.117 360.259 845.515 359.183L848.715 358.765ZM836.508 358.656C834.387 360.405 831.243 360.113 829.48 357.995C827.724 355.883 828.016 352.747 830.137 350.996C832.26 349.246 835.406 349.54 837.165 351.655C838.925 353.771 838.629 356.905 836.508 358.656Z" fill="#595E61"/>
<path d="M834.92 336.918L834.114 349.136C833.912 352.195 831.256 354.515 828.187 354.313L772.94 350.67C769.869 350.467 767.542 347.82 767.743 344.759L768.549 332.542C768.751 329.483 771.405 327.162 774.476 327.365L829.723 331.008C832.79 331.21 835.121 333.857 834.92 336.918Z" fill="#1E6EBB"/>
<path d="M775.827 319.91C781.535 320.287 800.101 321.511 800.101 321.511L800.61 313.787L799.083 313.686C798.013 313.616 797.413 312.419 798.008 311.527L800.43 307.931L802.843 304.325C803.439 303.443 804.782 303.531 805.256 304.484L807.174 308.376L809.103 312.259C809.578 313.221 808.828 314.329 807.756 314.258L806.23 314.158L805.721 321.881L829.195 323.429C830.528 323.517 831.371 322.039 830.623 320.939C829.585 319.409 827.671 318.321 825.423 318.173L825.345 318.168C826.938 317.307 828.025 315.853 828.139 314.129C828.332 311.2 825.63 308.645 822.103 308.413C821.268 308.358 820.463 308.434 819.718 308.633C819.812 308.157 819.878 307.672 819.911 307.18C820.304 301.213 816.15 295.82 809.941 293.385C808.096 292.646 806.074 292.188 803.925 292.047C801.785 291.906 799.711 292.093 797.785 292.583C791.312 294.182 786.478 298.982 786.084 304.949C786.045 305.543 786.048 306.132 786.105 306.715C783.38 307.158 781.285 309.074 781.124 311.502C781.05 312.63 781.416 313.715 782.097 314.629C781.724 314.538 781.329 314.481 780.93 314.455C778.007 314.262 775.429 315.727 774.522 317.895C774.137 318.819 774.825 319.844 775.827 319.91Z" fill="#2CDA89"/>
<path d="M793.998 340.643L793.589 338.978L791.186 338.82L790.552 340.416L789.115 340.321L791.942 333.637L793.624 333.748L795.548 340.745L793.998 340.643ZM792.602 335.109L791.567 337.735L793.359 337.853L792.687 335.114L792.602 335.109ZM797.166 333.981L800.02 334.169C800.724 334.216 801.281 334.472 801.688 334.936C802.099 335.398 802.281 335.983 802.234 336.691C802.188 337.393 801.924 337.945 801.444 338.349C800.963 338.752 800.361 338.929 799.638 338.882L798.286 338.793L798.146 340.916L796.715 340.822L797.166 333.981ZM798.52 335.251L798.363 337.631L799.401 337.7C799.815 337.727 800.141 337.647 800.379 337.459C800.62 337.269 800.753 336.982 800.778 336.6C800.804 336.215 800.711 335.912 800.5 335.691C800.289 335.471 799.977 335.347 799.563 335.32L798.52 335.251ZM804.689 341.348L803.257 341.253L803.708 334.413L805.14 334.507L804.689 341.348Z" fill="white"/>
<path d="M749.492 360.179L729.814 358.881C728.231 358.777 727.035 357.41 727.139 355.828L728.43 336.247C728.534 334.665 729.9 333.465 731.483 333.569L751.162 334.867C752.743 334.971 753.941 336.34 753.837 337.922L752.546 357.504C752.441 359.085 751.074 360.283 749.492 360.179Z" fill="#001E3B"/>
<path d="M744.512 353.529L742.577 353.401L742.662 352.117L744.597 352.244C744.798 352.258 744.986 352.183 745.121 352.037L746.069 352.912C745.667 353.343 745.102 353.568 744.512 353.529ZM740.644 353.274L738.709 353.146L738.794 351.862L740.729 351.989L740.644 353.274ZM736.775 353.019L735.625 352.943C735.229 352.917 734.856 352.773 734.545 352.527L735.351 351.522C735.451 351.603 735.575 351.651 735.709 351.66L736.859 351.736L736.775 353.019ZM735.144 350.291L733.854 350.205L733.981 348.279L735.271 348.364L735.144 350.291ZM746.652 350.676L745.361 350.591L745.488 348.664L746.779 348.75L746.652 350.676ZM735.398 346.437L734.108 346.352L734.235 344.425L735.525 344.51L735.398 346.437ZM746.906 346.823L745.615 346.738L745.742 344.811L747.033 344.896L746.906 346.823ZM735.652 342.585L734.362 342.5L734.393 342.026C734.442 341.286 734.921 340.628 735.616 340.353L736.095 341.55C735.86 341.641 735.698 341.862 735.681 342.111L735.65 342.585L735.652 342.585ZM745.869 342.884C745.897 342.466 745.68 342.178 745.37 342.107L745.657 340.852C746.596 341.063 747.229 341.915 747.166 342.869L745.869 342.884ZM743.538 341.976L741.601 341.848L741.686 340.564L743.623 340.692L743.538 341.976ZM739.67 341.721L737.736 341.594L737.82 340.309L739.755 340.437L739.67 341.721Z" fill="white"/>
<path d="M751.163 338.564L750.273 337.633L756.409 331.8L765.082 332.372L764.997 333.656L756.89 333.122L751.163 338.564Z" fill="#8E9CA4"/>
<path d="M765.319 328.803L757.01 328.255L756.925 329.542L765.235 330.09L765.319 328.803Z" fill="#8E9CA4"/>
<path d="M731.568 337.272L726.605 331.125L718.5 330.59L718.584 329.306L727.255 329.878L732.572 336.465L731.568 337.272Z" fill="#8E9CA4"/>
<path d="M719.786 325.801L718.822 325.737L718.737 327.024L719.701 327.087L719.786 325.801Z" fill="#8E9CA4"/>
<path d="M724.036 326.081L721.909 325.941L721.824 327.227L723.951 327.368L724.036 326.081Z" fill="#8E9CA4"/>
<path d="M727.126 326.285L726.16 326.221L726.075 327.508L727.041 327.571L727.126 326.285Z" fill="#8E9CA4"/>
<path d="M724.873 362.251L716.2 361.679L716.285 360.394L724.392 360.929L730.119 355.483L731.011 356.418L724.873 362.251Z" fill="#8E9CA4"/>
<path d="M724.357 364.513L716.049 363.965L715.965 365.25L724.272 365.797L724.357 364.513Z" fill="#8E9CA4"/>
<path d="M763.46 364.795L754.789 364.223L749.47 357.636L750.475 356.825L755.44 362.976L763.545 363.511L763.46 364.795Z" fill="#8E9CA4"/>
<path d="M763.31 367.081L762.342 367.018L762.258 368.302L763.225 368.366L763.31 367.081Z" fill="#8E9CA4"/>
<path d="M760.219 366.877L758.093 366.737L758.009 368.022L760.134 368.162L760.219 366.877Z" fill="#8E9CA4"/>
<path d="M755.969 366.597L755.004 366.534L754.919 367.818L755.885 367.882L755.969 366.597Z" fill="#8E9CA4"/>
<path d="M842.319 412.617C841.944 412.592 841.658 412.271 841.683 411.896L841.862 409.184C841.887 408.807 842.212 408.526 842.587 408.55C842.964 408.575 843.248 408.896 843.223 409.274L843.044 411.985C843.019 412.361 842.694 412.642 842.319 412.617Z" fill="white"/>
<path d="M752.276 447.11L755.137 447.299L759.316 383.921L797.41 386.433L799.218 359.013L796.174 358.812L794.554 383.386L756.642 380.886L752.276 447.11Z" fill="#001E3B"/>
<path d="M794.726 358.974C794.622 360.552 795.815 361.917 797.397 362.021C798.983 362.126 800.345 360.929 800.449 359.351C800.553 357.769 799.361 356.403 797.774 356.299C796.197 356.19 794.831 357.391 794.726 358.974Z" fill="#001E3B"/>
<path d="M740.001 382.663L741.322 362.634L738.46 362.445L737.197 381.61" fill="#001E3B"/>
<path d="M736.936 363.786C736.832 365.365 738.028 366.727 739.609 366.831C741.19 366.936 742.554 365.743 742.658 364.164C742.763 362.58 741.567 361.213 739.986 361.109C738.405 361.005 737.04 362.202 736.936 363.786Z" fill="#001E3B"/>
<path d="M761.649 381.216L737.329 379.613L737.14 382.474L761.46 384.078L761.649 381.216Z" fill="#001E3B"/>
<path d="M835.053 478.843L784.457 488.226L735.529 472.281L740.3 399.924L839.824 406.487L835.053 478.843Z" fill="#1E6EBB"/>
<path d="M829.875 468.72C829.565 468.7 829.33 468.432 829.35 468.124L829.652 463.552C829.672 463.242 829.94 463.009 830.25 463.029C830.561 463.05 830.795 463.316 830.774 463.626L830.473 468.198C830.452 468.506 830.184 468.741 829.875 468.72ZM830.478 459.577C830.168 459.557 829.933 459.292 829.953 458.982L830.255 454.412C830.275 454.101 830.543 453.869 830.853 453.889C831.164 453.91 831.397 454.175 831.377 454.486L831.076 459.057C831.055 459.364 830.787 459.598 830.478 459.577ZM831.08 450.436C830.771 450.416 830.536 450.149 830.556 449.841L830.857 445.269C830.878 444.959 831.146 444.726 831.455 444.746C831.767 444.767 832 445.033 831.98 445.343L831.678 449.915C831.658 450.223 831.39 450.456 831.08 450.436ZM831.683 441.295C831.374 441.274 831.138 441.009 831.159 440.7L831.46 436.127C831.481 435.818 831.749 435.584 832.058 435.605C832.369 435.625 832.603 435.892 832.583 436.201L832.281 440.774C832.261 441.082 831.993 441.315 831.683 441.295ZM832.286 432.153C831.976 432.133 831.741 431.866 831.762 431.557L832.063 426.984C832.083 426.676 832.352 426.441 832.661 426.462C832.972 426.482 833.206 426.75 833.185 427.058L832.884 431.631C832.864 431.94 832.595 432.174 832.286 432.153ZM832.889 423.012C832.579 422.991 832.344 422.726 832.364 422.415L832.666 417.845C832.686 417.533 832.954 417.302 833.264 417.322C833.575 417.343 833.809 417.607 833.788 417.919L833.487 422.489C833.466 422.799 833.198 423.032 832.889 423.012Z" fill="white"/>
<path d="M827.214 475.936C826.967 475.919 826.747 475.737 826.699 475.479C826.642 475.175 826.843 474.882 827.149 474.826L828.933 474.496L829.052 472.695C829.073 472.384 829.337 472.152 829.648 472.172C829.958 472.193 830.193 472.458 830.173 472.769L830.025 475.004C830.009 475.259 829.82 475.471 829.568 475.517L827.356 475.928C827.309 475.937 827.26 475.939 827.214 475.936Z" fill="white"/>
<path d="M784.748 483.813C784.702 483.81 784.654 483.8 784.61 483.786L782.449 483.081C782.152 482.985 781.992 482.668 782.09 482.376C782.186 482.081 782.502 481.919 782.798 482.017L784.823 482.676L786.917 482.288C787.223 482.23 787.514 482.432 787.572 482.737C787.629 483.04 787.428 483.333 787.122 483.389L784.888 483.804C784.841 483.812 784.795 483.816 784.748 483.813ZM791.452 482.571C791.202 482.554 790.983 482.372 790.935 482.114C790.879 481.81 791.08 481.517 791.386 481.461L795.855 480.631C796.16 480.573 796.454 480.776 796.512 481.079C796.569 481.383 796.368 481.674 796.063 481.733L791.593 482.562C791.545 482.57 791.499 482.574 791.452 482.571ZM778.267 481.701C778.219 481.698 778.171 481.688 778.127 481.674L773.804 480.265C773.508 480.167 773.347 479.852 773.445 479.558C773.541 479.261 773.857 479.103 774.154 479.2L778.477 480.609C778.771 480.705 778.933 481.022 778.836 481.316C778.754 481.565 778.513 481.718 778.267 481.701ZM800.392 480.912C800.145 480.896 799.925 480.712 799.877 480.456C799.821 480.15 800.021 479.859 800.327 479.802L804.796 478.971C805.101 478.913 805.395 479.116 805.452 479.419C805.51 479.725 805.308 480.016 805.003 480.072L800.534 480.902C800.488 480.914 800.438 480.915 800.392 480.912ZM769.619 478.883C769.572 478.88 769.526 478.872 769.481 478.854L765.158 477.445C764.862 477.349 764.701 477.034 764.799 476.738C764.896 476.445 765.211 476.283 765.508 476.381L769.831 477.791C770.125 477.887 770.286 478.202 770.19 478.498C770.108 478.746 769.869 478.9 769.619 478.883ZM809.332 479.252C809.084 479.236 808.865 479.052 808.817 478.796C808.76 478.491 808.961 478.199 809.267 478.142L813.736 477.313C814.041 477.255 814.335 477.457 814.392 477.762C814.45 478.067 814.247 478.358 813.943 478.416L809.474 479.243C809.426 479.255 809.38 479.255 809.332 479.252ZM760.976 476.064C760.928 476.061 760.882 476.052 760.838 476.036L756.513 474.629C756.221 474.531 756.057 474.216 756.154 473.922C756.25 473.626 756.567 473.465 756.863 473.563L761.188 474.972C761.481 475.068 761.643 475.384 761.545 475.679C761.464 475.928 761.224 476.08 760.976 476.064ZM818.273 477.596C818.026 477.579 817.806 477.395 817.758 477.139C817.702 476.833 817.902 476.542 818.208 476.486L822.677 475.656C822.982 475.597 823.276 475.801 823.333 476.104C823.391 476.408 823.189 476.701 822.884 476.756L818.413 477.587C818.368 477.597 818.319 477.599 818.273 477.596ZM752.328 473.247C752.283 473.244 752.236 473.236 752.19 473.218L747.867 471.809C747.573 471.713 747.412 471.398 747.51 471.104C747.606 470.809 747.921 470.647 748.217 470.746L752.54 472.156C752.834 472.251 752.997 472.566 752.899 472.863C752.818 473.108 752.578 473.264 752.328 473.247Z" fill="white"/>
<path d="M743.683 470.428C743.639 470.425 743.591 470.417 743.545 470.402L741.408 469.704C741.163 469.625 741.004 469.39 741.02 469.135L741.168 466.9C741.188 466.589 741.455 466.357 741.767 466.377C742.075 466.398 742.311 466.663 742.29 466.974L742.171 468.775L743.895 469.336C744.193 469.432 744.352 469.748 744.254 470.043C744.173 470.294 743.933 470.444 743.683 470.428Z" fill="white"/>
<path d="M741.994 462.926C741.684 462.905 741.449 462.637 741.47 462.329L741.771 457.757C741.791 457.447 742.06 457.214 742.369 457.234C742.68 457.255 742.914 457.521 742.893 457.831L742.592 462.403C742.572 462.711 742.305 462.946 741.994 462.926ZM742.597 453.783C742.287 453.762 742.052 453.497 742.072 453.188L742.374 448.617C742.394 448.306 742.662 448.074 742.972 448.094C743.283 448.115 743.517 448.38 743.496 448.691L743.195 453.262C743.174 453.57 742.908 453.803 742.597 453.783ZM743.199 444.641C742.89 444.621 742.655 444.354 742.675 444.046L742.977 439.474C742.997 439.164 743.265 438.931 743.575 438.951C743.886 438.972 744.119 439.238 744.099 439.548L743.797 444.12C743.777 444.428 743.511 444.662 743.199 444.641ZM743.802 435.5C743.493 435.479 743.257 435.214 743.278 434.905L743.579 430.333C743.6 430.023 743.868 429.791 744.177 429.812C744.489 429.832 744.722 430.097 744.702 430.407L744.4 434.979C744.38 435.287 744.113 435.52 743.802 435.5ZM744.405 426.358C744.095 426.338 743.86 426.071 743.881 425.763L744.182 421.189C744.203 420.882 744.471 420.647 744.78 420.667C745.092 420.687 745.325 420.956 745.305 421.263L745.003 425.837C744.983 426.145 744.716 426.379 744.405 426.358ZM745.008 417.217C744.698 417.197 744.463 416.932 744.483 416.62L744.785 412.05C744.805 411.738 745.073 411.507 745.383 411.527C745.694 411.548 745.928 411.812 745.907 412.124L745.606 416.694C745.585 417.004 745.319 417.237 745.008 417.217Z" fill="white"/>
<path d="M745.611 408.074C745.301 408.054 745.066 407.789 745.086 407.479L745.234 405.243C745.254 404.931 745.522 404.7 745.832 404.72C746.143 404.741 746.376 405.005 746.356 405.317L746.208 407.553C746.188 407.863 745.922 408.095 745.611 408.074Z" fill="white"/>
<path d="M848.169 412.784L821.946 411.055C820.893 410.986 820.108 409.851 820.196 408.519L821.387 390.45C821.475 389.118 822.4 388.096 823.456 388.165L849.679 389.895C850.732 389.964 851.518 391.097 851.43 392.431L850.239 410.5C850.151 411.832 849.223 412.854 848.169 412.784Z" fill="#2CDA89"/>
<path d="M833.452 405.088C833.169 405.069 832.897 404.94 832.696 404.713L829.625 401.189C829.223 400.731 829.269 400.032 829.727 399.633C830.185 399.228 830.878 399.274 831.277 399.735L833.625 402.428L841.567 395.431C842.023 395.029 842.722 395.075 843.117 395.533C843.518 395.993 843.472 396.691 843.014 397.092L834.244 404.817C834.021 405.014 833.733 405.106 833.452 405.088Z" fill="white"/>
<path d="M179.606 236.304L257.395 226.037L256.769 236.006L180.033 244.241C180.035 244.24 177.538 240.478 179.606 236.304Z" fill="white"/>
<path d="M257.395 226.037L213.263 201.996L179.608 236.303L257.395 226.037Z" fill="#B6C7D2"/>
<path d="M145.364 112.127C145.364 112.127 145.285 141.518 133.654 163.203C122.021 184.891 107.283 191.25 107.283 191.25L179.603 236.299C179.603 236.299 197.318 235.122 213.261 201.997C229.207 168.87 227.95 151.748 227.95 151.748L145.364 112.127Z" fill="#1E6EBB"/>
<path d="M258.394 239.368L178.608 248.184L116.385 210.675L114.801 209.73L112.138 208.113L110.544 207.16L103.246 202.758C101.397 199.013 102.804 194.172 107.289 191.246L115.349 196.272L116.725 197.127L119.652 198.951L121.017 199.799L179.606 236.304C177.844 240.352 180.033 244.241 180.033 244.241C180.033 244.241 253.936 235.409 256.769 236.006C259.621 236.6 258.394 239.368 258.394 239.368Z" fill="#003B6B"/>
<path d="M116.726 197.127C112.183 201.773 112.017 206.419 112.14 208.112L110.546 207.159C110.595 204.762 111.339 200.495 115.349 196.272L116.726 197.127Z" fill="white"/>
<path d="M121.018 199.798C116.572 204.329 116.291 208.863 116.385 210.673L114.798 209.729C114.875 207.301 115.682 203.105 119.652 198.949L121.018 199.798Z" fill="white"/>
<path d="M486.188 111.104C510.261 126.147 526.431 149.972 532.279 159.534" stroke="#B6C7D2" stroke-width="1.57" stroke-linecap="round" stroke-linejoin="round" stroke-dasharray="3.72 3.72"/>
<path d="M558.43 74.8178C540.061 102.941 540.386 138.77 543.407 151.245" stroke="#B6C7D2" stroke-width="1.57" stroke-linecap="round" stroke-linejoin="round" stroke-dasharray="3.61 3.61"/>
<path d="M496.521 56.8409C524.157 98.5733 532.969 142.445 535.199 156.443" stroke="#B6C7D2" stroke-width="1.57" stroke-linecap="round" stroke-linejoin="round" stroke-dasharray="3.49 3.49"/>
<path d="M568.106 180.483L535.774 188.705C520.893 192.489 505.762 183.494 501.978 168.611L498.017 153.036L584.239 131.11L588.2 146.685C591.984 161.568 582.989 176.698 568.106 180.483Z" fill="#2CDA89"/>
<path d="M570.271 179.932L533.61 189.255L534.973 194.614L571.634 185.291L570.271 179.932Z" fill="#009751"/>
<path d="M518.396 63.5705L487.116 71.5249C483.715 72.3899 480.256 70.3338 479.392 66.9347L471.708 36.7181C470.843 33.319 472.899 29.8605 476.301 28.9954L507.581 21.041C510.98 20.1766 514.441 22.2321 515.306 25.6312L522.99 55.8478C523.854 59.2469 521.795 62.7061 518.396 63.5705Z" fill="white"/>
<path d="M471.901 37.4765C471.43 37.5962 470.952 37.3211 470.835 36.8588C469.865 33.0464 472.255 29.1354 476.165 28.141C476.636 28.0214 477.114 28.2964 477.231 28.7587C477.348 29.2182 477.06 29.691 476.59 29.8106C473.623 30.565 471.807 33.5313 472.542 36.4246C472.661 36.8896 472.377 37.3555 471.901 37.4765Z" fill="#001E3B"/>
<path d="M487.405 72.34C483.498 73.3337 479.527 71.0401 478.558 67.2276C478.441 66.7681 478.729 66.2953 479.199 66.1757C479.672 66.0554 480.148 66.3338 480.265 66.7934C481.001 69.6867 484.015 71.4275 486.981 70.6731C487.452 70.5535 487.93 70.8285 488.047 71.2881C488.164 71.7503 487.878 72.2197 487.405 72.34Z" fill="#001E3B"/>
<path d="M518.532 64.4243C518.059 64.5447 517.584 64.2689 517.466 63.8067C517.349 63.3471 517.635 62.8778 518.108 62.7574C521.075 62.003 522.891 59.034 522.155 56.1407C522.038 55.6812 522.324 55.2091 522.797 55.0888C523.267 54.9692 523.743 55.2476 523.86 55.7072C524.83 59.5196 522.44 63.4307 518.532 64.4243Z" fill="#001E3B"/>
<path d="M515.499 26.3896C515.026 26.51 514.55 26.2342 514.433 25.7719C513.697 22.8786 510.684 21.1405 507.717 21.895C507.244 22.0153 506.768 21.7368 506.651 21.2773C506.534 20.815 506.82 20.3456 507.293 20.2253C511.203 19.2309 515.168 21.5259 516.138 25.3384C516.256 25.8034 515.969 26.27 515.499 26.3896Z" fill="#001E3B"/>
<path d="M490.678 41.5616C490.678 41.5616 479.652 39.4046 480.293 37.1347C480.965 34.7549 488.926 39.8795 490.678 41.5616Z" fill="#AFDDB1"/>
<path d="M490.638 41.5717C490.638 41.5717 483.074 33.2628 485.04 31.8346C487.104 30.334 490.292 39.1819 490.638 41.5717Z" fill="#5CB861"/>
<path d="M490.583 41.5825C491.582 41.5916 481.734 28.9871 479.377 31.502C477.027 34.0181 487.669 41.5548 490.583 41.5825Z" fill="#19801F"/>
<path d="M490.249 40.3641C486.513 44.1392 493.476 48.5161 497.885 51.1775C502.295 53.8448 513.269 62.5757 514.353 61.7231C515.439 60.8697 505.964 49.5351 501.919 45.2151C497.871 40.8958 493.196 37.3922 490.249 40.3641Z" fill="#FC5D21"/>
<path d="M601.161 86.4945L569.065 94.6565C565.574 95.5442 562.025 93.4343 561.138 89.9465L553.254 58.9436C552.366 55.453 554.476 51.9041 557.967 51.0164L590.064 42.8544C593.554 41.9667 597.103 44.0765 597.991 47.5672L605.875 78.5701C606.759 82.0586 604.652 85.6068 601.161 86.4945Z" fill="white"/>
<path d="M553.451 59.7193C552.969 59.8421 552.481 59.5591 552.36 59.0848C551.365 55.1728 553.817 51.1596 557.827 50.14C558.31 50.0172 558.801 50.3022 558.921 50.7738C559.041 51.2453 558.743 51.7312 558.263 51.8532C555.219 52.6273 553.355 55.671 554.11 58.6399C554.233 59.1135 553.937 59.5958 553.451 59.7193Z" fill="#001E3B"/>
<path d="M569.36 95.4905C565.35 96.5102 561.279 94.1559 560.284 90.2439C560.164 89.7724 560.459 89.2873 560.939 89.1652C561.425 89.0418 561.913 89.3275 562.033 89.7991C562.788 92.7679 565.88 94.5542 568.925 93.7801C569.407 93.6573 569.898 93.9395 570.018 94.4111C570.142 94.8875 569.842 95.3678 569.36 95.4905Z" fill="#001E3B"/>
<path d="M601.297 87.3689C600.812 87.4924 600.327 87.2087 600.206 86.7344C600.086 86.2628 600.38 85.7812 600.862 85.6585C603.907 84.8843 605.77 81.8378 605.015 78.869C604.895 78.3974 605.188 77.913 605.671 77.7903C606.153 77.6675 606.645 77.9525 606.764 78.4241C607.765 82.3347 605.31 86.3486 601.297 87.3689Z" fill="#001E3B"/>
<path d="M598.185 48.3435C597.7 48.467 597.214 48.1833 597.094 47.709C596.339 44.7401 593.245 42.9573 590.203 43.7308C589.718 43.8542 589.232 43.5678 589.112 43.0962C588.992 42.6247 589.285 42.1403 589.767 42.0175C593.78 40.9972 597.851 43.3514 598.846 47.2634C598.967 47.7377 598.668 48.2208 598.185 48.3435Z" fill="#001E3B"/>
<path d="M577.793 64.7763L580.399 66.0415C580.278 61.0548 575.837 51.2786 575.837 51.2786L573.302 52.1729C573.299 52.1736 576.963 58.1249 577.793 64.7763Z" fill="#415224"/>
<path d="M578.599 70.492C576.952 66.2349 578.146 53.7691 578.973 51.2596L581.384 51.826C581.384 51.826 579.388 59.0264 581.256 69.8165L578.599 70.492Z" fill="#64821E"/>
<path d="M581.891 74.2209C581.841 74.1415 581.826 74.1185 581.929 74.2319C580.958 73.136 580.762 71.6173 581.472 70.3764C580.833 68.7625 579.978 67.0132 578.78 65.375C575.984 61.5408 572.84 58.3833 572.84 58.3833C572.178 59.1338 570.731 59.4602 570.731 59.4602C570.731 59.4602 575.673 64.3499 578.192 69.6181C579.282 71.8957 580.271 74.5228 580.271 74.5228C580.271 74.5228 580.574 75.0104 580.974 75.0332C581.381 75.0546 581.496 74.2204 581.84 74.1953C581.855 74.1973 581.875 74.2161 581.891 74.2209Z" fill="#A6C947"/>
<path d="M580.33 75.6397C581.033 79.4118 579.898 83.6344 581.464 85.1644C583.032 86.6936 587.764 84.2846 586.503 81.9288C585.231 79.5786 583.627 78.2205 583.066 76.1887C582.496 74.1589 580.065 74.0375 580.33 75.6397Z" fill="#E9E9BA"/>
<path d="M580.33 75.6398C578.519 67.1852 582.261 55.9905 582.261 55.9905L584.367 56.4086C584.367 56.4086 579.927 66.8688 583.064 76.1894C583.064 76.1894 582.732 75.4241 582.17 75.2937C581.469 75.1303 581.718 75.7326 581.324 75.6099C580.933 75.4865 580.56 75.106 580.33 75.6398Z" fill="#91AC37"/>
<path d="M494.466 123.635L466.803 130.67C463.796 131.434 460.738 129.616 459.973 126.61L453.178 99.8887C452.413 96.8802 454.232 93.8215 457.238 93.057L484.901 86.0222C487.91 85.2571 490.969 87.0756 491.734 90.0841L498.529 116.805C499.294 119.814 497.475 122.87 494.466 123.635Z" fill="white"/>
<path d="M453.346 100.56C452.93 100.666 452.51 100.422 452.406 100.013C451.548 96.6417 453.66 93.1833 457.118 92.3039C457.536 92.1975 457.957 92.4437 458.061 92.8502C458.164 93.2566 457.912 93.6741 457.493 93.7805C454.87 94.4477 453.263 97.0711 453.914 99.6299C454.018 100.039 453.765 100.454 453.346 100.56Z" fill="#001E3B"/>
<path d="M467.058 131.391C463.602 132.27 460.093 130.241 459.235 126.869C459.132 126.463 459.384 126.045 459.8 125.939C460.219 125.833 460.64 126.079 460.743 126.486C461.394 129.045 464.059 130.584 466.683 129.917C467.101 129.811 467.522 130.054 467.625 130.461C467.729 130.87 467.476 131.285 467.058 131.391Z" fill="#001E3B"/>
<path d="M494.585 124.391C494.166 124.498 493.746 124.254 493.642 123.845C493.538 123.438 493.791 123.023 494.21 122.917C496.833 122.25 498.439 119.624 497.789 117.065C497.685 116.659 497.938 116.241 498.356 116.135C498.774 116.028 499.196 116.275 499.299 116.681C500.156 120.053 498.04 123.512 494.585 124.391Z" fill="#001E3B"/>
<path d="M491.902 90.7556C491.484 90.862 491.063 90.6181 490.959 90.2093C490.309 87.6505 487.644 86.1133 485.02 86.7805C484.602 86.8869 484.181 86.6407 484.077 86.2342C483.974 85.8278 484.226 85.4103 484.645 85.3039C488.103 84.4245 491.612 86.4536 492.47 89.8252C492.574 90.2341 492.323 90.6486 491.902 90.7556Z" fill="#001E3B"/>
<path d="M473.342 101.098C470.099 101.969 467.016 101.544 465.804 106.144C464.592 110.741 468.822 119.047 477.355 116.877C485.89 114.706 486.428 108.717 485.389 105.004C484.355 101.291 480.363 98.7317 475.887 100.584L473.342 101.098Z" fill="#EF2700"/>
<path d="M473.575 100.522C472.961 100.678 472.463 100.067 470.54 100.472C468.616 100.877 467.226 102.059 467.338 102.208C467.455 102.355 468.519 101.464 469.705 101.414C470.895 101.362 471.566 101.435 471.623 101.587C471.68 101.741 469.84 103.054 468.937 103.217C468.033 103.38 466.39 103.706 466.439 103.857C466.486 104.009 468.232 104.595 470.171 103.884C472.111 103.173 472.568 102.335 472.976 102.459C473.386 102.58 473.2 104.296 475.45 105.389C475.45 105.389 474.273 102.884 474.892 102.079C475.514 101.273 476.143 101.62 476.593 102.013C478.034 103.257 478.329 103.886 479.585 103.817C479.585 103.817 478.353 102.489 477.87 101.406C477.39 100.322 476.693 100.149 476.693 100.149C476.693 100.149 478.935 99.1076 480.558 99.55C480.558 99.55 478.25 98.7799 476.477 99.2974C474.701 99.8156 474.095 100.474 474.095 100.474C474.095 100.474 473.955 98.5637 474.508 97.235C474.508 97.235 474.38 96.6632 473.686 96.973C473.686 96.973 473.188 97.7219 473.575 100.522Z" fill="#5CB861"/>
<path d="M467.79 109.915C467.778 109.918 467.768 109.92 467.756 109.923C467.564 109.954 467.383 109.824 467.35 109.635C466.823 106.335 468.43 104.902 468.5 104.844C468.649 104.716 468.87 104.729 469.004 104.872C469.133 105.016 469.114 105.235 468.968 105.365C468.913 105.412 467.59 106.622 468.056 109.52C468.083 109.699 467.965 109.87 467.79 109.915Z" fill="white"/>
<path d="M123.838 425.058C123.838 458.01 97.0173 484.737 63.9217 484.737C30.8205 484.737 4 458.01 4 425.058C4 392.106 30.8205 365.378 63.9217 365.378C97.0174 365.378 123.838 392.106 123.838 425.058Z" fill="white" stroke="#001E3B" stroke-width="4"/>
<path d="M19.9678 441.15C19.9678 441.15 25.1507 458.179 48.497 470.862" stroke="#E6E6E6" stroke-width="2.57" stroke-miterlimit="10" stroke-linecap="round"/>
<path d="M63.9214 425.057V380.792" stroke="#001E3B" stroke-width="3" stroke-miterlimit="10" stroke-linecap="round" stroke-linejoin="round"/>
<path d="M63.9214 425.991L93.3441 442.74" stroke="#001E3B" stroke-width="3" stroke-miterlimit="10" stroke-linecap="round" stroke-linejoin="round"/>
<path d="M63.9219 363.378V369.858" stroke="#2CDA89" stroke-width="3.5" stroke-miterlimit="10" stroke-linecap="round" stroke-linejoin="round"/>
<path d="M63.9219 480.259V486.74" stroke="#2CDA89" stroke-width="3.5" stroke-miterlimit="10" stroke-linecap="round" stroke-linejoin="round"/>
<path d="M126.819 425.058H120.314" stroke="#2CDA89" stroke-width="3.5" stroke-miterlimit="10" stroke-linecap="round" stroke-linejoin="round"/>
<path d="M8.50462 425.058H2" stroke="#2CDA89" stroke-width="3.5" stroke-miterlimit="10" stroke-linecap="round" stroke-linejoin="round"/>
<path d="M108.03 457.727C99.082 457.845 91.3907 454.662 85.2389 465.977C79.085 477.292 84.5574 502.044 108.03 502.044C131.503 502.044 136.826 486.603 136.589 476.113C136.354 465.624 127.718 456.193 114.936 458.08L108.03 457.727Z" fill="#EF2700"/>
<path d="M109.007 456.357C107.32 456.357 106.435 454.413 101.198 454.193C95.9641 453.97 91.5907 456.158 91.7923 456.623C91.9917 457.087 95.318 455.452 98.424 456.114C101.53 456.777 103.217 457.419 103.261 457.862C103.306 458.302 97.6927 460.535 95.2536 460.357C92.8124 460.18 88.3538 459.935 88.3746 460.367C88.3974 460.799 92.5236 463.519 98.0043 462.943C103.483 462.37 105.214 460.469 106.19 461.065C107.167 461.662 105.563 466.066 110.649 470.458C110.649 470.458 109.259 463.062 111.388 461.352C113.518 459.644 114.914 460.98 115.826 462.316C118.724 466.569 119.08 468.424 122.364 469.087C122.364 469.087 120.054 464.755 119.524 461.572C118.992 458.391 117.305 457.463 117.305 457.463C117.305 457.463 123.781 456.224 127.687 458.479C127.687 458.479 122.229 454.899 117.305 455.076C112.379 455.252 110.383 456.578 110.383 456.578C110.383 456.578 111.27 451.452 113.578 448.313C113.578 448.313 113.622 446.721 111.625 447.075C111.625 447.075 109.851 448.71 109.007 456.357Z" fill="#4EB236"/>
<path d="M87.8903 477.258C87.8612 477.258 87.8363 477.258 87.8052 477.254C87.2837 477.208 86.8952 476.749 86.9429 476.228C87.747 467.167 92.8434 464.468 93.0594 464.358C93.5248 464.121 94.0962 464.302 94.3392 464.77C94.5782 465.235 94.3933 465.806 93.9237 466.045C93.7513 466.135 89.5399 468.445 88.8356 476.394C88.7941 476.886 88.3765 477.258 87.8903 477.258Z" fill="#F96C5A"/>
<path d="M242.178 705.595C240.822 705.933 239.173 706.301 237.293 706.623C237.047 706.67 236.785 706.7 236.508 706.746C232.64 707.36 227.879 707.804 222.673 707.588C222.426 707.588 222.164 707.573 221.901 707.559C218.912 707.404 215.803 707.021 212.628 706.315C215.216 706.821 218.296 707.204 221.917 707.313C222.178 707.327 222.442 707.327 222.703 707.343C226.647 707.42 231.223 707.204 236.522 706.545C236.785 706.514 237.047 706.484 237.309 706.452C237.416 706.436 237.539 706.421 237.647 706.407C239.205 706.212 240.713 705.934 242.178 705.595Z" fill="#2CDA89"/>
<path d="M219.913 702.112C219.929 702.328 219.76 702.514 219.544 702.514H219.529C219.328 702.514 219.158 702.358 219.144 702.159L218.805 696.82C219.067 696.849 219.328 696.863 219.576 696.863L219.913 702.112Z" fill="#2CDA89"/>
<path d="M234.566 700.992C234.582 701.206 234.411 701.392 234.195 701.406H234.18C233.981 701.406 233.811 701.251 233.797 701.037L233.472 695.973L233.426 695.19C233.411 694.99 233.579 694.807 233.781 694.79C234.013 694.79 234.18 694.927 234.195 695.141L234.241 695.801L234.566 700.992Z" fill="#2CDA89"/>
<path d="M244.887 696.556C244.903 696.772 244.748 696.958 244.532 696.971H244.5C244.302 696.971 244.132 696.818 244.118 696.618L243.777 691.998L243.684 690.771C243.67 690.57 243.824 690.386 244.04 690.372C244.27 690.31 244.439 690.509 244.455 690.723L244.5 691.399L244.887 696.556Z" fill="#2CDA89"/>
<path d="M247.168 688.207C247.184 688.407 247.029 688.609 246.813 688.609C246.797 688.623 246.797 688.623 246.781 688.623C246.72 688.623 246.674 688.609 246.627 688.577C246.843 688.102 246.997 687.626 247.091 687.15L247.168 688.207Z" fill="#2CDA89"/>
<path d="M163.124 660.98C162.954 661.242 162.771 661.502 162.555 661.732C161.075 663.56 158.98 664.834 158.98 664.834L159.196 670.22C159.196 670.22 148.98 671.294 142.187 677.988C135.947 684.142 138.596 690.247 139.06 691.171C136.733 690.695 134.575 689.972 132.635 688.992C132.359 688.853 132.096 688.714 131.834 688.562C129.538 687.273 127.55 685.568 125.964 683.405C124.978 680.658 125.346 677.524 126.797 674.532L126.997 678.109C127.013 678.307 127.181 678.476 127.381 678.476H127.411C127.627 678.462 127.782 678.279 127.766 678.065L127.504 673.212C127.936 672.494 128.428 671.772 128.985 671.078C130.156 669.607 131.741 668.042 133.59 666.474L133.852 671.126C133.868 671.324 134.038 671.495 134.238 671.495H134.254C134.468 671.479 134.637 671.294 134.623 671.078L134.331 665.862C137.149 663.528 140.538 661.258 144.052 659.384L144.313 664.004C144.329 664.204 144.499 664.357 144.698 664.357H144.728C144.944 664.357 145.098 664.174 145.084 663.958L144.791 658.986C148.842 656.884 153.049 655.333 156.763 654.887L157.054 660.138C157.07 660.334 157.238 660.489 157.44 660.489H157.454C157.672 660.473 157.841 660.306 157.825 660.088L157.518 654.808C159.319 654.64 161.013 654.763 162.478 655.239C164.634 657.207 164.25 659.277 163.124 660.98Z" fill="#20B872"/>
<path d="M127.766 678.063C127.782 678.277 127.627 678.464 127.411 678.478H127.38C127.181 678.478 127.011 678.309 126.997 678.109L126.795 674.534C127.011 674.088 127.243 673.658 127.504 673.214L127.766 678.063Z" fill="#20B872"/>
<path d="M134.623 671.08C134.639 671.296 134.468 671.48 134.254 671.493H134.238C134.038 671.493 133.868 671.324 133.854 671.124L133.59 666.476C133.838 666.26 134.084 666.046 134.331 665.86L134.623 671.08Z" fill="#20B872"/>
<path d="M139.121 691.292C136.594 691.001 134.452 690.463 132.68 689.742C132.404 689.634 132.141 689.527 131.895 689.404C128.782 687.965 126.887 685.889 125.994 683.526C125.98 683.48 125.98 683.45 125.964 683.403C127.549 685.568 129.537 687.271 131.834 688.562C132.095 688.716 132.357 688.853 132.634 688.992C134.575 689.975 136.733 690.695 139.059 691.171C139.091 691.248 139.121 691.292 139.121 691.292Z" fill="#20B872"/>
<path d="M145.084 663.958C145.1 664.174 144.945 664.357 144.73 664.357H144.698C144.5 664.357 144.329 664.204 144.315 664.004L144.052 659.386C144.299 659.247 144.545 659.126 144.791 658.986L145.084 663.958Z" fill="#20B872"/>
<path d="M157.825 660.09C157.841 660.306 157.67 660.475 157.455 660.492H157.439C157.239 660.492 157.068 660.338 157.054 660.138L156.763 654.889L157.516 654.812L157.825 660.09Z" fill="#20B872"/>
<path d="M165.327 660.613C165.343 662.071 164.543 663.727 163.526 665.249C163.294 665.6 163.062 665.907 162.803 666.23V666.262C161.12 668.488 159.196 670.223 159.196 670.223L158.98 664.835C158.98 664.835 161.075 663.562 162.555 661.735C162.771 661.505 162.954 661.244 163.124 660.982C164.249 659.277 164.634 657.209 162.478 655.24C162.478 655.24 162.493 655.24 162.523 655.256C162.878 655.441 165.296 656.838 165.327 660.613Z" fill="#20B872"/>
<path d="M168.996 676.804C168.996 676.804 165.698 682.713 159.705 682.867L159.196 670.22L158.98 664.833C158.98 664.833 161.075 663.56 162.555 661.734C162.771 661.504 162.955 661.242 163.124 660.98C164.249 659.277 164.636 657.205 162.478 655.239C162.478 655.239 162.493 655.239 162.523 655.256C163.017 655.377 166.962 656.515 168.518 660.52C170.165 664.787 168.996 676.804 168.996 676.804Z" fill="#2CDA89"/>
<path d="M276.687 658.419C273.296 657.158 262.529 654.011 252.236 660.03C247.183 662.991 239.464 669.468 230.39 676.804L230.374 676.82C230.358 676.804 230.358 676.804 230.342 676.82H230.312C230.051 676.82 229.805 676.836 229.542 676.853C226.26 677.036 222.748 677.649 219.328 678.771C219.08 678.864 218.818 678.939 218.573 679.031C215.538 680.105 212.596 681.577 209.992 683.542C209.746 683.726 209.498 683.91 209.268 684.111C206.801 686.089 204.675 688.514 203.105 691.447C202.889 691.815 202.703 692.198 202.536 692.583C201.656 694.423 200.994 696.447 200.594 698.676C195.802 701.62 191.026 704.2 186.419 706.119C167.715 713.883 149.983 712.317 142.619 711.135C140.201 710.751 138.058 709.416 136.64 707.451C133.298 702.818 128.521 694.53 125.996 683.524C126.888 685.889 128.784 687.959 131.895 689.403L132.143 693.826C132.157 694.04 132.327 694.195 132.526 694.195H132.557C132.757 694.177 132.928 693.994 132.912 693.792L132.68 689.74C134.452 690.462 136.594 690.999 139.121 691.29C139.121 691.29 139.091 691.245 139.059 691.167C140.494 691.475 141.986 691.675 143.528 691.784L144.251 696.695C144.283 696.895 144.452 697.03 144.636 697.03H144.697C144.898 697 145.052 696.8 145.022 696.586L144.329 691.828C147.872 692.058 151.647 691.828 155.545 691.229L156.885 696.11C156.931 696.279 157.085 696.402 157.254 696.402C157.285 696.402 157.317 696.386 157.347 696.386C157.563 696.324 157.672 696.11 157.624 695.91L156.314 691.106C159.965 690.541 163.71 689.65 167.422 688.513L169.027 693.501C169.087 693.654 169.241 693.761 169.396 693.761C169.441 693.761 169.471 693.761 169.519 693.747C169.719 693.685 169.828 693.469 169.764 693.255L168.161 688.283C172.214 687.024 176.219 685.489 180.042 683.756L181.704 688.728C181.766 688.897 181.906 688.987 182.075 688.987C182.106 688.987 182.152 688.987 182.198 688.971C182.398 688.911 182.505 688.679 182.428 688.483L180.749 683.433C184.631 681.638 188.315 679.658 191.641 677.568L193.722 682.067C193.799 682.205 193.938 682.297 194.076 682.297C194.124 682.297 194.185 682.283 194.247 682.267C194.431 682.172 194.506 681.942 194.431 681.744L192.291 677.171C195.909 674.854 199.807 672.322 203.828 669.712L205.846 674.332C205.907 674.485 206.048 674.562 206.201 674.562C206.248 674.562 206.31 674.562 206.355 674.532C206.541 674.455 206.634 674.225 206.557 674.025L204.476 669.282C207.741 667.18 211.085 665.031 214.46 662.929L216.355 667.258C216.416 667.412 216.555 667.489 216.71 667.489C216.755 667.489 216.817 667.489 216.864 667.456C217.063 667.379 217.14 667.149 217.063 666.95L215.121 662.515C218.156 660.629 221.206 658.77 224.242 657.023L226.168 661.442C226.23 661.595 226.369 661.672 226.523 661.672C226.569 661.672 226.614 661.672 226.662 661.641C226.862 661.565 226.955 661.333 226.862 661.135L224.922 656.636C228.788 654.412 232.607 652.355 236.289 650.591L238.001 655.211C238.063 655.365 238.202 655.456 238.354 655.456C238.4 655.456 238.447 655.456 238.493 655.425C238.693 655.365 238.802 655.133 238.725 654.935L236.985 650.254C241.144 648.289 245.118 646.709 248.739 645.711L250.003 650.452C250.048 650.622 250.203 650.745 250.373 650.745C250.401 650.745 250.449 650.73 250.479 650.73C250.679 650.668 250.803 650.468 250.742 650.254L249.48 645.511C252.113 644.821 254.561 644.468 256.765 644.482C257.767 644.621 258.722 644.807 259.646 645.005L260.556 648.443C260.603 648.614 260.756 648.719 260.924 648.719C260.956 648.719 261.002 648.719 261.033 648.703C261.233 648.658 261.358 648.443 261.295 648.243L260.48 645.204C263.669 645.971 266.38 647.091 268.629 648.505C269.23 648.872 269.799 649.274 270.339 649.685C272.896 651.636 274.747 653.997 275.962 656.638C276.132 656.991 276.285 657.36 276.425 657.727C276.517 657.943 276.594 658.173 276.687 658.419Z" fill="#2CDA89"/>
<path d="M132.68 689.742L132.912 693.796C132.928 693.993 132.757 694.179 132.557 694.195H132.526C132.327 694.195 132.157 694.042 132.141 693.826L131.895 689.406C128.782 687.963 126.887 685.891 125.994 683.526C125.98 683.482 125.98 683.45 125.964 683.405C127.549 685.568 129.537 687.271 131.834 688.562C132.095 688.716 132.357 688.853 132.634 688.992C134.575 689.973 136.733 690.695 139.059 691.171C139.089 691.248 139.121 691.292 139.121 691.292C136.594 691.001 134.452 690.463 132.68 689.742Z" fill="#2CDA89"/>
<path d="M145.021 696.588C145.052 696.804 144.898 697.002 144.696 697.032H144.634C144.452 697.032 144.281 696.895 144.252 696.697L143.526 691.784C143.788 691.817 144.034 691.831 144.313 691.831H144.327L145.021 696.588Z" fill="#2CDA89"/>
<path d="M157.625 695.912C157.67 696.112 157.563 696.326 157.347 696.388C157.316 696.388 157.286 696.403 157.254 696.403C157.084 696.403 156.929 696.28 156.884 696.112L155.544 691.231C155.806 691.201 156.051 691.169 156.315 691.109L157.625 695.912Z" fill="#2CDA89"/>
<path d="M169.765 693.257C169.826 693.471 169.719 693.687 169.517 693.749C169.471 693.763 169.44 693.763 169.394 693.763C169.24 693.763 169.085 693.655 169.025 693.504L167.422 688.514C167.67 688.437 167.916 688.36 168.162 688.284L169.765 693.257Z" fill="#2CDA89"/>
<path d="M182.428 688.484C182.505 688.681 182.396 688.915 182.198 688.973C182.152 688.99 182.105 688.99 182.075 688.99C181.904 688.99 181.766 688.897 181.704 688.73L180.042 683.758C180.27 683.651 180.502 683.542 180.749 683.435L182.428 688.484Z" fill="#2CDA89"/>
<path d="M194.248 682.269C194.186 682.284 194.125 682.299 194.077 682.299C193.938 682.299 193.8 682.207 193.723 682.068L191.644 677.572C191.86 677.449 192.06 677.312 192.26 677.187C192.276 677.187 192.276 677.171 192.291 677.171L194.432 681.745C194.507 681.946 194.432 682.176 194.248 682.269Z" fill="#2CDA89"/>
<path d="M206.556 674.027C206.633 674.227 206.54 674.457 206.356 674.534C206.308 674.566 206.247 674.566 206.201 674.566C206.047 674.566 205.908 674.487 205.846 674.334L203.827 669.714C204.043 669.575 204.259 669.438 204.475 669.284L206.556 674.027Z" fill="#2CDA89"/>
<path d="M216.864 667.458C216.819 667.491 216.755 667.491 216.71 667.491C216.555 667.491 216.417 667.414 216.355 667.259L214.46 662.931C214.676 662.792 214.906 662.657 215.122 662.518L217.063 666.952C217.14 667.15 217.063 667.382 216.864 667.458Z" fill="#2CDA89"/>
<path d="M226.662 661.64C226.617 661.674 226.569 661.674 226.524 661.674C226.369 661.674 226.23 661.597 226.169 661.44L224.243 657.021C224.459 656.898 224.69 656.761 224.922 656.638L226.862 661.135C226.956 661.333 226.862 661.565 226.662 661.64Z" fill="#2CDA89"/>
<path d="M203.305 691.784V696.586C203.305 696.8 203.135 696.971 202.919 696.971C202.703 696.971 202.536 696.8 202.536 696.586V692.583C202.703 692.196 202.889 691.814 203.105 691.447C203.228 691.508 203.305 691.631 203.305 691.784Z" fill="#2CDA89"/>
<path d="M210.376 688.669C210.392 688.885 210.238 689.069 210.022 689.081H209.99C209.79 689.081 209.621 688.927 209.607 688.73L209.267 684.109C209.498 683.912 209.746 683.726 209.99 683.543L210.376 688.669Z" fill="#2CDA89"/>
<path d="M219.728 684.11C219.744 684.325 219.59 684.509 219.374 684.523H219.344C219.144 684.523 218.973 684.369 218.959 684.172L218.575 679.029C218.819 678.936 219.082 678.86 219.328 678.769L219.728 684.11Z" fill="#2CDA89"/>
<path d="M230.343 676.82C230.327 676.82 230.311 676.836 230.311 676.836C230.065 677.034 229.835 677.236 229.588 677.436L229.542 676.853C229.804 676.836 230.051 676.82 230.311 676.82H230.343Z" fill="#2CDA89"/>
<path d="M238.725 654.935C238.802 655.133 238.693 655.365 238.493 655.425C238.448 655.456 238.4 655.456 238.354 655.456C238.202 655.456 238.063 655.365 238.002 655.21L236.29 650.591C236.521 650.468 236.753 650.361 236.985 650.254L238.725 654.935Z" fill="#2CDA89"/>
<path d="M250.741 650.254C250.802 650.468 250.679 650.668 250.479 650.73C250.448 650.73 250.402 650.745 250.372 650.745C250.202 650.745 250.047 650.621 250.002 650.452L248.737 645.711C248.985 645.634 249.232 645.573 249.478 645.511L250.741 650.254Z" fill="#2CDA89"/>
<path d="M277.765 658.847C277.672 658.817 277.302 658.647 276.687 658.417C276.594 658.173 276.517 657.941 276.424 657.727C276.285 657.358 276.131 656.989 275.962 656.638C274.745 653.997 272.896 651.634 270.34 649.685C269.799 649.27 269.23 648.872 268.63 648.503C266.38 647.091 263.669 645.971 260.479 645.202L261.295 648.24C261.357 648.44 261.234 648.654 261.034 648.703C261.002 648.717 260.956 648.717 260.925 648.717C260.754 648.717 260.603 648.608 260.556 648.442L259.647 645.004C258.721 644.803 257.766 644.619 256.765 644.482C257.736 644.482 258.66 644.544 259.555 644.651C259.831 644.684 260.108 644.728 260.372 644.774C260.863 644.851 261.341 644.942 261.819 645.049C261.864 645.049 261.926 645.049 261.973 645.081C265.223 645.817 267.873 647.198 270.015 648.81L270.047 648.824C270.508 649.163 270.97 649.546 271.371 649.915L271.402 649.931C274.345 652.51 276.117 655.409 277.009 657.174C277.256 657.649 277.441 658.034 277.565 658.325C277.688 658.619 277.765 658.819 277.765 658.847Z" fill="#2CDA89"/>
<path d="M286.685 685.183C282.896 702.494 258.953 721.388 238.093 724.733C221.978 727.316 209.602 721.577 204.793 718.824C203.362 718.006 202.321 716.677 201.875 715.095C200.988 711.931 199.685 706.099 200.286 700.746L200.761 701.221C200.916 701.374 201.118 701.545 201.364 701.743C201.38 701.761 201.38 701.761 201.395 701.761V701.776H201.411C201.518 701.868 201.639 701.959 201.748 702.034C201.855 702.113 201.996 702.205 202.119 702.296C203.49 703.232 205.708 704.444 209.067 705.443C209.128 705.457 209.16 705.457 209.16 705.457C209.314 705.502 209.467 705.551 209.637 705.595C209.76 705.641 209.883 705.671 210.006 705.704C210.129 705.736 210.254 705.764 210.377 705.796C210.5 705.843 210.624 705.873 210.761 705.889V705.904C210.777 705.922 210.807 705.922 210.838 705.922H210.884C210.9 705.936 210.916 705.936 210.93 705.936C211.132 705.98 211.332 706.029 211.548 706.091C211.901 706.166 212.255 706.243 212.626 706.321C215.214 706.826 218.296 707.209 221.915 707.318C222.178 707.332 222.44 707.332 222.703 707.348C226.647 707.425 231.221 707.209 236.522 706.551C236.783 706.519 237.045 706.489 237.307 706.458C237.414 706.442 237.538 706.426 237.645 706.412C239.203 706.215 240.711 705.936 242.176 705.599C242.653 705.49 243.131 705.369 243.608 705.246C243.793 705.2 243.979 705.139 244.163 705.091C244.609 704.972 245.041 704.833 245.471 704.709C245.735 704.616 246.012 704.54 246.274 704.447C246.305 704.431 246.337 704.431 246.383 704.417V704.401C247.045 704.187 247.707 703.955 248.355 703.696C248.614 703.604 248.878 703.495 249.139 703.388C253.208 701.731 256.781 699.567 259.892 697.097L260.604 696.514C263.422 694.196 265.871 691.617 267.95 688.93C268.136 688.686 268.321 688.442 268.521 688.195C270.493 685.54 272.141 682.809 273.467 680.153C273.59 679.893 273.713 679.631 273.838 679.371C275.362 676.163 276.424 673.094 277.056 670.409L277.256 669.489V669.472C277.672 667.477 277.843 665.762 277.781 664.392C277.688 662.322 277.334 660.311 276.687 658.422C276.594 658.178 276.517 657.946 276.424 657.732C276.285 657.363 276.131 656.994 275.962 656.643C274.745 654.002 272.895 651.639 270.338 649.69C269.799 649.276 269.23 648.877 268.63 648.508C266.38 647.095 263.669 645.975 260.479 645.207C260.202 645.132 259.924 645.07 259.647 645.009C258.721 644.809 257.766 644.624 256.765 644.487C257.736 644.549 258.66 644.64 259.571 644.763C259.847 644.779 260.124 644.807 260.386 644.856C260.879 644.9 261.357 644.979 261.819 645.054C261.864 645.054 261.926 645.054 261.973 645.086C288.027 649.165 290.259 668.917 286.685 685.183Z" fill="#20B872"/>
<path d="M246.628 688.576C246.166 689.589 245.457 690.555 244.502 691.399L244.456 690.725C244.44 690.509 244.272 690.311 244.04 690.37C243.824 690.386 243.669 690.569 243.685 690.771L243.778 691.998C243.485 692.198 243.178 692.397 242.855 692.597C240.558 693.949 237.647 695.051 234.24 695.805L234.195 695.144C234.179 694.93 234.01 694.792 233.78 694.792C233.578 694.807 233.41 694.99 233.424 695.192L233.471 695.973C229.435 696.786 224.736 697.125 219.575 696.863C219.328 696.863 219.066 696.848 218.804 696.82C215.616 696.635 212.273 696.203 208.789 695.515L209.159 705.46C209.159 705.46 209.13 705.46 209.066 705.444C205.707 704.447 203.491 703.232 202.118 702.298C201.995 702.205 201.857 702.114 201.748 702.038C201.641 701.961 201.52 701.868 201.411 701.778H201.395V701.761C201.379 701.761 201.379 701.761 201.365 701.747C201.163 701.576 200.963 701.392 200.763 701.223L200.285 700.748C200.362 700.043 200.455 699.352 200.594 698.676C200.995 696.451 201.656 694.425 202.536 692.583V696.588C202.536 696.804 202.703 696.972 202.919 696.972C203.135 696.972 203.305 696.804 203.305 696.588V691.785C203.305 691.631 203.228 691.508 203.105 691.447C204.675 688.516 206.801 686.091 209.268 684.112L209.607 688.73C209.623 688.93 209.791 689.085 209.992 689.085H210.022C210.237 689.069 210.392 688.885 210.376 688.669L209.992 683.543C212.596 681.579 215.538 680.105 218.573 679.033L218.957 684.176C218.973 684.374 219.143 684.527 219.343 684.527H219.375C219.591 684.513 219.744 684.328 219.73 684.114L219.328 678.773C222.748 677.652 226.26 677.038 229.543 676.854L229.589 677.436L229.96 682.425C229.975 682.625 230.142 682.778 230.344 682.778H230.374C230.59 682.762 230.744 682.579 230.729 682.363L230.312 676.839C230.312 676.839 230.328 676.824 230.344 676.824H230.374L230.39 676.808C232.748 676.731 234.966 676.869 236.923 677.192C238.001 677.375 238.986 677.605 239.88 677.898L240.282 683.422C240.296 683.621 240.465 683.773 240.665 683.773H240.697C240.913 683.758 241.067 683.575 241.051 683.361L240.665 678.174C243.287 679.126 245.072 680.537 246.105 682.118C246.012 682.179 245.95 682.288 245.966 682.425L246.182 685.234L246.398 688.258C246.414 688.407 246.505 688.532 246.628 688.576Z" fill="#1A9959"/>
<path d="M234.241 695.805C233.995 695.864 233.733 695.912 233.472 695.973L233.424 695.19C233.409 694.993 233.579 694.807 233.779 694.791C234.011 694.791 234.179 694.93 234.195 695.144L234.241 695.805Z" fill="#189651"/>
<path d="M244.502 691.399C244.272 691.598 244.04 691.799 243.778 691.998L243.685 690.772C243.669 690.572 243.824 690.386 244.04 690.37C244.272 690.309 244.44 690.509 244.456 690.723L244.502 691.399Z" fill="#189651"/>
<path d="M209.067 705.443C208.482 705.32 205.216 704.612 202.119 702.328C201.996 702.235 201.871 702.145 201.749 702.036C201.857 702.112 201.996 702.205 202.119 702.296C203.49 703.232 205.708 704.445 209.067 705.443Z" fill="#189651"/>
<path d="M203.305 691.784V696.586C203.305 696.8 203.135 696.971 202.919 696.971C202.703 696.971 202.536 696.8 202.536 696.586V692.583C202.703 692.196 202.889 691.814 203.105 691.447C203.228 691.508 203.305 691.631 203.305 691.784Z" fill="#189651"/>
<path d="M210.376 688.669C210.392 688.885 210.238 689.069 210.022 689.081H209.99C209.79 689.081 209.621 688.927 209.607 688.73L209.267 684.109C209.498 683.912 209.746 683.726 209.99 683.543L210.376 688.669Z" fill="#189651"/>
<path d="M219.728 684.11C219.744 684.325 219.59 684.509 219.374 684.523H219.344C219.144 684.523 218.973 684.369 218.959 684.172L218.575 679.029C218.819 678.936 219.082 678.86 219.328 678.769L219.728 684.11Z" fill="#189651"/>
<path d="M230.729 682.36C230.745 682.576 230.59 682.76 230.374 682.774H230.343C230.143 682.774 229.974 682.622 229.96 682.421L229.589 677.433L229.542 676.85C229.805 676.836 230.051 676.818 230.313 676.818H230.343C230.327 676.818 230.313 676.836 230.313 676.836L230.729 682.36Z" fill="#189651"/>
<path d="M241.052 683.357C241.067 683.572 240.913 683.758 240.697 683.772H240.665C240.465 683.772 240.295 683.617 240.282 683.419L239.88 677.895C240.158 677.972 240.419 678.063 240.665 678.169L241.052 683.357Z" fill="#189651"/>
<path d="M247.09 687.15L246.936 685.032L246.829 683.542C247.013 684.003 247.122 684.478 247.183 684.955C247.292 685.691 247.262 686.427 247.09 687.15Z" fill="#2CDA89"/>
<path d="M246.813 683.512L246.105 682.116C246.413 682.576 246.643 683.036 246.813 683.512Z" fill="#189651"/>
<path d="M163.601 666.645C163.617 666.859 163.462 667.045 163.246 667.059H163.215C163.015 667.059 162.846 666.891 162.832 666.691L162.8 666.26V666.231L162.553 661.732C162.769 661.502 162.953 661.24 163.123 660.979C163.23 661.042 163.292 661.149 163.308 661.27L163.524 665.247L163.601 666.645Z" fill="white"/>
<path d="M157.825 660.09C157.841 660.306 157.67 660.475 157.455 660.492H157.439C157.239 660.492 157.068 660.338 157.054 660.138L156.763 654.889L157.516 654.812L157.825 660.09Z" fill="white"/>
<path d="M145.084 663.958C145.1 664.174 144.945 664.357 144.73 664.357H144.698C144.5 664.357 144.329 664.204 144.315 664.004L144.052 659.386C144.299 659.247 144.545 659.126 144.791 658.986L145.084 663.958Z" fill="white"/>
<path d="M134.623 671.08C134.639 671.296 134.468 671.48 134.254 671.493H134.238C134.038 671.493 133.868 671.324 133.854 671.124L133.59 666.476C133.838 666.26 134.084 666.046 134.331 665.86L134.623 671.08Z" fill="white"/>
<path d="M127.766 678.063C127.782 678.277 127.627 678.464 127.411 678.478H127.38C127.181 678.478 127.011 678.309 126.997 678.109L126.795 674.534C127.011 674.088 127.243 673.658 127.504 673.214L127.766 678.063Z" fill="white"/>
<path d="M132.913 693.794C132.928 693.994 132.758 694.179 132.558 694.196H132.526C132.328 694.196 132.158 694.042 132.144 693.828L131.896 689.404L131.834 688.563C132.096 688.716 132.359 688.855 132.635 688.99L132.681 689.743L132.913 693.794Z" fill="white"/>
<path d="M145.021 696.588C145.052 696.804 144.898 697.002 144.696 697.032H144.634C144.452 697.032 144.281 696.895 144.252 696.697L143.526 691.784C143.788 691.817 144.034 691.831 144.313 691.831H144.327L145.021 696.588Z" fill="white"/>
<path d="M157.625 695.912C157.67 696.112 157.563 696.326 157.347 696.388C157.316 696.388 157.286 696.403 157.254 696.403C157.084 696.403 156.929 696.28 156.884 696.112L155.544 691.231C155.806 691.201 156.051 691.169 156.315 691.109L157.625 695.912Z" fill="white"/>
<path d="M169.765 693.257C169.826 693.471 169.719 693.687 169.517 693.749C169.471 693.763 169.44 693.763 169.394 693.763C169.24 693.763 169.085 693.655 169.025 693.504L167.422 688.514C167.67 688.437 167.916 688.36 168.162 688.284L169.765 693.257Z" fill="white"/>
<path d="M182.428 688.484C182.505 688.681 182.396 688.915 182.198 688.973C182.152 688.99 182.105 688.99 182.075 688.99C181.904 688.99 181.766 688.897 181.704 688.73L180.042 683.758C180.27 683.651 180.502 683.542 180.749 683.435L182.428 688.484Z" fill="white"/>
<path d="M194.248 682.269C194.186 682.284 194.125 682.299 194.077 682.299C193.938 682.299 193.8 682.207 193.723 682.068L191.644 677.572C191.86 677.449 192.06 677.312 192.26 677.187C192.276 677.187 192.276 677.171 192.291 677.171L194.432 681.745C194.507 681.946 194.432 682.176 194.248 682.269Z" fill="white"/>
<path d="M206.556 674.027C206.633 674.227 206.54 674.457 206.356 674.534C206.308 674.566 206.247 674.566 206.201 674.566C206.047 674.566 205.908 674.487 205.846 674.334L203.827 669.714C204.043 669.575 204.259 669.438 204.475 669.284L206.556 674.027Z" fill="white"/>
<path d="M216.864 667.458C216.819 667.491 216.755 667.491 216.71 667.491C216.555 667.491 216.417 667.414 216.355 667.259L214.46 662.931C214.676 662.792 214.906 662.657 215.122 662.518L217.063 666.952C217.14 667.15 217.063 667.382 216.864 667.458Z" fill="white"/>
<path d="M226.662 661.64C226.617 661.674 226.569 661.674 226.524 661.674C226.369 661.674 226.23 661.597 226.169 661.44L224.243 657.021C224.459 656.898 224.69 656.761 224.922 656.638L226.862 661.135C226.956 661.333 226.862 661.565 226.662 661.64Z" fill="white"/>
<path d="M238.725 654.935C238.802 655.133 238.693 655.365 238.493 655.425C238.448 655.456 238.4 655.456 238.354 655.456C238.202 655.456 238.063 655.365 238.002 655.21L236.29 650.591C236.521 650.468 236.753 650.361 236.985 650.254L238.725 654.935Z" fill="white"/>
<path d="M250.741 650.254C250.802 650.468 250.679 650.668 250.479 650.73C250.448 650.73 250.402 650.745 250.372 650.745C250.202 650.745 250.047 650.621 250.002 650.452L248.737 645.711C248.985 645.634 249.232 645.573 249.478 645.511L250.741 650.254Z" fill="white"/>
<path d="M261.295 648.243C261.357 648.442 261.234 648.656 261.034 648.703C261.002 648.719 260.956 648.719 260.925 648.719C260.754 648.719 260.602 648.61 260.556 648.443L259.646 645.005L259.571 644.76L259.555 644.652C259.831 644.682 260.108 644.73 260.372 644.772L260.386 644.849L260.479 645.202L261.295 648.243Z" fill="white"/>
<path d="M274.222 650.176C274.19 650.361 274.022 650.468 273.853 650.468H273.76L271.404 649.931L271.372 649.917L270.34 649.683C269.799 649.27 269.23 648.87 268.629 648.501H268.661L270.015 648.809L270.046 648.826L273.944 649.716C274.145 649.764 274.268 649.978 274.222 650.176Z" fill="white"/>
<path d="M280.924 659.646C280.863 659.785 280.724 659.862 280.585 659.862C280.522 659.862 280.46 659.844 280.415 659.814L277.565 658.327L276.424 657.725C276.285 657.358 276.132 656.989 275.962 656.638H275.978L277.01 657.175L280.769 659.138C280.956 659.231 281.031 659.461 280.924 659.646Z" fill="white"/>
<path d="M280.738 674.042C280.676 674.104 280.583 674.134 280.49 674.134C280.383 674.134 280.274 674.09 280.197 674.012L277.054 670.404L277.256 669.486L280.783 673.507C280.922 673.658 280.91 673.904 280.738 674.042Z" fill="white"/>
<path d="M276.347 685.046C276.285 685.076 276.224 685.09 276.162 685.09C276.022 685.09 275.899 684.999 275.823 684.876L273.465 680.149C273.59 679.889 273.713 679.63 273.836 679.368C273.911 679.398 273.973 679.459 274.004 679.536L276.517 684.527C276.608 684.723 276.531 684.953 276.347 685.046Z" fill="white"/>
<path d="M270.199 693.949C270.261 694.165 270.138 694.361 269.938 694.425C269.906 694.44 269.875 694.44 269.829 694.44C269.676 694.44 269.506 694.333 269.46 694.167L267.95 688.932C268.135 688.686 268.321 688.441 268.521 688.195C268.552 688.226 268.567 688.272 268.582 688.318L270.199 693.949Z" fill="white"/>
<path d="M260.603 696.512C260.619 696.526 260.619 696.526 260.619 696.542L261.234 702.375C261.265 702.589 261.111 702.774 260.895 702.804H260.849C260.663 702.804 260.495 702.651 260.481 702.467L259.894 697.095L260.603 696.512Z" fill="white"/>
<path d="M249.139 703.387V703.432L248.878 709.279C248.862 709.478 248.692 709.648 248.492 709.648H248.46C248.261 709.634 248.091 709.45 248.107 709.234L248.355 703.694C248.616 703.603 248.878 703.494 249.139 703.387Z" fill="white"/>
<path d="M246.382 704.4V704.414C246.337 704.431 246.305 704.431 246.274 704.447C246.012 704.54 245.735 704.616 245.471 704.705C245.041 704.83 244.609 704.967 244.163 705.092C243.979 705.135 243.793 705.199 243.608 705.244C243.131 705.365 242.653 705.49 242.175 705.599C240.713 705.934 239.203 706.212 237.645 706.412C237.538 706.428 237.415 706.442 237.306 706.456C237.046 706.487 236.783 706.517 236.521 706.549C231.22 707.209 226.646 707.425 222.703 707.346C222.439 707.33 222.178 707.33 221.914 707.316C218.295 707.207 215.214 706.825 212.626 706.317C212.255 706.242 211.9 706.164 211.548 706.087C211.332 706.026 211.131 705.98 210.931 705.934C210.915 705.934 210.9 705.934 210.884 705.919H210.838C210.807 705.903 210.791 705.903 210.761 705.889C210.624 705.871 210.499 705.841 210.376 705.794C210.253 705.764 210.131 705.732 210.006 705.687C209.883 705.655 209.762 705.625 209.637 705.595C209.469 705.548 209.314 705.501 209.16 705.457L208.789 695.511C212.271 696.202 215.616 696.632 218.805 696.816L219.142 702.157C219.158 702.354 219.328 702.509 219.528 702.509H219.544C219.76 702.509 219.928 702.326 219.913 702.108L219.574 696.86C224.736 697.122 229.435 696.784 233.47 695.97L233.795 701.034C233.81 701.25 233.981 701.402 234.179 701.402H234.195C234.411 701.388 234.579 701.206 234.565 700.992L234.241 695.803C237.645 695.05 240.558 693.943 242.853 692.595C243.178 692.397 243.485 692.195 243.778 691.998L244.117 696.616C244.133 696.816 244.302 696.969 244.502 696.969H244.532C244.748 696.953 244.902 696.77 244.886 696.554L244.502 691.399C245.457 690.555 246.166 689.587 246.628 688.574C246.674 688.606 246.72 688.621 246.783 688.621C246.797 688.621 246.797 688.621 246.813 688.604C247.029 688.604 247.183 688.405 247.167 688.203L247.09 687.143C247.26 686.425 247.292 685.686 247.183 684.948C247.629 695.069 246.444 703.97 246.382 704.4Z" fill="#2CDA89"/>
<path d="M237.306 706.456L237.291 706.624L236.676 712.164C236.66 712.349 236.49 712.503 236.29 712.503H236.258C236.044 712.47 235.889 712.289 235.921 712.073L236.506 706.747L236.522 706.547C236.783 706.517 237.047 706.487 237.306 706.456Z" fill="white"/>
<path d="M222.703 707.344L222.671 707.592L222.07 713.13C222.039 713.33 221.87 713.485 221.686 713.485H221.64C221.423 713.453 221.27 713.269 221.3 713.054L221.9 707.56L221.916 707.315C222.178 707.33 222.441 707.33 222.703 707.344Z" fill="white"/>
<path d="M210.761 705.887V705.903L210.161 711.32C210.145 711.52 209.976 711.673 209.79 711.673H209.746C209.53 711.643 209.376 711.458 209.407 711.242L210.006 705.704V705.687C210.131 705.734 210.254 705.766 210.377 705.796C210.501 705.843 210.624 705.873 210.761 705.887Z" fill="white"/>
<path d="M210.376 688.669C210.392 688.885 210.238 689.069 210.022 689.081H209.99C209.79 689.081 209.621 688.927 209.607 688.73L209.267 684.109C209.498 683.912 209.746 683.726 209.99 683.543L210.376 688.669Z" fill="white"/>
<path d="M219.728 684.11C219.744 684.325 219.59 684.509 219.374 684.523H219.344C219.144 684.523 218.973 684.369 218.959 684.172L218.575 679.029C218.819 678.936 219.082 678.86 219.328 678.769L219.728 684.11Z" fill="white"/>
<path d="M230.729 682.36C230.745 682.576 230.59 682.76 230.374 682.774H230.343C230.143 682.774 229.974 682.622 229.96 682.421L229.589 677.433L229.542 676.85C229.805 676.836 230.051 676.818 230.313 676.818V676.836L230.729 682.36Z" fill="white"/>
<path d="M241.052 683.357C241.067 683.572 240.913 683.758 240.697 683.772H240.665C240.465 683.772 240.295 683.617 240.282 683.419L239.88 677.895C240.158 677.972 240.419 678.063 240.665 678.169L241.052 683.357Z" fill="white"/>
<path d="M247.09 687.15C246.997 687.626 246.843 688.102 246.627 688.577C246.504 688.534 246.413 688.409 246.397 688.254L246.181 685.233L245.965 682.421C245.951 682.283 246.012 682.176 246.104 682.114L246.813 683.512L246.829 683.542L246.936 685.032L247.09 687.15Z" fill="white"/>
<path d="M247.168 688.207C247.184 688.407 247.029 688.609 246.813 688.609C246.797 688.623 246.797 688.623 246.781 688.623C246.72 688.623 246.674 688.609 246.627 688.577C246.843 688.102 246.997 687.626 247.091 687.15L247.168 688.207Z" fill="white"/>
<path d="M244.502 691.399V691.389C244.325 691.647 244.088 691.863 243.779 691.998L244.118 696.618C244.133 696.816 244.304 696.969 244.502 696.969H244.534C244.75 696.955 244.904 696.772 244.889 696.558L244.502 691.399Z" fill="white"/>
<path d="M234.237 695.756C234.021 695.84 233.779 695.894 233.501 695.894C233.487 695.894 233.479 695.891 233.466 695.891L233.47 695.973L233.795 701.037C233.81 701.253 233.981 701.406 234.179 701.406H234.195C234.411 701.39 234.58 701.208 234.565 700.993L234.241 695.806L234.237 695.756Z" fill="white"/>
<path d="M219.913 702.112C219.929 702.328 219.76 702.514 219.544 702.514H219.529C219.328 702.514 219.158 702.358 219.144 702.159L218.805 696.82C219.067 696.849 219.328 696.863 219.576 696.863L219.913 702.112Z" fill="white"/>
<path d="M202.119 702.296V702.328L201.61 706.87C201.594 707.069 201.425 707.207 201.241 707.207H201.195C200.979 707.176 200.825 706.993 200.855 706.777L201.396 701.775H201.411C201.518 701.866 201.641 701.957 201.749 702.034C201.857 702.112 201.996 702.205 202.119 702.296Z" fill="white"/>
<path d="M203.305 691.784V696.586C203.305 696.8 203.135 696.971 202.919 696.971C202.703 696.971 202.536 696.8 202.536 696.586V692.583C202.703 692.196 202.889 691.814 203.105 691.447C203.228 691.508 203.305 691.631 203.305 691.784Z" fill="white"/>
<path d="M441.841 275.436C285.164 262.556 247.309 356.289 272.376 462.682C296.532 565.219 382.269 602.869 497.38 572.653C635.357 536.432 655.106 428.997 604.897 365.591C554.688 302.186 495.696 279.863 441.841 275.436Z" fill="#EBF4F8"/>
<path d="M367.418 376.662C358.859 376.773 351.508 373.73 345.613 384.556C339.731 395.379 344.961 419.059 367.418 419.059C389.875 419.059 394.963 404.282 394.735 394.25C394.508 384.217 386.252 375.193 374.023 377.001L367.418 376.662Z" fill="#EF2700"/>
<path d="M368.351 375.349C366.74 375.349 365.888 373.488 360.88 373.279C355.873 373.069 351.696 375.162 351.883 375.604C352.075 376.05 355.257 374.484 358.225 375.117C361.197 375.751 362.808 376.367 362.857 376.786C362.897 377.21 357.529 379.348 355.19 379.174C352.856 379.009 348.59 378.772 348.607 379.187C348.63 379.598 352.579 382.2 357.823 381.651C363.063 381.102 364.718 379.281 365.651 379.852C366.584 380.424 365.049 384.641 369.918 388.836C369.918 388.836 368.583 381.763 370.623 380.129C372.658 378.496 373.992 379.772 374.867 381.048C377.638 385.114 377.977 386.89 381.115 387.529C381.115 387.529 378.91 383.383 378.401 380.339C377.893 377.295 376.277 376.407 376.277 376.407C376.277 376.407 382.476 375.224 386.211 377.38C386.211 377.38 380.99 373.957 376.277 374.127C371.564 374.292 369.659 375.559 369.659 375.559C369.659 375.559 370.507 370.659 372.716 367.655C372.716 367.655 372.76 366.134 370.855 366.473C370.859 366.477 369.154 368.035 368.351 375.349Z" fill="#4EB236"/>
<path d="M348.148 395.343C348.122 395.343 348.095 395.343 348.068 395.343C347.568 395.294 347.198 394.857 347.238 394.357C348.005 385.69 352.888 383.111 353.093 383.003C353.539 382.776 354.084 382.95 354.312 383.401C354.548 383.842 354.37 384.387 353.919 384.619C353.754 384.704 349.728 386.913 349.05 394.518C349.014 394.991 348.617 395.343 348.148 395.343Z" fill="#F96C5A"/>
<path d="M389.243 274.412C388.515 272.776 373.99 271.102 370.864 268.474C367.744 265.84 367.536 257.74 369.049 251.75C370.552 245.754 371.361 240.6 374.926 238.912C378.496 237.22 392.302 242.657 396.321 246.818C401.735 252.412 390.146 272.053 391.782 276.001C393.423 279.944 389.243 274.412 389.243 274.412Z" fill="#72A90C"/>
<path d="M395.981 289.112C395.981 289.112 375.801 246.213 378.274 245.125C379.054 244.78 397.093 288.857 397.093 288.857L395.981 289.112Z" fill="#4A6C1B"/>
<path d="M384.747 280.129C382.686 278.663 383.418 263.651 377.475 260.738C371.408 257.769 362.586 262.1 361.314 265.334C360.046 268.568 361.952 278.687 365.985 281.538C372.127 285.874 382.094 280.403 385.102 282.54C388.104 284.677 387.338 282.214 384.747 280.129Z" fill="#9BC454"/>
<path d="M393.38 288.403C393.38 288.403 368.193 270.795 366.292 268.157C364.391 265.518 387.843 282.152 395.177 287.774L393.38 288.403Z" fill="#548114"/>
<path d="M401.064 277.036C401.977 273.731 414.55 270.19 415.457 264.142C416.37 258.095 412.096 248.946 407.4 247.664C402.705 246.378 391.958 255.409 390.681 260.048C389.405 264.686 400.492 272.568 399.353 276.909C398.213 281.244 400.369 279.585 401.064 277.036Z" fill="#8CC22D"/>
<path d="M398.208 288.597C401.763 275.23 406.969 250.473 406.969 250.473C406.969 250.473 398.567 278.223 396.581 288.152L398.208 288.597Z" fill="#548114"/>
<path d="M392.581 286.304C401.017 285.472 405.612 278.521 412.629 285.301C419.651 292.082 419.268 299.831 415.391 306.626C411.513 313.42 405.485 315.08 405.925 320.309C406.36 325.539 407.953 327.719 406.478 328.069C405.003 328.414 403.343 319.917 400.444 318.621C397.546 317.331 385.432 318.134 380.865 309.283C376.297 300.427 375.47 287.982 392.581 286.304Z" fill="#8F2657"/>
<path d="M398.374 287.543C403.088 285.604 406.965 284.285 411.377 287.358C415.793 290.432 415.211 296.63 414.544 298.697C413.878 300.758 411.008 296.824 410.256 292.408C409.499 287.997 394.137 289.283 398.374 287.543Z" fill="#CC7EA5"/>
<path d="M565.936 295.536C565.936 295.536 567.287 272.758 572.635 273.384C578.266 274.037 569.192 291.522 565.936 295.536Z" fill="#4EAB53"/>
<path d="M567.713 296.666C567.713 296.666 584.384 279.33 588.194 282.719C592.202 286.279 573.045 295.248 567.713 296.666Z" fill="#37A53D"/>
<path d="M566.557 296.516C566.806 298.609 596.626 273.062 589.501 269.092C582.358 265.128 565.826 290.386 566.557 296.516Z" fill="#0F6F14"/>
<path d="M568.395 295.098C558.146 288.659 549.675 304.472 544.565 314.444C539.454 324.404 521.676 349.94 524.062 351.889C526.449 353.832 550.976 330.533 560.195 320.75C569.414 310.972 576.462 300.17 568.395 295.098Z" fill="#FC5D21"/>
<path d="M551.829 411.974L551.859 421.733C566.89 413.621 590.082 385.152 590.082 385.152L583.58 378.956C583.586 378.956 570.882 399.16 551.829 411.974Z" fill="#384326"/>
<path d="M535.598 423.27C546.128 411.723 585.942 395.939 594.838 394.507L596.7 402.594C596.7 402.594 571.769 407.817 541.628 430.17L535.598 423.27Z" fill="#516522"/>
<path d="M529.139 438.913C529.304 438.649 529.359 438.564 529.163 439.041C531.061 434.437 535.396 431.492 540.239 431.676C544.206 427.268 548.271 421.99 551.485 415.868C559.01 401.535 563.939 387.233 563.939 387.233C560.675 386.419 557.516 382.598 557.516 382.598C557.516 382.598 549.973 404.982 537.667 420.698C532.34 427.488 525.802 434.541 525.802 434.541C525.802 434.541 524.767 436.188 525.306 437.437C525.845 438.68 528.557 437.737 529.151 438.729C529.169 438.772 529.133 438.857 529.139 438.913Z" fill="#71911C"/>
<path d="M522.483 436.439C512.032 444.405 500.393 450.533 498.061 457.605C495.734 464.67 510.245 473.666 515.529 466.221C520.806 458.776 519.538 450.313 524.895 445.464C530.24 440.621 526.965 433.158 522.483 436.439Z" fill="#ECECC9"/>
<path d="M522.483 436.439C545.571 417.888 585.305 411.686 585.305 411.686L587.167 418.629C587.167 418.629 548.644 421.605 524.895 445.464C524.895 445.464 526.732 443.291 526.297 441.411C525.746 439.06 524.271 440.731 524.069 439.372C523.855 438.007 524.454 436.299 522.483 436.439Z" fill="#90B515"/>
<path d="M274.288 396.705C268.135 410.05 281.119 438.97 304.272 453.972C329.85 470.547 352.684 446.436 331.502 436.025C310.325 425.609 295.2 409.309 290.794 400.264C286.399 391.23 276.247 392.474 274.288 396.705Z" fill="#30042E"/>
<path d="M280.067 381.957C280.067 381.957 278.144 386.083 277.97 393.242C277.97 393.242 273.283 394.201 270.259 396.022C270.259 396.022 273.564 396.208 275.168 396.388C275.168 396.388 274.114 399.401 274.39 402.324C274.39 402.324 276.873 398.855 278.886 397.574C278.886 397.574 284.822 397.849 287.295 399.703C287.295 399.703 285.135 396.483 283.239 395.525C283.239 395.525 285.818 394.974 288.015 395.313C288.015 395.313 285.092 392.612 279.627 393.089C279.627 393.089 280.729 385.797 283.482 383.053C283.477 383.053 282.27 381.719 280.067 381.957Z" fill="#4EB236"/>
<path d="M294.073 414.114C300.301 420.686 307.805 426.006 315.436 430.782C319.153 433.298 322.256 436.159 326.186 438.516C328.113 439.755 330.03 441.084 331.55 442.853C333.091 444.569 334.023 447.015 333.451 449.255C333.674 446.957 332.652 444.828 331.031 443.335C329.49 441.752 327.563 440.565 325.624 439.48C321.679 437.372 317.538 435.392 313.688 432.924C309.87 430.403 306.264 427.57 302.996 424.398C299.729 421.215 296.742 417.778 294.073 414.114Z" fill="#8E4E8E"/>
<path d="M594.044 506.779C596.013 506.147 597.802 498.002 597.802 498.002L602.697 496.758C602.697 496.758 598.241 507.234 599.257 510.203C600.28 513.172 596.007 510.771 596.007 510.771L594.044 506.779Z" fill="#8AB11C"/>
<path d="M549.41 551.548C523.234 548.141 512.818 538.861 511.466 533.566C511.266 532.798 511.266 532.111 511.433 531.538L511.439 531.533C511.601 530.954 511.953 530.494 512.45 530.192C516.847 527.477 536.906 534.34 558.198 528.969C578.911 523.75 589.501 505.189 595.78 506.758C595.953 506.801 596.12 506.855 596.293 506.931C609.37 512.799 583.281 555.951 549.41 551.548Z" fill="#FFE909"/>
<path d="M549.41 551.549C523.235 548.141 512.819 538.861 511.467 533.566C511.445 532.398 511.439 531.619 511.434 531.538L511.44 531.533C511.44 531.533 525.393 542.971 541.022 544.431C556.657 545.897 571.205 540.813 581.059 533.42C590.275 526.509 596.559 515.254 595.78 506.758C595.953 506.801 596.121 506.855 596.294 506.931C609.371 512.799 583.282 555.951 549.41 551.549Z" fill="#EECC0B"/>
<path d="M343.454 527.437C335.869 539.873 308.219 549.945 287.836 534.362C267.447 518.783 267.956 502.82 272.034 499.579C272.558 499.168 273.067 498.831 273.582 498.555C278.807 495.792 283.607 500.332 288.791 508.077C294.474 516.575 306.167 532.159 326.862 525.24C347.562 518.31 339.823 507.293 339.823 507.293C339.823 507.293 339.926 507.36 340.098 507.495C340.103 507.501 340.119 507.511 340.129 507.526C341.869 508.877 350.279 516.248 343.454 527.437Z" fill="#DF0411"/>
<path d="M343.454 527.437C335.869 539.873 308.219 549.945 287.836 534.361C267.447 518.783 267.956 502.82 272.034 499.579C272.558 499.168 273.067 498.831 273.582 498.555C273.161 517.006 285.379 531.317 301.98 537.239C319.444 543.452 341.952 530.554 344.482 520.024C345.843 514.362 343.028 510.186 340.129 507.526C341.869 508.877 350.279 516.248 343.454 527.437Z" fill="#A90818"/>
<path d="M312.827 530.921C309.009 530.562 305.175 529.508 301.763 527.581C300.054 526.635 298.469 525.467 296.999 524.178C295.534 522.885 294.231 521.425 293.005 519.924C291.799 518.397 290.698 516.807 289.639 515.202L286.532 510.382C285.483 508.797 284.361 507.275 283.104 505.842C281.867 504.398 280.517 503.042 278.99 501.873C280.683 502.813 282.143 504.101 283.551 505.426C284.927 506.782 286.2 508.262 287.332 509.826C289.618 512.937 292.146 515.869 294.52 518.809C296.858 521.781 299.067 524.745 302.261 526.75C305.461 528.744 309.071 530.085 312.827 530.921Z" fill="#EE737F"/>
<path d="M278.693 498.078C277.914 497.87 275.945 498.633 275.945 498.633L281.239 501.47C281.239 501.47 276.735 500.524 274.408 500.8C274.408 500.8 273.125 503.594 272.886 506.503C272.886 506.503 271.888 503.771 272.086 501.054C272.086 501.054 269.92 503.116 269.795 505.875C269.795 505.875 269.572 501.844 271.026 499.335C271.026 499.335 269.551 491.434 266.746 489.465C263.941 487.496 262.798 489.19 262.876 490.488C262.876 490.488 261.297 487.813 264.933 486.826C268.559 485.845 273.083 492.774 274.366 497.574C274.361 497.574 276.719 497.127 278.693 498.078Z" fill="#4EB336"/>
<path d="M481.625 583.733C481.474 595.064 475.119 611.556 449.766 610.642C427.181 609.811 420.767 588.393 424.647 575.243V575.22C425.124 573.595 425.749 572.093 426.529 570.771C433.627 558.769 441.804 562.525 451.497 562.732L458.953 563.398C470.762 562.071 479.026 569.518 481.111 578.765C481.474 580.381 481.643 582.043 481.625 583.733Z" fill="#A3D350"/>
<path d="M452.998 563.007C452.998 563.007 452.098 546.341 435.005 544.38C435.005 544.385 433.627 560.79 452.998 563.007Z" fill="#3A9325"/>
<path d="M452.559 562.994C452.559 562.994 455.694 547.144 467.692 549.44C467.692 549.44 468.908 563.292 452.559 562.994Z" fill="#3A9325"/>
<path d="M452.549 563.994C452.549 563.994 448.821 552.117 453.968 545.863L457.76 547.916C457.76 547.916 452.232 551.63 454.037 564.05C454.037 564.05 453.605 565.243 452.549 563.994Z" fill="#3D6335"/>
<path d="M481.625 583.733C481.474 595.064 475.119 611.556 449.766 610.642C427.181 609.811 420.767 588.393 424.647 575.243C422.25 597.034 444.94 606.18 463.953 601.621C474.628 599.068 480.408 587.975 481.111 578.765C481.474 580.381 481.643 582.043 481.625 583.733Z" fill="#89AF3F"/>
<path d="M457.76 566.681C460.203 566.336 462.751 566.355 465.221 566.947C467.7 567.502 470.074 568.678 472.062 570.34C474.041 572.016 475.57 574.242 476.332 576.708C477.126 579.151 477.113 581.823 476.305 584.155C476.429 579.224 474.362 574.738 470.832 571.777C469.087 570.28 467.026 569.155 464.799 568.361C462.567 567.576 460.207 567.066 457.76 566.681Z" fill="#C3EA7A"/>
<path d="M391.417 336.427L528.294 359.315C528.567 359.361 528.751 359.618 528.705 359.891L499.089 537.003C499.043 537.275 498.786 537.459 498.513 537.414L361.636 514.525C361.364 514.48 361.18 514.222 361.225 513.95L390.841 336.838C390.887 336.565 391.145 336.381 391.417 336.427Z" fill="white" stroke="#001E3B" stroke-width="3"/>
<path d="M439.512 348.744C439.512 348.744 439.867 329.584 461.401 333.307C482.936 337.031 478.273 355.445 478.273 355.445L439.512 348.744Z" fill="#2CDA89"/>
<rect x="404.506" y="354.52" width="29.1383" height="26.2245" rx="1" transform="rotate(9.80889 404.506 354.52)" fill="#B6C7D2"/>
<rect x="397.557" y="394.717" width="29.1383" height="26.2245" rx="1" transform="rotate(9.80889 397.557 394.717)" fill="#B6C7D2"/>
<rect x="390.607" y="434.915" width="29.1383" height="26.2245" rx="1" transform="rotate(9.80889 390.607 434.915)" fill="#B6C7D2"/>
<rect x="383.657" y="475.112" width="29.1383" height="26.2245" rx="1" transform="rotate(9.80889 383.657 475.112)" fill="#B6C7D2"/>
<line x1="445.156" y1="366.194" x2="491.503" y2="374.207" stroke="#D8D8D8" stroke-width="2.5" stroke-linecap="round"/>
<line x1="443.666" y1="374.807" x2="472.786" y2="379.842" stroke="#D8D8D8" stroke-width="2.5" stroke-linecap="round"/>
<line x1="442.176" y1="383.421" x2="477.039" y2="389.448" stroke="#D8D8D8" stroke-width="2.5" stroke-linecap="round"/>
<line x1="431.256" y1="446.588" x2="477.604" y2="454.601" stroke="#D8D8D8" stroke-width="2.5" stroke-linecap="round"/>
<line x1="429.766" y1="455.202" x2="458.887" y2="460.236" stroke="#D8D8D8" stroke-width="2.5" stroke-linecap="round"/>
<line x1="428.277" y1="463.815" x2="463.14" y2="469.843" stroke="#D8D8D8" stroke-width="2.5" stroke-linecap="round"/>
<line x1="438.206" y1="406.391" x2="464.455" y2="410.929" stroke="#D8D8D8" stroke-width="2.5" stroke-linecap="round"/>
<line x1="436.717" y1="415.004" x2="485.935" y2="423.514" stroke="#D8D8D8" stroke-width="2.5" stroke-linecap="round"/>
<line x1="435.227" y1="423.618" x2="470.089" y2="429.645" stroke="#D8D8D8" stroke-width="2.5" stroke-linecap="round"/>
<line x1="424.306" y1="486.785" x2="450.555" y2="491.323" stroke="#D8D8D8" stroke-width="2.5" stroke-linecap="round"/>
<line x1="422.817" y1="495.399" x2="472.035" y2="503.908" stroke="#D8D8D8" stroke-width="2.5" stroke-linecap="round"/>
<line x1="421.328" y1="504.013" x2="456.191" y2="510.04" stroke="#D8D8D8" stroke-width="2.5" stroke-linecap="round"/>
<path d="M414.084 377.944C413.817 377.889 413.562 377.794 413.319 377.672C412.533 377.27 411.933 376.535 411.679 375.67L408.989 366.396C408.641 365.21 409.306 363.956 410.447 363.596C411.602 363.236 412.81 363.922 413.158 365.108L415.499 373.149L434.208 366.272C435.336 365.86 436.581 366.473 436.986 367.645C437.39 368.817 436.802 370.103 435.667 370.522L415.812 377.812C415.264 378.031 414.662 378.067 414.084 377.944ZM414.346 373.569C414.333 373.575 414.321 373.575 414.302 373.582L414.346 373.569Z" fill="#0082FF"/>
<path d="M407.134 418.141C406.867 418.086 406.612 417.991 406.37 417.87C405.584 417.467 404.984 416.732 404.729 415.867L402.039 406.593C401.692 405.407 402.357 404.153 403.498 403.793C404.652 403.433 405.861 404.119 406.208 405.305L408.55 413.346L427.259 406.469C428.387 406.057 429.632 406.67 430.036 407.842C430.441 409.014 429.852 410.3 428.718 410.719L408.862 418.009C408.314 418.228 407.713 418.264 407.134 418.141ZM407.397 413.766C407.384 413.773 407.371 413.773 407.353 413.78L407.397 413.766Z" fill="#0082FF"/>
</svg>
