<svg width="489" height="471" viewBox="0 0 489 471" fill="none" xmlns="http://www.w3.org/2000/svg">
<path d="M217.411 2.38864C192.398 5.79695 109.84 20.9192 52.2188 96.263C40.8685 111.105 -18.1881 191.926 5.59179 277.4C39.8628 400.585 223.996 453.679 349.298 414.907C415.999 394.266 492.61 339.369 487.846 290.622C483.302 244.125 407.34 230.014 406.583 178.237C406.006 138.789 449.835 128.688 447.881 96.263C444.727 43.9538 325.68 -12.3647 217.411 2.38864Z" fill="#EBF4F8"/>
<g opacity="0.39">
<g opacity="0.74">
<path opacity="0.39" d="M365.133 264.86L359.735 258.937L360.255 257.948L359.355 258.52L359.347 258.511L359.333 258.533L295.052 299.306L282.285 254.939L277.483 256.321L290.654 302.095L234.316 337.829L300.735 345.569L301.313 340.605L248.898 334.497L292.46 308.372L303.112 345.39L307.915 344.008L306.695 339.771L309.825 341.922L365.133 264.86ZM296.895 305.713L348.547 274.736L306.26 338.26L296.895 305.713Z" fill="#1E6EBB"/>
<path opacity="0.39" d="M375.499 277.936C374.648 275.597 372.182 274.316 369.818 274.888C363.093 255.79 360.855 249.506 360.051 247.343L366.085 243.746C366.989 243.708 367.895 243.431 368.7 242.887C371.019 241.319 371.627 238.169 370.06 235.85C368.492 233.531 365.342 232.922 363.022 234.49C361.203 235.72 360.443 237.923 360.953 239.935L348.958 247.084C347.314 246.069 345.16 246.041 343.455 247.193C341.136 248.761 340.527 251.912 342.095 254.231C343.663 256.549 346.814 257.159 349.133 255.591C350.212 254.861 350.916 253.787 351.207 252.615L355.725 249.922C357.196 253.917 362.216 267.371 365.418 276.464L392.167 338.367L396.847 336.615L375.499 277.936Z" fill="#1E6EBB"/>
<path opacity="0.39" d="M331.453 353.606L326.863 353.471L305.322 342.884L304.465 344.627L322.179 353.334L320.631 353.289C319.359 353.252 318.288 354.261 318.25 355.533C318.214 356.806 319.223 357.876 320.495 357.914L331.318 358.23C332.589 358.268 333.66 357.258 333.698 355.985C333.735 354.714 332.724 353.643 331.453 353.606Z" fill="#1E6EBB"/>
<path opacity="0.39" d="M240.202 384.171C213.731 383.396 192.825 361.23 193.6 334.759C194.375 308.288 216.541 287.383 243.012 288.157C269.483 288.932 290.388 311.098 289.614 337.569C289.365 346.054 286.876 354.329 282.416 361.499C278.055 368.512 271.922 374.319 264.682 378.293C257.221 382.388 248.756 384.42 240.202 384.171ZM242.817 294.817C220.018 294.15 200.928 312.155 200.26 334.954C199.593 357.753 217.598 376.844 240.397 377.511C247.766 377.727 255.054 375.977 261.477 372.452C267.716 369.028 273 364.023 276.76 357.981C280.598 351.809 282.74 344.683 282.954 337.375C283.621 314.575 265.616 295.484 242.817 294.817Z" fill="#001E3B"/>
<path opacity="0.39" d="M394.675 388.691C368.204 387.916 347.298 365.751 348.073 339.28C348.847 312.808 371.013 291.903 397.485 292.678C423.956 293.453 444.861 315.619 444.087 342.09C443.838 350.575 441.35 358.85 436.889 366.02C432.527 373.032 426.396 378.839 419.156 382.813C411.694 386.909 403.228 388.942 394.675 388.691ZM397.29 299.337C374.492 298.67 355.4 316.676 354.733 339.475C354.066 362.273 372.071 381.364 394.871 382.032C402.239 382.247 409.528 380.498 415.951 376.973C422.19 373.548 427.474 368.544 431.233 362.501C435.072 356.33 437.213 349.204 437.428 341.895C438.094 319.096 420.089 300.005 397.29 299.337Z" fill="#001E3B"/>
<path opacity="0.39" d="M296.311 251.112C294.086 248.825 280.981 250.594 278.475 250.798C275.97 251.003 266.663 248.717 264.088 248.919C261.513 249.121 262.296 253.241 262.296 253.241C265.961 263.208 278.644 259.274 280.421 257.867C282.198 256.461 288.326 255.877 292.916 255.595C297.507 255.314 298.534 253.399 296.311 251.112Z" fill="#EF4C36"/>
<path opacity="0.39" d="M305.879 332.212C298.983 332.01 293.228 337.438 293.026 344.335C292.824 351.231 298.251 356.986 305.148 357.187C312.045 357.389 317.799 351.963 318.002 345.066C318.203 338.169 312.775 332.414 305.879 332.212Z" fill="#1E6EBB"/>
<path opacity="0.39" d="M385.331 340.574C385.157 346.508 389.826 351.458 395.76 351.632C401.693 351.805 406.643 347.136 406.817 341.203C406.991 335.269 402.322 330.319 396.389 330.145C390.455 329.972 385.504 334.641 385.331 340.574Z" fill="#001E3B"/>
<path opacity="0.39" d="M230.824 337.244C230.65 343.178 235.319 348.128 241.252 348.302C247.186 348.476 252.136 343.807 252.31 337.873C252.484 331.94 247.814 326.99 241.882 326.816C235.948 326.642 230.997 331.312 230.824 337.244Z" fill="#001E3B"/>
</g>
</g>
<path d="M188.307 146.522C188.307 146.522 177.966 169.02 175.386 171.653C172.805 174.286 125.453 197.857 121.416 198.851C117.381 199.846 108.771 196.018 102.394 196.767C96.0186 197.517 94.4262 202.998 99.2837 206.185C104.141 209.373 120.522 211.09 124.909 209.187C129.295 207.284 183.149 190.119 189.539 183.111C195.93 176.103 206.312 153.444 206.312 153.444L188.307 146.522Z" fill="#DC8D6F"/>
<path d="M206.111 119.772C216.927 122.274 216.963 133.591 214.804 143.27C213.135 150.755 209.955 157.816 205.662 164.171C200.89 171.236 193.208 182.499 189.318 187.61C184.276 194.237 129.728 210.529 129.728 210.529C129.728 210.529 123.557 200.901 124.105 194.401C124.105 194.401 167.182 174.85 171.937 168.801C176.69 162.751 196.463 117.541 206.111 119.772Z" fill="#20B872"/>
<path d="M269.813 427.294C297.53 426.632 324.561 422.561 349.298 414.907C376.239 406.57 404.795 392.642 428.954 375.79C425.533 373.753 421.537 372.58 417.265 372.58C416.008 372.58 414.775 372.686 413.572 372.88C412.619 358.312 400.509 346.789 385.7 346.789C379.034 346.789 372.917 349.127 368.114 353.022C363.406 341.653 352.207 333.652 339.135 333.652C321.816 333.652 307.777 347.691 307.777 365.01C307.777 367.656 308.108 370.224 308.725 372.679C308.036 372.616 307.34 372.579 306.635 372.579C299.232 372.579 292.653 376.095 288.466 381.544C286.42 371.53 277.57 363.994 266.952 363.994C261.711 363.994 256.901 365.832 253.125 368.895C249.423 359.955 240.618 353.665 230.339 353.665C219.056 353.665 209.549 361.248 206.62 371.594C202.593 366.941 196.649 363.995 190.012 363.995C184.771 363.995 179.961 365.833 176.185 368.896C172.483 359.956 163.677 353.666 153.399 353.666C139.782 353.666 128.743 364.705 128.743 378.322C128.743 380.402 129.004 382.422 129.489 384.352C128.947 384.303 128.4 384.274 127.846 384.274C121.038 384.274 115.114 388.052 112.052 393.625C154.623 414.611 204.663 426.135 253.558 427.293H269.813V427.294Z" fill="#2CDA89"/>
<path d="M417.673 460.741C417.673 465.965 341.016 470.199 246.455 470.199C151.893 470.199 75.2368 465.965 75.2368 460.741C75.2368 455.518 151.894 451.284 246.455 451.284C341.016 451.284 417.673 455.518 417.673 460.741Z" fill="#DBE2EA"/>
<path d="M380.321 459.345L289.277 459.387C283.6 459.39 278.995 454.789 278.993 449.113L278.938 332.149L390.541 332.096L390.596 449.06C390.598 454.737 385.998 459.342 380.321 459.345Z" fill="#EF4C36"/>
<path d="M393.537 330.125H275.943V337.828H393.537V330.125Z" fill="#001E3B"/>
<path d="M369.589 371.874H296.935V376.198H369.589V371.874Z" fill="#001E3B"/>
<path d="M301.055 376.213L299.5 428L367.5 427.543L365.47 376.183L301.055 376.213Z" fill="#D33726"/>
<path d="M432.495 46.4123C432.495 65.4136 417.091 80.8175 398.09 80.8175C379.088 80.8175 363.685 65.4136 363.685 46.4123C363.685 27.4106 379.088 12.0072 398.09 12.0072C417.091 12.0072 432.495 27.4111 432.495 46.4123Z" fill="#FED130"/>
<path d="M465.443 51.9518C466.807 50.6181 467.655 48.758 467.655 46.6993C467.655 42.6431 464.367 39.3551 460.311 39.3551C459.908 39.3551 459.512 39.3886 459.127 39.4514C458.821 34.7803 454.938 31.0851 450.189 31.0851C448.052 31.0851 446.091 31.8347 444.551 33.0836C443.041 29.4379 439.45 26.8729 435.259 26.8729C429.705 26.8729 425.204 31.3747 425.204 36.9274C425.204 37.776 425.31 38.5996 425.508 39.3865C425.287 39.3668 425.064 39.3551 424.837 39.3551C420.781 39.3551 417.493 42.6431 417.493 46.6993C417.493 48.8655 418.431 50.8125 419.922 52.1567C419.444 52.6604 419.149 53.3397 419.149 54.0893C419.149 55.6406 420.406 56.8987 421.958 56.8987H463.621C465.173 56.8987 466.43 55.6406 466.43 54.0893C466.432 53.2321 466.047 52.4671 465.443 51.9518Z" fill="white"/>
<path d="M343.743 81.2423C345.77 79.2619 347.03 76.4994 347.03 73.4414C347.03 67.4169 342.146 62.5329 336.121 62.5329C335.522 62.5329 334.935 62.5834 334.362 62.6761C333.909 55.7381 328.141 50.2508 321.089 50.2508C317.915 50.2508 315.001 51.3635 312.714 53.2188C310.472 47.804 305.139 43.9943 298.913 43.9943C290.666 43.9943 283.979 50.6804 283.979 58.9281C283.979 60.1882 284.137 61.4111 284.431 62.5802C284.103 62.5504 283.772 62.5329 283.436 62.5329C277.411 62.5329 272.527 67.4169 272.527 73.4414C272.527 76.6591 273.921 79.5499 276.136 81.5463C275.426 82.2949 274.987 83.3037 274.987 84.4169C274.987 86.7211 276.855 88.5892 279.159 88.5892H341.04C343.344 88.5892 345.212 86.7211 345.212 84.4169C345.211 83.1451 344.64 82.0074 343.743 81.2423Z" fill="white"/>
<path d="M435.175 153.074C436.739 151.546 437.711 149.415 437.711 147.056C437.711 142.41 433.943 138.643 429.296 138.643C428.834 138.643 428.381 138.681 427.94 138.753C427.59 133.401 423.14 129.168 417.701 129.168C415.253 129.168 413.005 130.027 411.241 131.458C409.511 127.281 405.397 124.342 400.596 124.342C394.234 124.342 389.076 129.5 389.076 135.861C389.076 136.834 389.198 137.777 389.425 138.679C389.171 138.656 388.916 138.643 388.657 138.643C384.01 138.643 380.243 142.41 380.243 147.056C380.243 149.538 381.318 151.769 383.027 153.309C382.478 153.886 382.14 154.664 382.14 155.522C382.14 157.3 383.581 158.741 385.358 158.741H433.089C434.867 158.741 436.308 157.3 436.308 155.522C436.308 154.541 435.867 153.664 435.175 153.074Z" fill="white"/>
<path d="M152.324 134.48C153.698 133.137 154.553 131.264 154.553 129.19C154.553 125.105 151.241 121.793 147.156 121.793C146.75 121.793 146.352 121.827 145.963 121.891C145.656 117.187 141.745 113.465 136.963 113.465C134.811 113.465 132.835 114.22 131.284 115.478C129.764 111.806 126.147 109.223 121.926 109.223C116.333 109.223 111.8 113.756 111.8 119.349C111.8 120.204 111.907 121.033 112.106 121.826C111.884 121.806 111.659 121.793 111.431 121.793C107.346 121.793 104.035 125.105 104.035 129.19C104.035 131.372 104.979 133.333 106.482 134.687C106 135.193 105.703 135.877 105.703 136.632C105.703 138.195 106.969 139.461 108.532 139.461H150.491C152.053 139.461 153.32 138.195 153.32 136.632C153.32 135.77 152.933 134.999 152.324 134.48Z" fill="white"/>
<path d="M193.807 142.795C193.807 142.795 211.908 152.48 222.227 150.057C222.227 150.057 227.862 112.607 212.91 112.787C197.958 112.969 193.807 142.795 193.807 142.795Z" fill="#1A63A0"/>
<path d="M193.807 69.5837C192.296 68.5461 191.304 66.8073 191.304 64.8359C191.304 61.9909 193.369 59.634 196.081 59.1677C196.08 59.1373 196.076 59.108 196.076 59.0777C196.076 55.8978 198.654 53.32 201.834 53.32C203.149 53.32 204.357 53.7656 205.327 54.5072C206.127 52.2888 208.244 50.7001 210.738 50.7001C212.929 50.7001 214.833 51.9241 215.807 53.7251C216.862 52.3963 218.488 51.5408 220.317 51.5408C223.37 51.5408 225.861 53.9179 226.056 56.9216C226.751 56.624 227.515 56.4584 228.319 56.4584C231.5 56.4584 234.077 59.0362 234.077 62.2166C234.077 62.9114 233.947 63.5747 233.722 64.1912C236.368 64.7124 238.364 67.0416 238.364 69.8393C238.364 71.9699 237.203 73.8257 235.483 74.8213C237.203 75.8174 238.364 77.6733 238.364 79.8039C238.364 82.1139 237 84.1012 235.036 85.018C235.537 85.8719 235.828 86.8627 235.828 87.9243C235.828 91.1042 233.251 93.682 230.071 93.682C226.89 93.682 224.312 91.1042 224.312 87.9243C224.312 86.6455 224.735 85.4679 225.44 84.5122C222.816 86.3804 219.55 87.6096 215.943 87.8822C208.642 88.4343 202.117 84.9126 199.298 79.4929C198.716 79.691 198.094 79.8039 197.445 79.8039C194.265 79.8039 191.687 77.2255 191.687 74.0456C191.687 72.2456 192.514 70.64 193.807 69.5837ZM227.64 82.7096C227.633 82.6968 227.625 82.6851 227.617 82.6723C227.585 82.7048 227.55 82.7362 227.517 82.7692C227.557 82.749 227.599 82.7288 227.64 82.7096Z" fill="#001E3B"/>
<path d="M206.829 444.849C206.829 444.849 201.973 438.782 200.061 440.919C198.148 443.056 196.235 446.514 192.41 449.195C188.584 451.875 175.636 457.854 174.165 459.498C172.693 461.142 173.723 464.879 176.078 466.374C178.432 467.869 189.761 469.214 193.734 467.57C197.707 465.926 199.031 462.936 204.475 463.235C209.919 463.534 218.159 464.132 220.218 460.544C222.278 456.956 218.6 451.425 218.894 448.287C219.188 445.148 218.445 441.283 216.982 442.606C215.518 443.929 214.333 445.298 211.831 445.596C209.33 445.896 206.829 444.849 206.829 444.849Z" fill="#70808B"/>
<path d="M286.743 427.406C286.743 427.406 279.712 424.224 278.957 427.009C278.202 429.794 278.035 433.757 275.815 437.905C273.596 442.053 264.707 453.333 264.126 455.476C263.546 457.617 266.128 460.478 268.892 460.73C271.657 460.983 282.362 456.979 285.174 453.687C287.985 450.396 287.836 447.121 292.825 444.888C297.814 442.654 305.43 439.403 305.671 435.257C305.912 431.111 300.17 427.867 299.035 424.931C297.901 421.996 295.518 418.891 294.801 420.744C294.085 422.596 293.636 424.36 291.538 425.776C289.44 427.191 286.743 427.406 286.743 427.406Z" fill="#70808B"/>
<path d="M186.957 234.67C186.957 234.67 185.136 329.503 186.957 348.008C188.778 366.512 199.515 443.177 199.515 443.177C199.515 443.177 205.143 455.098 216.982 442.608C216.982 442.608 213.699 345.695 215.127 335.98C216.554 326.266 232.507 236.984 232.507 236.984L186.957 234.67Z" fill="#010C16"/>
<path d="M186.873 239.287C186.873 239.287 217.92 329.041 225.206 341.762C232.491 354.483 278.957 427.009 278.957 427.009C278.957 427.009 292.927 431.427 295.691 419.453C295.691 419.453 254.348 337.367 253.892 328.578C253.438 319.789 239.777 228.195 239.777 228.195L186.873 239.287Z" fill="#001E3B"/>
<path d="M208.696 110.422C208.696 110.422 198.268 121.501 193.624 132.509C188.98 143.518 185.219 203.47 184.187 214.216C183.155 224.962 181.091 240.689 181.091 240.689C181.091 240.689 231.916 249.862 243.783 239.378C243.783 239.378 243.346 149.171 241.282 134.492C239.218 119.815 228.229 105.807 221.596 105.221C214.962 104.635 208.696 110.422 208.696 110.422Z" fill="#2CDA89"/>
<path d="M207.534 101.766L208.484 112.792C208.484 112.792 218.313 117.686 224.313 108.862V93.5366L207.534 101.766Z" fill="#DC8D6F"/>
<path d="M207.534 104.914C207.534 104.914 208.839 108.401 213.026 108.728C217.213 109.056 224.313 98.4686 224.313 98.4686L207.534 104.914Z" fill="#633930"/>
<path d="M195.981 67.5686C195.981 67.5686 192.738 92.6113 195.981 100.19C199.225 107.769 216.415 105.132 222.578 100.19C228.74 95.2472 231.335 82.067 227.767 80.7488C227.767 80.7488 226.219 85.8783 220.51 81.5288C214.802 77.1792 217.043 67.5686 205.229 69.202C199.505 69.9936 195.981 67.5686 195.981 67.5686Z" fill="#DC8D6F"/>
<path d="M1.12069 254.661H129.293V239.471H0.0527344C0.166664 244.489 0.51218 249.555 1.12069 254.661Z" fill="#DBE2EA"/>
<path d="M105.102 254.661H1.12061C2.01607 262.175 3.46841 269.769 5.59155 277.4C19.2817 326.609 56.887 364.631 105.102 390.081V254.661Z" fill="#DBE2EA"/>
<path d="M2.08453 262.893H105.102V254.661H0.875488C1.20077 257.395 1.60432 260.14 2.08453 262.893Z" fill="#B8C2CC"/>
<path d="M60.3159 86.252H120.183L104.315 46.3309C89.1966 56.9173 74.1866 70.0208 60.3159 86.252Z" fill="#B8C2CC"/>
<path d="M86.1676 162H73.959C71.4754 162 69.4556 164.02 69.4556 166.503V173.293C69.4556 175.776 71.4754 177.797 73.959 177.797H86.1676C88.6517 177.797 90.6715 175.776 90.6715 173.293V166.503C90.6715 164.019 88.6517 162 86.1676 162ZM88.0527 173.292C88.0527 174.332 87.2073 175.178 86.1676 175.178H73.959C72.9198 175.178 72.0744 174.332 72.0744 173.292V166.503C72.0744 165.464 72.9198 164.618 73.959 164.618H86.1676C87.2073 164.618 88.0527 165.464 88.0527 166.503V173.292Z" fill="#B27952"/>
<path d="M96.7346 238.979H50L56.5073 171.55H95.022L96.7346 238.979Z" fill="#E5AE81"/>
<path d="M94.772 171.508H104.272L108.862 238.979H96.7344L94.772 171.508Z" fill="#B27952"/>
<path d="M82.0055 162H69.7964C67.3128 162 65.293 164.02 65.293 166.503V173.293C65.293 175.776 67.3128 177.797 69.7964 177.797H82.0055C84.4891 177.797 86.5089 175.776 86.5089 173.293V166.503C86.5089 164.019 84.4891 162 82.0055 162ZM83.8901 173.292C83.8901 174.332 83.0447 175.178 82.0055 175.178H69.7964C68.7572 175.178 67.9118 174.332 67.9118 173.292V166.503C67.9118 165.464 68.7572 164.618 69.7964 164.618H82.0055C83.0447 164.618 83.8901 165.464 83.8901 166.503V173.292Z" fill="#E5AE81"/>
<path d="M62.3044 157.708H49.3372C46.6993 157.708 44.5532 159.854 44.5532 162.492V169.703C44.5532 172.341 46.6993 174.487 49.3372 174.487H62.3044C64.9424 174.487 67.0879 172.341 67.0879 169.703V162.492C67.0884 159.854 64.9424 157.708 62.3044 157.708ZM64.3067 169.703C64.3067 170.807 63.4086 171.705 62.305 171.705H49.3372C48.2336 171.705 47.3354 170.806 47.3354 169.703V162.492C47.3354 161.388 48.2336 160.489 49.3372 160.489H62.3044C63.408 160.489 64.3062 161.388 64.3062 162.492V169.703H64.3067Z" fill="#B37952"/>
<path d="M73.5288 239.471H23.8906L27.5 167.852H71L73.5288 239.471Z" fill="#E5AE81"/>
<path d="M71 167.852H81.5L86.4093 239.471H73.5284L71 167.852Z" fill="#B37952"/>
<path d="M57.883 157.708H44.9153C42.2779 157.708 40.1318 159.854 40.1318 162.492V169.703C40.1318 172.341 42.2779 174.487 44.9153 174.487H57.883C60.5205 174.487 62.6665 172.341 62.6665 169.703V162.492C62.667 159.854 60.5205 157.708 57.883 157.708ZM59.8848 169.703C59.8848 170.807 58.9867 171.705 57.883 171.705H44.9153C43.8117 171.705 42.9135 170.806 42.9135 169.703V162.492C42.9135 161.388 43.8117 160.489 44.9153 160.489H57.883C58.9867 160.489 59.8848 161.388 59.8848 162.492V169.703Z" fill="#E5AE81"/>
<path d="M182.207 246.237H169.239C166.602 246.237 164.456 248.382 164.456 251.02V258.232C164.456 260.869 166.602 263.015 169.239 263.015H182.207C184.845 263.015 186.99 260.869 186.99 258.232V251.02C186.99 248.382 184.845 246.237 182.207 246.237ZM184.209 258.232C184.209 259.336 183.31 260.234 182.207 260.234H169.239C168.136 260.234 167.238 259.336 167.238 258.232V251.02C167.238 249.916 168.136 249.018 169.239 249.018H182.207C183.31 249.018 184.209 249.916 184.209 251.02V258.232Z" fill="#B27952"/>
<path d="M193.431 328H143.792L145.5 256.38H192.5L193.431 328Z" fill="#E5AE81"/>
<path d="M192.5 256.38L203.5 257L206.312 328H193.431L192.5 256.38Z" fill="#B27952"/>
<path d="M177.785 246.237H164.818C162.18 246.237 160.034 248.382 160.034 251.02V258.232C160.034 260.869 162.18 263.015 164.818 263.015H177.785C180.423 263.015 182.569 260.869 182.569 258.232V251.02C182.569 248.382 180.423 246.237 177.785 246.237ZM179.787 258.232C179.787 259.336 178.889 260.234 177.785 260.234H164.818C163.715 260.234 162.816 259.336 162.816 258.232V251.02C162.816 249.916 163.715 249.018 164.818 249.018H177.785C178.889 249.018 179.787 249.916 179.787 251.02V258.232Z" fill="#E5AE81"/>
<path d="M223.857 157.038C223.857 157.038 226.127 181.695 225.205 185.265C224.283 188.834 195.017 232.895 192.017 235.771C189.016 238.648 179.644 239.628 174.493 243.46C169.342 247.292 170.698 252.836 176.499 253.174C182.298 253.511 197.35 246.822 200.201 242.984C203.052 239.145 241.149 197.389 243.189 188.127C245.228 178.865 242.913 154.049 242.913 154.049L223.857 157.038Z" fill="#DC8D6F"/>
<path d="M225.932 124.972C236.553 121.741 242.233 131.53 245.194 140.994C247.483 148.312 248.254 156.019 247.705 163.669C247.096 172.172 246.062 185.766 245.242 192.137C244.181 200.396 205.046 241.741 205.046 241.741C205.046 241.741 194.893 236.479 192.125 230.572C192.125 230.572 219.692 192.129 220.792 184.515C221.893 176.9 216.459 127.854 225.932 124.972Z" fill="#20B872"/>
</svg>
