<svg width="92" height="85" viewBox="0 0 92 85" fill="none" xmlns="http://www.w3.org/2000/svg">
<path opacity="0.1" d="M91.8968 82.163C91.8968 83.6929 72.1719 84.933 47.8398 84.933C23.5078 84.933 3.78271 83.6929 3.78271 82.163C3.78271 80.6331 23.5078 79.3929 47.8398 79.3929C72.1719 79.3929 91.8968 80.6332 91.8968 82.163Z" fill="#DBE2EA"/>
<path opacity="0.1" d="M62.3697 12.7399C55.7121 0.693563 27.1023 -4.98944 10.9398 9.42188C-1.67836 20.673 0.00207741 38.1869 0.156103 39.5609C2.34355 59.0688 20.9278 75.0451 41.3554 76.336C68.344 78.0416 90.5893 52.1096 87.5316 44.5379C85.4538 39.3927 72.1548 43.9169 65.6877 35.1367C60.2493 27.7532 66.6276 20.4442 62.3697 12.7399Z" fill="#EBF4F8"/>
<path d="M51.6814 5.4952C51.6814 5.4952 52.7311 4.73913 52.8751 3.62236C53.0192 2.5056 51.5063 1.53292 49.5608 0.956455C47.6154 0.3801 45.0686 1.07433 44.0598 1.75883C43.0511 2.44322 43.44 6.86463 43.9065 7.76521C44.3731 8.6659 45.2618 10.0708 45.2618 10.0708L51.6814 5.4952Z" fill="#001E3B"/>
<path d="M51.8818 62.7736L52.7333 67.6684L50.2822 68.0562L48.6047 63.0567L51.8818 62.7736Z" fill="#DC8D6F"/>
<path d="M45.0493 58.6268L42.7924 63.0529L40.5991 61.892L42.2583 56.8864L45.0493 58.6268Z" fill="#AA614C"/>
<path d="M42.721 61.9021C42.721 61.9021 44.2527 61.2004 44.4242 61.7986C44.5959 62.3968 44.6415 63.2503 45.1366 64.1389C45.6319 65.0272 47.6029 67.4372 47.7348 67.8975C47.8668 68.3578 47.3082 68.9798 46.7035 69.0406C46.099 69.1013 43.747 68.2633 43.1241 67.5608C42.5012 66.8582 42.5265 66.1523 41.4293 65.6825C40.3323 65.2128 38.6581 64.5298 38.596 63.6371C38.5339 62.7444 39.7834 62.0321 40.025 61.3972C40.2667 60.7623 40.7812 60.0877 40.9422 60.4852C41.1031 60.8825 41.2054 61.2617 41.6678 61.5618C42.1302 61.8619 42.721 61.9021 42.721 61.9021Z" fill="#20B872"/>
<path d="M45.0492 59.9696C45.0492 59.9696 53.6231 42.9699 51.8744 38.1231C51.1462 36.12 48.0533 34.8846 45.0235 33.4797C40.7697 31.5096 36.3567 29.7268 36.3567 29.7268C36.3567 29.7268 34.0156 32.1847 35.3066 35.6262C35.5312 36.2229 35.9395 36.7492 36.4849 37.234C39.0358 39.5023 44.3447 40.5651 44.822 41.8349C45.4127 43.365 41.5758 56.8863 41.5758 56.8863C41.5758 56.8863 41.9641 58.0958 43.1741 59.0135C44.3841 59.9313 45.0492 59.9696 45.0492 59.9696Z" fill="#135A89"/>
<path d="M64.1206 38.9524L62.2222 36.8691L62.4051 36.5213L62.0883 36.7222L62.0857 36.7193L62.0807 36.727L39.472 51.0673L34.9819 35.4631L33.2931 35.9492L37.9255 52.0485L18.1106 64.6169L41.4713 67.3388L41.6746 65.5932L23.2393 63.445L38.5609 54.2562L42.3073 67.2759L43.9963 66.7901L43.5674 65.2996L44.668 66.0562L64.1206 38.9524ZM40.1206 53.3208L58.287 42.4259L43.4144 64.7682L40.1206 53.3208Z" fill="#2CDA89"/>
<path d="M67.7664 43.551C67.467 42.7284 66.5997 42.2778 65.7686 42.4789C63.4034 35.7622 62.616 33.5521 62.3331 32.7913L64.4556 31.5264C64.7735 31.5126 65.0921 31.4155 65.3754 31.224C66.191 30.6725 66.405 29.5643 65.8535 28.7489C65.302 27.9332 64.194 27.719 63.3784 28.2706C62.7384 28.703 62.471 29.4778 62.6506 30.1856L58.4317 32.6999C57.8533 32.3429 57.0959 32.333 56.4963 32.7385C55.6806 33.2899 55.4665 34.398 56.018 35.2136C56.5694 36.0292 57.6776 36.2434 58.4933 35.6919C58.8728 35.4352 59.1202 35.0574 59.2226 34.6451L60.8117 33.6981C61.3291 35.1034 63.0947 39.8353 64.2208 43.0334L73.6287 64.8055L75.2747 64.1894L67.7664 43.551Z" fill="#2CDA89"/>
<path d="M52.2747 70.1652L50.6602 70.118L43.0842 66.3942L42.7827 67.0075L49.0129 70.0699L48.4685 70.0539C48.0211 70.0408 47.6444 70.396 47.6313 70.8434C47.6182 71.2908 47.9734 71.6675 48.4209 71.6805L52.2271 71.7919C52.6744 71.8051 53.0513 71.4499 53.0644 71.0024C53.0773 70.5551 52.7219 70.1783 52.2747 70.1652Z" fill="white"/>
<path d="M20.1807 80.9155C10.8704 80.6431 3.51762 72.8471 3.79005 63.5368C4.06258 54.2266 11.8587 46.8739 21.1689 47.1464C30.4792 47.4188 37.8319 55.2148 37.5595 64.5251C37.4722 67.5095 36.5966 70.42 35.0282 72.9417C33.494 75.408 31.3372 77.4505 28.791 78.848C26.1664 80.2887 23.1891 81.0036 20.1807 80.9155ZM21.1005 49.4886C13.0818 49.2538 6.36737 55.5867 6.13268 63.6053C5.898 71.6239 12.2307 78.3384 20.2493 78.5731C22.8409 78.649 25.4046 78.0335 27.6633 76.7938C29.8579 75.5893 31.7162 73.8292 33.0384 71.704C34.3885 69.5334 35.1419 67.0273 35.2171 64.4565C35.4517 56.4379 29.1192 49.7233 21.1005 49.4886Z" fill="#001E3B"/>
<path d="M74.5111 82.5055C65.2008 82.233 57.8482 74.437 58.1206 65.1267C58.393 55.8165 66.1892 48.4639 75.4993 48.7363C84.8096 49.0088 92.1624 56.8048 91.89 66.1151C91.8026 69.0995 90.9274 72.0099 89.3586 74.5317C87.8246 76.998 85.6679 79.0405 83.1216 80.438C80.497 81.8787 77.5196 82.5935 74.5111 82.5055ZM75.4309 51.0785C67.4122 50.8439 60.6978 57.1768 60.4631 65.1952C60.2285 73.2139 66.5612 79.9284 74.5797 80.163C77.1713 80.2389 79.7351 79.6237 81.9939 78.3838C84.1883 77.1793 86.0469 75.4192 87.3689 73.294C88.7189 71.1233 89.4723 68.6171 89.5475 66.0463C89.7822 58.0279 83.4496 51.3132 75.4309 51.0785Z" fill="#001E3B"/>
<path d="M51.8561 67.1589C51.8561 67.1589 52.9567 65.8833 53.3617 66.3557C53.7668 66.8281 54.1634 67.5852 54.9835 68.1869C55.8038 68.7887 58.599 70.1593 58.9104 70.5228C59.222 70.8864 58.9732 71.6846 58.4486 71.9915C57.9242 72.2983 55.4368 72.5155 54.578 72.136C53.7192 71.7564 53.4482 71.104 52.2551 71.1336C51.0623 71.1631 49.2557 71.2392 48.8276 70.4534C48.3994 69.6675 49.2392 68.4999 49.1946 67.822C49.15 67.1441 49.3372 66.3166 49.649 66.611C49.9607 66.9053 50.2113 67.2074 50.7568 67.2877C51.3021 67.3682 51.8561 67.1589 51.8561 67.1589Z" fill="#2CDA89"/>
<path d="M39.9148 34.1169C39.1324 33.3126 34.523 33.9347 33.6418 34.0066C32.7604 34.0785 29.4873 33.2744 28.5816 33.3457C27.6761 33.4168 27.9512 34.8656 27.9512 34.8656C29.2403 38.3711 33.7012 36.9876 34.326 36.493C34.9509 35.9986 37.1061 35.793 38.7208 35.6938C40.3354 35.5945 40.6969 34.9212 39.9148 34.1169Z" fill="white"/>
<path d="M43.2803 62.641C40.8547 62.57 38.8307 64.479 38.7597 66.9044C38.6887 69.33 40.5976 71.3539 43.0232 71.4249C45.4487 71.4959 47.4727 69.5871 47.5437 67.1615C47.6147 64.736 45.7058 62.7119 43.2803 62.641Z" fill="#2CDA89"/>
<path d="M48.1894 64.0307C46.1151 59.526 43.5629 54.8722 42.9156 50.5032C42.6422 48.6575 28.78 35.0098 29.1603 31.7115C29.2643 30.8076 29.4427 29.999 29.6452 29.2952C30.2259 26.4857 31.9239 24.6373 31.9239 24.6373C31.9239 24.6373 38.3977 30.3824 39.9839 31.4424C39.9839 31.4424 47.2923 43.0186 47.8006 44.1146C48.9864 46.6702 51.977 63.3217 51.977 63.3217C51.977 63.3217 51.3163 63.6774 50.1832 64.0307C49.05 64.384 48.1894 64.0307 48.1894 64.0307Z" fill="#1E6EBB"/>
<path d="M71.2245 65.5819C71.1635 67.6687 72.8056 69.4099 74.8924 69.4709C76.9792 69.532 78.7203 67.8899 78.7814 65.8032C78.8427 63.7164 77.2004 61.9751 75.1136 61.9141C73.0268 61.8529 71.2856 63.4952 71.2245 65.5819Z" fill="#001E3B"/>
<path d="M16.882 64.4107C16.8209 66.4975 18.4632 68.2388 20.5499 68.2998C22.6367 68.3609 24.3779 66.7187 24.4389 64.6319C24.5 62.5452 22.8579 60.804 20.771 60.7429C18.6842 60.6818 16.9431 62.3239 16.882 64.4107Z" fill="#001E3B"/>
<path d="M40.5214 31.504C40.5107 31.8951 37.7311 32.3137 37.4293 32.3516C35.7642 32.5609 34.0838 32.2682 32.4464 31.9813C31.484 31.8126 28.5303 31.5121 29.0045 29.9517C29.9109 26.9687 30.9407 24.1507 32.5149 21.4503C34.0543 18.8096 35.8848 16.3345 37.967 14.0964C39.7613 12.1681 41.9597 11.162 44.5372 10.765C45.5017 11.8189 47.1648 11.9876 47.1747 11.9887C47.2644 11.9976 47.5714 12.5828 47.6049 12.6643C47.7639 13.049 47.7618 13.5218 47.7584 13.9352C47.7351 16.8395 46.1198 19.4687 44.4614 21.8529C42.397 24.8203 40.6194 27.7569 40.5214 31.504Z" fill="white"/>
<path d="M48.2319 10.4712L46.5232 12.4747C46.5232 12.4747 44.6388 12.2242 43.9067 11.1186L45.6437 8.37231L48.2319 10.4712Z" fill="#DC8D6F"/>
<path d="M48.0092 10.7325L45.262 8.97595C45.262 8.97595 45.6608 11.4062 47.3622 11.4912L48.0092 10.7325Z" fill="#AA614C"/>
<path d="M45.076 7.98619C45.124 11.1015 49.916 11.0818 49.916 11.0818C50.9279 10.9882 51.6066 7.0577 51.7303 4.83399C51.7663 4.18607 51.185 3.67303 50.548 3.79704C50.0469 3.89451 49.4619 3.95127 48.9648 3.84461C48.5459 3.75475 48.1173 3.92337 47.8885 4.28565C47.6492 4.66464 47.2578 5.06868 46.6354 5.23296C45.3254 5.57886 45.1226 5.83088 45.0264 6.54403C44.9304 7.25707 45.076 7.98619 45.076 7.98619Z" fill="#DC8D6F"/>
<path d="M58.6395 30.7475C57.6248 30.3793 49.744 23.4834 49.744 23.4834L46.4732 16.7114C46.4732 16.7114 44.4125 11.9522 42.5259 12.0537C41.2054 12.1249 41.0401 13.4687 41.3055 15.0666C41.5005 16.2409 41.9279 17.3623 42.5158 18.3977C43.7217 20.5219 46.1439 24.7593 46.7363 25.5762C47.5337 26.6755 55.3993 31.2087 55.7723 31.5717C56.145 31.9347 56.0209 32.3818 56.7835 33.0929C57.5462 33.8039 59.3984 34.4976 60.1782 33.7245C60.9577 32.9514 59.6541 31.1157 58.6395 30.7475Z" fill="#DC8D6F"/>
<path d="M44.1562 13.3882C44.0833 13.273 44.002 13.1684 43.9142 13.0733C42.5956 11.6445 40.1985 12.5691 40.082 14.5099C40.0593 14.8874 40.0879 15.3118 40.193 15.7846C40.5134 17.2267 42.1492 20.4947 43.6119 23.1049C43.8868 22.6866 44.1711 22.2699 44.4613 21.8528C45.2673 20.6942 46.0625 19.4775 46.6703 18.1996C45.6195 16.1103 44.5714 14.0441 44.1562 13.3882Z" fill="#DBE2EA"/>
<path d="M45.7675 6.66104C45.7675 7.0858 45.4232 7.43011 44.9984 7.43011C44.5737 7.43011 44.2292 7.0858 44.2292 6.66104C44.2292 6.23628 44.5737 5.89197 44.9984 5.89197C45.4232 5.89197 45.7675 6.23628 45.7675 6.66104Z" fill="#C56A47"/>
<path d="M38.8816 13.3442C40.182 12.8891 41.5436 12.4794 42.9002 12.9494C44.0812 13.3585 45.0186 14.2742 45.6923 15.3019C46.1032 15.9289 46.4344 16.6037 46.7301 17.2914C46.7954 17.4433 47.0186 17.4773 47.1489 17.4012C47.3056 17.3093 47.3241 17.1349 47.2586 16.9826C46.7144 15.7164 46.0287 14.4645 44.9957 13.5286C43.9778 12.6064 42.6689 12.0301 41.279 12.1286C40.3953 12.1912 39.5497 12.4633 38.7188 12.754C38.5629 12.8086 38.4591 12.9633 38.5051 13.1305C38.5467 13.2817 38.7248 13.3991 38.8816 13.3442Z" fill="#001E3B"/>
<path d="M37.7842 13.8376C37.4211 15.4934 37.4792 17.2293 37.936 18.8613C38.3897 20.4822 39.2337 22.0121 40.4154 23.2165C41.1042 23.9185 41.9167 24.4912 42.8421 24.8335C42.9972 24.8908 43.1774 24.7695 43.2185 24.6198C43.2656 24.4487 43.1604 24.3008 43.0048 24.2433C41.5169 23.6931 40.3556 22.4351 39.5567 21.1011C38.7519 19.7569 38.2743 18.2158 38.1766 16.6522C38.1212 15.763 38.1836 14.8707 38.3744 14.0003C38.4585 13.6165 37.8686 13.4524 37.7842 13.8376Z" fill="#001E3B"/>
<path d="M27.636 27.7934L14.8771 20.1417C13.9104 19.562 13.5967 18.3082 14.1764 17.3414L24.2445 0.553345L40.5044 10.3046L30.4363 27.0928C29.8564 28.0595 28.6028 28.3732 27.636 27.7934Z" fill="#EF4C36"/>
<path d="M41.116 10.2745L23.9832 0L23.3102 1.1222L40.443 11.3967L41.116 10.2745Z" fill="#001E3B"/>
<path d="M33.9759 14.2631L23.3906 7.91516L23.0128 8.54516L33.5981 14.8931L33.9759 14.2631Z" fill="#001E3B"/>
<path d="M23.6129 8.9054L18.0337 15.7346L29.6556 22.7043L32.9977 14.5337L23.6129 8.9054Z" fill="#D33726"/>
<path d="M44.2953 12.4283C42.9767 10.9995 40.5796 11.924 40.4631 13.8648C40.4404 14.2424 40.4689 14.6668 40.574 15.1396C41.127 17.6282 45.5971 25.5546 46.3345 26.1536C47.0719 26.7527 54.9522 31.4533 54.9522 31.4533C54.9522 31.4533 56.9339 30.5778 57.026 28.8726C57.026 28.8726 50.2977 23.622 49.6987 22.6989C49.0996 21.7757 45.4128 14.1258 44.5372 12.7432C44.4643 12.628 44.383 12.5233 44.2953 12.4283Z" fill="white"/>
<path opacity="0.1" d="M66.2396 9.59212C65.506 10.5616 69.1945 12.8685 69.5576 18.1638C69.8435 22.3325 67.7358 23.505 68.4516 26.7354C69.2176 30.1925 72.6594 33.4888 76.4703 33.9245C82.1491 34.5738 87.5973 28.7511 87.8069 23.9704C88.2256 14.4261 67.8331 7.48597 66.2396 9.59212Z" fill="#EBF4F8"/>
</svg>
