<svg width="78" height="86" viewBox="0 0 78 86" fill="none" xmlns="http://www.w3.org/2000/svg">
<path opacity="0.1" d="M50.227 77.2547C50.227 81.8404 42.3189 85.5577 32.5636 85.5577C22.8084 85.5577 14.9001 81.8404 14.9001 77.2547C14.9001 72.6692 22.8084 68.9518 32.5636 68.9518C42.3189 68.9519 50.227 72.6692 50.227 77.2547Z" fill="#DBE2EA"/>
<path opacity="0.1" d="M68.5769 69.3494C68.5769 71.9041 59.7583 73.9752 48.8799 73.9752C38.0015 73.9752 29.1829 71.9041 29.1829 69.3494C29.1829 66.7947 38.0015 64.7236 48.8799 64.7236C59.7583 64.7236 68.5769 66.7947 68.5769 69.3494Z" fill="#DBE2EA"/>
<path opacity="0.1" d="M66.1227 9.33543C69.7348 11.5978 72.6285 14.4847 74.5577 17.8904C77.7913 23.599 78.2491 29.9863 77.3954 36.1426C75.6933 48.4179 66.0038 56.9877 49.0409 58.2241C36.77 59.1185 23.4914 56.5534 13.793 50.6949C8.94756 47.7679 5.06431 43.9986 2.82187 39.666C0.677831 35.5236 -1.28717 28.6395 3.68408 25.1607C9.20902 21.2945 19.9166 26.3366 25.273 22.0686C29.9838 18.3149 23.8337 12.7161 27.96 8.21529C32.9776 2.74238 45.4878 3.09959 53.032 4.46375C57.9726 5.35702 62.4242 7.01881 66.1227 9.33543Z" fill="#EBF4F8"/>
<path d="M40.417 7.46642L38.8437 5.10903L38.5625 3.82357L38.7969 2.76566L39.1249 2.15639L39.4898 1.54712L39.8846 0.984702L40.8122 0.328592L41.6089 0.000488281H42.265H43.7648H44.5145L45.2541 0.281651L45.7801 0.609755L46.1788 1.17208L46.8626 1.7346L47.1925 2.43755L47.7954 2.99997L48.1235 3.82357V4.68724V5.43704C48.1235 5.43704 48.0765 5.85893 47.7485 6.42125L47.4204 6.98377L47.1925 7.46642V8.01483C46.5279 8.4624 45.2541 8.9522 45.2541 8.9522L40.417 7.46642Z" fill="#001E3B"/>
<path d="M32.7821 81.2668C32.7821 81.2668 33.0934 81.7408 33.0711 82.1414C33.049 82.5419 32.7608 83.1205 32.3174 83.4989C31.8739 83.8772 30.3695 84.3905 29.7486 84.3014C29.1279 84.2124 28.8669 83.3375 28.8669 83.3375C28.8669 83.3375 29.1249 81.4516 29.1692 81.5183C29.2135 81.585 32.7821 81.2668 32.7821 81.2668Z" fill="#023056"/>
<path d="M19.1438 73.5592C19.1438 73.5592 19.1742 74.1267 19.3208 74.4946C19.4673 74.8624 28.6773 84.1482 28.9705 84.3116C29.2637 84.4748 30.1079 84.3006 30.1079 84.3006L19.1438 73.5592Z" fill="#001E3B"/>
<path d="M32.7822 81.2668L22.0855 71.9869C22.0855 71.9869 19.7169 72.2937 19.1438 73.5592L28.867 83.3373C28.8669 83.3374 30.7956 81.2283 32.7822 81.2668Z" fill="#064977"/>
<path d="M27.9687 57.6986C27.9687 57.6986 23.1169 76.3203 23.3845 76.4736C23.6518 76.6269 25.2022 76.442 25.2022 76.442L30.108 58.6426L27.9687 57.6986Z" fill="#001E3B"/>
<path d="M23.8592 64.9731C22.5134 69.9186 24.4858 74.7676 28.2647 75.8039C32.0438 76.84 36.1982 73.6709 37.5442 68.7255C38.8901 63.78 36.9176 58.931 33.1387 57.8948C29.3597 56.8585 25.2051 60.0278 23.8592 64.9731Z" fill="#165B93"/>
<path d="M24.9212 64.6419C23.5754 69.5874 25.5479 74.4363 29.3267 75.4726C33.1058 76.5087 37.2602 73.3396 38.6062 68.3942C39.952 63.4488 37.9796 58.5997 34.2007 57.5635C30.4217 56.5272 26.2671 59.6965 24.9212 64.6419Z" fill="#1E6EBB"/>
<path d="M44.9431 51.901C44.9431 51.901 44.6249 57.3783 44.9783 57.723C45.3316 58.068 46.0018 57.8618 45.9969 57.0186C45.9919 56.1753 45.8351 51.3182 45.8351 51.3182L44.9431 51.901Z" fill="#023056"/>
<path d="M44.9619 52.4702H47.5038C47.7508 52.4702 47.953 52.268 47.953 52.021V51.7431C47.953 51.496 47.7508 51.2938 47.5038 51.2938H44.9619C44.7149 51.2938 44.5127 51.496 44.5127 51.7431V52.021C44.5127 52.268 44.7148 52.4702 44.9619 52.4702Z" fill="#023056"/>
<path d="M47.9438 45.8237C47.9438 45.8237 48.1414 45.5156 48.5171 45.8237C48.8928 46.1319 48.8136 46.4693 49.2487 46.9258C49.6837 47.3822 50.0792 47.799 50.2769 48.3151C50.4746 48.831 50.5933 49.1091 50.2769 49.5059C49.9604 49.9029 48.1611 50.4586 47.3307 50.8356C46.5001 51.2127 46.0058 52.344 45.1557 52.8998C44.3055 53.4556 41.7152 54.567 41.3395 54.3883C40.9638 54.2097 40.8451 52.8998 41.6757 52.0264C42.5061 51.1531 43.8111 50.2601 44.4241 48.8707C45.0371 47.4814 44.8937 46.9565 45.262 46.7328C45.6303 46.509 47.9438 45.8237 47.9438 45.8237Z" fill="#1E6EBB"/>
<path d="M43.999 29.9321C43.999 29.9321 43.0614 30.2683 41.1862 31.5455C39.3108 32.8228 38.5742 33.3607 38.1052 33.8985C37.6365 34.4362 38.1263 35.6463 38.5511 36.4866C38.976 37.3269 44.1999 44.3172 44.7691 45.6119L45.3385 46.9065C45.3385 46.9065 45.8408 46.7384 46.3766 47.1083C46.9124 47.4779 47.4817 48.0495 48.0846 47.5789C48.6872 47.1083 48.5868 46.6377 48.5868 46.6377C48.5868 46.6377 47.4148 45.2259 46.9794 44.3857C46.5441 43.5454 46.2762 40.9907 45.4391 39.6464C44.6018 38.3018 43.591 36.9909 43.591 36.9909C43.591 36.9909 45.4391 36.4195 46.5441 36.2178C47.6491 36.0162 48.5931 35.4447 48.5931 35.4447C48.5931 35.4447 49.491 31.7809 48.118 31.1087C46.745 30.4363 43.999 29.9321 43.999 29.9321Z" fill="#875044"/>
<path d="M51.5302 45.6866L49.6482 52.7671L43.5908 54.4075L39.9204 52.0133L40.3785 52.5565L43.9849 55.146L50.4722 53.1459L52.1649 47.1675L51.5302 45.6866Z" fill="#023056"/>
<path d="M34.6575 47.4591L40.001 52.0831L44.2956 54.749L50.2054 52.9787L52.3121 46.0656L51.9244 56.564L41.4702 57.6985L37.9141 54.7206L33.8979 50.2113L34.6575 47.4591Z" fill="#001E3B"/>
<path d="M36.5069 38.5729L35.5293 42.5711L32.6123 43.0345L33.8981 37.4813L36.5069 38.5729Z" fill="#001E3B"/>
<path d="M30.0641 35.5287C30.0641 35.5287 26.9174 33.4936 26.305 33.6632C25.6925 33.8328 22.1445 35.02 22.3557 35.3379C22.5669 35.6559 27.6988 38.8108 28.0789 38.8443C28.4591 38.878 28.7758 38.8443 28.7758 38.8443C28.7758 38.8443 28.6029 39.4715 29.0801 39.3867C29.5573 39.302 30.1908 38.5729 30.1908 38.5729L29.2405 36.6734L30.0641 35.5287Z" fill="#001E3B"/>
<path d="M41.4702 57.6986C41.4702 57.6986 38.8264 59.3688 38.0975 59.8409C37.3685 60.3128 31.196 64.4737 31.196 64.4737C31.196 64.4737 28.8088 68.8811 29.4202 69.8016C30.0316 70.7222 32.0604 70.8424 32.0604 70.8424L45.4219 57.0315L41.4702 57.6986Z" fill="#001E3B"/>
<path d="M51.7211 57.2324C51.7211 57.2324 51.3065 55.6605 49.6713 55.4293C48.036 55.1982 46.0581 56.6546 43.1088 58.4809C40.1595 60.3072 38.3631 61.8098 36.7048 63.035C35.0467 64.2602 32.7205 65.2081 31.8223 66.3177C30.9241 67.4273 30.4405 69.5773 31.4308 70.5019C32.4212 71.4267 35.0006 70.8024 37.2115 69.5772C39.4226 68.3519 42.1648 67.1302 44.0518 66.4795C45.9387 65.8286 48.7731 65.6244 50.224 63.6015C51.675 61.5785 51.721 57.1169 51.721 57.1169" fill="#023056"/>
<path d="M44.9427 60.1052C44.5547 62.4478 45.588 64.5717 47.2506 64.8491C48.9131 65.1265 50.5753 63.4523 50.9633 61.1097C51.3513 58.7671 50.3179 56.6433 48.6554 56.3659C46.9927 56.0885 45.3306 57.7626 44.9427 60.1052Z" fill="#001E3B"/>
<path d="M45.2461 60.1052C44.8581 62.4478 45.8914 64.5717 47.554 64.8491C49.2166 65.1265 50.8788 63.4523 51.2667 61.1097C51.6547 58.7671 50.6214 56.6433 48.9588 56.3659C47.2963 56.0885 45.6341 57.7626 45.2461 60.1052Z" fill="#023056"/>
<path d="M46.5432 60.0895C46.3224 61.4226 46.9105 62.6315 47.8567 62.7895C48.8029 62.9474 49.7491 61.9945 49.9699 60.6612C50.1907 59.3279 49.6026 58.1193 48.6563 57.9612C47.7101 57.8033 46.764 58.7563 46.5432 60.0895Z" fill="#1E6EBB"/>
<path d="M47.6089 68.952H50.1507C50.3978 68.952 50.6001 68.7498 50.6001 68.5027V68.2248C50.6001 67.9777 50.3979 67.7756 50.1507 67.7756H47.6089C47.3618 67.7756 47.1597 67.9778 47.1597 68.2248V68.5027C47.1597 68.7498 47.3617 68.952 47.6089 68.952Z" fill="#064977"/>
<path d="M47.5756 65.7075C47.5756 65.7075 49.1445 60.4518 48.8799 60.0344C48.6152 59.6169 47.9158 59.6622 47.7268 60.4839C47.5378 61.3056 46.5737 66.0679 46.5737 66.0679L47.5756 65.7075Z" fill="#064977"/>
<path d="M58.1 69.3494H59.5595C59.8645 69.3494 60.1141 69.5999 60.1141 69.906V70.5888C60.1141 70.895 59.8645 71.1455 59.5595 71.1455H58.1C57.795 71.1455 57.5454 70.895 57.5454 70.5888V69.906C57.5454 69.5999 57.795 69.3494 58.1 69.3494Z" fill="#001E3B"/>
<path d="M61.2218 68.4285C61.2218 68.4285 61.5853 68.6022 61.5152 69.0712C61.4452 69.5399 61.3868 69.7274 61.0365 69.9619C60.6863 70.1963 60.1141 70.5596 59.6471 70.5009C59.18 70.4423 59.167 70.2545 59.167 70.2545L58.5029 68.6375L61.2218 68.4285Z" fill="#023056"/>
<path d="M52.9056 64.1396C53.0991 64.2367 61.2217 68.4285 61.2217 68.4285C61.2217 68.4285 60.1338 68.4832 59.602 69.0898C59.0703 69.6964 59.1669 70.2545 59.1669 70.2545L51.2375 66.2993L52.9056 64.1396Z" fill="#023056"/>
<path d="M58.3843 36.4215H61.9721C62.2954 36.4215 62.5576 36.1595 62.5576 35.8361V35.474C62.5576 35.1506 62.2954 34.8884 61.9721 34.8884H58.3843C58.061 34.8884 57.7988 35.1506 57.7988 35.474V35.8361C57.7988 36.1595 58.061 36.4215 58.3843 36.4215Z" fill="#023056"/>
<path d="M52.942 62.0797C52.942 62.0797 53.4964 61.8643 53.5143 62.3848C53.5322 62.9055 53.5679 63.8028 53.6752 64.7722C53.7826 65.7415 53.9256 66.6568 53.5859 66.8723C53.2461 67.0878 51.4757 68.3083 48.9364 68.416C46.397 68.5237 45.4135 67.9133 45.1451 67.5544C44.8768 67.1954 44.7875 66.6928 45.3062 66.2081C45.8248 65.7235 46.9514 65.5978 47.8635 64.7363C48.7755 63.8747 49.7768 62.4939 49.8664 62.0354C49.9558 61.577 50.2959 61.1498 50.5729 61.1928C50.8497 61.236 52.8347 61.1821 52.942 62.0797Z" fill="#1E6EBB"/>
<path d="M52.1144 39.4065C52.1144 39.4065 51.454 41.9258 51.454 43.8816C51.454 45.8374 51.7843 47.7268 51.7843 49.4836C51.7843 51.2406 51.5861 54.3566 51.454 55.9808C51.3219 57.6051 51.3219 59.0968 51.0907 59.7928C50.8596 60.489 50.4963 61.384 50.4963 61.384C50.4963 61.384 51.289 61.1188 51.6191 61.9143C51.9494 62.7099 52.0815 63.5055 52.6099 63.5718C53.1383 63.6381 53.2043 63.5718 53.2043 63.5718C53.2043 63.5718 53.0722 61.6492 53.2043 60.953C53.3364 60.2569 54.6573 56.6105 55.2188 55.0526C55.7802 53.4946 56.6059 52.3344 56.1436 50.1134C55.6812 47.8925 55.8858 46.1356 56.2789 45.0086C56.672 43.8815 58.092 40.3014 58.092 40.3014L52.1144 39.4065Z" fill="#A56653"/>
<path d="M38.551 17.3527C38.551 17.3527 37.0899 22.3899 36.9107 23.1095C36.7315 23.8291 34.984 25.763 34.4015 28.5065C33.819 31.25 34.043 32.1945 33.3709 32.5543C32.6988 32.9141 30.2793 34.0384 30.3241 34.5332C30.3689 35.0279 34.0697 35.4777 34.4372 34.803C34.8048 34.1284 35.2528 32.7342 35.9249 31.6098C36.5971 30.4854 38.366 27.2022 39.4978 24.9534C40.6297 22.7047 42.4497 18.0041 42.4497 18.0041L38.551 17.3527Z" fill="#875044"/>
<path d="M62.3398 26.8406C62.3398 26.8406 62.83 30.5478 62.3398 32.5491C61.8496 34.5502 59.6923 37.2733 59.3655 38.3887C59.0385 39.5041 58.5482 40.8492 58.5482 40.8492C58.5482 40.8492 54.3974 42.3255 51.6845 39.5041C51.6845 39.5041 51.8753 34.6159 51.5186 34.5502C51.1616 34.4846 48.0568 36.6499 48.024 36.5515C47.9914 36.4531 48.4816 33.6644 46.5205 32.3194C44.5594 30.9743 43.499 30.0281 43.5971 29.8313C43.6951 29.6345 48.8739 27.5295 48.8739 27.5295L62.3398 26.8406Z" fill="white"/>
<path d="M46.7496 9.61511C46.7496 9.61511 50.3035 9.71625 52.5139 11.2251C54.7244 12.734 59.1043 19.6898 60.7622 22.3624C62.4199 25.0349 62.8721 27.2032 62.3696 27.5058C61.8673 27.8083 60.5109 29.3211 57.5972 30.3297C54.6834 31.3382 49.4587 28.8168 49.0066 28.2622C48.5545 27.7075 42.3753 18.5803 42.0739 18.7317C41.7724 18.883 39.9358 19.3368 37.8901 17.7231C37.8901 17.7231 38.5572 14.3951 40.7174 12.9327C42.8776 11.4704 46.7496 9.61511 46.7496 9.61511Z" fill="#2CDA89"/>
<path d="M42.074 18.7317C42.074 18.7317 41.2022 17.3286 40.9541 16.5587L40.7059 15.7888C40.7059 15.7888 40.2096 18.0383 40.7059 18.8949C40.7059 18.8949 41.6824 18.9573 42.074 18.7317Z" fill="#20B872"/>
<path d="M22.5904 11.3234L21.543 11.7439L28.3156 28.8089L29.328 28.2832L22.5904 11.3234Z" fill="#064977"/>
<path d="M10.686 13.3208L21.543 11.744L22.5904 11.3235L11.458 12.8019L10.686 13.3208Z" fill="#064977"/>
<path d="M28.3154 28.8088L16.098 26.9283L10.6858 13.3207L21.5429 11.7439L28.3154 28.8088Z" fill="#023056"/>
<path d="M22.2632 17.3527C22.1075 17.4272 20.3328 18.1773 20.3328 18.1773L24.7231 28.0222L26.3421 27.2096L22.2632 17.3527Z" fill="#064977"/>
<path d="M13.2424 17.5743L22.263 17.3527L20.3326 18.1773L12.2371 18.3961L13.2424 17.5743Z" fill="#001E3B"/>
<path d="M24.7228 28.0223L16.0981 26.9284L12.2371 18.3961L20.3325 18.1774L24.7228 28.0223Z" fill="#023056"/>
<path d="M16.8095 22.0587C15.749 22.8425 15.2232 24.187 15.0543 25.4599C14.8706 26.8433 15.0285 28.3851 15.8499 29.5501C16.665 30.7063 18.0303 31.3467 19.2558 31.9621C20.782 32.7285 22.2922 33.526 23.7821 34.3617C25.4733 35.3103 27.1379 36.3059 28.7765 37.3434C29.4818 37.7899 28.8307 38.9186 28.1209 38.4693C24.9576 36.4663 21.6929 34.6503 18.3527 32.9634C16.9481 32.2541 15.5292 31.4461 14.6492 30.0904C13.7513 28.707 13.5634 26.9363 13.7724 25.3306C13.9976 23.6003 14.7303 21.9852 16.154 20.9328C16.4385 20.7225 16.8759 20.8875 17.0425 21.1668C17.2388 21.4956 17.0904 21.8509 16.8095 22.0587Z" fill="#064977"/>
<path d="M32.4277 67.8862C32.2593 68.9037 32.708 69.8262 33.4302 69.9467C34.1523 70.0671 34.8743 69.34 35.0429 68.3225C35.2113 67.305 34.7625 66.3824 34.0404 66.262C33.3183 66.1414 32.5963 66.8687 32.4277 67.8862Z" fill="#023056"/>
<path d="M33.5893 70.0467C33.9103 70.0467 34.2302 69.8999 34.5055 69.6226C34.8228 69.3032 35.044 68.8465 35.1283 68.3367C35.3044 67.2735 34.8228 66.3044 34.0547 66.1761C33.2863 66.0471 32.5184 66.8087 32.3424 67.8718C32.258 68.3816 32.3201 68.8857 32.5172 69.2908C32.7192 69.706 33.0384 69.9693 33.416 70.0322C33.4736 70.042 33.5315 70.0467 33.5893 70.0467ZM33.8826 66.3357C33.9303 66.3357 33.9783 66.3397 34.0262 66.3476C34.7001 66.46 35.1178 67.3396 34.9575 68.3082C34.8789 68.7826 34.6748 69.2058 34.3828 69.5C34.0986 69.7862 33.7652 69.9144 33.4444 69.8609C33.1236 69.8073 32.8495 69.5779 32.6728 69.2147C32.4914 68.8415 32.4347 68.3748 32.5132 67.9003C32.6623 67.0007 33.2584 66.3357 33.8826 66.3357Z" fill="#606060"/>
<path d="M48.0653 60.4289C48.0228 60.6853 48.1359 60.9176 48.3178 60.948C48.4997 60.9785 48.6817 60.7951 48.7241 60.5389C48.7666 60.2826 48.6534 60.0502 48.4717 60.0198C48.2897 59.9894 48.1077 60.1727 48.0653 60.4289Z" fill="white"/>
<path d="M31.4591 34.5234C32.4543 35.3815 33.4988 36.2035 34.6114 36.904C35.692 37.5843 36.9619 38.148 38.2677 37.9522C38.7167 37.8849 39.6897 37.5919 39.4613 36.9418C39.37 36.6815 39.0484 36.5162 38.8305 36.3791C38.5592 36.2084 38.2806 36.0504 37.9987 35.8986C36.8589 35.285 35.5243 34.458 34.1794 34.7574C33.6364 34.8783 33.4045 34.0405 33.9491 33.9192C35.2772 33.6237 36.4888 34.1515 37.6536 34.7421C38.2482 35.0437 38.8435 35.3495 39.4024 35.7149C39.8416 36.0019 40.2608 36.3466 40.3383 36.898C40.5186 38.1794 39.1317 38.7536 38.0965 38.8425C36.8306 38.9513 35.5824 38.4855 34.5052 37.8554C33.2002 37.0921 31.9904 36.1239 30.8469 35.1381C30.4234 34.7729 31.0382 34.1605 31.4591 34.5234Z" fill="#023056"/>
<path d="M28.1116 36.3464C28.6599 35.5367 30.8468 35.1379 30.8468 35.1379L34.1149 37.5722C33.9853 38.4774 32.9007 39.8202 32.2371 39.9939C31.5737 40.1676 29.3523 38.4881 28.7176 37.9089C28.0829 37.3298 27.5636 37.156 28.1116 36.3464ZM29.8817 36.6746L32.6246 38.3458C32.6457 38.3586 32.6689 38.3647 32.692 38.3647C32.7359 38.3647 32.7787 38.3423 32.8032 38.302C32.8402 38.2404 32.8207 38.1602 32.7595 38.1228L30.0165 36.4517C29.955 36.4145 29.8753 36.434 29.8381 36.4955C29.8009 36.5571 29.8204 36.6372 29.8817 36.6746Z" fill="#023056"/>
<path d="M35.6066 42.2549C35.6066 42.2549 36.2873 42.3868 36.1513 42.6208C36.0152 42.8549 35.782 43.6352 35.6848 44.0058C35.5877 44.3764 33.898 50.4163 33.898 50.4163L33.7274 51.4521L29.9363 51.9445C29.9363 51.9445 31.9377 43.0545 32.1318 42.903C32.3258 42.7515 33.21 42.5999 33.21 42.5999L35.6066 42.2549Z" fill="#1E6EBB"/>
<path d="M31.7957 46.1983C30.9111 46.028 30.0265 45.8575 29.1419 45.6872C28.8686 45.6344 28.9843 45.2155 29.2571 45.2681C30.1416 45.4384 31.0262 45.609 31.9107 45.7794C32.1841 45.832 32.0683 46.2509 31.7957 46.1983Z" fill="#023056"/>
<path d="M27.7776 45.1069L29.3345 44.962C29.5255 44.9441 29.6963 45.0865 29.7141 45.2783L29.721 45.354C29.7388 45.5458 29.5969 45.7171 29.4059 45.7349L27.849 45.8798C27.6579 45.8977 27.4872 45.7553 27.4694 45.5635L27.4624 45.4878C27.4448 45.2961 27.5866 45.1247 27.7776 45.1069Z" fill="#023056"/>
<path d="M33.8979 51.9446C33.8979 51.9446 33.4908 51.0931 32.7149 50.9869C31.9389 50.8807 31.9696 51.4067 31.2335 51.6393C30.4973 51.8718 29.9361 51.9446 29.9361 51.9446C29.9361 51.9446 28.8702 61.6078 28.0238 65.1837C27.1773 68.7594 25.2021 76.442 25.2021 76.442C25.2021 76.442 24.8625 77.5215 24.9356 77.7414C25.0086 77.9613 26.5178 78.1323 27.2969 77.7414C28.0758 77.3505 28.295 77.0572 28.295 77.0572L29.9503 69.9467L31.813 61.7628C31.813 61.7628 34.6734 55.9892 34.3038 54.1679C33.9342 52.3464 33.8979 51.9446 33.8979 51.9446Z" fill="#023056"/>
<path d="M46.2077 7.50509L47.1926 10.4484C47.1926 10.4484 46.0842 12.625 44.6385 13.1329L43.3157 10.6177C43.3157 10.6177 45.5118 7.343 46.2077 7.50509Z" fill="#A56653"/>
<path d="M46.2078 7.505L46.5282 8.46237C46.5282 8.46237 46.1351 10.4797 45.137 11.1428C44.1387 11.8057 43.9238 11.7735 43.9238 11.7735L43.3159 10.6176L46.2078 7.505Z" fill="#875044"/>
<path d="M45.5059 6.19415C45.5039 5.51618 46.2869 4.93406 46.7527 5.68073C47.2185 6.42729 46.0561 7.68463 46.0561 7.68463C46.0561 7.68463 45.9722 9.38679 44.7833 10.2588C43.5945 11.1307 41.7941 11.2438 41.2267 9.95813C40.8579 9.12239 40.4506 7.62446 40.2107 6.67817C40.077 6.15015 39.971 5.61536 39.8922 5.07636C39.8317 4.66241 40.1593 4.29452 40.5775 4.30687C41.0595 4.32127 41.6471 4.28472 42.0141 4.07186C42.724 3.66046 43.9848 3.67859 44.1881 4.75668C44.1881 4.75668 44.3583 5.57371 44.6524 5.67181C44.9465 5.76981 45.5059 6.19415 45.5059 6.19415Z" fill="#A56653"/>
<path d="M33.1849 52.316C33.1849 52.316 32.8245 50.1956 34.5743 50.4164C36.3239 50.6373 37.7033 52.7809 37.9143 53.6074C38.1252 54.4339 37.662 57.0166 37.3018 57.5331C36.9415 58.0497 35.3463 58.463 34.9088 59.212C34.4713 59.961 34.1883 61.0199 33.6223 61.743C33.0562 62.4662 31.9755 63.1635 31.7182 63.1635C31.4609 63.1635 31.8983 61.3814 32.207 59.9093C32.5158 58.4372 33.2878 56.0352 33.2878 54.8729C33.2878 53.7107 33.1849 52.316 33.1849 52.316Z" fill="#064977"/>
<path d="M29.5309 58.1271C29.5309 58.1271 30.0969 54.5889 30.1999 53.2457C30.3028 51.9028 30.4315 51.5929 30.1999 51.6445C29.9684 51.6961 28.6046 54.1961 28.2958 54.8831C27.9871 55.5702 27.2152 57.554 27.4467 57.6986C27.6784 57.8431 27.8841 57.4815 28.3216 58.1271C28.759 58.7729 29.2736 59.0312 29.3765 58.7987C29.4795 58.5661 29.5309 58.1271 29.5309 58.1271Z" fill="#064977"/>
<path d="M47.2027 65.1588C48.6276 65.4582 49.9896 66.8043 49.9917 68.3188C49.9921 68.5985 49.5592 68.599 49.5588 68.3188C49.5568 66.9907 48.3236 65.8375 47.0875 65.5778C46.815 65.5206 46.9303 65.1016 47.2027 65.1588Z" fill="#064977"/>
<path d="M44.9428 53.1422C44.2935 52.5311 43.2316 51.4187 42.2373 51.7377C41.9713 51.823 41.8574 51.4036 42.1222 51.3187C43.3003 50.9407 44.4738 52.1054 45.249 52.835C45.4527 53.0267 45.1461 53.3334 44.9428 53.1422Z" fill="#023056"/>
<path d="M47.1171 18.9028C47.1171 18.9028 44.7495 25.4412 43.5907 27.0768C42.4319 28.7125 37.6158 33.5402 37.0891 33.6533C36.5623 33.7664 35.0874 34.8574 35.0874 35.6551C35.0874 36.4528 35.3508 37.4496 36.773 37.3989C38.1952 37.3482 38.6166 35.0305 39.5647 34.5037C40.5128 33.9771 46.0876 30.37 47.8443 28.4525C49.6008 26.535 51.0345 21.1413 51.0345 21.1413C51.0345 21.1413 47.9665 20.2655 47.1171 18.9028Z" fill="#A56653"/>
<path d="M52.626 20.9428C52.626 20.9428 54.8362 12.3123 51.1041 11.9707C47.3721 11.6289 46.179 18.8956 46.179 18.8956C46.179 18.8956 48.2221 22.1776 52.626 20.9428Z" fill="#20B872"/>
</svg>
