<svg width="515" height="570" viewBox="0 0 515 570" fill="none" xmlns="http://www.w3.org/2000/svg">
<path opacity="0.1" d="M317.187 514.684C317.187 545.234 264.501 570 199.509 570C134.518 570 81.832 545.234 81.832 514.684C81.832 484.134 134.518 459.368 199.509 459.368C264.501 459.369 317.187 484.134 317.187 514.684Z" fill="#DBE2EA"/>
<path opacity="0.1" d="M439.441 462.017C439.441 479.037 380.689 492.835 308.215 492.835C235.741 492.835 176.989 479.037 176.989 462.017C176.989 444.997 235.741 431.199 308.215 431.199C380.689 431.199 439.441 444.997 439.441 462.017Z" fill="#DBE2EA"/>
<path d="M436.732 141.864C460.796 156.936 480.075 176.17 492.927 198.859C514.47 236.891 517.521 279.444 511.833 320.459C500.493 402.24 435.94 459.334 322.929 467.571C241.178 473.53 152.714 456.44 88.1003 417.409C55.8191 397.909 29.9481 372.797 15.0085 343.933C0.724444 316.335 -12.3668 270.472 20.7527 247.295C57.561 221.538 128.897 255.129 164.583 226.695C195.967 201.687 154.993 164.387 182.484 134.401C215.912 97.9398 299.258 100.32 349.519 109.408C382.434 115.359 412.092 126.43 436.732 141.864Z" fill="#EBF4F8"/>
<path d="M251.829 49.7396L241.348 34.0342L239.475 25.4701L241.036 18.4221L243.222 14.3631L245.652 10.304L248.283 6.55704L254.462 2.1859L259.771 0H264.142H274.134H279.128L284.056 1.87316L287.56 4.05906L290.216 7.80538L294.772 11.553L296.969 16.2362L300.986 19.9832L303.172 25.4701V31.2241V36.2194C303.172 36.2194 302.859 39.0302 300.674 42.7765L298.488 46.5241L296.969 49.7396V53.3932C292.542 56.375 284.056 59.6382 284.056 59.6382L251.829 49.7396Z" fill="#001E3B"/>
<path d="M200.965 541.413C200.965 541.413 203.038 544.571 202.89 547.24C202.743 549.908 200.822 553.763 197.869 556.284C194.914 558.804 184.891 562.224 180.755 561.63C176.62 561.038 174.881 555.209 174.881 555.209C174.881 555.209 176.599 542.644 176.894 543.089C177.19 543.533 200.965 541.413 200.965 541.413Z" fill="#023056"/>
<path d="M110.107 490.064C110.107 490.064 110.31 493.844 111.287 496.295C112.263 498.746 173.622 560.61 175.575 561.698C177.528 562.786 183.153 561.625 183.153 561.625L110.107 490.064Z" fill="#001E3B"/>
<path d="M200.969 541.413L129.705 479.589C129.705 479.589 113.926 481.632 110.107 490.063L174.885 555.207C174.885 555.208 187.734 541.157 200.969 541.413Z" fill="#064977"/>
<path d="M168.896 384.397C168.896 384.397 136.573 508.459 138.355 509.48C140.136 510.501 150.466 509.269 150.466 509.269L183.149 390.686L168.896 384.397Z" fill="#001E3B"/>
<path d="M141.52 432.861C132.554 465.809 145.695 498.114 170.87 505.018C196.047 511.921 223.725 490.808 232.692 457.86C241.659 424.912 228.518 392.608 203.341 385.704C178.165 378.8 150.486 399.914 141.52 432.861Z" fill="#165B93"/>
<path d="M148.591 430.655C139.625 463.603 152.766 495.907 177.942 502.811C203.119 509.714 230.796 488.601 239.763 455.654C248.729 422.706 235.589 390.4 210.413 383.497C185.236 376.593 157.557 397.707 148.591 430.655Z" fill="#496B8B"/>
<path d="M281.982 345.772C281.982 345.772 279.862 382.263 282.216 384.56C284.571 386.858 289.035 385.484 289.003 379.867C288.969 374.248 287.925 341.89 287.925 341.89L281.982 345.772Z" fill="#023056"/>
<path d="M282.109 349.564H299.043C300.689 349.564 302.036 348.217 302.036 346.571V344.72C302.036 343.074 300.689 341.727 299.043 341.727H282.109C280.463 341.727 279.116 343.074 279.116 344.72V346.571C279.116 348.217 280.463 349.564 282.109 349.564Z" fill="#023056"/>
<path d="M301.976 305.284C301.976 305.284 303.293 303.231 305.796 305.284C308.299 307.337 307.771 309.585 310.67 312.626C313.568 315.667 316.203 318.444 317.52 321.882C318.837 325.319 319.628 327.172 317.52 329.815C315.412 332.46 303.424 336.163 297.892 338.674C292.359 341.187 289.065 348.724 283.401 352.426C277.738 356.129 260.48 363.533 257.977 362.343C255.474 361.153 254.684 352.426 260.217 346.608C265.75 340.79 274.444 334.84 278.528 325.584C282.611 316.328 281.656 312.831 284.11 311.34C286.563 309.85 301.976 305.284 301.976 305.284Z" fill="#212121"/>
<path d="M275.692 199.411C275.692 199.411 269.445 201.65 256.952 210.159C244.458 218.669 239.55 222.252 236.426 225.836C233.303 229.418 236.567 237.48 239.397 243.078C242.227 248.676 277.031 295.248 280.823 303.873L284.616 312.498C284.616 312.498 287.962 311.378 291.532 313.842C295.101 316.305 298.894 320.112 302.911 316.977C306.925 313.842 306.257 310.707 306.257 310.707C306.257 310.707 298.449 301.301 295.548 295.703C292.648 290.105 290.863 273.086 285.286 264.129C279.708 255.171 272.973 246.438 272.973 246.438C272.973 246.438 285.286 242.631 292.648 241.288C300.01 239.944 306.299 236.137 306.299 236.137C306.299 236.137 312.28 211.728 303.133 207.25C293.986 202.77 275.692 199.411 275.692 199.411Z" fill="#955749"/>
<path d="M325.87 304.371L313.332 351.542L272.976 362.471L248.523 346.52L251.575 350.139L275.602 367.391L318.822 354.066L330.099 314.237L325.87 304.371Z" fill="#023056"/>
<path d="M213.461 316.179L249.06 346.986L277.672 364.746L317.044 352.952L331.08 306.895L328.496 376.838L258.848 384.396L235.157 364.557L208.4 334.515L213.461 316.179Z" fill="#001E3B"/>
<path d="M225.78 256.978L219.266 283.615L199.833 286.702L208.399 249.705L225.78 256.978Z" fill="#001E3B"/>
<path d="M182.856 236.696C182.856 236.696 161.892 223.138 157.812 224.268C153.731 225.398 130.093 233.307 131.501 235.425C132.908 237.544 167.097 258.562 169.63 258.786C172.163 259.01 174.273 258.786 174.273 258.786C174.273 258.786 173.121 262.964 176.3 262.399C179.479 261.835 183.7 256.978 183.7 256.978L177.369 244.323L182.856 236.696Z" fill="#001E3B"/>
<path d="M258.848 384.397C258.848 384.397 241.234 395.524 236.378 398.669C231.522 401.813 190.399 429.534 190.399 429.534C190.399 429.534 174.495 458.897 178.569 465.03C182.642 471.163 196.158 471.964 196.158 471.964L285.175 379.953L258.848 384.397Z" fill="#001E3B"/>
<path d="M327.139 381.291C327.139 381.291 324.377 370.819 313.483 369.279C302.588 367.739 289.411 377.442 269.763 389.608C250.114 401.776 238.145 411.787 227.098 419.949C216.051 428.112 200.554 434.427 194.569 441.819C188.585 449.211 185.363 463.535 191.961 469.695C198.559 475.856 215.744 471.697 230.473 463.535C245.204 455.372 263.473 447.232 276.045 442.897C288.616 438.561 307.499 437.2 317.165 423.723C326.832 410.246 327.138 380.521 327.138 380.521" fill="#023056"/>
<path d="M281.981 400.43C279.396 416.037 286.28 430.187 297.357 432.035C308.433 433.883 319.507 422.729 322.092 407.123C324.676 391.516 317.792 377.366 306.716 375.518C295.639 373.67 284.566 384.824 281.981 400.43Z" fill="#001E3B"/>
<path d="M284.005 400.43C281.421 416.037 288.305 430.187 299.381 432.035C310.457 433.883 321.531 422.729 324.116 407.123C326.701 391.516 319.817 377.366 308.74 375.518C297.664 373.67 286.59 384.824 284.005 400.43Z" fill="#023056"/>
<path d="M292.645 400.325C291.174 409.207 295.092 417.261 301.396 418.313C307.7 419.366 314.003 413.017 315.474 404.134C316.945 395.252 313.027 387.199 306.723 386.146C300.419 385.094 294.116 391.443 292.645 400.325Z" fill="#1E6EBB"/>
<path d="M299.747 459.369H316.681C318.327 459.369 319.674 458.022 319.674 456.376V454.524C319.674 452.878 318.328 451.532 316.681 451.532H299.747C298.101 451.532 296.754 452.879 296.754 454.524V456.376C296.754 458.022 298.1 459.369 299.747 459.369Z" fill="#064977"/>
<path d="M299.523 437.754C299.523 437.754 309.975 402.739 308.213 399.959C306.449 397.177 301.79 397.479 300.531 402.953C299.271 408.427 292.849 440.155 292.849 440.155L299.523 437.754Z" fill="#064977"/>
<path d="M369.64 462.017H379.364C381.395 462.017 383.058 463.686 383.058 465.725V470.274C383.058 472.314 381.395 473.983 379.364 473.983H369.64C367.608 473.983 365.945 472.314 365.945 470.274V465.725C365.945 463.686 367.608 462.017 369.64 462.017Z" fill="#001E3B"/>
<path d="M390.435 455.882C390.435 455.882 392.857 457.039 392.39 460.163C391.923 463.286 391.534 464.535 389.201 466.097C386.867 467.659 383.056 470.079 379.944 469.688C376.832 469.298 376.745 468.047 376.745 468.047L372.321 457.274L390.435 455.882Z" fill="#023056"/>
<path d="M335.036 427.309C336.325 427.955 390.439 455.882 390.439 455.882C390.439 455.882 383.191 456.246 379.649 460.287C376.106 464.329 376.75 468.047 376.75 468.047L323.923 441.696L335.036 427.309Z" fill="#023056"/>
<path d="M371.53 242.645H395.433C397.587 242.645 399.334 240.899 399.334 238.744V236.332C399.334 234.177 397.587 232.431 395.433 232.431H371.53C369.376 232.431 367.63 234.177 367.63 236.332V238.744C367.63 240.899 369.376 242.645 371.53 242.645Z" fill="#023056"/>
<path d="M335.278 413.585C335.278 413.585 338.971 412.15 339.091 415.617C339.209 419.086 339.448 425.065 340.162 431.522C340.877 437.98 341.831 444.078 339.567 445.514C337.304 446.95 325.509 455.081 308.591 455.798C291.673 456.516 285.121 452.45 283.333 450.058C281.546 447.667 280.951 444.318 284.406 441.089C287.861 437.861 295.367 437.023 301.443 431.283C307.519 425.543 314.19 416.344 314.787 413.29C315.383 410.235 317.649 407.389 319.494 407.676C321.338 407.964 334.563 407.605 335.278 413.585Z" fill="#212121"/>
<path d="M329.764 262.531C329.764 262.531 325.365 279.315 325.365 292.345C325.365 305.375 327.565 317.963 327.565 329.667C327.565 341.372 326.245 362.132 325.365 372.953C324.484 383.774 324.484 393.712 322.944 398.349C321.405 402.987 318.984 408.95 318.984 408.95C318.984 408.95 324.265 407.183 326.465 412.483C328.665 417.783 329.545 423.083 333.065 423.526C336.586 423.967 337.025 423.526 337.025 423.526C337.025 423.526 336.145 410.716 337.025 406.078C337.905 401.441 346.706 377.148 350.446 366.769C354.187 356.389 359.687 348.659 356.608 333.863C353.527 319.067 354.89 307.362 357.509 299.853C360.128 292.344 369.588 268.493 369.588 268.493L329.764 262.531Z" fill="#B47867"/>
<path d="M239.402 115.604C239.402 115.604 229.668 149.163 228.474 153.957C227.281 158.751 215.638 171.635 211.757 189.913C207.877 208.191 209.369 214.483 204.892 216.88C200.414 219.277 184.295 226.768 184.593 230.064C184.891 233.36 209.547 236.356 211.995 231.862C214.444 227.367 217.429 218.079 221.907 210.588C226.385 203.097 238.17 181.224 245.71 166.242C253.251 151.26 265.377 119.944 265.377 119.944L239.402 115.604Z" fill="#955749"/>
<path d="M397.883 178.814C397.883 178.814 401.149 203.513 397.883 216.845C394.617 230.178 380.245 248.319 378.068 255.75C375.89 263.182 372.623 272.143 372.623 272.143C372.623 272.143 344.97 281.978 326.896 263.182C326.896 263.182 328.167 230.615 325.79 230.178C323.412 229.74 302.727 244.166 302.509 243.51C302.291 242.855 305.557 224.276 292.492 215.315C279.427 206.354 272.362 200.05 273.015 198.739C273.668 197.428 308.17 183.404 308.17 183.404L397.883 178.814Z" fill="#212121"/>
<path d="M294.021 64.0546C294.021 64.0546 317.697 64.7284 332.424 74.7804C347.15 84.8331 376.33 131.174 387.375 148.979C398.42 166.785 401.432 181.23 398.085 183.246C394.738 185.262 385.701 195.34 366.289 202.059C346.877 208.778 312.07 191.981 309.057 188.285C306.045 184.59 264.878 123.783 262.87 124.791C260.862 125.799 248.626 128.823 234.997 118.072C234.997 118.072 239.441 95.8997 253.833 86.1571C268.225 76.4146 294.021 64.0546 294.021 64.0546Z" fill="#2CDA89"/>
<path d="M262.869 124.791C262.869 124.791 257.061 115.443 255.408 110.314L253.755 105.185C253.755 105.185 250.448 120.172 253.755 125.879C253.755 125.879 260.26 126.294 262.869 124.791Z" fill="#20B872"/>
<path d="M133.065 75.4354L126.087 78.2369L171.207 191.928L177.952 188.426L133.065 75.4354Z" fill="#064977"/>
<path d="M53.7578 88.7429L126.089 78.2378L133.067 75.4362L58.9007 85.2858L53.7578 88.7429Z" fill="#064977"/>
<path d="M171.21 191.927L89.8153 179.399L53.7578 88.7422L126.09 78.2371L171.21 191.927Z" fill="#023056"/>
<path d="M130.886 115.604C129.849 116.101 118.025 121.098 118.025 121.098L147.274 186.687L158.061 181.273L130.886 115.604Z" fill="#064977"/>
<path d="M70.7879 117.081L130.885 115.604L118.024 121.098L64.0898 122.555L70.7879 117.081Z" fill="#001E3B"/>
<path d="M147.273 186.687L89.8127 179.399L64.0898 122.555L118.024 121.098L147.273 186.687Z" fill="#023056"/>
<path d="M94.5545 146.956C87.4888 152.178 83.986 161.136 82.8611 169.616C81.6369 178.833 82.6887 189.104 88.1613 196.866C93.5914 204.568 102.688 208.835 110.852 212.935C121.02 218.041 131.081 223.354 141.007 228.921C152.274 235.242 163.365 241.874 174.281 248.786C178.98 251.761 174.642 259.281 169.913 256.287C148.839 242.943 127.088 230.844 104.836 219.606C95.4777 214.88 86.0244 209.497 80.162 200.465C74.1802 191.249 72.9279 179.452 74.3205 168.754C75.8209 157.227 80.702 146.467 90.1872 139.456C92.0826 138.055 94.9965 139.153 96.1064 141.014C97.4141 143.205 96.4257 145.572 94.5545 146.956Z" fill="#064977"/>
<path d="M198.605 452.269C197.483 459.048 200.472 465.194 205.284 465.996C210.095 466.798 214.905 461.955 216.028 455.176C217.15 448.397 214.16 442.25 209.349 441.448C204.538 440.645 199.728 445.49 198.605 452.269Z" fill="#023056"/>
<path d="M206.341 466.663C208.479 466.663 210.611 465.685 212.445 463.837C214.559 461.709 216.032 458.667 216.594 455.27C217.767 448.187 214.559 441.73 209.441 440.876C204.322 440.017 199.206 445.09 198.034 452.173C197.472 455.569 197.886 458.928 199.199 461.627C200.544 464.392 202.671 466.147 205.186 466.566C205.57 466.631 205.956 466.663 206.341 466.663ZM208.295 441.939C208.613 441.939 208.933 441.965 209.252 442.018C213.741 442.767 216.524 448.627 215.456 455.08C214.933 458.241 213.573 461.06 211.627 463.02C209.734 464.927 207.513 465.781 205.376 465.425C203.238 465.068 201.413 463.539 200.235 461.12C199.026 458.633 198.649 455.524 199.172 452.363C200.165 446.369 204.136 441.939 208.295 441.939Z" fill="#606060"/>
<path d="M302.785 402.587C302.502 404.295 303.255 405.843 304.467 406.045C305.679 406.248 306.891 405.027 307.174 403.319C307.457 401.612 306.703 400.063 305.493 399.861C304.28 399.659 303.067 400.88 302.785 402.587Z" fill="white"/>
<path d="M192.154 229.999C198.785 235.716 205.743 241.192 213.156 245.859C220.355 250.391 228.815 254.147 237.515 252.842C240.506 252.394 246.988 250.442 245.467 246.111C244.858 244.377 242.715 243.275 241.264 242.362C239.457 241.225 237.601 240.172 235.722 239.161C228.129 235.072 219.237 229.563 210.278 231.558C206.66 232.363 205.115 226.781 208.743 225.974C217.591 224.005 225.663 227.521 233.423 231.456C237.385 233.465 241.351 235.503 245.074 237.937C248 239.849 250.793 242.145 251.31 245.819C252.51 254.356 243.27 258.181 236.374 258.774C227.94 259.499 219.624 256.395 212.448 252.197C203.754 247.112 195.694 240.662 188.076 234.094C185.254 231.661 189.35 227.581 192.154 229.999Z" fill="#023056"/>
<path d="M169.848 242.144C173.5 236.75 188.07 234.093 188.07 234.093L209.843 250.31C208.979 256.341 201.754 265.287 197.333 266.445C192.913 267.602 178.114 256.412 173.885 252.554C169.657 248.696 166.197 247.538 169.848 242.144ZM181.641 244.33L199.915 255.464C200.055 255.55 200.21 255.59 200.363 255.59C200.656 255.59 200.941 255.441 201.104 255.172C201.351 254.762 201.221 254.228 200.813 253.979L182.538 242.846C182.129 242.598 181.598 242.728 181.35 243.138C181.102 243.548 181.232 244.082 181.641 244.33Z" fill="#023056"/>
<path d="M219.783 281.508C219.783 281.508 224.317 282.386 223.412 283.946C222.505 285.505 220.951 290.704 220.304 293.172C219.657 295.642 208.4 335.881 208.4 335.881L207.263 342.781L182.006 346.062C182.006 346.062 195.34 286.835 196.633 285.825C197.925 284.816 203.816 283.806 203.816 283.806L219.783 281.508Z" fill="#496B8B"/>
<path d="M194.395 307.78C188.502 306.645 182.609 305.509 176.716 304.374C174.895 304.023 175.666 301.232 177.483 301.582C183.376 302.717 189.269 303.853 195.162 304.989C196.983 305.339 196.212 308.13 194.395 307.78Z" fill="#023056"/>
<path d="M167.622 300.508L177.995 299.543C179.267 299.424 180.405 300.373 180.524 301.65L180.57 302.154C180.688 303.432 179.743 304.573 178.47 304.692L168.098 305.658C166.825 305.777 165.688 304.828 165.569 303.55L165.523 303.046C165.405 301.769 166.35 300.627 167.622 300.508Z" fill="#023056"/>
<path d="M208.401 346.063C208.401 346.063 205.688 340.39 200.519 339.682C195.349 338.974 195.553 342.479 190.65 344.028C185.745 345.578 182.006 346.063 182.006 346.063C182.006 346.063 174.905 410.441 169.266 434.264C163.626 458.086 150.467 509.269 150.467 509.269C150.467 509.269 148.205 516.461 148.692 517.926C149.178 519.391 159.233 520.531 164.423 517.926C169.613 515.322 171.072 513.368 171.072 513.368L182.101 465.996L194.51 411.473C194.51 411.473 213.567 373.009 211.105 360.874C208.642 348.74 208.401 346.063 208.401 346.063Z" fill="#023056"/>
<path d="M290.413 49.9972L296.974 69.6063C296.974 69.6063 289.59 84.1072 279.958 87.4911L271.146 70.7339C271.146 70.7339 285.776 48.9174 290.413 49.9972Z" fill="#B47867"/>
<path d="M290.412 49.9967L292.546 56.3748C292.546 56.3748 289.927 69.8147 283.278 74.2322C276.627 78.6491 275.195 78.4343 275.195 78.4343L271.146 70.7333L290.412 49.9967Z" fill="#875044"/>
<path d="M285.73 41.2635C285.717 36.7467 290.933 32.8685 294.036 37.8429C297.14 42.8167 289.396 51.1934 289.396 51.1934C289.396 51.1934 288.836 62.5335 280.916 68.343C272.996 74.1518 261.001 74.9053 257.221 66.3399C254.764 60.772 252.051 50.7925 250.452 44.4881C249.561 40.9703 248.855 37.4074 248.33 33.8165C247.927 31.0587 250.11 28.6077 252.895 28.69C256.107 28.786 260.022 28.5424 262.467 27.1243C267.196 24.3835 275.596 24.5043 276.95 31.6868C276.95 31.6868 278.084 37.13 280.044 37.7835C282.003 38.4364 285.73 41.2635 285.73 41.2635Z" fill="#B47867"/>
<path d="M203.649 348.537C203.649 348.537 201.248 334.41 212.906 335.881C224.562 337.353 233.752 351.634 235.157 357.14C236.562 362.647 233.477 379.853 231.077 383.295C228.677 386.736 218.049 389.489 215.134 394.479C212.22 399.469 210.334 406.524 206.563 411.342C202.792 416.16 195.592 420.806 193.878 420.806C192.163 420.806 195.078 408.933 197.135 399.125C199.192 389.318 204.335 373.315 204.335 365.572C204.335 357.828 203.649 348.537 203.649 348.537Z" fill="#064977"/>
<path d="M179.304 387.252C179.304 387.252 183.075 363.679 183.762 354.731C184.447 345.784 185.304 343.719 183.762 344.063C182.219 344.407 173.133 361.062 171.076 365.64C169.019 370.217 163.876 383.434 165.419 384.397C166.963 385.36 168.333 382.951 171.247 387.252C174.162 391.554 177.59 393.275 178.276 391.726C178.962 390.176 179.304 387.252 179.304 387.252Z" fill="#064977"/>
<path d="M297.035 434.098C306.529 436.093 315.603 445.061 315.617 455.151C315.619 457.014 312.735 457.017 312.732 455.151C312.719 446.303 304.503 438.62 296.268 436.89C294.453 436.509 295.221 433.717 297.035 434.098Z" fill="#064977"/>
<path d="M281.981 354.041C277.655 349.97 270.581 342.559 263.956 344.684C262.184 345.253 261.425 342.458 263.189 341.893C271.038 339.375 278.856 347.134 284.02 351.994C285.378 353.272 283.335 355.315 281.981 354.041Z" fill="#023056"/>
<path d="M296.47 125.931C296.47 125.931 280.696 169.491 272.976 180.388C265.256 191.286 233.17 223.449 229.661 224.202C226.151 224.956 216.325 232.224 216.325 237.538C216.325 242.853 218.08 249.494 227.555 249.156C237.03 248.818 239.837 233.377 246.154 229.868C252.47 226.359 289.611 202.328 301.314 189.554C313.017 176.778 322.568 140.844 322.568 140.844C322.568 140.844 302.128 135.01 296.47 125.931Z" fill="#B47867"/>
<path d="M333.166 139.522C333.166 139.522 347.891 82.0238 323.027 79.7478C298.164 77.4712 290.215 125.883 290.215 125.883C290.215 125.883 303.827 147.748 333.166 139.522Z" fill="#20B872"/>
</svg>
