<svg width="40" height="40" viewBox="0 0 40 40" fill="none" xmlns="http://www.w3.org/2000/svg">
<path fill-rule="evenodd" clip-rule="evenodd" d="M3 0C1.34314 0 0 1.34326 0 3V20C0 21.6567 1.34314 23 3 23H27C28.6569 23 30 21.6567 30 20V3C30 1.34326 28.6569 0 27 0H3ZM10.75 9.5H10V11H10.75H17.25H18V9.5H17.25H10.75ZM8.42465 8.30347L5.24268 11.4854L4.18202 10.4248L7.364 7.24268L4.18202 4.06079L5.24268 3L8.42465 6.18213L9.48532 7.24268L8.42465 8.30347Z" fill="#0082FF"/>
<path fill-rule="evenodd" clip-rule="evenodd" d="M28.4445 14.3337C29 14.5559 29.5556 14.7781 30.111 15.0003L32.7776 13.0004C33.3332 12.6671 33.9999 12.7782 34.333 13.1116L36.7774 15.5559C37.2219 16.0004 37.2219 16.6671 36.8885 17.1114L34.9997 19.8891C35.2219 20.4447 35.4442 21.0003 35.6664 21.5556L38.9997 22.1112C39.5553 22.1112 39.9998 22.6668 39.9998 23.2224V26.6668C39.9998 27.2224 39.5553 27.778 38.9997 27.8891L35.6664 28.4447C35.4442 29.0003 35.2219 29.5558 34.9997 30.1112L36.9996 32.7778C37.333 33.3334 37.2218 34.0001 36.8885 34.3332L34.4441 36.7776C33.9996 37.2221 33.333 37.2221 32.8887 36.8887L30.1109 34.9999C29.5554 35.2222 28.9998 35.4444 28.4444 35.6666L27.8888 38.9999C27.7777 39.5555 27.2221 40 26.6666 40H23.2221C22.6665 40 22.111 39.5555 22.111 38.9999L21.5554 35.6666C20.9998 35.4444 20.4442 35.2221 19.8888 34.9999L17.1111 36.8887C16.6666 37.2221 15.9999 37.2221 15.5557 36.7776L13.1113 34.3332C12.7779 33.9999 12.6668 33.3332 13.0002 32.8887L15.0001 30.1109C14.6667 29.5554 14.4445 28.9998 14.3334 28.4444L11.0001 27.8888C10.4445 27.7777 10 27.2221 10 26.6666V23.2221C10 22.6665 10.4445 22.111 11.0001 22.111L14.3334 21.5554C14.4445 20.8887 14.6667 20.4442 15.0001 19.8888L13.0002 17.1111C12.6668 16.6666 12.7779 15.9999 13.2224 15.5557L15.6668 13.1113C16.0001 12.7779 16.6668 12.6668 17.1113 13.0002L19.8891 15.0001C20.4447 14.7778 21.0002 14.5556 21.5556 14.3334L22.1112 11.0001C22.1112 10.4445 22.6668 10 23.2223 10H26.6668C27.2224 10 27.7779 10.4445 27.8891 11.0001L28.4446 14.3334L28.4445 14.3337ZM25 18.667C21.5556 18.667 18.6669 21.5559 18.6669 25.0002C18.6669 28.4445 21.5558 31.3333 25 31.3333C28.4443 31.3333 31.3332 28.4445 31.3332 25.0002C31.3332 21.5559 28.4443 18.667 25 18.667V18.667Z" fill="#2CDA89"/>
</svg>
