<svg width="78" height="84" viewBox="0 0 78 84" fill="none" xmlns="http://www.w3.org/2000/svg">
<path opacity="0.1" d="M29.0586 4.6316C14.1743 8.79258 6.8791 21.0036 5.4504 23.5182C4.64779 24.9308 -4.7229 42.0586 3.08963 59.4027C11.7205 78.564 37.316 89.0924 55.9721 80.1781C70.9745 73.0096 80.6517 53.6685 75.8031 43.3492C72.0844 35.4348 60.6307 34.5497 60.2216 27.2956C59.8987 21.5701 66.8941 19.6426 66.3597 15.0193C65.501 7.5918 45.9809 -0.0990782 29.0586 4.6316Z" fill="#EBF4F8"/>
<path d="M57.8505 42.584C57.8505 42.584 54.9084 43.5184 54.8452 44.1789L58.7748 44.3518L57.8505 42.584Z" fill="#001E3B"/>
<path d="M48.096 22.4736C48.096 22.4736 51.5503 24.7746 53.2448 26.404C54.9393 28.0334 61.7827 34.6812 64.3898 36.3758C66.9967 38.0704 71.3635 41.0033 69.9297 43.6755C68.4959 46.3477 59.1105 47.5208 57.9374 47.6512C56.7643 47.7815 53.1796 50.0228 51.4851 52.1934C49.7905 54.3641 49.052 47.0646 50.9203 45.6307C52.7885 44.1968 57.6767 43.7406 58.2633 43.6102C58.8498 43.4799 62.3042 41.3942 62.3042 41.3942C62.3042 41.3942 54.4831 36.1151 53.1145 35.2026C51.7458 34.2902 50.0165 33.7037 50.0165 33.7037L45.489 29.7279C45.4889 29.7279 47.3444 21.9606 48.096 22.4736Z" fill="#BC7768"/>
<path d="M47.9984 52.1934C46.6297 50.4863 32.0631 51.5616 32.0631 51.5616C32.0631 51.5616 29.1302 52.252 28.5436 54.2531C27.957 56.2543 24.7798 63.8798 23.7044 67.5948C23.0036 70.0155 22.49 74.5223 22.6496 78.934C27.8286 81.4694 33.4751 83.0062 39.1059 83.3256L39.7864 78.8374L40.1142 83.3696C44.2343 83.4965 48.3301 82.9632 52.2126 81.6853C51.7162 78.8275 51.2014 75.0087 51.4201 72.385C51.8111 67.6925 49.3671 53.9006 47.9984 52.1934Z" fill="#2CDA89"/>
<path d="M43.501 71.8962C42.8166 73.8514 39.7859 78.8373 39.7859 78.8373L40.1137 83.3694C40.341 83.3763 40.5684 83.3807 40.7956 83.3838L43.501 71.8962Z" fill="#20B872"/>
<path d="M31.0853 45.9402L30.4011 52.5935C30.4011 52.5935 43.8924 55.8631 47.9984 53.2234L47.5096 47.1621L31.0853 45.9402Z" fill="#9E6157"/>
<path d="M38.8131 1.24908C38.8131 1.24908 32.1607 -2.01237 29.13 3.4624C26.0993 8.93707 25.1217 18.5178 22.7755 21.5484C20.4292 24.5791 15.541 28.294 15.541 28.294C15.541 28.294 29.0323 38.2659 34.507 35.724C39.9817 33.1822 40.4705 5.31979 40.4705 5.31979L38.8131 1.24908Z" fill="#001323"/>
<path d="M35.3871 18.6481C35.3871 18.6481 30.0427 20.4049 28.5436 20.8625C27.0446 21.3203 26.5884 21.9068 26.5884 21.9068C26.5884 21.9068 30.8248 26.795 30.9877 29.4019C31.1506 32.009 29.2606 34.6812 28.6088 35.724C27.9571 36.7667 28.0874 37.7444 28.0874 37.7444C28.0874 37.7444 30.3685 44.5227 30.4989 47.1295C30.4989 47.1295 39.1671 47.9769 43.7947 48.042C48.4221 48.1072 48.2285 48.042 48.2285 48.042C48.2285 48.042 47.7051 44.6529 47.9658 43.4797C48.2265 42.3067 50.6505 41.4319 50.9112 37.5212C51.1719 33.6108 49.2693 30.7054 48.2918 28.2287C47.8272 27.0517 48.0963 22.4733 48.0963 22.4733C48.0963 22.4733 42.0784 21.3038 41.1927 20.8624C40.3071 20.4212 35.3871 18.6481 35.3871 18.6481Z" fill="#2CDA89"/>
<path d="M26.5883 21.9069C26.5883 21.9069 24.1116 23.2755 22.743 25.8174C21.3743 28.3593 18.3111 49.6715 19.5494 51.8223C20.7876 53.9731 41.9045 46.0869 42.7518 45.761C43.599 45.4351 46.4015 44.7181 46.8578 45.044C47.314 45.3699 49.5951 46.2172 50.5076 44.653C51.4201 43.0887 50.5076 41.8504 50.5076 41.8504L55.0698 43.0236C55.0698 43.0236 56.2204 42.7342 53.2449 41.329C50.2694 39.9239 48.0308 39.6345 47.314 39.8952C46.597 40.1559 42.6213 42.1111 41.1224 42.437C39.6233 42.7629 27.1097 45.3047 26.5883 45.044C26.0669 44.7834 28.0873 37.7445 28.0873 37.7445C28.0873 37.7445 30.9455 33.3806 30.9828 30.1204C31.0202 26.8601 27.7614 21.7113 26.5883 21.9069Z" fill="#BC7768"/>
<path d="M62.3042 41.3943C62.3042 41.3943 64.0312 39.7324 64.6668 39.4391C64.6668 39.4391 61.5901 40.0256 60.8555 40.4167L62.3042 41.3943Z" fill="#9E6157"/>
<path d="M26.5883 45.044C26.5883 45.044 23.8998 45.1581 22.7756 45.9402C22.7756 45.9402 25.4833 43.51 26.7201 43.1609C26.72 43.1608 26.4417 44.5389 26.5883 45.044Z" fill="#9E6157"/>
<path d="M57.8504 42.5839C57.9825 42.5535 59.661 43.7727 60.2401 44.8395C60.8192 45.9062 58.4498 48.5275 57.8504 48.4056C57.2509 48.2836 57.2814 47.735 57.5556 47.4303C57.8301 47.1256 58.3876 45.9977 58.3876 45.2357C58.3876 44.2603 56.3951 44.1251 56.4458 43.8842C56.4964 43.6433 57.8504 42.5839 57.8504 42.5839Z" fill="#1E6EBB"/>
<path d="M49.666 10.5681C49.666 10.5681 51.8762 9.91467 51.811 7.89424C51.7457 5.8738 48.5006 -0.252661 42.5302 0.00807426C36.5601 0.268713 32.3888 8.54603 33.6922 11.2182C34.9957 13.8904 37.0143 16.8929 37.0143 16.8929L49.666 10.5681Z" fill="#001E3B"/>
<path d="M36.4299 12.1958C36.4299 12.1958 36.104 16.6277 35.7131 17.8009C35.3219 18.9741 35.0444 19.5606 35.0444 19.5606C35.0444 19.5606 39.0044 23.357 41.0083 22.2817L41.4972 18.5178L39.2975 13.0431L36.4299 12.1958Z" fill="#BC7768"/>
<path d="M37.3911 13.7762C37.3911 13.7762 36.5112 16.9047 37.3911 18.2244C38.271 19.5443 41.1926 20.8626 41.1926 20.8626L41.4971 18.5178L38.451 14.2162L37.3911 13.7762Z" fill="#9E6157"/>
<path d="M50.0025 9.37702C50.0025 9.37702 48.6337 14.5095 47.3629 16.7581C46.0919 19.0066 44.039 20.473 41.6437 19.691C39.2485 18.9089 37.8311 17.1002 37.6354 16.0738C37.4399 15.0473 37.391 13.7763 37.391 13.7763C37.391 13.7763 35.3869 13.1898 35.0936 11.3812C34.8003 9.5725 35.8757 9.08376 36.6578 9.37702C37.4399 9.67029 37.4399 11.0878 37.4399 11.0878C37.4399 11.0878 38.0753 11.3812 38.9552 10.1591C39.8351 8.93707 42.2303 9.13255 44.8699 8.30165C47.5095 7.47064 47.9494 7.07959 47.9494 7.07959C47.9494 7.07959 50.2151 8.61378 50.0025 9.37702Z" fill="#BC7768"/>
<path d="M25.033 75.268C25.2035 71.1135 26.028 66.9893 27.4709 63.0894C28.2839 60.8918 29.3015 58.7723 30.5044 56.7616C30.7194 56.4022 30.1584 56.0753 29.9439 56.4339C27.7684 60.0705 26.2031 64.0679 25.2961 68.2062C24.4663 71.9916 24.1759 75.8984 24.454 79.7644C24.6776 79.862 24.9018 79.9571 25.1268 80.051C24.9991 78.4613 24.9676 76.8635 25.033 75.268Z" fill="white"/>
<path d="M27.3251 77.221C27.2156 73.1005 27.8404 68.9684 29.1818 65.0701C29.9397 62.8677 30.9323 60.7509 32.1421 58.7606C32.3597 58.4027 31.7985 58.0761 31.5816 58.433C29.3878 62.0417 27.9075 66.0734 27.1879 70.2325C26.586 73.711 26.5047 77.2717 26.9544 80.7705C27.1816 80.8538 27.4093 80.9358 27.6377 81.0153C27.4633 79.7573 27.3588 78.4896 27.3251 77.221Z" fill="white"/>
</svg>
